<!-- Generated by IcoMoon.io -->
<svg version="1.1" xmlns="http://www.w3.org/2000/svg" width="25" height="32" viewBox="0 0 25 32">
<path d="M26.56 14.976q-0.64 1.312-1.424 1.936t-2.064 0.72q-0.992 0-3.744-0.576-0.032 2.624-1.232 4.64t-3.312 3.12-4.864 1.104q-2.56 0-4.448-1.056t-2.896-2.992-1.008-4.528q0-2.272 0.8-4.032t2.176-2.736 3.040-0.976q1.6 0 2.544 0.768t0.944 1.984q0 0.736-0.288 1.344 3.136-2.24 5.552-5.040t3.76-5.808h0.192q0.48 0.544 0.672 1.216-1.376 3.008-4.128 5.984t-6.32 5.36-7.312 3.696q0.512 2.56 2.272 4.032t4.512 1.472q2.4 0 4.24-0.976t2.832-2.752 0.96-4.080q-1.504-0.32-2.208-0.32-1.92 0-2.848 2.208l-0.224 0.064-0.48-0.896q0.64-1.312 1.44-1.936t2.080-0.72q0.672 0 1.888 0.24t1.568 0.304q2.688 0.608 3.776 0.608 2.016 0 2.848-2.208l0.224-0.064zM5.248 11.616q-1.024 0.8-1.616 2.24t-0.592 3.328q0 0.448 0.032 0.64 2.688-0.96 5.472-2.624 1.312-1.056 1.312-2.464 0-0.896-0.608-1.408t-1.664-0.512q-1.312 0-2.336 0.8z"></path>
</svg>
