<?xml version="1.0" encoding="utf-8"?>
<!-- Generator: Adobe Illustrator 23.0.1, SVG Export Plug-In . SVG Version: 6.00 Build 0)  -->
<svg
    version="1.1"
    xmlns="http://www.w3.org/2000/svg"
    xmlns:xlink="http://www.w3.org/1999/xlink"
    x="0px"
    y="0px"
    width="25"
    height="32"
    viewBox="0 0 25 32"
    style="enable-background:new 0 0 25 32;"
    xml:space="preserve"
  >
    <style type="text/css">
      .st0 {
        fill: none;
        stroke: #ffffff;
        stroke-width: 2;
        stroke-miterlimit: 10;
      }
    </style>
    <g id="ampersand">
      <path
        fill="currentColor"
        mask="url(#reveal)"
        d="M26.6,15c-0.4,0.9-0.9,1.5-1.4,1.9s-1.2,0.7-2.1,0.7c-0.7,0-1.9-0.2-3.7-0.6c0,1.7-0.4,3.3-1.2,4.6s-1.9,2.4-3.3,3.1
		c-1.4,0.7-3,1.1-4.9,1.1c-1.7,0-3.2-0.4-4.4-1.1s-2.2-1.7-2.9-3s-1-2.8-1-4.5c0-1.5,0.3-2.9,0.8-4s1.3-2.1,2.2-2.7s1.9-1,3-1
		c1.1,0,1.9,0.3,2.5,0.8c0.6,0.5,0.9,1.2,0.9,2c0,0.5-0.1,0.9-0.3,1.3c2.1-1.5,3.9-3.2,5.6-5c1.6-1.9,2.9-3.8,3.8-5.8h0.2
		c0.3,0.4,0.5,0.8,0.7,1.2c-0.9,2-2.3,4-4.1,6s-3.9,3.8-6.3,5.4c-2.4,1.6-4.8,2.8-7.3,3.7c0.3,1.7,1.1,3.1,2.3,4
		c1.2,1,2.7,1.5,4.5,1.5c1.6,0,3-0.3,4.2-1s2.2-1.6,2.8-2.8c0.7-1.2,1-2.5,1-4.1c-1-0.2-1.7-0.3-2.2-0.3c-1.3,0-2.2,0.7-2.8,2.2
		l-0.2,0.1l-0.5-0.9c0.4-0.9,0.9-1.5,1.4-1.9c0.5-0.4,1.2-0.7,2.1-0.7c0.4,0,1.1,0.1,1.9,0.2s1.3,0.3,1.6,0.3
		c1.8,0.4,3.1,0.6,3.8,0.6c1.3,0,2.3-0.7,2.8-2.2l0.2-0.1L26.6,15z M5.2,11.6c-0.7,0.5-1.2,1.3-1.6,2.2S3,15.9,3,17.2
		c0,0.3,0,0.5,0,0.6c1.8-0.6,3.6-1.5,5.5-2.6c0.9-0.7,1.3-1.5,1.3-2.5c0-0.6-0.2-1.1-0.6-1.4s-1-0.5-1.7-0.5
		C6.7,10.8,5.9,11.1,5.2,11.6z"
      ></path>
    </g>

    <!-- Mask definition -->
    <mask id="reveal">
      <!-- Black background hides everything -->
      <rect width="100%" height="100%" fill="black"></rect>
      <!-- White stroke reveals the ampersand -->
      <g id="trace1">
        <path
          class="st0"
          d="M3,18.6c0,0,11-4,6.5-7.8c-2.9-2.4-6.5,1.9-7,3.9c-2.9,11.6,14.1,15.8,16.3,1.9"
        ></path>
      </g>
      <g id="trace2">
        <path class="st0" d="M2.4,18.8c0,0,11.8-3.8,18.6-16"></path>
      </g>
      <g id="trace3">
        <path
          class="st0"
          d="M12.3,18.8c0,0,0.4-1.9,2.2-2.8c2.5-1.3,7.1,1.7,9.3,0.9c2.2-0.8,2.5-3,2.5-3"
        ></path>
      </g>
    </mask>
  </svg>