<?xml version="1.0" encoding="utf-8"?>
<!-- Generated by IcoMoon.io -->
<!DOCTYPE svg PUBLIC "-//W3C//DTD SVG 1.1//EN" "http://www.w3.org/Graphics/SVG/1.1/DTD/svg11.dtd">
<svg version="1.1" xmlns="http://www.w3.org/2000/svg" xmlns:xlink="http://www.w3.org/1999/xlink" width="32" height="32" viewBox="0 0 32 32">
<path d="M15.125 5.043c-0.003 0.006-0.192 0.018-0.414 0.030s-0.459 0.027-0.525 0.033c-0.066 0.006-0.213 0.018-0.33 0.030-0.39 0.033-0.48 0.042-0.599 0.063-0.066 0.009-0.153 0.021-0.195 0.027s-0.135 0.021-0.21 0.033c-0.075 0.012-0.156 0.024-0.18 0.027-0.051 0.006-0.291 0.048-0.36 0.063-0.842 0.177-1.609 0.387-1.909 0.524-0.072 0.030-0.138 0.057-0.153 0.057-0.042 0-0.516 0.207-0.815 0.36-0.495 0.249-1.007 0.578-1.409 0.911-0.393 0.327-1.046 1.055-1.211 1.352-0.027 0.048-0.078 0.138-0.111 0.195-0.423 0.707-0.857 1.855-1.136 3.018-0.036 0.153-0.075 0.279-0.087 0.282-0.009 0-0.569 0.006-1.247 0.009-1.268 0.006-1.298 0.009-1.418 0.129-0.021 0.021-0.054 0.084-0.069 0.135-0.015 0.060-0.027 1.705-0.027 4.064 0 4.313-0.009 4.1 0.168 4.217 0.081 0.057 0.153 0.060 1.121 0.069 0.569 0.003 1.049 0.012 1.064 0.018 0.018 0.006 0.033 0.051 0.039 0.096 0.006 0.072 0.078 0.501 0.141 0.833 0.087 0.444 0.204 0.833 0.291 0.956 0.144 0.204 0.456 0.423 0.911 0.641 0.165 0.078 0.303 0.144 0.309 0.15 0.006 0.003 0.015 0.74 0.015 1.633 0.003 1.81 0 1.765 0.207 1.87 0.090 0.048 0.737 0.051 9.042 0.051 8.317 0 8.952-0.003 9.042-0.051 0.213-0.108 0.201-0.027 0.219-1.879l0.015-1.669 0.351-0.18c0.65-0.333 0.845-0.518 0.971-0.929 0.114-0.375 0.243-0.905 0.3-1.235 0.027-0.156 0.051-0.288 0.054-0.291s0.45-0.009 0.995-0.012c1.133-0.003 1.169-0.009 1.268-0.216 0.057-0.123 0.057-0.21 0.057-4.103 0-4.388 0.012-4.088-0.183-4.232-0.084-0.060-0.123-0.063-1.274-0.069-0.653-0.003-1.211-0.006-1.238-0.006-0.033-0.003-0.069-0.093-0.132-0.342-0.186-0.749-0.548-1.747-0.884-2.431-0.159-0.327-0.488-0.908-0.536-0.947-0.009-0.009-0.096-0.117-0.189-0.24-0.183-0.243-0.689-0.755-0.953-0.968-0.599-0.48-1.274-0.86-2.098-1.19-0.366-0.147-1.19-0.399-1.502-0.462-0.039-0.006-0.237-0.048-0.438-0.090-0.198-0.042-0.408-0.084-0.465-0.090-0.054-0.009-0.141-0.021-0.192-0.030-0.111-0.021-0.213-0.033-0.686-0.090-0.324-0.039-0.572-0.063-1.019-0.096-0.195-0.015-2.374-0.042-2.389-0.030zM17.124 5.975c0.791 0.036 1.010 0.057 1.696 0.153 0.399 0.054 0.593 0.087 0.746 0.117 0.042 0.009 0.117 0.024 0.165 0.033 0.426 0.075 1.52 0.402 1.867 0.554 0.662 0.294 1.163 0.575 1.601 0.905 0.279 0.21 0.728 0.641 0.944 0.908 0.303 0.372 0.638 0.941 0.878 1.481 0.054 0.123 0.126 0.285 0.156 0.36 0.177 0.399 0.578 1.783 0.701 2.413 0.012 0.066 0.024 0.126 0.027 0.135 0 0.009 0.012 0.078 0.024 0.153 0.027 0.156 0.036 0.219 0.096 0.552 0.024 0.132 0.048 0.3 0.057 0.375 0.012 0.075 0.024 0.162 0.030 0.195 0.030 0.156 0.084 0.647 0.123 1.154 0.009 0.123 0.024 0.306 0.033 0.405 0.018 0.234 0.018 1.813 0 2.008-0.006 0.081-0.021 0.285-0.033 0.45-0.009 0.165-0.024 0.333-0.030 0.375s-0.018 0.162-0.030 0.27c-0.012 0.108-0.024 0.228-0.030 0.27s-0.018 0.156-0.030 0.255c-0.012 0.099-0.027 0.207-0.033 0.24-0.009 0.033-0.021 0.108-0.030 0.165s-0.036 0.225-0.063 0.375c-0.024 0.147-0.051 0.309-0.060 0.36-0.039 0.249-0.288 1.262-0.327 1.34-0.228 0.438-1.277 0.893-3.078 1.328-0.45 0.108-1.31 0.297-1.639 0.363-0.042 0.006-0.108 0.021-0.15 0.027-0.042 0.009-0.231 0.042-0.42 0.075s-0.378 0.066-0.42 0.075c-0.042 0.009-0.129 0.024-0.195 0.030-0.066 0.009-0.195 0.030-0.285 0.045s-0.231 0.036-0.315 0.045c-0.081 0.009-0.189 0.024-0.24 0.030-0.357 0.051-1.034 0.117-1.588 0.156-0.429 0.030-2.164 0.030-2.548-0.003-0.165-0.012-0.36-0.027-0.435-0.033-0.186-0.012-0.539-0.048-0.629-0.060-0.042-0.006-0.156-0.021-0.255-0.030-0.099-0.012-0.213-0.024-0.255-0.030-0.042-0.009-0.141-0.021-0.225-0.030-0.081-0.009-0.171-0.024-0.195-0.030s-0.12-0.021-0.21-0.030c-0.090-0.009-0.186-0.024-0.21-0.030s-0.105-0.021-0.18-0.030c-0.135-0.018-0.575-0.096-0.839-0.15-0.042-0.006-0.114-0.021-0.165-0.030-0.048-0.006-0.312-0.063-0.584-0.123-0.273-0.057-0.527-0.114-0.569-0.12-0.042-0.009-0.291-0.069-0.554-0.135-1.43-0.357-2.263-0.668-2.736-1.022-0.267-0.198-0.303-0.282-0.471-1.088-0.027-0.132-0.057-0.282-0.063-0.33-0.009-0.051-0.021-0.12-0.030-0.159-0.018-0.087-0.102-0.566-0.114-0.665-0.063-0.453-0.108-0.827-0.123-0.974-0.009-0.099-0.024-0.228-0.030-0.285s-0.021-0.24-0.033-0.405c-0.009-0.165-0.024-0.369-0.030-0.45-0.015-0.231-0.015-1.747 0-1.948 0.009-0.099 0.024-0.294 0.033-0.435 0.024-0.369 0.045-0.632 0.060-0.719 0.009-0.042 0.021-0.15 0.030-0.24s0.024-0.198 0.030-0.24c0.006-0.042 0.018-0.129 0.030-0.195 0.009-0.069 0.021-0.15 0.027-0.183 0.006-0.036 0.021-0.135 0.033-0.225s0.030-0.216 0.045-0.282c0.015-0.066 0.033-0.168 0.045-0.225 0.009-0.057 0.024-0.138 0.030-0.18 0.009-0.042 0.024-0.108 0.030-0.15 0.009-0.042 0.024-0.12 0.033-0.177 0.027-0.162 0.216-0.923 0.3-1.202 0.258-0.866 0.539-1.546 0.905-2.194 0.291-0.509 0.779-1.061 1.31-1.478 1.037-0.809 2.338-1.331 4.103-1.645 0.282-0.051 0.866-0.126 1.217-0.156 0.123-0.009 0.273-0.024 0.33-0.030 0.057-0.003 0.336-0.018 0.614-0.030 0.282-0.009 0.512-0.021 0.516-0.024 0.015-0.012 1.211 0.006 1.612 0.027zM5.255 12.979c0.006 0.006-0.036 0.273-0.090 0.593s-0.108 0.665-0.12 0.764c-0.012 0.099-0.027 0.213-0.033 0.255-0.036 0.297-0.048 0.384-0.057 0.45-0.006 0.042-0.021 0.183-0.030 0.315s-0.024 0.279-0.030 0.33c-0.075 0.644-0.078 2.548-0.003 3.417 0.006 0.066 0.021 0.243 0.033 0.39l0.021 0.27h-0.656l-0.653-0.003-0.003-3.381c0-3.198 0.003-3.381 0.051-3.402 0.051-0.018 1.553-0.018 1.57 0.003zM28.387 16.336c-0.003 1.852-0.006 3.381-0.006 3.396-0.003 0.018-0.228 0.030-0.623 0.027l-0.623-0.003 0.003-0.132c0-0.072 0.009-0.219 0.021-0.327 0.087-0.944 0.093-2.934 0.006-3.65-0.006-0.045-0.018-0.201-0.030-0.345-0.009-0.144-0.024-0.288-0.030-0.315-0.006-0.030-0.018-0.135-0.030-0.231-0.012-0.099-0.024-0.213-0.030-0.255s-0.021-0.135-0.030-0.21c-0.042-0.318-0.189-1.181-0.213-1.268-0.015-0.048 0.036-0.051 0.788-0.051h0.803l-0.006 3.363zM8.912 24.077c0.033 0.006 0.183 0.048 0.33 0.090 0.435 0.12 0.938 0.246 1.259 0.315 0.165 0.033 0.381 0.081 0.48 0.105s0.249 0.051 0.33 0.063c0.084 0.009 0.156 0.024 0.165 0.027 0.024 0.015 0.626 0.117 0.884 0.15 0.033 0.006 0.162 0.024 0.285 0.042 0.123 0.015 0.3 0.039 0.39 0.048s0.213 0.024 0.27 0.030c0.057 0.006 0.186 0.021 0.285 0.030s0.255 0.024 0.345 0.033c0.878 0.090 3.042 0.108 3.821 0.027 0.066-0.006 0.228-0.018 0.36-0.030 0.132-0.009 0.282-0.021 0.33-0.027 0.051-0.006 0.186-0.021 0.3-0.030 0.18-0.018 0.635-0.075 1.004-0.126 0.108-0.015 0.39-0.063 0.531-0.087 0.048-0.009 0.132-0.024 0.189-0.033 0.887-0.138 2.365-0.512 3.477-0.878l0.435-0.141v2.311h-16.688l0.003-1.079c0-0.593 0.003-1.112 0.003-1.154l0.003-0.075 0.578 0.189c0.315 0.102 0.602 0.192 0.635 0.201zM14.316 9.421c-0.006 0.006-0.315 0.018-0.686 0.027s-0.749 0.024-0.839 0.033c-0.090 0.006-0.303 0.021-0.477 0.030s-0.381 0.024-0.465 0.030c-0.081 0.009-0.237 0.021-0.345 0.030s-0.243 0.021-0.3 0.030c-0.057 0.006-0.159 0.021-0.225 0.027-0.342 0.045-0.459 0.060-0.614 0.093-0.042 0.009-0.153 0.030-0.252 0.048-0.246 0.045-0.641 0.162-0.836 0.249-0.48 0.21-0.833 0.827-1.142 1.996-0.069 0.264-0.174 0.731-0.213 0.944-0.030 0.171-0.048 0.273-0.090 0.509-0.024 0.132-0.051 0.294-0.057 0.36-0.009 0.066-0.036 0.255-0.060 0.42s-0.054 0.381-0.066 0.48c-0.021 0.201-0.021 0.201-0.054 0.539-0.015 0.132-0.030 0.279-0.036 0.327-0.081 0.707-0.078 2.518 0.006 3.27 0.066 0.587 0.186 1.187 0.351 1.753 0.051 0.18 0.090 0.249 0.189 0.348 0.303 0.297 1.286 0.65 2.694 0.974 0.216 0.051 0.411 0.096 0.435 0.102 0.3 0.069 1.157 0.228 1.454 0.27 0.066 0.009 0.147 0.021 0.18 0.030 0.033 0.006 0.129 0.021 0.21 0.030 0.084 0.012 0.171 0.024 0.195 0.030s0.141 0.021 0.255 0.030c0.117 0.012 0.243 0.024 0.282 0.030 0.039 0.009 0.183 0.021 0.315 0.030 0.135 0.012 0.276 0.024 0.318 0.033 0.309 0.051 1.975 0.072 2.697 0.033 0.399-0.024 0.48-0.030 0.869-0.066 0.453-0.042 1.903-0.243 1.948-0.27 0.009-0.006 0.078-0.018 0.15-0.030 0.075-0.009 0.156-0.024 0.18-0.030s0.090-0.021 0.144-0.030c0.054-0.009 0.195-0.036 0.315-0.063 0.117-0.027 0.258-0.054 0.306-0.063 0.186-0.030 1.184-0.288 1.568-0.405 0.842-0.252 1.388-0.521 1.508-0.749 0.138-0.258 0.339-1.481 0.402-2.437 0.018-0.267 0.021-1.582 0.003-1.849-0.006-0.108-0.021-0.339-0.033-0.509-0.009-0.168-0.024-0.357-0.030-0.414s-0.021-0.201-0.030-0.315c-0.012-0.117-0.024-0.243-0.030-0.285s-0.021-0.156-0.030-0.255c-0.009-0.099-0.024-0.213-0.030-0.255s-0.021-0.129-0.030-0.195c-0.207-1.6-0.518-2.892-0.869-3.599-0.186-0.372-0.396-0.599-0.671-0.728-0.201-0.093-0.77-0.252-1.037-0.288-0.066-0.012-0.24-0.036-0.39-0.060-0.147-0.024-0.378-0.051-0.509-0.063-0.132-0.009-0.246-0.024-0.255-0.027-0.009-0.006-0.156-0.018-0.33-0.030-0.174-0.009-0.375-0.024-0.45-0.030s-0.318-0.021-0.539-0.033c-0.222-0.009-0.512-0.024-0.644-0.030-0.291-0.015-4.292-0.039-4.307-0.027zM17.903 10.347c0.132 0.006 0.309 0.012 0.396 0.015 0.129 0.003 0.171 0.018 0.234 0.084 0.285 0.309 0.512 1.319 0.629 2.799 0.042 0.518 0.051 0.74 0.051 1.241 0.003 0.501-0.021 1.103-0.051 1.277-0.006 0.039-0.018 0.153-0.030 0.252-0.024 0.216-0.108 0.638-0.186 0.929-0.033 0.114-0.057 0.252-0.051 0.306 0.015 0.243 0.249 0.441 0.497 0.42 0.288-0.024 0.402-0.18 0.515-0.701 0.045-0.198 0.084-0.405 0.093-0.462 0.012-0.096 0.027-0.222 0.060-0.477 0.084-0.629 0.069-2.203-0.030-2.952-0.006-0.066-0.021-0.195-0.030-0.285s-0.030-0.24-0.045-0.33c-0.015-0.090-0.036-0.213-0.042-0.27-0.066-0.488-0.33-1.517-0.441-1.72-0.030-0.051-0.018-0.054 0.174-0.036 0.111 0.009 0.312 0.030 0.444 0.045s0.321 0.039 0.42 0.048c0.099 0.009 0.222 0.024 0.27 0.030 0.105 0.015 0.252 0.033 0.539 0.060 0.117 0.012 0.243 0.024 0.285 0.033 0.042 0.006 0.168 0.021 0.285 0.030 0.114 0.012 0.231 0.024 0.255 0.030 0.024 0.003 0.075 0.009 0.114 0.009 0.156 0.006 0.441 0.432 0.614 0.92 0.075 0.204 0.213 0.692 0.243 0.851 0.009 0.042 0.036 0.183 0.063 0.312 0.054 0.279 0.066 0.351 0.090 0.512 0.009 0.066 0.030 0.195 0.045 0.285s0.036 0.24 0.045 0.33c0.009 0.090 0.024 0.198 0.030 0.24 0.012 0.075 0.048 0.39 0.060 0.554 0.009 0.093 0.048 0.507 0.063 0.659 0.048 0.491 0.066 1.75 0.033 2.353-0.027 0.495-0.039 0.638-0.129 1.289-0.018 0.147-0.141 0.719-0.195 0.914-0.099 0.36-0.779 0.674-2.272 1.052-0.351 0.090-0.683 0.171-0.734 0.177-0.051 0.009-0.114 0.024-0.138 0.030s-0.084 0.018-0.132 0.027c-0.048 0.009-0.156 0.030-0.24 0.048-0.18 0.036-0.198 0.039-0.527 0.099-0.141 0.027-0.309 0.057-0.375 0.066-0.069 0.009-0.153 0.021-0.192 0.030-0.039 0.006-0.147 0.021-0.24 0.033-0.093 0.009-0.195 0.024-0.228 0.030-0.030 0.006-0.153 0.018-0.27 0.030-0.114 0.009-0.234 0.024-0.267 0.030-0.030 0.006-0.177 0.018-0.33 0.027-0.15 0.009-0.321 0.024-0.378 0.033-0.117 0.015-1.642 0.015-1.873-0.003-0.081-0.006-0.285-0.018-0.45-0.030-0.165-0.009-0.348-0.024-0.405-0.030s-0.171-0.018-0.255-0.027c-0.444-0.048-0.614-0.069-0.794-0.093s-0.324-0.045-0.435-0.060c-0.542-0.072-1.834-0.321-2.365-0.456-0.414-0.102-0.896-0.267-1.127-0.384-0.3-0.153-0.372-0.234-0.462-0.527-0.15-0.497-0.282-1.283-0.339-2.038-0.045-0.572-0.021-2.332 0.036-2.82 0.006-0.054 0.018-0.201 0.030-0.324s0.024-0.258 0.030-0.3c0.006-0.042 0.018-0.162 0.030-0.27 0.027-0.264 0.042-0.39 0.123-0.914 0.072-0.471 0.228-1.136 0.351-1.499 0.075-0.219 0.246-0.596 0.294-0.656 0.015-0.018 0.069-0.087 0.12-0.153 0.174-0.225 0.414-0.339 0.932-0.447 0.12-0.024 0.279-0.051 0.354-0.060s0.189-0.024 0.255-0.033c0.261-0.033 0.369-0.045 0.569-0.060 0.117-0.009 0.264-0.024 0.33-0.030 0.117-0.012 0.56-0.039 1.049-0.060 0.132-0.006 0.65-0.021 1.154-0.033 0.504-0.009 0.917-0.021 0.92-0.024 0.012-0.009 2.703 0.012 2.931 0.024z"></path>
</svg>
