<svg width="15" height="32" viewBox="0 0 15 32" fill="none" xmlns="http://www.w3.org/2000/svg">
    <style type="text/css">
        .mask-b {
        fill: none;
        stroke: #ffffff;
        stroke-width: 2.5;
        stroke-miterlimit: 10;
        }
    </style>
    <g id="b">
        <path fill="currentColor"
            mask="url(#reveal)"
            d="M13.216 21.184q0 2.208-1.68 3.344t-4.88 1.136q-2.4 0-3.52-0.064l0.064-4.8-0.064-11.040 4.224-0.032q2.24 0 3.488 0.976t1.248 2.8q0 2.816-2.56 3.84 3.68 0.608 3.68 3.84zM9.568 11.68q-0.864-0.672-2.528-0.672h-2.336l-0.032 5.76 3.104 0.064q2.656-0.48 2.656-3.168 0-1.312-0.864-1.984zM10.352 23.584q1.264-0.864 1.264-2.464 0-2.656-3.552-3.040l-3.424 0.064v2.528l0.032 3.68q1.056 0.096 2.080 0.096 2.336 0 3.6-0.864z"></path>
    </g>

    <!-- Mask definition -->
    <mask id="reveal">
        <!-- Black background hides everything -->
        <rect width="100%" height="100%" fill="black"></rect>
        <!-- White stroke reveals the ampersand -->
        <g id="trace-b1">
            <path class="mask-b" d="M4 9.5V26" />
        </g>
        <g id="trace-b2">
            <path
                class="mask-b"
                d="M4 10.5C10 10 11.5 11.5 11.5 14C11.5 16.5 9 17.264 4.5 17.5C4.25094 17.5131 13.5 16 12.5 21.5C11.6754 26.0354 8.5 25 4 25"
            />
        </g>
    </mask>
</svg>