<svg width="18" height="32" viewBox="0 0 18 32" fill="none" xmlns="http://www.w3.org/2000/svg">
<rect width="18" height="32" fill="#1E1E1E"/>
<g id="d 1">
<path id="Vector" d="M14.464 11.584C15.744 12.8853 16.384 14.7413 16.384 17.152C16.384 19.9253 15.7067 22.048 14.352 23.52C12.9973 24.992 11.0507 25.728 8.512 25.728C7.82933 25.728 6.976 25.7173 5.952 25.696C4.928 25.6747 3.98933 25.6427 3.136 25.6L3.2 20.8L3.136 9.76L8.96 9.632C11.3493 9.632 13.184 10.2827 14.464 11.584ZM13.216 22.64C14.2613 21.456 14.784 19.7227 14.784 17.44C14.784 15.3067 14.2827 13.7013 13.28 12.624C12.2773 11.5467 10.8053 11.008 8.864 11.008C8.37333 11.008 7.73333 11.0187 6.944 11.04C6.15467 11.0613 5.41867 11.0933 4.736 11.136L4.672 20.672L4.704 24.288C6.15467 24.3733 7.488 24.416 8.704 24.416C10.6667 24.416 12.1707 23.824 13.216 22.64Z" fill="black"/>
<path id="Vector 11" d="M4 26.5V10C17.5 7.5 22 25.5 4.5 25.5" stroke="#FF0000" stroke-width="2.5"/>
</g>
</svg>
