<?xml version="1.0" standalone="no"?>
<!DOCTYPE svg PUBLIC "-//W3C//DTD SVG 1.1//EN" "http://www.w3.org/Graphics/SVG/1.1/DTD/svg11.dtd" >
<svg xmlns="http://www.w3.org/2000/svg" xmlns:xlink="http://www.w3.org/1999/xlink" version="1.1">
<metadata>
Created by FontForge 20200511 at Sat Dec 21 16:45:19 2013
 By convertio
The Font Software, the designs embodied therein, the trade names and/or trademarks and copyrights associated therewith are each the exclusive property of Hungarumlaut.
</metadata>
<defs>
<font id="Infinity-Icons" horiz-adv-x="900" >
  <font-face 
    font-family="Infinity Icons"
    font-weight="400"
    font-stretch="normal"
    units-per-em="1000"
    panose-1="0 0 0 0 0 0 0 0 0 0"
    ascent="750"
    descent="-250"
    x-height="480"
    cap-height="597"
    bbox="-19 -207 918 877"
    underline-thickness="0"
    underline-position="0"
    unicode-range="U+0020-2703"
  />
<missing-glyph 
d="M562 383q88 -86 129 -158.5t39.5 -117.5t-33.5 -75q-31 -32 -77 -34t-119.5 39t-161.5 128q-88 86 -129 158t-39.5 118t33.5 77q31 31 77.5 33t119.5 -39t161 -129zM353 179q59 -58 111.5 -95.5t93.5 -52t72.5 -10.5t52.5 25q26 30 25 73t-42 108.5t-118 141.5
q-77 77 -144 118t-111.5 42t-74.5 -25q-21 -21 -24.5 -52t11 -71.5t52 -92.5t96.5 -109zM531 355q166 -170 89 -247q-22 -23 -54.5 -25.5t-83.5 24.5t-112 88q-61 60 -88.5 111t-25 83t25.5 55q21 22 53 23.5t83 -25.5t113 -87zM606 122q31 25 8.5 83.5t-98.5 135.5h1
q-78 75 -137 97t-84 -8q-19 -21 -18.5 -51t28 -74.5t79.5 -95.5q51 -51 95 -78t74.5 -27t51.5 18zM347 377q49 49 153 -53q102 -101 54 -151q-49 -53 -155 51q-38 39 -54.5 71t-14 50.5t16.5 31.5zM539 187q17 14 3 47.5t-56 75.5q-89 87 -126 53q-17 -15 -3 -49t56 -76
q43 -42 77 -55.5t49 4.5z" />
    <glyph glyph-name=".notdef" 
d="M562 383q88 -86 129 -158.5t39.5 -117.5t-33.5 -75q-31 -32 -77 -34t-119.5 39t-161.5 128q-88 86 -129 158t-39.5 118t33.5 77q31 31 77.5 33t119.5 -39t161 -129zM353 179q59 -58 111.5 -95.5t93.5 -52t72.5 -10.5t52.5 25q26 30 25 73t-42 108.5t-118 141.5
q-77 77 -144 118t-111.5 42t-74.5 -25q-21 -21 -24.5 -52t11 -71.5t52 -92.5t96.5 -109zM531 355q166 -170 89 -247q-22 -23 -54.5 -25.5t-83.5 24.5t-112 88q-61 60 -88.5 111t-25 83t25.5 55q21 22 53 23.5t83 -25.5t113 -87zM606 122q31 25 8.5 83.5t-98.5 135.5h1
q-78 75 -137 97t-84 -8q-19 -21 -18.5 -51t28 -74.5t79.5 -95.5q51 -51 95 -78t74.5 -27t51.5 18zM347 377q49 49 153 -53q102 -101 54 -151q-49 -53 -155 51q-38 39 -54.5 71t-14 50.5t16.5 31.5zM539 187q17 14 3 47.5t-56 75.5q-89 87 -126 53q-17 -15 -3 -49t56 -76
q43 -42 77 -55.5t49 4.5z" />
    <glyph glyph-name=".null" horiz-adv-x="0" 
 />
    <glyph glyph-name="nonmarkingreturn" 
 />
    <glyph glyph-name="space" unicode=" " 
 />
    <glyph glyph-name="exclam" unicode="!" 
d="M99 708q0 14 -13 14q-14 0 -14 -14q0 -5 4.5 -9t9.5 -4q13 0 13 13zM312 631q-14 0 -14 -14q0 -5 4.5 -9t9.5 -4q13 0 13 13q0 14 -13 14zM377 486q0 -5 4.5 -9t9.5 -4q13 0 13 13q0 14 -13 14q-14 0 -14 -14zM506 329q13 0 13 13q0 14 -13 14q-5 0 -8 -3h-2
q-4 -4 -4 -11q0 -5 4.5 -9t9.5 -4zM816 182q13 0 13 13q0 14 -13 14q-8 0 -13 -7l1 -1l-2 -1v-5q0 -5 4.5 -9t9.5 -4zM449 192q0 -5 4.5 -9t9.5 -4q13 0 13 13q0 14 -13 14q-14 0 -14 -14zM724 59q0 -13 -9.5 -23t-23.5 -10t-24 10t-10 23q0 7 1 9l-173 100q-9 -9 -22 -9
q-14 0 -24 10t-10 23q0 14 9.5 24t21.5 10l27 89q-15 10 -15 27q0 12 6 20l-75 93q-8 -2 -12 -2q-14 0 -24 10t-10 23t8 23l-46 76l-7 -1q-14 0 -24 10t-10 23v4l-167 67q-10 -13 -25 -13q-14 0 -24 10t-10 23q0 15 10 24.5t24 9.5t23.5 -9.5t9.5 -24.5l-1 -2l168 -67
q9 12 26 12q14 0 23.5 -9.5t8.5 -24.5q0 -13 -8 -21l47 -77l8 1q14 0 23.5 -9.5t9.5 -24.5q0 -10 -6 -18l76 -94q8 2 12 2q14 0 23.5 -9.5t9.5 -24.5l-1 -4l252 -120q11 11 26 11q14 0 23.5 -9.5t9.5 -24.5q0 -13 -9.5 -23t-24.5 -10q-7 0 -14 3l-82 -89q5 -8 5 -17z
M481 220q15 -9 14 -34l174 -100q11 7 22 7q9 0 14 -4l81 89q-4 7 -4 17v5l-252 120q-9 -11 -23 -11zM691 46q13 0 13 13q0 4 -4 10h-1l-8 4q-14 0 -14 -14q0 -5 4.5 -9t9.5 -4z" />
    <glyph glyph-name="quotedbl" unicode="&#x22;" 
d="M316 56q-44 0 -75.5 31.5t-31.5 75.5q0 48 37 79l292 293q5 5 11 2.5t6 -9.5v-126h125q7 0 9.5 -6t-2.5 -11l-286 -286q-31 -43 -85 -43zM316 269q38 0 67 -24l152 151v108l-236 -236q2 0 8 0.5t9 0.5zM422 163q0 -11 -1 -17l235 236h-107l-152 -151q25 -28 25 -68z
M316 76q35 0 60.5 26t25.5 61q0 36 -25.5 61t-60.5 25q-34 0 -58 -22l-4 -4h-1q-24 -26 -24 -60q0 -35 25.5 -61t61.5 -26z" />
    <glyph glyph-name="quotesingle" unicode="'" 
d="M317 56q-44 0 -75.5 31.5t-31.5 75.5q0 48 36 79l293 293q7 7 14 0t0 -14l-254 -254q10 2 18 2q37 0 67 -24l155 154q7 7 14 0t0 -14l-155 -154q25 -30 25 -68q0 -6 -2 -18l253 254q6 8 14 0q7 -7 0 -14l-286 -286q-33 -43 -85 -43zM403 163q0 36 -25.5 61t-60.5 25
q-36 0 -61.5 -25t-25.5 -61q0 -35 25.5 -61t61.5 -26q35 0 60.5 26t25.5 61z" />
    <glyph glyph-name="parenleft" unicode="(" 
d="M317 56q-44 0 -75.5 31.5t-31.5 75.5q0 48 36 79l293 293q7 7 14 0t0 -14l-254 -254q10 2 18 2q37 0 67 -24l290 290q7 7 14 0t0 -14l-290 -290q25 -30 25 -68q0 -6 -2 -18l253 254q6 8 14 0q7 -7 0 -14l-286 -286q-33 -43 -85 -43zM403 163q0 36 -25.5 61t-60.5 25
q-36 0 -61.5 -25t-25.5 -61q0 -35 25.5 -61t61.5 -26q35 0 60.5 26t25.5 61z" />
    <glyph glyph-name="parenright" unicode=")" 
d="M317 56q-44 0 -75.5 31.5t-31.5 75.5q0 48 36 79l293 293q3 3 7 3h135q10 0 10 -10v-136q0 -4 -3 -7l-286 -286q-33 -43 -85 -43zM317 269q37 0 67 -24l273 273h-108l-251 -251q12 2 19 2zM423 163q0 -5 -2 -17l250 250v108l-273 -273q25 -30 25 -68zM403 163
q0 36 -25.5 61t-60.5 25q-36 0 -61.5 -25t-25.5 -61q0 -35 25.5 -61t61.5 -26q35 0 60.5 26t25.5 61z" />
    <glyph glyph-name="asterisk" unicode="*" 
d="M506 225q4 -9 -7 -13q-10 -2 -12 8l-42 157l-115 -116q-8 -6 -15 1q-6 7 1 14l114 115l-156 42q-8 1 -8 12q3 8 13 8l157 -42l-42 157q-4 9 7 13q10 2 12 -8l42 -157l115 116q8 6 15 -1q6 -7 -1 -14l-114 -115l156 -42q8 -1 8 -12q-3 -8 -13 -8l-157 42z" />
    <glyph glyph-name="comma" unicode="," 
d="M462 672q-17 0 -17 18q0 17 17 17q7 0 12.5 -5t5.5 -12q0 -8 -5.5 -13t-12.5 -5zM151 51q34 -35 142 30q9 4 15 -4t-3 -13q-125 -75 -167 -26q-34 33 10.5 121.5t174.5 215.5q131 126 220.5 167t123.5 7q45 -49 -30 -164q-7 -9 -14 -2q-9 4 -3 14q66 104 32 138
q-28 30 -114.5 -17t-200.5 -157q-115 -112 -164.5 -196t-21.5 -114zM230 472q81 79 186 65q8 -2 8 -11q-2 -9 -12 -9q-44 6 -88.5 -9.5t-79.5 -49.5q-75 -72 -67 -168q0 -11 -9 -11t-11 9q-10 105 73 184zM777 279q0 -8 -5.5 -13t-12.5 -5q-17 0 -17 18q0 17 17 17
q7 0 12.5 -5t5.5 -12zM539 151q-65 -62 -155.5 -60.5t-152.5 66.5q-5 7 0 13q8 8 15 -1q57 -58 139.5 -59t140.5 55q59 57 60 139t-56 141q-6 8 1 15q2 2 7 2t7 -2q62 -64 60 -155.5t-66 -153.5zM645 38q-17 0 -17 18q0 17 17 17q7 0 12.5 -5t5.5 -12q0 -8 -5.5 -13
t-12.5 -5z" />
    <glyph glyph-name="hyphen" unicode="-" 
d="M283 56q-44 0 -75.5 31.5t-31.5 75.5q0 48 37 79l222 223q7 7 14 0t0 -14l-184 -184q12 2 18 2q38 0 67 -24l221 220q7 7 14 0t0 -14l-220 -220q24 -29 24 -68q0 -11 -1 -17l319 319q7 7 14 0q5 -7 0 -14l-353 -352q-31 -43 -85 -43zM283 76q35 0 61 26l2 2q23 26 23 59
q0 36 -25.5 61t-60.5 25q-36 0 -61.5 -25t-25.5 -61q0 -35 25.5 -61t61.5 -26z" />
    <glyph glyph-name="period" unicode="." 
d="M409 661q17 0 17 -18q0 -17 -17 -17q-7 0 -12.5 5t-5.5 12q0 8 5.5 13t12.5 5zM213 589q0 8 5.5 13t12.5 5q17 0 17 -18q0 -17 -17 -17q-7 0 -12.5 5t-5.5 12zM331 442q-4 9 4 14q93 52 199 8q51 -20 87 -58t50 -86q2 -9 -7 -13q-9 -2 -13 7q-13 43 -46 78t-79 54
q-97 41 -181 -8q-9 -4 -14 4zM794 369q17 0 17 -18q0 -17 -17 -17q-7 0 -12.5 5t-5.5 12q0 8 5.5 13t12.5 5zM647 182q9 -4 5 -13q-34 -84 -118.5 -119.5t-168.5 -1.5q-83 34 -119 118t-2 168q4 9 13 5t5 -13q-31 -76 2 -152.5t109 -107.5t152.5 1.5t108.5 109.5q4 9 13 5z
M609 67q2 10 12 8q127 -21 146 25q15 40 -64 100t-228 120t-248.5 72t-114.5 -28q-18 -46 85 -117q7 -5 2 -14q-5 -7 -14 -2q-115 78 -91 141q12 28 56 37.5t131 -7.5t202 -64q171 -68 245.5 -134t56.5 -112q-26 -61 -168 -37q-10 2 -8 12z" />
    <glyph glyph-name="slash" unicode="/" 
d="M351 56q-44 0 -75.5 31.5t-31.5 75.5q0 48 36 79l359 359q5 5 11 2.5t6 -9.5v-271q0 -4 -3 -7l-217 -217q-31 -43 -85 -43zM351 269q38 0 67 -24l218 217v108l-304 -303q12 2 19 2zM457 163q0 -12 -1 -17l180 181v107l-204 -203q25 -28 25 -68zM437 163q0 36 -25.5 61
t-60.5 25q-36 0 -61.5 -25t-25.5 -61q0 -35 25.5 -61t61.5 -26q35 0 60.5 26t25.5 61z" />
    <glyph glyph-name="zero" unicode="0" 
d="M62 124q62 62 62 150t-62 151q-5 5 -2.5 11t9.5 6q89 0 151.5 63t62.5 152q0 7 6 9.5t11 -2.5q63 -62 151.5 -62.5t149.5 61.5q5 5 11 2.5t6 -9.5q0 -88 63 -150.5t151 -62.5q7 0 9.5 -6t-2.5 -11q-62 -64 -62.5 -152.5t61.5 -149.5q5 -5 2.5 -11t-9.5 -6
q-88 0 -150.5 -63t-62.5 -151q0 -7 -6 -9.5t-11 2.5q-63 62 -151 62t-150 -62q-5 -5 -11 -2.5t-6 9.5q0 89 -62.5 151.5t-151.5 62.5q-7 0 -9.5 6t2.5 11zM598 -86q8 85 67.5 145t143.5 67q-53 64 -53 148t54 150q-84 8 -144 67t-68 143q-64 -53 -148 -52.5t-148 54.5
q-8 -86 -67.5 -146t-144.5 -67q54 -65 54 -149t-54 -148q83 -8 143.5 -68t67.5 -143q64 53 148.5 53t148.5 -54zM166 275q0 117 84 201t201 84q118 0 202 -84t84 -201t-84 -201t-202 -84q-117 0 -201 84t-84 201zM717 275q0 109 -78 187t-188 78q-109 0 -187 -78t-78 -187
t78 -187t187 -78q110 0 188 78t78 187zM353 308q14 27 40 39q-27 14 -39 40q-14 -27 -40 -39q25 -13 39 -40zM433 357v-20q-29 0 -49.5 -20.5t-20.5 -48.5h-20q0 29 -20 49.5t-49 20.5v20q29 0 49.5 20.5t20.5 48.5h20q0 -29 20.5 -49.5t48.5 -20.5zM570 172q-5 20 1 39
q-19 -5 -39 0q5 -19 0 -39q19 5 38 0zM603 153l-14 -14q-15 15 -37.5 15.5t-38.5 -14.5l-14 14q16 15 16 38t-15 38l14 14q15 -15 38 -15.5t38 14.5l14 -14q-15 -15 -15.5 -38t14.5 -38z" />
    <glyph glyph-name="one" unicode="1" 
d="M165 275q0 117 84 201t201 84q118 0 202 -84t84 -201t-84 -201t-202 -84q-117 0 -201 84t-84 201zM716 275q0 109 -78 187t-188 78t-187.5 -78t-77.5 -187t77.5 -187t187.5 -78t188 78t78 187zM433 453q9 2 12 -8l18 -72q2 -9 -8 -12q-9 -2 -12 8l-18 72q-2 9 8 12z
M299 349q-9 2 -9 11l7 70q2 9 11 9q9 -2 9 -11l-7 -70q-2 -9 -11 -9zM514 337q-10 4 -3 13l37 59q4 10 13 3q10 -4 3 -13l-37 -59q-4 -10 -13 -3zM255 307q0 16 12 28t28 12t27.5 -12t11.5 -28q0 -17 -11 -28t-28 -11q-16 0 -28 11.5t-12 27.5zM432 299q0 19 14 33t33 14
t32.5 -14t13.5 -33t-13.5 -32.5t-32.5 -13.5t-33 13.5t-14 32.5zM314 307q0 8 -5.5 14t-13.5 6t-14 -6t-6 -14t6 -13.5t14 -5.5q7 0 13 6t6 13zM505 299q0 11 -7.5 19t-18.5 8t-19 -8t-8 -19t8 -18.5t19 -7.5t18.5 7.5t7.5 18.5zM240 297q-4 -9 -13 -7l-23 7q-9 4 -7 13
q4 9 13 7l23 -7q9 -4 7 -13zM346 303q0 9 11 9l53 -4q9 0 9 -11q0 -9 -11 -9l-53 4q-9 0 -9 11zM527 281q4 9 13 7l94 -30q9 -4 7 -13q-4 -9 -13 -7l-94 30q-9 4 -7 13zM451 259q8 -6 2 -14l-52 -66q-6 -8 -14 -2t-2 14l52 66q6 8 14 2zM260 257q8 -6 2 -14l-18 -23
q-6 -8 -14 -2t-2 14l18 23q6 8 14 2zM479 147q9 -5 3 -13l-61 -95q-5 -9 -13 -3q-9 5 -3 13l61 95q5 9 13 3zM376 114q11 -2 9 -11l-6 -48q-2 -11 -11 -9q-11 2 -9 11l6 48q2 11 11 9z" />
    <glyph glyph-name="two" unicode="2" 
d="M165 275q0 117 84 201t201 84q118 0 202 -84t84 -201t-84 -201t-202 -84q-117 0 -201 84t-84 201zM716 275q0 110 -78 187.5t-188 77.5q-109 0 -187 -78t-78 -187t78 -187t187 -78q110 0 188 77.5t78 187.5zM457 493q9 4 13 -5q32 -72 23 -138q-2 -11 -11 -9q-11 2 -9 11
q8 60 -21 128q-4 9 5 13zM397 466q9 5 14 -2q14 -21 19 -58t-2 -71q-2 -10 -12 -8t-8 12q7 30 3.5 62.5t-16.5 50.5q-5 9 2 14zM226 236q-4 10 6 12q54 20 87.5 72t26.5 116q-2 9 9 11q9 2 11 -9q9 -71 -29 -128.5t-99 -79.5q-10 -4 -12 6zM532 443q8 8 14 0q35 -36 42 -90
q2 -9 -9 -11q-9 -2 -11 9q-8 48 -36 78q-8 8 0 14zM272 110q-6 8 1 15q66 57 134 86t158 30q10 0 10 -10t-10 -10q-86 -1 -150.5 -28.5t-127.5 -83.5q-8 -6 -15 1zM349 101q-8 8 0 14q36 33 102.5 44.5t130.5 -3.5q10 -3 8 -12q-3 -10 -12 -8q-59 14 -121 4t-94 -39
q-8 -8 -14 0z" />
    <glyph glyph-name="three" unicode="3" 
d="M144 572q0 20 14 33.5t33 13.5t33 -13.5t14 -33.5q0 -19 -14 -32.5t-33 -13.5t-33 13.5t-14 32.5zM218 572q0 11 -8 19t-19 8t-19 -8t-8 -19t8 -18.5t19 -7.5t19 7.5t8 18.5zM185 275q0 117 84 201t201 84q118 0 202 -84t84 -201t-84 -201t-202 -84q-117 0 -201 84
t-84 201zM362 493l41 38q-22 -5 -52 -19zM258 377l11 -25l9 2l-7 19q-2 4 0.5 8t7.5 5l23 3l16 37l-4 10l-23 -21q-5 -5 -12 -2l-26 13q-15 -20 -29 -53l21 9q9 4 13 -5zM568 349l-15 23l-42 -28l121 -10l5 12l-12 1q-9 0 -9 9l-3 35l-16 3l14 -28q5 -10 -6 -14l-26 -7
q-7 -2 -11 4zM470 10q110 0 188 77.5t78 187.5q0 26 -4 45l-24 1l9 -26q3 -5 -2 -10l-37 -35l-38 -64l8 -55q0 -4 -1 -6l-33 -59q-3 -5 -9 -5l-26 1q-7 0 -9 7l-57 152l-55 5q-6 0 -9 7l-18 55q0 7 3 10l38 43l3 30q0 5 4 7l56 42l-19 61q-2 7 4 11l42 32q-46 16 -88 16
q0 -8 -8 -10l-48 -11l-51 -49q-9 -9 -16 2l-18 30q-39 -25 -67 -59l17 -9l27 26q11 9 16 -3l12 -27q2 -4 0 -8l-20 -46q-1 -4 -8 -6l-17 -2l7 -19q5 -9 -7 -13l-28 -6q-7 -2 -11 6l-10 24l-29 -12q-8 -27 -9 -56l4 1l121 -10q3 0 6 -3l27 -29q3 -3 3 -9l-15 -62q-3 -5 -4 -6
l-56 -41l-12 -42q78 -81 190 -81zM660 351l-11 -28l23 -51l25 23l-12 33q-2 5 1 9t8 4l34 -1q-28 108 -123 163l-31 5l-36 -27l19 -62q2 -7 -4 -11l-58 -43l-1 -9l57 37q7 6 13 -2l16 -24l8 2l-17 35q-3 6 0.5 10.5t10.5 3.5l42 -8q8 -2 8 -9l3 -35l17 -1q13 -2 8 -14z
M529 233l56 -151l14 -1l29 51l-8 56q0 4 1 6l37 62l-26 57l-146 14l-33 -38l14 -44l54 -5q6 0 8 -7zM277 147l56 41l13 53l-20 22l-114 10l-7 -4q1 -90 58 -159l10 32q1 2 4 5z" />
    <glyph glyph-name="four" unicode="4" 
d="M196 554q-17 0 -17 17t17 17t17 -17t-17 -17zM164 275q0 117 84 201t201 84q118 0 202 -84t84 -201t-84 -201t-202 -84q-117 0 -201 84t-84 201zM463 502q44 0 79 21q-45 17 -93 17q-35 0 -73 -10q38 -28 87 -28zM359 281q0 -26 -16.5 -44t-36.5 -18q-21 0 -38 17.5
t-17 42.5q0 26 14 44t40 18q20 0 37 -15.5t17 -44.5zM271 279q0 -17 10.5 -28.5t24.5 -11.5q13 0 23 12.5t10 29.5q0 19 -10.5 29.5t-23.5 10.5q-17 0 -25.5 -12.5t-8.5 -29.5zM413 220q-1 18 9 31.5t26 14.5q18 1 30.5 -11.5t12.5 -30.5q0 -33 -40 -35q-37 -1 -38 31z
M471 224q0 9 -6 16t-15 6t-13.5 -8.5t-3.5 -15.5q1 -14 16 -13q22 2 22 15zM605 200q3 0 6 5q1 2 1.5 5.5t1.5 5.5l2.5 5t4.5 5t7 3q14 3 25 -12q43 32 62 72q-5 66 -36 118q-8 5 -13 7.5t-9 5t-8.5 4t-7 2.5t-8 1h-7.5h-10.5h-12.5q-17 0 -29.5 -6t-27 -17t-27.5 -17
q-12 -6 -25 -6t-26.5 2.5t-16.5 2.5q3 -6 9.5 -10t18 -8.5t16.5 -7.5q20 -11 46 -44q19 -25 38 -65q4 -8 8.5 -21.5t8.5 -21.5t9 -8zM347 151q0 30 26 30q11 0 18 -8t7 -21q0 -12 -7.5 -20t-16.5 -8q-27 0 -27 27zM378 152q0 9 -5 9q-6 0 -6 -10q0 -7 7 -7q4 0 4 8zM326 112
q0 -12 -7 -19.5t-18 -7.5q-8 0 -15 6.5t-7 17.5q0 28 23 28q10 0 17 -7t7 -18zM299 109q0 -4 2 -4q5 0 5 7q0 5 -4 5q-3 0 -3 -8zM449 10q14 0 20 1q13 22 41 42.5t49 21.5q23 1 49 -12q95 71 106 187q-23 -29 -49 -49q-6 -4 -15.5 -2.5t-12.5 6.5l-1 2q-1 3 -2 2
q-3 0 -4 -2t-0.5 -4t-0.5 -4q-2 -5 -2 -6t-2 -5t-4.5 -5t-7 -2.5t-10.5 -0.5q-2 0 -4.5 1t-4.5 3.5t-4 4.5t-4.5 6t-4.5 7.5t-5 9t-4.5 9.5t-5 11l-5.5 11q-25 46 -36 61q-22 29 -40 38q-6 4 -16.5 9.5t-15 8.5l-10.5 7t-8.5 8t-2.5 9q0 22 19 22q3 0 15.5 -2.5t21 -3
t23.5 4.5q13 6 29.5 18t30 18t32.5 6q40 0 52 -4q-40 46 -91 71q-43 -32 -101 -32q-30 0 -62 12t-47 28q-75 -29 -122.5 -96.5t-47.5 -150.5q0 -109 78 -187t187 -78zM559 55q-14 -1 -32.5 -13t-30.5 -28q48 9 93 36q-13 5 -30 5zM698 -8q17 0 17 -17t-17 -17t-17 17t17 17z
" />
    <glyph glyph-name="five" unicode="5" 
d="M345 634q-17 0 -17 17t17 17t17 -17t-17 -17zM291 615q-17 0 -17 17t17 17t17 -17t-17 -17zM200 554q-17 0 -17 17t17 17t17 -17t-17 -17zM718 546q0 17 17 17t17 -17t-17 -17t-17 17zM168 275q0 117 84 201t201 84q118 0 202 -84t84 -201t-84 -201t-202 -84
q-117 0 -201 84t-84 201zM719 275q0 109 -78 187t-188 78q-109 0 -187 -78t-78 -187t78 -187t187 -78q110 0 188 78t78 187zM746 513q0 17 17 17t17 -17t-17 -17t-17 17zM776 470q0 17 17 17t17 -17t-17 -17t-17 17zM797 427q0 17 17 17t17 -17t-17 -17t-17 17zM574 435
q-17 -12 -43.5 -14.5t-40.5 3.5q-18 -14 -47 -17.5t-44 6.5q-7 5 -2 14q5 7 14 2q12 -8 35.5 -3t34.5 18q8 8 16 -1q7 -8 29.5 -4.5t35.5 12.5q9 5 14 -2q5 -9 -2 -14zM255 405q4 10 13 3q51 -32 164 -32q117 0 170 25q9 4 13 -5t-5 -13q-27 -12 -81.5 -19.5t-96.5 -7.5
q-118 0 -174 36q-10 4 -3 13zM254 355q9 3 13 -4q13 -19 48 -29q31 -9 45 5q9 6 15 -3q6 -8 -2 -14q-27 -18 -64 -6q-44 9 -58 38q-6 6 3 13zM825 337q0 17 17 17t17 -17t-17 -17t-17 17zM76 285q0 -17 -17 -17t-17 17t17 17t17 -17zM553 161q-4 -9 -13 -5q-62 30 -51 74
q6 28 28 36t77 -4q10 -3 8 -12q-3 -10 -12 -8q-75 20 -81 -16q-7 -30 39 -52q9 -4 5 -13zM268 187q4 10 13 5q30 -15 115 -27q11 -2 9 -11q-2 -11 -11 -9q-85 11 -121 29q-10 4 -5 13zM105 135q0 -17 -17 -17t-17 17t17 17t17 -17zM601 152q-10 -56 -106 -30q-9 3 -7 13
q3 9 13 7q75 -21 80 14v1q9 31 -38 51q-9 4 -5 13t13 5q62 -28 50 -75v1zM471 80q-21 -7 -46 -2t-38 17q-22 -9 -49.5 -4.5t-40.5 17.5q-7 7 0 14t14 0q11 -11 34.5 -13.5t38.5 6.5q11 7 15 -4q4 -10 26.5 -14.5t37.5 1.5q9 4 13 -5t-5 -13zM135 78q0 -17 -17 -17t-17 17
t17 17t17 -17zM185 9q0 -17 -17 -17t-17 17t17 17t17 -17zM702 -8q17 0 17 -17t-17 -17t-17 17t17 17zM278 -64q0 -17 -17 -17t-17 17t17 17t17 -17zM611 -64q17 0 17 -17t-17 -17t-17 17t17 17zM557 -85q17 0 17 -17t-17 -17t-17 17t17 17z" />
    <glyph glyph-name="six" unicode="6" 
d="M472 721q-17 0 -17 17t17 17t17 -17t-17 -17zM326 710q-17 0 -17 17t17 17t17 -17t-17 -17zM629 593q-25 1 -42.5 18.5t-16.5 40.5q-1 24 16.5 41t42.5 18h1q23 -1 39.5 -17.5t17.5 -41.5q0 -23 -17 -40.5t-40 -18.5h-1zM394 664q-17 0 -17 17t17 17t17 -17t-17 -17z
M590 652q-1 -16 11 -27t29 -12q15 1 26 12t11 27q-1 16 -11.5 27t-25.5 12q-17 -1 -29 -12t-11 -27zM480 641q-17 0 -17 17t17 17t17 -17t-17 -17zM776 641q-17 0 -17 17t17 17t17 -17t-17 -17zM828 595q-17 0 -17 17t17 17t17 -17t-17 -17zM91 553q-17 0 -17 17t17 17
t17 -17t-17 -17zM179 342q-10 4 -6 13q17 60 59 107.5t101 73.5q122 53 245 -9q9 -5 4 -14q-4 -8 -13 -4q-115 59 -228 9q-113 -51 -149 -169q-4 -9 -13 -7zM226 44q2 -9 -7 -13q-179 -53 -219 43q-9 16 -6.5 36t13 41t40 47.5t73.5 55t114 64t162 74.5q137 58 233.5 87
t150.5 30t80.5 -12t37.5 -40q42 -97 -121 -189q-9 -4 -14 4q-3 8 4 14q147 83 113 163q-44 108 -476 -75q-230 -98 -318.5 -169t-67.5 -123q33 -80 195 -31q10 2 13 -7zM177 101q0 -10 -9 -10q-37 -1 -55 32q-6 9 -3.5 20.5t9 24t28 30t54.5 37.5t88 46.5t128 57.5
q88 38 154 60.5t103.5 30.5t62 6t33.5 -9t14 -20q15 -35 -19 -63q-9 -5 -15 2q-5 7 2 14q22 18 14 39q-25 57 -341 -78q-116 -50 -184 -87t-92 -61t-17 -42h-1q12 -21 36 -20q10 0 10 -10zM69 300q-17 0 -17 17t17 17t17 -17t-17 -17zM858 134q-17 0 -17 17t17 17t17 -17
t-17 -17zM709 359q9 2 12 -7q28 -102 -17.5 -199.5t-145.5 -140.5q-101 -42 -202.5 -7.5t-155.5 127.5q-5 8 3 14q9 4 14 -4q50 -87 145 -119t188 7q93 40 135.5 130.5t16.5 185.5q-3 10 7 13zM759 14q-17 0 -17 17t17 17t17 -17t-17 -17zM770 -69q-17 0 -17 17t17 17
t17 -17t-17 -17zM228 -59q0 -17 -17 -17t-17 17t17 17t17 -17zM146 -59q0 -17 -17 -17t-17 17t17 17t17 -17zM612 -80q0 -17 -17 -17t-17 17t17 17t17 -17zM714 -95q0 -17 -17 -17t-17 17t17 17t17 -17zM366 -119q0 -17 -17 -17t-17 17t17 17t17 -17zM640 -178
q0 -17 -17 -17t-17 17t17 17t17 -17z" />
    <glyph glyph-name="seven" unicode="7" 
d="M616 691q17 0 17 -17t-17 -17t-17 17t17 17zM761 676q17 0 17 -17t-17 -17t-17 17t17 17zM671 603q17 0 17 -17t-17 -17t-17 17t17 17zM152 275q0 117 84 201t201 84q118 0 202 -84t84 -201t-84 -201t-202 -84q-117 0 -201 84t-84 201zM78 554q17 0 17 -17t-17 -17
t-17 17t17 17zM141 529q0 17 17 17t17 -17t-17 -17t-17 17zM703 275q0 109 -78 187t-188 78q-109 0 -187 -78t-78 -187t78 -187t187 -78q110 0 188 78t78 187zM736 522q0 17 17 17t17 -17t-17 -17t-17 17zM845 501q17 0 17 -17t-17 -17t-17 17t17 17zM103 433q0 -17 -17 -17
t-17 17t17 17t17 -17zM246 391q0 9 9 11q70 7 182 7q94 0 183 -7q9 0 9 -11q0 -9 -11 -9q-89 7 -181 7q-110 0 -180 -7q-9 0 -11 9zM145 175q-3 -9 -13 -7q-68 18 -95 45t-27 63q0 74 122 107q10 2 13 -7q2 -10 -7 -13q-108 -27 -108 -87q0 -61 108 -88q9 -3 7 -13zM729 376
q3 9 13 7q68 -18 95 -45t27 -63q0 -74 -122 -107q-10 -2 -13 7q-2 10 7 13q108 27 108 87q0 61 -108 88q-9 3 -7 13zM856 158q0 17 17 17t17 -17t-17 -17t-17 17zM629 160q0 -11 -9 -11q-89 -7 -183 -7q-112 0 -182 7q-9 2 -9 11q2 9 11 9q70 -7 180 -7q92 0 181 7
q11 0 11 -9zM188 11q0 -17 -17 -17t-17 17t17 17t17 -17zM131 -56q0 -17 -17 -17t-17 17t17 17t17 -17zM719 -49q17 0 17 -17t-17 -17t-17 17t17 17zM224 -51q17 0 17 -17t-17 -17t-17 17t17 17zM578 -111q0 -17 -17 -17t-17 17t17 17t17 -17zM342 -97q17 0 17 -17t-17 -17
t-17 17t17 17z" />
    <glyph glyph-name="eight" unicode="8" 
d="M224 595q-17 0 -17 17t17 17t17 -17t-17 -17zM155 545q-17 0 -17 17t17 17t17 -17t-17 -17zM136 275q0 117 84 201t201 84q118 0 202 -84t84 -201t-84 -201t-202 -84q-117 0 -201 84t-84 201zM700 530q0 17 17 17t17 -17t-17 -17t-17 17zM420 462q95 0 168 19
q-72 59 -167 59q-93 0 -168 -60q77 -18 167 -18zM421 379q128 0 233 24q-22 37 -47 61q-88 -22 -187 -22q-102 0 -186 21q-24 -24 -46 -61q107 -23 233 -23zM761 439q0 17 17 17t17 -17t-17 -17t-17 17zM421 338q139 0 251 25q-1 2 -2.5 6.5t-3 8t-3.5 6.5
q-111 -25 -242 -25q-128 0 -242 24q-6 -14 -8 -21q111 -24 250 -24zM421 178q144 0 256 26q10 31 10 71q0 35 -9 68q-113 -25 -257 -25q-143 0 -256 24q-9 -32 -9 -67q0 -34 10 -72q119 -25 255 -25zM421 109q119 0 224 23q14 23 25 49q-115 -23 -249 -23q-132 0 -247 22
q7 -21 25 -49q108 -22 222 -22zM422 64q96 0 181 18q12 11 24 26q-98 -19 -206 -19q-104 0 -205 18q8 -9 24 -25q87 -18 182 -18zM421 10q81 0 149 46q-69 -12 -148 -12q-77 0 -149 11q67 -45 148 -45zM138 28q0 -17 -17 -17t-17 17t17 17t17 -17zM692 12q17 0 17 -17
t-17 -17t-17 17t17 17zM659 -16q17 0 17 -17t-17 -17t-17 17t17 17zM483 -95q17 0 17 -17t-17 -17t-17 17t17 17z" />
    <glyph glyph-name="nine" unicode="9" 
d="M283 634q-17 0 -17 17t17 17t17 -17t-17 -17zM656 546q0 17 17 17t17 -17t-17 -17t-17 17zM106 275q0 117 84 201t201 84q118 0 202 -84t84 -201t-84 -201t-202 -84q-117 0 -201 84t-84 201zM657 275q0 109 -78 187t-188 78q-109 0 -187 -78t-78 -187t78 -187t187 -78
q110 0 188 78t78 187zM326 402q-17 0 -17 17t17 17t17 -17t-17 -17zM452 402q0 17 17 17t17 -17t-17 -17t-17 17zM248 392q16 0 28 -12t12 -28t-12 -27.5t-28 -11.5t-27.5 11.5t-11.5 27.5t11.5 28t27.5 12zM248 333q8 0 14 5.5t6 13.5t-6 14t-14 6t-13.5 -6t-5.5 -14
t5.5 -13.5t13.5 -5.5zM763 337q0 17 17 17t17 -17t-17 -17t-17 17zM465 216q-9 4 -7 13l7 23q4 9 13 7q9 -4 7 -13l-7 -23q-4 -9 -13 -7zM405 186q-6 -8 -14 -2l-23 18q-8 6 -2 14t14 2l23 -18q8 -6 2 -14zM445 201q16 0 28 -12t12 -28t-12 -27.5t-28 -11.5q-17 0 -28 11
t-11 28q0 16 11.5 28t27.5 12zM445 142q8 0 14 5.5t6 13.5t-6 14t-14 6t-13.5 -6t-5.5 -14q0 -7 6 -13t13 -6zM487 157q0 9 11 9l30 -2q9 0 9 -11q0 -9 -11 -9l-30 2q-9 0 -9 11zM432 110q10 -2 8 -12l-4 -23q-2 -10 -12 -8t-8 12l4 23q2 10 12 8zM121 13q17 0 17 -17
t-17 -17t-17 17t17 17z" />
    <glyph glyph-name="colon" unicode=":" 
d="M317 56q-44 0 -75.5 31.5t-31.5 75.5q0 48 36 79l293 293q7 7 14 0t0 -14l-254 -254q10 2 18 2q37 0 67 -24l221 220q7 7 14 0t0 -14l-221 -220q25 -30 25 -68q0 -6 -2 -18l253 254q6 8 14 0q7 -7 0 -14l-286 -286q-33 -43 -85 -43zM403 163q0 36 -25.5 61t-60.5 25
q-36 0 -61.5 -25t-25.5 -61q0 -35 25.5 -61t61.5 -26q35 0 60.5 26t25.5 61z" />
    <glyph glyph-name="semicolon" unicode=";" 
d="M317 56q-44 0 -75.5 31.5t-31.5 75.5q0 48 36 79l293 293q7 7 14 0l135 -136q7 -7 0 -14l-286 -286q-33 -43 -85 -43zM317 269q37 0 67 -24l215 215l-54 54l-246 -247q10 2 18 2zM423 163q0 -6 -2 -18l246 247l-54 54l-215 -215q25 -30 25 -68zM403 163q0 36 -25.5 61
t-60.5 25q-36 0 -61.5 -25t-25.5 -61q0 -35 25.5 -61t61.5 -26q35 0 60.5 26t25.5 61z" />
    <glyph glyph-name="question" unicode="?" 
d="M225 233q-7 -7 -14 0q-40 38 -40 112q0 78 55 124t137 46q10 0 10 -10t-10 -10q-73 0 -122.5 -40.5t-49.5 -109.5q0 -66 34 -98q7 -7 0 -14zM519 273q4 6 14 2q18 -8 18 -39q0 -8 -4 -17t-14.5 -21t-35.5 -20t-61 -8q-77 0 -121 41t-44 111q0 72 66.5 115t196.5 43
q136 0 225 -58q7 -5 2 -14q-5 -7 -14 -2q-81 54 -213 54q-117 0 -180 -36.5t-63 -101.5q0 -61 39.5 -96.5t105.5 -35.5q36 0 59 9.5t29.5 18.5t6.5 18q0 16 -10 23q-7 5 -2 14zM675 322q7 7 14 0q40 -38 40 -112q0 -78 -54.5 -124t-136.5 -46q-10 0 -10 10t10 10
q73 0 122 40.5t49 109.5q0 66 -34 98q-7 7 0 14zM382 282q-6 -8 -14 -2q-18 10 -18 39q0 8 4 17t14.5 21t35.5 20t61 8q77 0 121 -41t44 -111q0 -72 -66.5 -115t-196.5 -43q-136 0 -225 58q-7 5 -2 14q5 7 14 2q81 -54 213 -54q117 0 180 36.5t63 101.5q0 61 -39.5 96.5
t-105.5 35.5q-36 0 -59 -9.5t-29.5 -18.5t-6.5 -18q0 -16 10 -23q7 -5 2 -14z" />
    <glyph glyph-name="A" unicode="A" 
d="M448 -39l-87 9q-9 2 -9 11l5 71h-146q-10 0 -10 10q0 79 50 146v443q0 4 3 7l36 36q7 7 14 0l21 -21q7 55 44.5 113.5t75.5 83.5q5 3 10 0q38 -25 75.5 -83.5t44.5 -113.5l21 21q7 7 14 0l36 -36q3 -3 3 -7v-443q50 -67 50 -146q0 -10 -10 -10h-146l5 -71q0 -9 -9 -11
l-89 -9h-2zM307 280q9 15 16 31v336l-26 26l-26 -26v-414q4 6 12 15.5t14 17t10 14.5zM593 280q4 -7 10 -14.5t14 -17t12 -15.5v414l-26 26l-26 -26v-335q6 -17 16 -32zM343 651v-284q35 114 35 175q0 22 28 57.5t44 35.5q17 0 45 -35.5t28 -57.5q0 -59 34 -172v281
q0 51 -34 111t-73 89q-39 -29 -73 -89t-34 -111zM450 164l53 -7v385q0 17 -20 45t-33 28t-32.5 -28t-19.5 -45v-385l50 7h2zM484 528q-5 -8 -14 -4q-8 6 -20 6q-11 0 -19 -6q-9 -4 -14 4q-4 9 4 14q16 8 29 8q14 0 30 -8q8 -5 4 -14zM323 270q-7 -11 -38 -48t-47.5 -71.5
t-16.5 -78.5h137l5 73q0 7 9 9l6 1v266q-28 -111 -55 -151zM537 145l5 -73h137q-2 45 -18.5 80t-47 72t-36.5 46q-26 41 -54 151v-266l5 -1q9 -2 9 -9zM337 146q0 -10 -10 -10h-52q-10 0 -10 10t10 10h52q10 0 10 -10zM635 146q0 -10 -10 -10h-52q-10 0 -10 10t10 10h52
q10 0 10 -10zM459 -18l68 7l-9 146l-59 8v-161zM439 -18v161l-57 -8l-9 -146z" />
    <glyph glyph-name="B" unicode="B" 
d="M708 510l58 100l-14 13l-100 -57zM713 540q-7 -7 -14 0l-14 14q-7 7 0 14t14 0l14 -14q7 -7 0 -14zM452 312v-1l31 -31l214 214l-61 60l-214 -213l29 -29h1zM577 -27q-6 -6 -13 -1l-193 135q-4 4 -4 9l2 43l-68 69l-44 -3q-6 0 -8 4l-135 193q-6 8 1 13l84 84q4 6 11 2
l200 -86l220 141l119 69q6 4 12 -2l25 -25q6 -6 1 -12l-68 -117l-1 -1v-1l-1 -1l-140 -217l86 -201q2 -7 -2 -11zM407 415l-199 85l-73 -73l127 -182l38 3l265 264l-149 -96q-3 -3 -9 -1zM491 258l-5 -2l-97 -97l-2 -39l182 -127l73 73l-85 199q-3 4 0 9l94 146l-160 -159
v-3zM341 216l89 89l-22 22l-89 -89zM380 177l89 89l-25 25l-89 -89z" />
    <glyph glyph-name="C" unicode="C" 
d="M425 686q-39 -117 -41 -264h136q-2 147 -41 265q-18 45 -27 45q-10 0 -27 -46zM423 442q-10 0 -10 10v103q0 10 10 10t10 -10v-103q0 -10 -10 -10zM520 402h-136v-100h136v100zM514 353q0 -10 -10 -10h-103q-10 0 -10 10t10 10h103q10 0 10 -10zM452 204q28 0 48 20
t20 48v10h-136v-10q0 -25 16 -44t41 -23q4 -1 11 -1zM423 -8q-2 -11 -11 -9q-11 2 -9 11l26 193q-15 5 -27 12l-77 -137q-5 -8 -14 -4q-8 5 -4 14l79 141q-22 25 -22 59v140q0 74 12.5 152.5t30.5 129.5q22 58 45 58t45 -59q18 -50 30.5 -128.5t12.5 -152.5v-140
q0 -33 -21 -57l74 -179q4 -9 -5 -13t-13 5l-72 173q-22 -17 -51 -17h-3z" />
    <glyph glyph-name="D" unicode="D" 
d="M398 -21q-12 -9 -62 1t-58 23q-5 10 -9.5 129.5t-5.5 125.5q-2 12 -42.5 126t-40.5 115q-55 71 -65 109q0 6 3 9l25 25q3 3 9 3q37 -9 109 -64q213 -78 241 -84q6 -1 125.5 -5.5t129.5 -9.5q13 -8 23 -58t1 -62q-7 -9 -213 -140l-30 -30q-121 -198 -140 -213zM197 562
q7 7 14 0l44 -44q7 -7 0 -14t-14 0l-44 44q-7 7 0 14zM393 463l171 -221q11 8 62.5 40.5t93 59.5t45.5 32q6 9 -1 47t-17 43q-9 5 -125.5 8.5t-123.5 4.5q-23 5 -192 67q42 -36 86 -80zM296 13q5 -10 43 -17t47 -1q9 8 132 201l-221 171l-1 1q-44 44 -80 86q62 -169 67 -192
q1 -7 4.5 -123.5t8.5 -125.5zM309 383l221 -171l18 18l-171 221l1 -1q-68 69 -131.5 117.5t-93.5 56.5l-17 -17q12 -34 59.5 -96.5t114.5 -128.5zM620 436q7 7 14 0l64 -64q7 -7 0 -14t-14 0l-64 64q-7 7 0 14zM601 160q7 7 14 0l44 -44q7 -7 0 -14t-14 0l-44 44q-7 7 0 14z
M324 140q7 7 14 0l64 -64q7 -7 0 -14t-14 0l-64 64q-7 7 0 14zM701 60q7 7 14 0l24 -24q7 -7 0 -14t-14 0l-24 24q-7 7 0 14z" />
    <glyph glyph-name="E" unicode="E" 
d="M444 -10q-97 0 -165.5 68t-69.5 166q0 53 26 105l109 361q4 7 10 7h58q10 0 10 -10v-230q7 1 22 1q13 0 20 -1v230q0 10 10 10h59q7 0 10 -7l59 -197h79q10 0 10 -10v-155q0 -10 -10 -10h-25q21 -47 21 -94q0 -97 -68.5 -165.5t-164.5 -68.5zM585 480l-60 197h-41v-223
q54 -9 101 -45v71zM272 383q54 58 130 71v223h-41zM671 473h-66v-81q25 -25 41 -54h25v135zM443 438q-24 0 -41 -4l40 -114l40 115q-20 3 -39 3zM518 237l130 46q-15 53 -54.5 92.5t-93.5 54.5l-44 -129q24 -5 41 -22.5t21 -41.5zM367 237q4 24 21 41.5t41 22.5l-46 128
q-52 -16 -91 -55t-54 -92zM500 224q0 23 -17 40.5t-40 17.5q-24 0 -40.5 -17t-16.5 -41q0 -23 17 -39.5t40 -16.5t40 16.5t17 39.5zM656 224q0 20 -3 40l-115 -40l115 -40q4 26 3 40zM230 224q0 -20 3 -40l114 40l-114 40q-3 -20 -3 -40zM443 10q73 0 129.5 43.5t75.5 111.5
l-130 46q-5 -26 -26.5 -44.5t-48.5 -18.5q-29 0 -50 18t-26 45l-129 -45q19 -68 76 -112t129 -44zM408 79q0 16 10 26.5t26 10.5q14 0 25 -10.5t11 -26.5q0 -13 -11 -24t-25 -11q-15 0 -25.5 10.5t-10.5 24.5zM460 79q0 7 -5 12t-11 5q-16 0 -16 -17q0 -6 4.5 -10.5
t11.5 -4.5q6 0 11 4.5t5 10.5z" />
    <glyph glyph-name="F" unicode="F" 
d="M205 511q0 -42 5.5 -83t13.5 -41q10 0 15 39t5 85q0 49 -5.5 95.5t-14.5 46.5q-8 0 -13.5 -48.5t-5.5 -93.5zM656 511q0 -46 5 -85t15 -39q8 0 13.5 40t5.5 84q0 45 -5.5 93.5t-13.5 48.5q-9 0 -14.5 -46.5t-5.5 -95.5zM407 288l43 -226l43 226q2 5 7 7l14 5l25 180
q2 9 10 9h87v53l-144 84l8 -227q0 -10 -10 -10t-10 10l-9 239l-20 12l-22 -13l-9 -238q0 -10 -10 -10t-10 10l8 227l-144 -84v-53h87q8 0 10 -9l25 -180l14 -5q5 -2 7 -7zM450 -199q-10 0 -10 10v194l-52 274l-14 5q-5 2 -7 8l-25 177h-79q-5 -83 -29 -106v-169
q0 -10 -10 -10t-10 10v170q-29 38 -29 147q0 49 7 90t16 61.5t16 20.5q11 0 23 -34t16 -83l183 105h10l181 -105q3 35 10 62.5t14.5 41t14.5 13.5t16 -20.5t16 -61.5t7 -90q0 -111 -29 -147v-170q0 -10 -10 -10t-10 10v169q-26 26 -29 106h-79l-25 -177q-2 -6 -7 -8l-14 -5
l-52 -274v-194q0 -10 -10 -10zM450 283q-10 0 -10 10v108q0 10 10 10t10 -10v-108q0 -10 -10 -10zM450 269q10 0 10 -10v-32q0 -10 -10 -10t-10 10v32q0 10 10 10z" />
    <glyph glyph-name="G" unicode="G" 
d="M566 262q0 48 -34 82.5t-82 34.5t-82.5 -34.5t-34.5 -82.5t34.5 -82t82.5 -34t82 34t34 82zM586 262q0 -43 -26 -80l122 44v73l-122 44q26 -37 26 -81zM313 262q0 44 26 81l-122 -44v-73l122 -44q-26 37 -26 80zM418 272q3 10 10.5 17t11.5 6v32q-21 -3 -36.5 -18.5
t-18.5 -36.5h33zM514 272q-3 21 -18 36.5t-36 18.5v-33q9 -3 16 -10t6 -12h32zM816 296h-114v-67h114v67zM197 296h-114v-67h114v67zM463 262q0 14 -13 14q-14 0 -14 -14q0 -5 4.5 -9t9.5 -4q13 0 13 13zM460 198q23 4 39 20t15 34h-33q-5 -16 -21 -21v-33zM440 231
q-17 5 -22 21h-33q3 -21 18.5 -36t36.5 -18v33zM268 12l-200 117q-5 3 -5 9v248q0 6 5 9l200 117q9 4 14 -4q4 -9 -4 -14l-195 -114v-64h124l164 58q34 25 79 25q44 0 78 -25l164 -58h124v65l-195 114q-8 5 -4 14q5 8 14 4l200 -117q5 -3 5 -9v-248q0 -6 -5 -9l-200 -117
q-9 -4 -14 4q-4 9 4 14l195 114v64h-124l-165 -58q-34 -25 -77 -25q-45 0 -79 25l-164 58h-124v-65l195 -114q8 -5 4 -14q-5 -8 -14 -4zM364 262q0 36 25 61t61 25q35 0 60 -25t25 -61q0 -34 -25.5 -59.5t-59.5 -25.5q-36 0 -61 25t-25 60z" />
    <glyph glyph-name="H" unicode="H" 
d="M641 455q0 79 -56.5 135t-135.5 56t-135 -56t-56 -135t56 -135.5t135 -56.5t135.5 56.5t56.5 135.5zM366 558q-5 9 2 14q38 25 81 25t79 -25q7 -5 2 -14q-5 -7 -14 -2q-29 21 -67 21t-69 -21q-9 -5 -14 2zM402 454q0 23 12.5 38t34.5 15t34.5 -15t12.5 -38
q0 -18 -16 -40.5t-31 -22.5t-31 22.5t-16 40.5zM476 454q0 33 -27 33t-27 -33q0 -12 8.5 -27.5t18.5 -15.5t18.5 15.5t8.5 27.5zM411 188l27 -152l11 -6l11 6l27 152v60l-28 -4v-71q0 -10 -10 -10t-10 10v71l-28 4v-60zM592 -207q-10 0 -10 10v166l-92 121l-11 -63
q-2 -4 -5 -7l-20 -11q-5 -2 -10 0l-20 11q-3 3 -5 7l-11 63l-92 -122v-165q0 -10 -10 -10t-10 10v428q0 10 10 10t10 -10v-110l75 69v62q-67 18 -110 75t-43 128q0 88 61.5 149.5t149.5 61.5t150 -62t62 -149q0 -71 -43.5 -127.5t-110.5 -75.5v-62l75 -69v110q0 10 10 10
t10 -10v-428q0 -10 -10 -10zM319 97l-3 -2v-93l87 115l-9 49zM579 97l-75 69l-9 -49l87 -115v94z" />
    <glyph glyph-name="I" unicode="I" 
d="M313 51q-54 -35 -88.5 -51.5t-49 -16t-23.5 8.5t-9.5 21t11.5 41t39 71l1 1v1q3 4 8.5 12.5t9.5 13.5q185 283 185 296l41 105l41 42q6 6 13 1l81 -56l10 9q7 7 14 0l35 -35q7 -7 0 -14l-6 -5l29 -29l6 5q7 7 14 0l35 -35q7 -7 0 -14l-9 -9l55 -82q5 -7 -1 -13l-41 -40
q-88 -42 -105 -42q-23 0 -296 -186zM482 524l44 -45v12q0 4 3 7l30 29l-72 49l-32 -32q-10 -18 -27 -60l40 40q7 7 14 0zM568 465l43 43l-22 21l-43 -42v-22h22zM264 196l258 259l-47 48l-60 -60q-19 -43 -151 -247zM166 6q15 -16 106 42l333 333v31q0 4 3 7l33 34l-29 29
l-33 -34q-1 -3 -7 -3h-32l-329 -329q-62 -95 -45 -110zM646 387l43 43l-21 21l-43 -43v-21h21zM684 308l-39 -39q30 13 59 27l31 31l-48 73l-30 -30q-1 -3 -7 -3h-11l45 -45q7 -7 0 -14zM351 100q205 137 252 155l60 60l-48 48zM238 129q7 7 14 0l37 -37q7 -7 0 -14t-14 0
l-37 37q-7 7 0 14z" />
    <glyph glyph-name="J" unicode="J" 
d="M497 433l-47 176l-47 -176h94zM499 413h-98l24 -343h50zM371 101l-2 -31h36l-22 316l-45 -85v-97q0 -10 -10 -10t-10 10v58l-100 -192h65l-2 31v3l10 52q2 8 10 8h50q8 0 10 -8l10 -52v-3zM529 101v3l10 52q2 8 10 8h50q8 0 10 -8l10 -52v-3l-2 -31h65l-100 192v-58
q0 -10 -10 -10t-10 10v97l-45 85l-22 -316h36zM599 101l-8 43h-34l-8 -43l9 -131h32zM351 101l-8 43h-34l-8 -43l9 -131h32zM301 -50q-10 0 -10 9l-6 91h-84q-6 0 -9 4.5t0 10.5l126 242v79q0 10 10 10t10 -10v-41l42 81l60 227q2 7 10 7t10 -7l60 -227l42 -81v41
q0 10 10 10t10 -10v-79l126 -242q3 -6 0 -10.5t-9 -4.5h-84l-6 -91q0 -9 -10 -9h-50q-10 0 -10 9l-6 91h-166l-6 -91q0 -9 -10 -9h-50z" />
    <glyph glyph-name="K" unicode="K" 
d="M774 -84q-5 -7 -13 -1l-267 205l-56 -56q-7 -7 -14 0t0 14l55 55l-34 25l-44 -55q-7 -9 -15 -1l-39 39q-8 8 1 15l47 38l-26 24l-37 -46q-6 -8 -15 -1l-38 37q-8 8 1 15l55 45l-25 33l-55 -54q-7 -7 -14 0t0 14l56 56l-205 266q-5 7 1 13l34 34q7 7 14 0l237 -238l222 43
q6 1 9.5 -2.5t2.5 -9.5l-44 -221l239 -239q7 -7 0 -14zM524 150l-15 -15l257 -199l20 20l-236 236q-3 3 -3 9l29 148l-13 13q-7 7 0 14t14 0l4 -4l8 40l-40 -8l4 -4q7 -7 0 -14t-14 0l-14 14l-148 -29q-6 0 -9 3l-234 235l-21 -21l199 -257l15 15q7 7 14 0t0 -14l-17 -17
l27 -34l24 19q8 6 13 -1l19 -19q7 -5 1 -13l-27 -33l29 -28l33 26q8 6 13 -1l20 -20q7 -5 1 -13l-19 -24l35 -27l17 17q7 7 14 0t0 -14zM323 193l64 79l-7 7l-79 -65zM392 124l64 79l-8 8l-79 -64z" />
    <glyph glyph-name="L" unicode="L" 
d="M450 248q-107 0 -128 10q-15 7 -41 29t-35 40q-100 11 -131 49q-6 8 2 14q27 21 98.5 45t111.5 24q15 17 22 23.5t24.5 15t37.5 8.5q14 22 39 22q28 0 39 -22q22 -1 40 -10t24 -15.5t20 -21.5q44 -1 113.5 -25t96.5 -44q8 -6 2 -14q-30 -37 -128 -48q-12 -21 -37 -42
t-40 -28q-21 -10 -130 -10zM331 439q-31 0 -81.5 -14.5t-88.5 -32.5h578q-38 18 -88.5 32.5t-81.5 14.5q-5 0 -7 3q-1 1 -10.5 11t-13.5 13t-13 9.5t-19 8.5t-23 2q-6 0 -9 6q-8 16 -24 16t-24 -16q-3 -6 -9 -6q-13 0 -23 -2t-19 -8.5t-13 -9.5t-13.5 -13t-10.5 -11
q-2 -3 -7 -3zM450 340q88 0 131.5 1t94 8.5t74.5 22.5h-600q24 -15 74.5 -22.5t94 -8.5t131.5 -1zM572 276q36 20 59 49q-24 -2 -71 -4q-3 -22 -20 -51q27 4 32 6zM330 276q4 -2 19 -4q-22 37 -19 50q-32 0 -59 3q23 -29 59 -49zM440 268v52q-62 0 -90 1q2 -14 10.5 -30
t14.5 -21q22 -2 65 -2zM460 268q35 0 55 1q21 23 25 52q-25 -1 -80 -1v-52zM370 196q10 0 10 -10v-141q0 -10 -10 -10t-10 10v141q0 10 10 10zM520 196q10 0 10 -10v-141q0 -10 -10 -10t-10 10v141q0 10 10 10zM450 156q10 0 10 -10v-179q0 -10 -10 -10t-10 10v179
q0 10 10 10z" />
    <glyph glyph-name="M" unicode="M" 
d="M681 426l62 34q-20 35 -59.5 74.5t-72.5 58.5l-34 -63zM580 371l83 45l-96 96l-45 -84l8 -7zM173 -17q-4 0 -7 3l-30 30q-3 3 -3 8q3 47 49 237q2 4 3 5q48 49 144.5 142.5t100.5 97.5q7 7 14 0l63 -63l91 168q6 8 13 4q38 -18 86.5 -66.5t69.5 -87.5q4 -9 -4 -14
l-168 -91l63 -62q7 -7 0 -14q-12 -12 -102.5 -105t-138.5 -141q-1 -1 -5 -3q-213 -47 -239 -48zM410 55q42 43 122.5 125.5t104.5 106.5l-201 198q-27 -27 -108.5 -106t-122.5 -120zM259 250q-7 7 0 14l105 101q7 7 14 0t0 -14l-105 -101q-7 -7 -14 0zM402 108l-76 75
q-7 7 0 14l103 103q7 7 14 0l75 -73q7 -7 0 -14l-102 -105q-7 -7 -14 0zM408 129l89 91l-61 59l-89 -89zM176 3q15 1 44.5 6.5t54 11t63 14.5t52.5 12l-193 192q-42 -180 -44 -212z" />
    <glyph glyph-name="N" unicode="N" 
d="M464 543h-28l-20 -57h68zM510 155v-74h70v133l-89 252h-82l-89 -252v-133h70v74q0 10 10 10t10 -10v-74h80v74q0 10 10 10t10 -10zM223 46l77 32v109l-102 -120zM677 46l25 21l-102 120v-109zM500 -10q-10 0 -10 10v61h-80v-61q0 -10 -10 -10t-10 10v61h-78l-87 -35
q-5 -4 -10 1l-37 31q-8 6 -2 14l126 148l118 336q2 7 9 7h42q7 0 9 -7l118 -336l126 -148q6 -8 -2 -14l-37 -31q-5 -5 -10 -1l-87 35h-78v-61q0 -10 -10 -10z" />
    <glyph glyph-name="O" unicode="O" 
d="M661 305q-62 0 -110.5 15t-100.5 55q-54 -40 -102 -55t-109 -15q-10 0 -10 10t10 10q58 0 105 15.5t100 55.5q6 6 12 0q53 -40 100 -55.5t105 -15.5q10 0 10 -10t-10 -10zM419 206q0 10 10 10h41q10 0 10 -10v-94h56v94q0 10 10 10h41q10 0 10 -10v-69q27 4 48 25.5
t43.5 58.5t38.5 54q16 18 37 30t36.5 17t41.5 11.5t36 9.5q-41 15 -161 30.5t-133 19.5q-60 19 -134 94q-77 -77 -134 -94q-13 -4 -133 -19.5t-161 -30.5q10 -3 36 -9.5t41.5 -11.5t36.5 -17t37 -30q16 -17 38.5 -54t43.5 -58.5t48 -25.5v69q0 10 10 10h41q10 0 10 -10v-94
h55v94zM577 196h-21v-102h21v102zM460 196h-21v-102h21v102zM344 196h-21v-102h21v102zM313 74q-10 0 -10 10v33q-30 3 -53 24.5t-49 62t-42 57.5q-22 24 -50 36.5t-63 20.5t-50 15q-6 2 -6.5 8t5.5 10q31 19 167 38.5t148 23.5q33 9 62 30.5t71 64.5q7 7 14 0
q42 -43 71 -64.5t62 -30.5q12 -4 148 -23.5t167 -38.5q6 -4 5.5 -10t-6.5 -8q-15 -7 -50 -15t-63 -20.5t-50 -36.5q-16 -17 -42 -57.5t-49 -62t-53 -24.5v-33q0 -10 -10 -10h-41q-10 0 -10 10v8h-56v-8q0 -10 -10 -10h-41q-10 0 -10 10v8h-55v-8q0 -10 -10 -10h-41z" />
    <glyph glyph-name="P" unicode="P" 
d="M483 399l105 -24l80 5l85 110h-195l-148 -97zM374 131l100 -8v255l-100 -9l-155 -37v-164zM494 125l83 18v214l-83 19v-251zM726 136v227l-129 -7v-212zM746 171q46 19 81 79q-35 59 -81 79v-158zM199 178v144l-117 -72zM773 -10h-218q-3 0 -5 2l-182 120l1 -1l-162 39
h-1l-2 1l-147 90q-13 9 0 18l147 90l1 1h2l162 39l-3 -2l184 121q2 2 5 2h218q7 0 9.5 -5.5t-1.5 -10.5l-86 -112l41 2q10 0 10 -10v-24q55 -15 101 -95q2 -3 0 -10q-45 -76 -101 -95v-25q0 -10 -10 -10l-42 3l87 -112q4 -5 1.5 -10.5t-9.5 -5.5zM483 102l-74 6l149 -98h195
l-85 110l-80 5z" />
    <glyph glyph-name="Q" unicode="Q" 
d="M412 414q-82 0 -129 -62h184v53q-27 9 -55 9zM539 352q-21 27 -52 44v-44h52zM666 370q0 10 10 10h68q10 0 10 -10t-10 -10h-68q-10 0 -10 10zM243 232l209 -56l252 54l8 39q2 8 10 8h64v163h-78l-143 -106q-4 -2 -6 -2h-400q-20 0 -32 -7.5t-12 -19.5q0 -21 25.5 -36.5
t102.5 -36.5zM495 45q-13 0 -22 9t-9 21q0 17 12 26l-63 64l-171 46l-26 -27q3 -4 3 -13q0 -12 -8.5 -21t-21.5 -9t-22 9t-9 21q0 13 9 22t22 9q7 0 13 -3l18 18q-57 17 -85.5 33t-34 26.5t-5.5 28.5t16 32.5t48 14.5h99q24 38 65 60t89 22q45 0 84.5 -20.5t64.5 -56.5
l138 101q4 2 6 2h91q10 0 10 -10v-183q0 -10 -10 -10h-66l-7 -38q-2 -7 -8 -8l-210 -45v-61q20 -5 20 -30q0 -12 -8.5 -21t-21.5 -9zM189 161q10 0 10 10q0 11 -10 11q-11 0 -11 -11q0 -10 11 -10zM454 155h-3l34 -34v41zM505 75q0 12 -10 12q-11 0 -11 -12q0 -10 11 -10
q10 0 10 10z" />
    <glyph glyph-name="R" unicode="R" 
d="M448 -39l-87 9q-9 2 -9 11l5 71h-146q-10 0 -10 10q0 40 12.5 75.5t26.5 55.5t36.5 47t30.5 40q24 37 47.5 128t23.5 134q0 22 28 57.5t44 35.5q17 0 45 -35.5t28 -57.5q0 -43 23.5 -134t46.5 -128q8 -13 30.5 -40t36.5 -47t26.5 -55.5t12.5 -75.5q0 -10 -10 -10h-146
l5 -71q0 -9 -9 -11l-89 -9h-2zM450 164l53 -7v385q0 17 -20 45t-33 28t-32.5 -28t-19.5 -45v-385l50 7h2zM484 528q-5 -8 -14 -4q-8 6 -20 6q-11 0 -19 -6q-9 -4 -14 4q-4 9 4 14q16 8 29 8q14 0 30 -8q8 -5 4 -14zM323 270q-7 -11 -38 -48t-47.5 -71.5t-16.5 -78.5h137
l5 73q0 7 9 9l6 1v266q-28 -111 -55 -151zM537 145l5 -73h137q-2 45 -18.5 80t-47 72t-36.5 46q-26 41 -54 151v-266l5 -1q9 -2 9 -9zM337 146q0 -10 -10 -10h-52q-10 0 -10 10t10 10h52q10 0 10 -10zM635 146q0 -10 -10 -10h-52q-10 0 -10 10t10 10h52q10 0 10 -10z
M459 -18l68 7l-9 146l-59 8v-161zM439 -18v161l-57 -8l-9 -146z" />
    <glyph glyph-name="S" unicode="S" 
d="M631 381l47 48l8 58l-58 -7l-46 -47zM512 360q-73 -71 -212 -226l14 -25l27 -16q4 4 97 96t123 122l55 56l-48 51zM552 -144q-8 -7 -14 3l-42 73q-4 6 0 10l24 38l-118 146l-53 -53q-5 -5 -12 -2l-35 21l-3 4l-20 35q-4 7 1 12q21 23 51 55l-143 120l-35 -24q-5 -4 -11 0
l-71 45q-9 5 -3 13l28 44q2 5 7 5q50 7 280 7l395 232q7 4 13 -2l20 -21l21 -22q4 -6 1 -12l-226 -405q0 -225 -6 -287q0 -5 -4 -7zM541 -25l-25 -38l34 -59l32 20l5 283l225 405l-16 17l-14 15l-396 -230q-226 1 -276 -6l-20 -32l57 -36l37 24q5 5 12 0l149 -125
q92 101 152 161l119 123l6 3l74 9q5 1 8.5 -2.5t2.5 -8.5l-10 -76l-2 -6l-121 -119l-158 -157l124 -154q5 -5 1 -11z" />
    <glyph glyph-name="T" unicode="T" 
d="M449 466q-10 0 -10 10v70q0 10 10 10t10 -10v-70q0 -10 -10 -10zM383 421l13 82l-68 -22v-32zM515 421l55 28v32l-68 22zM425 -65q-10 0 -10 10v55h-24q-10 0 -10 10v82l-319 181q-5 3 -5 9v79q0 5 4 8t9 2l245 -75l66 39v64l-68 35q-5 3 -5 9v46q0 7 7 10l84 27l20 126
q2 5 7 7l13 5v63q0 10 10 10t10 -10v-63l13 -5q5 -2 7 -7l20 -126l84 -27q7 -3 7 -10v-46q0 -6 -5 -9l-68 -35v-64l67 -39l245 75q5 1 9 -2t4 -8v-79q0 -6 -5 -9l-320 -181v-82q0 -10 -10 -10h-24v-55q0 -10 -10 -10h-48zM313 275l-236 72v-59l304 -172v195l-60 -35
q-2 -1 -8 -1zM578 276l-61 35v-196l305 173v59l-236 -72q-6 0 -8 1zM415 61q0 10 10 10h48q10 0 10 -10v-41h14v383l-37 240l-11 4l-11 -4l-37 -240v-383h14v41zM463 51h-28v-96h28v96z" />
    <glyph glyph-name="U" unicode="U" 
d="M460 116v-96h35l13 224l-58 354l-58 -354l13 -224h35v96q0 10 10 10t10 -10zM413 498l10 61l-60 -61h50zM537 498l-60 61l10 -61h50zM421 332q0 12 8.5 20.5t20.5 8.5q13 0 21.5 -8t8.5 -21q0 -12 -8.5 -20.5t-21.5 -8.5q-12 0 -20.5 8.5t-8.5 20.5zM372 247l16 97
l-134 -192h123l-5 92v3zM528 244l-5 -92h123l-134 192l16 -97v-3zM460 332q0 9 -10 9q-9 0 -9 -9t9 -9q10 0 10 9zM563 10h4l-28 78h-20l-3 -70zM337 10l47 8l-3 70h-19l-28 -78h3zM450 -63q-10 0 -10 10v53h-43l-56 -10h-22q-5 0 -8 4t-1 9l36 98q2 7 9 7h25l-2 24h-143
q-7 0 -9.5 5t1.5 11l168 242l15 88h-71q-7 0 -9.5 6t2.5 11l96 97l12 71q2 8 10 8t10 -8l12 -71l96 -97q5 -5 2.5 -11t-9.5 -6h-71l15 -88l168 -242q4 -6 1.5 -11t-9.5 -5h-143l-2 -24h25q7 0 10 -7l36 -98q4 -13 -10 -13h-22l-56 10h-43v-53q0 -10 -10 -10z" />
    <glyph glyph-name="V" unicode="V" 
d="M435 197q44 -44 108.5 -44t108.5 44q46 46 45.5 110t-45.5 108q-45 46 -109 46t-109 -45q-45 -44 -45 -108.5t46 -110.5zM494 355q21 21 50 21t50 -21q20 -20 20 -49t-21 -50q-20 -21 -49 -21t-50 21t-21 50t21 49zM579 270q15 15 15 36t-14 35q-15 15 -36 15t-36 -15
q-15 -14 -15 -35t15 -36t36 -15t35 15zM421 183q-54 54 -51 131h-47v-91l136 -136l92 -1v47q-75 -3 -130 50zM303 219v35l-55 -23v-53l167 -168h54l23 57h-37q-4 0 -7 3l-142 142q-3 3 -3 7zM386 11l-137 138l3 -98l36 -36zM591 -183q-9 -4 -14 4l-104 169h-62l-127 5
q-6 0 -7 3l-35 35l-43 -44q-7 -7 -14 0t0 14l47 48l-4 123v64q0 7 6 9l69 28v49q0 10 10 10h58q10 57 49 96q35 35 84 46.5t93 -4.5l88 87q7 7 14 0t0 -14l-82 -81q21 -10 35 -22l36 37q7 7 14 0t0 -14l-36 -36q51 -50 51.5 -122t-51.5 -124q-38 -40 -95 -48v-59
q0 -10 -10 -10h-48l-8 -18l192 -118q8 -5 4 -14q-5 -8 -14 -4l-189 117l-10 -24l107 -174q4 -9 -4 -14z" />
    <glyph glyph-name="W" unicode="W" 
d="M703 222l-253 63l-253 -63q-8 -2 -11.5 5.5t3.5 12.5l255 204q6 6 12 0l255 -204q7 -5 3.5 -12.5t-11.5 -5.5zM452 306l211 -53l-213 170l-212 -170l209 53h5zM580 145q0 31 17.5 46t39.5 15q59 0 132 -42l26 38l-272 242l-73 132l-73 -132l-272 -242l26 -38
q73 42 132 42q22 0 39.5 -15t17.5 -46v-14h260v14zM600 62q0 -10 -10 -10t-10 10v49h-260v-49q0 -10 -10 -10t-10 10v83q0 20 -11 30.5t-26 10.5q-53 0 -130 -44q-8 -4 -13 3l-36 52q-5 7 1 13l216 192v150q0 10 10 10t10 -10v-132l39 35l81 147q3 5 9 5.5t9 -5.5l81 -147
l39 -35v132q0 10 10 10t10 -10v-150l215 -192q8 -6 2 -13l-36 -52q-5 -7 -13 -3q-76 44 -130 44q-15 0 -26 -10.5t-11 -30.5v-83z" />
    <glyph glyph-name="X" unicode="X" 
d="M382 343q-12 0 -10 12l37 187q2 8 10 8h62q8 0 10 -8l37 -187q2 -12 -10 -12h-136zM473 530h-46l-33 -167h112zM599 205l8 -60l62 3l-14 155l-56 48v-146zM400 209q0 4 4 8l40 30q6 4 12 0l40 -30q4 -4 4 -8v-82h18l61 81v164l-73 183l-56 22l-56 -22l-73 -183v-164
l61 -81h18v82zM480 107v97l-30 23l-30 -23v-97h60zM301 205v146l-56 -48l-14 -155l62 -3zM460 -64q-2 -8 -10 -8t-10 8l-40 159v12h-23q-4 0 -8 4l-51 68l-6 -48l-45 -154q-2 -8 -10 -7.5t-10 8.5l-37 159l15 172q0 3 4 7l74 63l74 188q3 5 5 5l64 24q4 2 8 0l64 -24
q2 0 5 -5l74 -188l74 -63q4 -4 4 -7l15 -172l-37 -159q-2 -8 -10 -8.5t-10 7.5l-45 154l-6 48l-51 -68q-4 -4 -8 -4h-23v-12zM258 21l30 104l-55 3zM642 21l25 107l-55 -3zM477 87h-54l27 -107z" />
    <glyph glyph-name="Y" unicode="Y" 
d="M898 490h-59v-76h59v76zM819 490h-218v-76h218v76zM298 490h-217v-76h217v76zM61 490h-60v-76h60v76zM463 433h-26v-94h26v94zM898 394h-59v-53h59v53zM819 394h-218v-53h218v53zM420 -10q-8 0 -10 8l-18 93h-14q-10 0 -10 10v189l-26 26q-3 3 -3 7v51q0 4 3 7l13 13h-37
v-63q0 -10 -10 -10h-317q-10 0 -10 10v169q0 10 10 10h317q10 0 10 -10v-86h99v29q0 10 10 10h46q10 0 10 -10v-29h98v86q0 10 10 10h317q10 0 10 -10v-169q0 -10 -10 -10h-317q-10 0 -10 10v63h-37l13 -13q3 -3 3 -7v-51q0 -4 -3 -7l-26 -26v-189q0 -10 -10 -10h-14
l-18 -93q-2 -8 -10 -8h-59zM531 329v-11l9 9v43l-24 24h-33v-55h38q10 0 10 -10zM298 394h-217v-53h217v53zM61 394h-60v-53h60v53zM368 329q0 10 10 10h39v55h-34l-24 -24v-43l9 -9v11zM511 319h-123v-90h123v90zM511 209h-123v-98h123v98zM487 91h-75l16 -81h43z" />
    <glyph glyph-name="Z" unicode="Z" 
d="M676 591l66 65l-86 85l-65 -65zM597 512l65 65l-85 86l-65 -66zM775 492l65 65l-85 85l-65 -65zM696 413l65 65l-85 85l-65 -65zM296 505q43 41 77 7q17 -18 14.5 -38t-21.5 -39q-41 -41 -77 -7q-34 34 7 77zM616 465l-51 51v-51h51zM303 442q22 -20 49 7q29 29 7 49
q-20 20 -49 -7q-27 -29 -7 -49zM475 326q15 16 30 27l-61 62l-38 -21l-20 -37l61 -62q12 15 28 31zM613 349q-43 43 -124 -37q-39 -39 -48 -72t11 -51q43 -43 124 36q39 40 48 73t-11 51zM519 219q-9 3 -7 13l5 23l-22 -6q-9 -2 -12 8q-2 9 8 12l32 8l10 35q3 9 13 7
q9 -3 7 -13l-7 -23l25 6q9 2 12 -8q2 -9 -8 -12l-34 -8l-9 -35q-3 -9 -13 -7zM251 -61q-7 -7 -14 0l-198 198q-7 7 0 14l158 159q7 7 14 0l54 -54h76l59 59l-33 33q-5 5 -2 12l25 47l4 4l47 25q7 3 12 -2l33 -33l59 58v77l-54 54q-7 7 0 14l159 158q7 7 14 0l198 -198
q7 -7 0 -14l-159 -158q-7 -7 -14 0l-53 53h-78l-58 -58l22 -22q64 39 105 -2q16 -16 20 -36.5t-9.5 -51t-47.5 -64.5q-95 -93 -152 -36q-42 40 -2 104l-22 22l-58 -59v-77l53 -53q7 -7 0 -14zM223 138l66 66l-85 85l-66 -66zM336 236h-51l51 -51v51zM144 59l65 65l-85 85
l-65 -65zM322 40l66 65l-85 85l-66 -66zM243 -40l65 65l-85 85l-65 -65z" />
    <glyph glyph-name="underscore" unicode="_" 
d="M283 56q-44 0 -75.5 31.5t-31.5 75.5q0 48 37 79l222 223q3 3 7 3h272q7 0 9.5 -6t-2.5 -11l-353 -352q-31 -43 -85 -43zM389 163q0 -12 -1 -17l302 302h-108l-218 -217q25 -28 25 -68zM283 269q38 0 67 -24l204 203h-108l-181 -181q12 2 18 2zM369 163q0 36 -25.5 61
t-60.5 25q-36 0 -61.5 -25t-25.5 -61q0 -35 25.5 -61t61.5 -26q35 0 60.5 26t25.5 61z" />
    <glyph glyph-name="a" unicode="a" 
d="M359 398q0 10 10 10h162q10 0 10 -10t-10 -10h-162q-10 0 -10 10zM521 348h-142v-40h142v40zM867 306h-99v-127h99v127zM694 306h-99v-127h99v127zM305 306h-99v-127h99v127zM132 306h-99v-127h99v127zM521 288h-142v-139h142v139zM417 217q0 15 10 24.5t24 9.5
t23.5 -9.5t9.5 -24.5q0 -13 -9.5 -23t-23.5 -10t-24 10t-10 23zM464 217q0 14 -13 14q-14 0 -14 -14q0 -5 4.5 -9t9.5 -4q13 0 13 13zM612 25q-14 0 -24 10t-10 23q0 9 4 16l-55 55h-154l-55 -55q3 -7 3 -16q0 -13 -9.5 -23t-23.5 -10t-24 10t-10 23q0 15 10 24.5t24 9.5
q9 0 16 -4l55 55v86h-34v-60q0 -10 -10 -10h-119q-10 0 -10 10v60h-34v-60q0 -10 -10 -10h-119q-10 0 -10 10v147q0 10 10 10h119q10 0 10 -10v-67h34v67q0 10 10 10h119q10 0 10 -10v-67h34v109q0 10 10 10h162q10 0 10 -10v-109h34v67q0 10 10 10h119q10 0 10 -10v-67h34
v67q0 10 10 10h119q10 0 10 -10v-147q0 -10 -10 -10h-119q-10 0 -10 10v60h-34v-60q0 -10 -10 -10h-119q-10 0 -10 10v60h-34v-86l55 -55q7 4 16 4q14 0 23.5 -9.5t9.5 -24.5q0 -13 -9.5 -23t-23.5 -10zM301 58q0 14 -13 14q-14 0 -14 -14q0 -5 4.5 -9t9.5 -4q13 0 13 13z
M625 58q0 14 -13 14q-14 0 -14 -14q0 -5 4.5 -9t9.5 -4q13 0 13 13z" />
    <glyph glyph-name="b" unicode="b" 
d="M690 -11q-7 -7 -14 0l-186 172q-7 7 0 14l32 32h-52l-2 2l-5 1l-140 139l-3 3v56l-31 -31q-7 -7 -14 0l-172 186q-7 7 0 14l107 107q7 7 14 0l186 -172q7 -7 0 -14l-31 -31h55l126 118q7 7 14 0l125 -125q7 -7 0 -14l-119 -126v-55l32 32q7 7 14 0l172 -186q7 -7 0 -14z
M342 459l46 46l-171 158l-40 -39zM282 398l46 47l-165 165l-40 -40zM470 231l208 222l-111 111l-223 -208zM538 509q7 7 14 0l70 -70q7 -7 0 -14l-145 -146q-7 -7 -14 0l-70 70q-7 7 0 14zM469 300l132 132l-56 56l-132 -132zM413 447h-54l-19 -19v-50zM384 274
q40 -40 40 -97t-40 -98q-13 -13 -27 -22q-7 -3 -12 2l-175 175q-5 5 -2 12q11 16 22 28q40 40 97 40t97 -40zM542 227l18 18v53l-67 -71h49zM204 258q-9 -7 -15 -16l164 -163q1 1 17 14q34 35 34 84t-34 83t-83 33.5t-83 -35.5zM737 64l40 40l-159 172l-46 -47zM682 10
l41 40l-165 165l-47 -47z" />
    <glyph glyph-name="c" unicode="c" 
d="M350 490h-61v-61h61v61zM846 219l-131 10q-9 0 -9 10v63l-44 44q-7 7 -1 13l85 100q7 9 15 1l61 -61q8 -7 0 -15l-77 -67l101 8q11 0 11 -10v-86q0 -10 -11 -10zM715 320l84 73l-45 45l-72 -85zM559 409h-48l16 -81l120 -24zM490 409h-90l-24 -80h130zM354 328l25 81h-94
l-57 -97zM64 184l124 66l-124 66v-132zM509 191v118h-136v-118h136zM353 192v116l-134 -18v-80zM529 193l134 26v62l-134 26v-114zM837 240v64l-111 -8v-48zM559 91l88 105l-120 -24l-16 -81h48zM379 91l-25 81l-126 16l57 -97h94zM506 171h-130l24 -80h90zM198 -10
q-10 0 -10 10v81q0 10 10 10h63l-61 105l-1 5v31l-140 -74q-6 -3 -10.5 0t-4.5 9v166q0 6 4.5 9t10.5 0l140 -74v31l1 5l69 118v78q0 10 10 10h81q10 0 10 -10v-71h194q4 0 8 -4l109 -130q2 -2 2 -6v-78q0 -4 -2 -6l-109 -130q-4 -4 -8 -4h-275v-71q0 -10 -10 -10h-81z
M269 71h-61v-61h61v61z" />
    <glyph glyph-name="d" unicode="d" 
d="M269 363v192h-77v-192l29 -29h19zM718 358v182h-57v-182l29 -28zM474 266v34l-30 34h-71v-102h71zM353 334h-37l-15 -14v-74l15 -14h37v102zM281 314h-109v-62h109v62zM717 257l11 -2v56l-11 -2h-119l-14 -13v-26l14 -13h119zM564 270v26l-14 13h-45l-11 -9v-34l11 -9h45
zM718 26v182l-28 29l-29 -29v-182h57zM182 -10q-10 0 -10 10v207q0 4 3 7l18 18h-31q-10 0 -10 10v82q0 10 10 10h31l-18 18q-3 3 -3 7v206q0 10 10 10h95l2 1q10 0 10 -10v-207q0 -4 -3 -7l-18 -18h19l18 17q3 3 7 3h136q6 0 7 -3l30 -33l9 8q3 3 7 3h53q4 0 7 -3l13 -12
l13 12q3 3 7 3h68l-18 18q-3 3 -3 7v196q0 10 10 10h77q10 0 10 -10v-196q0 -4 -3 -7l-17 -17l18 4q12 2 12 -10v-82q0 -12 -12 -10l-18 4l17 -17q3 -3 3 -7v-196q0 -10 -10 -10h-77q-10 0 -10 10v196q0 4 3 7l18 18h-68q-4 0 -7 3l-13 12l-13 -12q-3 -3 -7 -3h-53
q-4 0 -7 3l-9 8l-30 -33q-1 -3 -7 -3h-136q-4 0 -7 3l-18 17h-19l18 -18q3 -3 3 -7v-206q0 -10 -10 -10h-95zM269 203l-29 29h-19l-29 -29v-192h77v192z" />
    <glyph glyph-name="e" unicode="e" 
d="M253 48q-10 -2 -13 7q-2 10 7 13l401 112q-60 17 -87 76l-207 -32q-10 -2 -12 8t8 12l204 31q-5 20 -5 37q0 10 1 15h-463q-10 0 -10 10t10 10h467q18 62 76 89l-381 49q-11 2 -9 11q2 11 11 9l448 -58q52 -5 87.5 -44t35.5 -91q0 -46 -27 -82t-70 -49v-1zM685 195
q48 0 82.5 34.5t34.5 82.5q0 44 -29.5 77t-73.5 38l-5 1h-9q-39 0 -69.5 -22.5t-41.5 -58.5h115v5q0 10 10 10t10 -10v-30q0 -10 -10 -10t-10 10v5h-119q-1 -5 -1 -15q0 -48 34 -82.5t82 -34.5z" />
    <glyph glyph-name="f" unicode="f" 
d="M382 -94l-132 36q-9 3 -7 13l52 191q-75 59 -75 153q0 38 14 72l-140 140q-7 7 0 14l97 96q7 7 14 0l140 -140q34 14 71 14q93 0 152 -74l193 52q10 2 13 -8l34 -133q2 -9 -7 -12l-190 -50q-11 -63 -56.5 -108.5t-107.5 -55.5l-52 -193q-3 -9 -13 -7zM243 390
q29 54 83 83l-128 127l-83 -82zM592 299q0 73 -51.5 124.5t-124.5 51.5t-124.5 -51.5t-51.5 -124.5t51.5 -124.5t124.5 -51.5t124.5 51.5t51.5 124.5zM612 299v-7l174 46l-29 112l-175 -47q30 -47 30 -104zM283 300q0 54 39.5 93.5t94.5 39.5q54 0 93.5 -39.5t39.5 -93.5
q0 -55 -39.5 -94.5t-93.5 -39.5q-55 0 -94.5 39.5t-39.5 94.5zM530 300q0 46 -33 79.5t-80 33.5t-80.5 -33.5t-33.5 -79.5q0 -47 33.5 -80.5t80.5 -33.5q46 0 79.5 33.5t33.5 80.5zM384 317q0 23 15 38t38 15q22 0 38 -15.5t16 -37.5t-16 -37.5t-38 -15.5q-23 0 -38 15
t-15 38zM471 317q0 14 -10 23.5t-24 9.5q-13 0 -23 -10t-10 -23t10 -23t23 -10q14 0 24 9.5t10 23.5zM416 103q-56 0 -103 30l-47 -174l112 -30l47 174h-9z" />
    <glyph glyph-name="g" unicode="g" 
d="M300 482q-41 -43 13 -135l184 77q-138 115 -197 58zM518 433l133 56l-223 7q44 -24 90 -63zM570 385l84 83l-120 -49q28 -26 36 -34zM618 335l49 119l-83 -83q12 -12 34 -36zM695 230l-7 221l-56 -132q41 -49 63 -89zM411 225l145 146q-21 21 -42 39l-190 -80
q33 -49 87 -105zM300 153l47 113q-47 56 -66 99l-5 -188zM529 124l80 191q-13 16 -39 42l-145 -146q61 -58 104 -87zM682 100q58 58 -59 198l-77 -184q94 -56 136 -14zM404 204q-40 43 -42 45l-47 -110l24 -23l110 46q-3 2 -45 42zM377 75l189 5q-47 23 -101 68l-113 -48z
M300 37l44 44l-62 63l-44 -44zM224 4l41 40l-21 22l-41 -41zM231 -17q-7 -7 -14 0l-35 35q-7 7 0 14l49 47l-14 14q-7 7 0 14l51 50l-9 9q-3 3 -3 7l7 254q-3 42 23 69q36 34 91 20l319 -9l10 -10l9 -313q18 -61 -19 -98q-25 -27 -67 -24l-256 -7q-4 0 -7 3l-8 9l-51 -51
q-7 -7 -14 0l-14 14z" />
    <glyph glyph-name="h" unicode="h" 
d="M677 530l-72 73l-49 -7l194 -194l14 125l-84 84l-50 -5l61 -62q7 -7 0 -14t-14 0zM534 521l97 -98l78 -78l35 35l-210 210l-36 -35l33 -33zM605 323l48 49l-36 37l-91 90l-48 -48zM572 244l3 -5l19 67l-133 134l-67 -19l60 -60zM441 127l109 109l-110 111l-50 49
l-110 -108zM391 149l-91 91l-2 -43l44 -45zM279 97l45 45l-36 37l-45 -45zM194 -4l51 52l-2 52l-52 2l-52 -51zM201 -25q-7 -7 -14 0l-69 69q-7 7 0 14l62 61q3 3 7 3l41 -1l-6 6q-7 7 0 14l56 56l3 62l-22 22q-7 7 0 14l117 116l-9 9q-5 4 -3.5 10t7.5 7l89 24l52 52
l-35 35q-7 7 0 14l53 52l152 18q5 0 8 -3l92 -92q3 -3 3 -8l-18 -154l-51 -51q-7 -7 -14 0l-35 34l-52 -53l-24 -89q-1 -6 -7 -7.5t-10 3.5l-10 10l-116 -116q-7 -7 -14 0l-22 22l-70 4l-56 -56q-7 -7 -14 0l-8 8l1 -40q0 -4 -3 -7z" />
    <glyph glyph-name="i" unicode="i" 
d="M450 66q-160 0 -268 37q-4 0 -6 5q-14 26 -8 55q6 30 53.5 139.5t55.5 110.5q37 7 94 11v60q0 10 9 10l69 6h2l69 -6q9 0 9 -10v-60q57 -4 95 -11q8 -1 55.5 -110.5t53.5 -139.5q6 -29 -8 -55q-2 -5 -6 -5q-108 -37 -269 -37zM450 427q37 0 59 -1v49l-59 5l-59 -5v-49
q20 1 59 1zM450 138q138 0 260 30q-11 40 -50.5 132t-46.5 93q-70 14 -163 14q-92 0 -162 -14q-7 -1 -46.5 -92.5t-51.5 -132.5q120 -30 260 -30zM575 201q-10 -2 -12 8q-14 92 -40 146q-4 9 5 13t13 -5q11 -24 24 -71.5t18 -78.5q2 -10 -8 -12zM275 292q0 30 20.5 50.5
t50.5 20.5q29 0 49.5 -20.5t20.5 -50.5q0 -29 -20.5 -49.5t-49.5 -20.5q-30 0 -50.5 20.5t-20.5 49.5zM396 292q0 21 -14.5 36t-35.5 15t-36 -15t-15 -36t15 -35.5t36 -14.5t35.5 15t14.5 35zM450 86q156 0 258 34q5 12 5 28q-118 -30 -263 -30q-147 0 -263 30q0 -18 5 -28
q105 -34 258 -34z" />
    <glyph glyph-name="j" unicode="j" 
d="M379 589q-17 17 -63 -5.5t-111 -86.5q-130 -132 -92 -174q43 -41 175 91q65 65 87 110.5t4 64.5zM232 407q-10 0 -10 10v54q0 10 10 10h53q10 0 10 -10t-10 -10h-43v-44q0 -10 -10 -10zM302 400q-36 -36 -64 -58l23 -24l119 119l-23 23q-22 -29 -55 -60zM268 256l175 175
l-44 -4l-128 -127zM380 219v-108h85l57 56l-94 93q-7 7 0 14q8 8 14 0l94 -93l52 52l-1 86h-107q-10 0 -10 10t10 10h92l-102 92l-201 -201l91 -102v91q0 10 10 10t10 -10zM380 -107q0 -10 -10 -10t-10 10v204l-115 130l6 73l-29 30q-82 -58 -123 -21q-54 56 92 202
q43 43 78.5 68t59 31.5t39 4.5t25.5 -12q39 -39 -24 -127l29 -29l70 7v-1l8 -2l125 -112h204q10 0 10 -10t-10 -10h-198l1 -90q0 -4 -3 -7l-55 -55l123 -123q7 -7 0 -14q-6 -8 -14 0l-123 123l-60 -59q-2 -3 -7 -3h-89v-198z" />
    <glyph glyph-name="k" unicode="k" 
d="M458 495q-62 0 -110 -37t-60 -93h340q-12 57 -59.5 93.5t-110.5 36.5zM205 -10q-8 0 -10 8l-28 109h-122q-8 0 -10 8l-20 88q-2 6 4 10l203 152h45q13 64 66.5 107t124.5 43q72 0 126.5 -44t64.5 -106h30l202 -152q6 -4 3 -11l-30 -88q-2 -7 -9 -7h-111l-28 -109
q-2 -8 -10 -8h-491zM664 345h-428l7 -82h414zM42 179l181 80l-6 77l-180 -135zM857 180l7 21l-180 135l-7 -77zM656 243h-411l4 -50h403zM840 131l10 31l-174 77l-5 -49zM52 131l177 59l-4 48l-179 -78zM650 173h-399l3 -46h392zM234 127l-3 43l-131 -43h134zM794 127
l-124 43l-4 -43h128zM713 107h-525l25 -97h475z" />
    <glyph glyph-name="l" unicode="l" 
d="M736 216q-23 94 -100 156.5t-176 66.5v-223h276zM271 216l159 222q-95 -6 -169 -68t-97 -154h107zM440 216v202l-144 -202h144zM786 196h-672v-55h672v55zM739 -10h-578q-10 0 -10 10v121h-132q-10 0 -10 10t10 10h75v65q0 10 10 10h39q25 105 111 174t195 69q1 1 4 0
q111 -1 197 -71t107 -172h39q10 0 10 -10v-65h75q10 0 10 -10t-10 -10h-132v-121q0 -10 -10 -10zM729 121h-204v-111h204v111zM440 121h-269v-111h269v111zM505 121h-45v-111h45v111z" />
    <glyph glyph-name="m" unicode="m" 
d="M239 279q0 -54 12 -76h409q12 36 12 76q0 89 -63.5 152.5t-152.5 63.5t-153 -63.5t-64 -152.5zM729 183h-547v-52h547v52zM750 6l-88 105h-66l-30 -35l170 -89zM570 111h-240l84 -101h72zM333 76l-29 35h-66l-88 -104l14 -20zM388 10l-41 50l-95 -50h136zM648 10l-95 50
l-41 -50h136zM165 -35q-8 -4 -13 3l-23 33q-4 7 1 12l83 98h-41q-10 0 -10 10v72q0 10 10 10h58q-11 38 -11 76q0 97 69.5 166.5t167.5 69.5q97 0 166.5 -69.5t69.5 -166.5q0 -43 -11 -76h58q10 0 10 -10v-72q0 -10 -10 -10h-51l82 -98q4 -6 0 -12l-23 -33q-5 -6 -13 -3
l-48 25h-473z" />
    <glyph glyph-name="n" unicode="n" 
d="M450 490q-91 0 -153.5 -53t-66.5 -147h440q-4 94 -66.5 147t-153.5 53zM746 270h-592v-177h592v177zM699 151q0 -10 -10 -10h-244q-10 0 -10 10t10 10h244q10 0 10 -10zM602 73h-100v-63h100v63zM398 73h-100v-63h100v63zM686 73h-64v-63h64v63zM482 73h-64v-63h64v63z
M278 73h-64v-63h64v63zM756 -10h-612q-10 0 -10 10t10 10h50v63h-50q-10 0 -10 10v197q0 10 10 10h66q4 103 71.5 161.5t168.5 58.5t168.5 -58.5t71.5 -161.5h66q10 0 10 -10v-197q0 -10 -10 -10h-50v-63h50q10 0 10 -10t-10 -10z" />
    <glyph glyph-name="o" unicode="o" 
d="M619 610h-188v-51h188v51zM746 396l133 133l-37 36l-133 -133zM748 -5q-30 0 -50.5 20.5t-20.5 49.5q0 24 14 43t36 25l-74 79l-75 -79q22 -7 36 -25.5t14 -42.5q0 -29 -21 -49.5t-49 -20.5q-30 0 -50.5 20.5t-20.5 49.5q0 24 14 43t36 25l-74 79l-75 -79q22 -7 36 -25.5
t14 -42.5q0 -29 -21 -49.5t-49 -20.5q-30 0 -50.5 20.5t-20.5 49.5q0 30 19.5 50.5t46.5 20.5q67 68 80 80h-75q-10 0 -10 10v141l-166 -77q-4 -2 -8 0l-180 83q-10 4 -5 13q4 9 13 5l176 -81l176 81h2l2 1h147v147h-94q-10 0 -10 10v71q0 10 10 10h208q10 0 10 -10v-71
q0 -10 -10 -10h-94v-147h186l-33 33q-7 7 0 14l147 147q7 7 14 0l51 -50q7 -7 0 -14l-143 -143v-153q0 -10 -10 -10h-71l76 -80q27 -2 46.5 -22.5t19.5 -48.5q0 -29 -21 -49.5t-49 -20.5zM737 372h-359v-136h359v136zM629 216h-143l72 -76zM418 65q0 21 -15 36t-35 15
q-22 0 -36.5 -15t-14.5 -36t14.5 -35.5t36.5 -14.5q20 0 35 15t15 35zM608 65q0 21 -15 36t-35 15q-22 0 -36.5 -15t-14.5 -36t14.5 -35.5t36.5 -14.5q20 0 35 15t15 35zM798 65q0 21 -15 36t-35 15q-22 0 -36.5 -15t-14.5 -36t14.5 -35.5t36.5 -14.5q20 0 35 15t15 35z" />
    <glyph glyph-name="p" unicode="p" 
d="M626 336l-7 61h-339l-7 -62l21 -92h311zM866 382h-184v-95h184v95zM217 381h-184v-94h184v94zM306 334q0 15 10 24.5t24 9.5t23.5 -9.5t9.5 -24.5q0 -13 -9.5 -23t-23.5 -10t-24 10t-10 23zM353 334q0 14 -13 14q-14 0 -14 -14q0 -5 4.5 -9t9.5 -4q13 0 13 13zM601 -5
q-14 0 -23.5 10t-9.5 23q0 15 9.5 24.5t23.5 9.5q5 0 7 -1l50 80l-51 82h-86l48 -77q2 -5 0 -10l-53 -85q9 -9 9 -23q0 -13 -10 -23t-24 -10t-23.5 10t-9.5 23q0 15 9.5 24.5t23.5 9.5q5 0 7 -1l50 80l-51 82h-95l-51 -82l50 -80l7 1q14 0 23.5 -9.5t9.5 -24.5
q0 -13 -9.5 -23t-23.5 -10t-24 10t-10 23q0 14 9 23l-53 85q-2 5 0 10l48 77h-86l-51 -82l50 -80l7 1q14 0 23.5 -9.5t9.5 -24.5q0 -13 -9.5 -23t-23.5 -10t-24 10t-10 23q0 14 9 23l-53 85q-2 5 0 10l55 89l-20 89h-18v-47q0 -10 -10 -10h-204q-10 0 -10 10v114q0 10 10 10
h204q10 0 10 -10v-47h17l7 64q2 9 10 9h357q8 0 10 -9l7 -63h17v47q0 10 10 10h204q10 0 10 -10v-115q0 -10 -10 -10h-204q-10 0 -10 10v48h-18l-20 -90l55 -89q2 -5 0 -10l-53 -85q9 -9 9 -23q0 -13 -10 -23t-24 -10zM311 28q0 14 -13 14q-14 0 -14 -14q0 -5 4.5 -9t9.5 -4
q13 0 13 13zM601 15q5 0 9.5 4t4.5 9q0 8 -7 12q-4 2 -7 2q-13 0 -13 -14q0 -13 13 -13zM491 15q5 0 9.5 4t4.5 9q0 8 -7 12q-4 2 -7 2q-13 0 -13 -14q0 -13 13 -13zM421 28q0 14 -13 14q-14 0 -14 -14q0 -5 4.5 -9t9.5 -4q13 0 13 13z" />
    <glyph glyph-name="q" unicode="q" 
d="M397 402q0 36 -26 62t-62 26t-62 -26t-26 -62t26 -62t62 -26t62 26t26 62zM602 451h-109v-48h109v48zM309 354q-10 0 -10 10v28h-28q-10 0 -10 10t10 10h28v28q0 10 10 10t10 -10v-28h28q10 0 10 -10t-10 -10h-28v-28q0 -10 -10 -10zM559 75q3 24 19.5 40.5t40.5 19.5v72
h-152v-132h92zM629 -5q-27 0 -46.5 17t-23.5 43h-215q-4 -26 -23.5 -43t-45.5 -17q-30 0 -50.5 20.5t-20.5 49.5q0 30 20.5 50.5t50.5 20.5q8 0 24 -4v162q-41 4 -69.5 34.5t-28.5 73.5q0 45 31.5 76.5t76.5 31.5t76.5 -31.5t31.5 -76.5q0 -43 -28.5 -73.5t-69.5 -34.5v-174
q22 -19 25 -45h103v142q0 10 10 10h103v156h-77q-10 0 -10 10v68q0 10 10 10h129q10 0 10 -10v-68q0 -10 -10 -10h-32v-156h49q10 0 10 -10v-82q25 -4 42.5 -23.5t17.5 -46.5q0 -29 -20.5 -49.5t-49.5 -20.5zM325 65q0 21 -14.5 36t-35.5 15t-36 -15t-15 -36t15 -35.5
t36 -14.5t35.5 15t14.5 35zM629 116q-21 0 -36 -15t-15 -36t15 -35.5t36 -14.5t35.5 15t14.5 35q0 21 -14.5 36t-35.5 15z" />
    <glyph glyph-name="r" unicode="r" 
d="M567 564q0 14 -13 14q-14 0 -14 -14q0 -5 4.5 -9t9.5 -4q13 0 13 13zM711 -5q-30 0 -50.5 20.5t-20.5 49.5q0 30 21 51h-140q21 -21 21 -51q0 -29 -20.5 -49.5t-49.5 -20.5q-30 0 -50.5 20.5t-20.5 49.5q0 30 21 51h-25q-10 0 -10 10v120h-60v-120q0 -10 -10 -10h-79
q21 -21 21 -51q0 -29 -20.5 -49.5t-49.5 -20.5q-30 0 -50.5 20.5t-20.5 49.5q0 27 17 46.5t43 23.5l-23 136v3l25 188q2 9 10 9h127q10 0 10 -10v-112h60v112q0 10 10 10h147v62q-24 7 -24 31q0 15 10 24.5t24 9.5t23.5 -9.5t9.5 -24.5q0 -24 -23 -31v-62h147q8 0 10 -9
l25 -188v-3l-23 -136q25 -5 41.5 -24.5t16.5 -45.5q0 -29 -20.5 -49.5t-49.5 -20.5zM595 420l69 31h-100v-315h138l22 125l-60 -8q-8 0 -10 6l-64 148q-4 9 5 13zM544 451h-137v-315h137v315zM307 451h-108l-24 -177l24 -138h108v315zM669 274l56 8l-22 165l-91 -41z
M387 329h-60v-63h60v63zM239 65q0 21 -14.5 36t-35.5 15t-36 -15t-15 -36t15 -35.5t36 -14.5t35.5 15t14.5 35zM522 65q0 21 -14.5 36t-35.5 15t-36 -15t-15 -36t15 -35.5t36 -14.5t35.5 15t14.5 35zM761 65q0 21 -14.5 36t-35.5 15t-36 -15t-15 -36t15 -35.5t36 -14.5
t35.5 15t14.5 35z" />
    <glyph glyph-name="s" unicode="s" 
d="M339 -10q-10 0 -10 10v228q-58 6 -94.5 18t-52.5 31t-21 36t-5 43q0 25 4 41t20 35t46.5 30.5t87 19t136.5 7.5t136.5 -7.5t86.5 -19t46.5 -30.5t20 -35t3.5 -41q0 -26 -4.5 -43t-20.5 -36t-53.5 -31t-95.5 -18v-228q0 -10 -10 -10h-220zM723 356q0 27 -10 45.5t-38 35
t-84 24.5t-141 8t-141.5 -8t-84.5 -24.5t-38 -35t-10 -45.5q0 -37 18.5 -59.5t81 -38t174.5 -15.5q85 0 141 8t84 24t38 35t10 46zM528 358q0 30 20.5 50.5t50.5 20.5q29 0 49.5 -20.5t20.5 -50.5q0 -29 -20.5 -49.5t-49.5 -20.5q-30 0 -50.5 20.5t-20.5 49.5zM298 288
q-30 0 -50.5 20.5t-20.5 49.5q0 30 20.5 50.5t50.5 20.5q29 0 49.5 -20.5t20.5 -50.5q0 -29 -20.5 -49.5t-49.5 -20.5zM649 358q0 21 -14.5 36t-35.5 15t-36 -15t-15 -36t15 -35.5t36 -14.5t35.5 15t14.5 35zM298 409q-21 0 -36 -15t-15 -36t15 -35.5t36 -14.5t35.5 15
t14.5 35q0 21 -14.5 36t-35.5 15zM486 295q0 -10 -10 -10h-54q-10 0 -10 10t10 10h54q10 0 10 -10zM450 223q-62 0 -101 4v-37h200v36q-44 -3 -99 -3zM549 170h-200v-40h200v40zM549 110h-200v-40h200v40zM549 50h-200v-40h200v40z" />
    <glyph glyph-name="t" unicode="t" 
d="M603 484h-111v-194h41zM419 235l53 -158l251 65l-106 323l-69 -188q-2 -7 -9 -7h-57q-10 0 -10 10v204h-97l-22 -99q-2 -8 -10 -8h-109l-73 -73q20 -62 100 -62h149q7 0 9 -7zM380 413q0 15 10 24.5t24 9.5t23.5 -9.5t9.5 -24.5q0 -13 -9.5 -23t-23.5 -10t-24 10t-10 23z
M427 413q0 14 -13 14q-14 0 -14 -14q0 -5 4.5 -9t9.5 -4q13 0 13 13zM485 5q-10 -2 -12 7l-69 210h-143q-68 0 -95.5 33.5t-27.5 69.5v62q0 10 10 10h187l22 99q2 8 10 8h250q7 0 9 -7l135 -409q4 -9 -6 -13zM206 377h-48v-48zM488 27l252 66l-10 30l-252 -66z" />
    <glyph glyph-name="u" unicode="u" 
d="M312 -10q-4 0 -8 4l-70 84q-2 2 -2 6v219q0 90 64 154t153 64t153 -64t64 -154v-137l1 -2l-1 -3v-77q0 -4 -2 -6l-70 -84q-4 -4 -8 -4h-274zM252 303v-209h394v60q-209 4 -222 28q-19 35 -22.5 100t12.5 95q7 12 60 30t118 32q-59 62 -143 62q-81 0 -139 -58.5
t-58 -139.5zM442 192q9 -18 204 -18v129q0 9 -2 29l-95 -11q-9 -2 -11 9q-2 9 9 11l93 11q-10 38 -33 69q-164 -31 -175 -54q-14 -27 -10.5 -85.5t20.5 -89.5zM382 182q0 -10 -10 -10h-84q-10 0 -10 10t10 10h84q10 0 10 -10zM635 74h-372l54 -64h264z" />
    <glyph glyph-name="v" unicode="v" 
d="M633 394q-46 66 -183 66q-136 0 -184 -66q-27 -40 -37.5 -119.5t9.5 -163.5q4 -17 78.5 -34t133.5 -17q58 0 132.5 17t78.5 34q21 83 10.5 162.5t-38.5 120.5zM297 368q22 16 153 16q132 0 153 -16q19 -15 29.5 -98t-4.5 -136q-5 -12 -65 -25.5t-113 -13.5q-54 0 -114 14
t-63 26q-17 52 -6.5 135t30.5 98zM450 115q44 0 98 12.5t59 23.5q13 45 5.5 118t-24.5 86l-63 7q11 -28 14 -74t-6 -78q-4 -9 -13 -7q-9 4 -7 13q10 32 5.5 85.5t-15.5 61.5q-20 1 -53 1q-123 0 -141 -12q-18 -13 -25 -86.5t7 -118.5q3 -11 58 -21.5t101 -10.5zM257 0
q-10 0 -10 10v68q-26 11 -29 21q-4 12 -8 38h-42q-10 0 -10 10v169q0 10 10 10h51q12 52 31 80q52 74 200 74t199 -74q20 -31 32 -80h50q10 0 10 -10v-169q0 -10 -10 -10h-41q-3 -20 -9 -38q-3 -9 -28 -20v-69q0 -10 -10 -10h-386zM721 306h-35q15 -77 7 -149h28v149z
M207 157q-8 72 7 149h-36v-149h29zM450 40q-94 0 -183 31v-51h366v51q-89 -31 -183 -31z" />
    <glyph glyph-name="w" unicode="w" 
d="M445 -9q-26 15 -58 40t-74 65.5t-70 93t-28 102.5q0 42 27.5 83t73.5 68l-49 78l-7 -1q-14 0 -23.5 9.5t-9.5 24.5q0 13 9.5 23t23.5 10t24 -10t10 -23q0 -14 -9 -23l49 -78q54 27 116 27q61 0 116 -26l48 77q-9 9 -9 23q0 13 10 23t24 10t23.5 -10t9.5 -23
q0 -15 -9.5 -24.5t-23.5 -9.5q-5 0 -7 1l-48 -77q47 -27 74.5 -68t26.5 -84q0 -50 -27.5 -102t-69 -92t-74.5 -66t-59 -41h-10zM247 554q0 -14 13 -14q14 0 14 14q0 5 -4.5 9t-9.5 4q-13 0 -13 -13zM639 540q13 0 13 14q0 13 -13 13q-5 0 -9.5 -4t-4.5 -9q0 -8 7 -12
q4 -2 7 -2zM235 292q0 -44 26 -92.5t64.5 -86t70.5 -63t54 -38.5q23 12 55.5 38t70 63.5t63.5 86t26 92.5q2 64 -63 116t-152 52q-86 0 -150.5 -52t-64.5 -116zM379 362q0 30 20.5 50.5t50.5 20.5q29 0 49.5 -20.5t20.5 -50.5q0 -29 -20.5 -49.5t-49.5 -20.5
q-30 0 -50.5 20.5t-20.5 49.5zM500 362q0 21 -14.5 36t-35.5 15t-36 -15t-15 -36t15 -35.5t36 -14.5t35.5 15t14.5 35zM460 225q0 30 20.5 50.5t50.5 20.5q29 0 49.5 -20.5t20.5 -50.5q0 -29 -20.5 -49.5t-49.5 -20.5q-30 0 -50.5 20.5t-20.5 49.5zM370 155
q-30 0 -50.5 20.5t-20.5 49.5q0 30 20.5 50.5t50.5 20.5q29 0 49.5 -20.5t20.5 -50.5q0 -29 -20.5 -49.5t-49.5 -20.5zM581 225q0 21 -14.5 36t-35.5 15t-36 -15t-15 -36t15 -35.5t36 -14.5t35.5 15t14.5 35zM370 276q-21 0 -36 -15t-15 -36t15 -35.5t36 -14.5t35.5 15
t14.5 35q0 21 -14.5 36t-35.5 15zM488 105q0 -10 -10 -10h-54q-10 0 -10 10t10 10h54q10 0 10 -10z" />
    <glyph glyph-name="x" unicode="x" 
d="M371 555q0 8 9 10l288 30v47h-349v-173h52v86zM605 2h-297q-10 0 -10 10v201q-79 4 -132.5 61.5t-53.5 137.5q0 81 54.5 138.5t132.5 61.5v40q0 10 10 10h469q10 0 10 -10t-10 -10h-90v-56q0 -8 -9 -10l-86 -9l55 -61q8 -8 0 -14q-8 -8 -14 0l-66 72l-177 -18v-87
q0 -10 -10 -10h-72q-10 0 -10 10v133q-71 -5 -119 -56.5t-48 -123.5q0 -71 48 -123t118 -56v147q0 10 10 10h297q10 0 10 -10v-368q0 -10 -10 -10zM595 370h-277v-348h277v348zM372 246q0 36 23.5 59.5t59.5 23.5q35 0 58.5 -23.5t23.5 -59.5q0 -35 -23.5 -58.5t-58.5 -23.5
q-36 0 -59.5 23.5t-23.5 58.5zM517 246q0 27 -18 45t-44 18q-27 0 -45 -18t-18 -45q0 -26 18 -44t45 -18q26 0 44 18t18 44zM420 91q0 15 10 24.5t24 9.5t23.5 -9.5t9.5 -24.5q0 -13 -9.5 -23t-23.5 -10t-24 10t-10 23zM467 91q0 14 -13 14q-14 0 -14 -14q0 -5 4.5 -9
t9.5 -4q13 0 13 13z" />
    <glyph glyph-name="y" unicode="y" 
d="M553 408q15 -3 41 -1.5t32 4.5q-2 64 -43 110t-101 57q33 -31 52 -78t19 -92zM274 411q14 -4 41 -4t32 3q2 48 20.5 93t50.5 75q-60 -11 -101 -58t-43 -109zM367 410q14 -4 41 -4t32 3v163q-34 -29 -53.5 -73.5t-19.5 -88.5zM460 409q14 -4 41 -4t32 3q-2 48 -21 92
t-52 72v-163zM450 232l156 156q-43 -4 -63 2q-16 -4 -46.5 -4t-46.5 5q-16 -4 -46.5 -4t-46.5 5q-21 -6 -63 -4zM320 0q-10 0 -10 10v52q0 5 2 7l93 108v41q0 10 10 10h11l-167 167q-5 3 -5 9q0 82 58 139.5t138 57.5q82 0 139 -56.5t57 -140.5q0 -6 -5 -9l-167 -167h11
q10 0 10 -10v-41l93 -108q2 -4 2 -7v-52q0 -10 -10 -10h-260zM477 165q-2 4 -2 7v36h-50v-36q0 -3 -2 -7l-80 -93h214zM570 52h-240v-32h240v32z" />
    <glyph glyph-name="z" unicode="z" 
d="M219 210l16 101q0 2 3 5l190 190q3 3 7 3l164 -4q7 0 9 -6l73 -157q2 -4 0 -8l-66 -140q-2 -3 -5 -5l-233 -111q-4 -2 -8 0l-68 31q-1 0 -4 3l-76 90q-2 2 -2 8zM424 413q14 14 14.5 35.5t-10.5 29.5l-70 -70q14 -11 33.5 -10t32.5 15zM531 417q14 13 31.5 13t31.5 -13
q13 -13 13.5 -32t-12.5 -32q-14 -13 -32.5 -13t-32.5 14q-13 13 -12.5 31.5t13.5 31.5zM544 368q19 -17 37 -1q7 7 6.5 18t-7.5 18q-17 17 -35 0q-7 -7 -7.5 -17.5t6.5 -17.5zM438 399q-20 -21 -49.5 -21.5t-45.5 16.5l-89 -89l-15 -94l72 -85l62 -28l122 58
q-21 28 -18 66.5t30 64.5q28 28 66.5 31t68.5 -20l19 40l-69 147l-147 4q14 -20 12.5 -45.5t-19.5 -44.5zM287 258q-7 7 0 14q36 35 66 49t74 1q9 -4 7 -13q-4 -9 -13 -7q-17 5 -32 4.5t-25 -3t-23 -11.5t-20 -15t-20 -19q-7 -7 -14 0zM521 273q-22 -22 -24 -54.5t16 -53.5
l85 40l35 75q-24 20 -56.5 18t-55.5 -25zM354 246q17 17 41.5 17.5t40.5 -16.5q17 -16 17 -41t-17 -42q-16 -16 -40.5 -15.5t-41.5 16.5q-16 17 -16 41.5t16 39.5zM368 179q11 -10 27.5 -10.5t26.5 9.5q11 11 11 27.5t-11 27.5q-10 11 -26.5 10.5t-27.5 -11.5
q-10 -10 -10 -26t10 -27z" />
    <glyph glyph-name="exclamdown" unicode="&#xa1;" 
d="M339 627q0 5 -4.5 9t-9.5 4q-13 0 -13 -13q0 -14 13 -14q14 0 14 14zM129 470q19 0 30 -18l150 32q2 21 21 29l-10 80q-16 3 -23 16l-185 -39q-3 -17 -14 -25l28 -75h3zM821 83q-14 0 -23.5 9.5t-9.5 24.5q0 12 7 20l-63 109l-8 -1q-14 0 -23.5 9.5t-9.5 24.5q0 9 5 17
l-98 105q-8 -3 -14 -3q-14 0 -23.5 9t-9.5 22l-178 40q-8 -21 -31 -21q-18 0 -28 16l-151 -32q-2 -13 -12 -21t-22 -8q-14 0 -24 9.5t-10 24.5q0 16 13 26l-28 76h-2q-14 0 -23.5 9.5t-9.5 24.5q0 13 9.5 23t23.5 10q19 0 29 -17l185 39q1 14 10.5 23t22.5 9q14 0 24 -10
t10 -23q0 -21 -19 -31l10 -82q10 -3 18 -11t7 -13l181 -41q9 16 28 16q14 0 24 -10t10 -23q0 -10 -5 -18l97 -105q6 3 14 3q14 0 24 -10t10 -23q0 -14 -8 -22l62 -108q3 1 9 1q14 0 24 -10t10 -23q0 -15 -10 -24.5t-24 -9.5zM78 559q14 0 14 14q0 5 -4.5 9t-9.5 4
q-13 0 -13 -13q0 -14 13 -14zM342 468q14 0 14 14q0 5 -4.5 9t-9.5 4q-13 0 -13 -13l1 -4v-1q3 -9 12 -9zM115 437q0 -14 14 -14t14 14q0 5 -4.5 9t-9.5 4t-9.5 -4t-4.5 -9zM584 418q5 0 8 3l2 1q4 4 4 10q0 5 -4.5 9t-9.5 4q-13 0 -13 -13q0 -14 13 -14zM724 265
q14 0 14 14q0 5 -4.5 9t-9.5 4q-13 0 -13 -13q0 -14 13 -14zM808 117q0 -14 13 -14q14 0 14 14q0 5 -4.5 9t-9.5 4q-13 0 -13 -13z" />
    <glyph glyph-name="questiondown" unicode="&#xbf;" 
d="M730 345q0 -74 -40 -112q-7 -7 -14 0t0 14q34 32 34 98q0 69 -49.5 109.5t-122.5 40.5q-10 0 -10 10t10 10q82 0 137 -46t55 -124zM551 317q0 -27 -18 -37q-8 -6 -14 2q-6 10 2 14q10 7 10 23q0 9 -6.5 18t-29.5 18.5t-59 9.5q-66 0 -105.5 -35.5t-39.5 -96.5
q0 -65 63 -101.5t180 -36.5q132 0 213 54q9 5 14 -2q5 -9 -2 -14q-89 -58 -225 -58q-130 0 -196.5 43t-66.5 115q0 70 44 111t121 41q36 0 61 -8t35.5 -20t14.5 -21.5t4 -18.5zM172 210q0 74 40 112q7 7 14 0t0 -14q-34 -32 -34 -98q0 -69 49 -109.5t122 -40.5q10 0 10 -10
t-10 -10q-82 0 -136.5 46t-54.5 124zM350 236q0 29 18 39q9 5 14 -2q6 -10 -2 -14q-10 -6 -10 -23q0 -9 6.5 -18t29.5 -18.5t59 -9.5q66 0 105.5 35.5t39.5 96.5q0 65 -63 101.5t-180 36.5q-132 0 -213 -54q-9 -5 -14 2q-5 9 2 14q89 58 225 58q130 0 196.5 -43t66.5 -115
q0 -70 -44 -111t-121 -41q-36 0 -61 8t-35.5 20t-14.5 21t-4 17z" />
    <glyph glyph-name="endash" unicode="&#x2013;" 
d="M351 56q-44 0 -75.5 31.5t-31.5 75.5q0 48 36 79l359 359q7 7 14 0t0 -14l-321 -320q12 2 19 2q38 0 67 -24l221 220q7 7 14 0t0 -14l-221 -220q25 -28 25 -68q0 -12 -1 -17l183 184q7 7 14 0t0 -14l-217 -217q-31 -43 -85 -43zM437 163q0 36 -25.5 61t-60.5 25
q-36 0 -61.5 -25t-25.5 -61q0 -35 25.5 -61t61.5 -26q35 0 60.5 26t25.5 61z" />
    <glyph glyph-name="ellipsis" unicode="&#x2026;" 
d="M545 349q-8 6 -2 14q36 47 99 47t100 -47q6 -8 -2 -14t-14 2q-30 39 -84 39q-55 0 -83 -39q-6 -8 -14 -2zM146 280q-10 0 -10 10q0 48 35.5 84t85.5 36t86 -36t36 -84q0 -10 -10 -10t-10 10q0 40 -30.5 70t-71.5 30t-71 -30t-30 -70q0 -10 -10 -10zM765 214q-9 -2 -12 8
q-2 9 8 12q63 15 63 38q0 21 -51 33t-131 12q-95 0 -170 -32q22 -10 38 -12q11 -2 9 -11q-2 -11 -11 -9q-12 1 -24.5 6t-22 10t-11.5 6q-94 -42 -193 -42q-71 0 -118.5 10t-65.5 24.5t-18 31.5q0 38 79 57q10 2 12 -8t-8 -12q-63 -13 -63 -37q0 -21 51.5 -33.5t130.5 -12.5
q93 0 170 33q-22 12 -37 13q-9 0 -9 11q0 9 11 9q11 -1 21.5 -4.5t23 -10.5t13.5 -7q86 40 192 40q71 0 118 -10t65.5 -24t18.5 -31q0 -38 -79 -58zM753 291q10 0 10 -10q0 -48 -35.5 -84t-85.5 -36t-86 36t-36 84q0 10 10 10t10 -10q0 -40 30.5 -70t71.5 -30t71 29.5
t30 70.5q0 10 10 10zM354 221q8 -6 2 -14q-36 -46 -99 -46q-62 0 -100 46q-5 7 2 14q7 5 14 -2q30 -38 84 -38q55 0 83 38q6 8 14 2z" />
    <glyph glyph-name="uni2190" unicode="&#x2190;" 
d="M291 152q-7 -7 -14 0l-116 116q-7 7 0 13l116 116q7 7 14 0t0 -14l-100 -99h542q10 0 10 -9q0 -10 -10 -10h-542l100 -99q7 -7 0 -14z" />
    <glyph glyph-name="uni2191" unicode="&#x2191;" 
d="M460 39q0 -10 -9 -10q-10 0 -10 10v542l-99 -100q-7 -7 -14 0t0 14l116 116q7 7 13 0l116 -116q7 -7 0 -14t-14 0l-99 100v-542z" />
    <glyph glyph-name="uni2192" unicode="&#x2192;" 
d="M624 152q-7 -7 -14 0t0 14l99 99h-541q-10 0 -10 9q0 10 10 10h541l-99 99q-7 7 0 14t14 0l116 -116q7 -7 0 -13z" />
    <glyph glyph-name="uni2193" unicode="&#x2193;" 
d="M457 32q-7 -7 -13 0l-116 116q-7 7 0 14t14 0l99 -100v542q0 10 9 10q10 0 10 -10v-542l99 100q7 7 14 0t0 -14z" />
    <glyph glyph-name="uni2194" unicode="&#x2194;" 
d="M624 152q-7 -7 -14 0t0 14l99 99h-518l100 -99q7 -7 0 -14t-14 0l-116 116q-7 7 0 13l116 116q7 7 14 0t0 -14l-100 -99h518l-99 99q-7 7 0 14t14 0l116 -116q7 -6 0 -13z" />
    <glyph glyph-name="uni2195" unicode="&#x2195;" 
d="M457 32q-6 -7 -13 0l-116 116q-7 7 0 14t14 0l99 -100v519l-99 -100q-7 -7 -14 0t0 14l116 116q7 7 13 0l116 -116q7 -7 0 -14t-14 0l-99 100v-519l99 100q7 7 14 0t0 -14z" />
    <glyph glyph-name="uni2196" unicode="&#x2196;" 
d="M657 101q-6 -8 -14 0l-383 382v-140q0 -10 -10 -10q-9 0 -9 10v165q0 9 9 9h164q10 0 10 -9q0 -10 -10 -10h-140l383 -383q8 -8 0 -14z" />
    <glyph glyph-name="uni2197" unicode="&#x2197;" 
d="M258 100q-8 -8 -14 0q-8 6 0 14l382 383h-140q-10 0 -10 10q0 9 10 9h165q9 0 9 -9v-164q0 -10 -9 -10q-10 0 -10 10v139z" />
    <glyph glyph-name="uni2198" unicode="&#x2198;" 
d="M487 98q-10 0 -10 9q0 10 10 10h139l-382 383q-8 8 0 14q6 8 14 0l383 -382v140q0 10 10 10q9 0 9 -10v-165q0 -9 -9 -9h-164z" />
    <glyph glyph-name="uni2199" unicode="&#x2199;" 
d="M250 100q-9 0 -9 9v164q0 10 9 10q10 0 10 -10v-139l383 382q8 8 14 0q8 -6 0 -14l-383 -383h141q10 0 10 -10q0 -9 -10 -9h-165z" />
    <glyph glyph-name="uni219A" unicode="&#x219a;" 
d="M371 151q-7 -7 -14 0t0 14l100 100h-265l99 -99q7 -7 0 -14t-14 0l-116 116q-7 7 0 14l116 116q7 7 14 0t0 -14l-99 -99h285l113 113q7 7 14 0q5 -7 0 -14l-99 -99h228q10 0 10 -10t-10 -10h-248z" />
    <glyph glyph-name="uni219B" unicode="&#x219b;" 
d="M624 152q-7 -7 -14 0t0 14l99 99h-265l100 -99q7 -7 0 -14t-14 0l-113 113h-249q-10 0 -10 10q0 9 10 9h230l-100 100q-7 7 0 14q6 6 13 0l114 -114h284l-99 99q-7 7 0 14t14 0l116 -116q7 -6 0 -13z" />
    <glyph glyph-name="uni219E" unicode="&#x219e;" 
d="M400 152q-7 -7 -14 0l-113 113h-82l100 -99q7 -7 0 -14t-14 0l-116 116q-7 7 0 13l116 116q7 7 14 0t0 -14l-100 -99h82l113 113q7 7 14 0t0 -14l-100 -99h433q10 0 10 -9q0 -10 -10 -10h-433l100 -99q7 -7 0 -14z" />
    <glyph glyph-name="uni219F" unicode="&#x219f;" 
d="M460 39q0 -10 -9 -10q-10 0 -10 10v433l-99 -100q-7 -7 -14 0t0 14l113 113v82l-99 -100q-7 -7 -14 0t0 14l116 116q7 7 13 0l116 -116q7 -7 0 -14t-14 0l-99 100v-82l113 -113q7 -7 0 -14t-14 0l-99 100v-433z" />
    <glyph glyph-name="uni21A0" unicode="&#x21a0;" 
d="M623 153q-7 -7 -14 0t0 14l100 99h-82l-113 -113q-7 -7 -14 0t0 14l100 99h-432q-10 0 -10 9q0 10 10 10h432l-100 99q-7 7 0 14t14 0l113 -113h82l-100 99q-7 7 0 14t14 0l116 -116q7 -7 0 -13z" />
    <glyph glyph-name="uni21A1" unicode="&#x21a1;" 
d="M457 33q-7 -7 -13 0l-116 116q-7 7 0 14t14 0l99 -100v82l-113 113q-7 7 0 14t14 0l99 -100v433q0 10 9 10q10 0 10 -10v-433l99 100q7 7 14 0t0 -14l-113 -113v-82l99 100q7 7 14 0t0 -14z" />
    <glyph glyph-name="uni21A2" unicode="&#x21a2;" 
d="M740 152q-7 -7 -14 0l-113 113h-422l100 -99q7 -7 0 -14t-14 0l-116 116q-7 7 0 13l116 116q7 7 14 0t0 -14l-100 -99h422l113 113q7 7 14 0t0 -14l-110 -108l110 -109q7 -7 0 -14z" />
    <glyph glyph-name="uni21A3" unicode="&#x21a3;" 
d="M624 154q-7 -7 -14 0t0 14l99 99h-421l-113 -113q-7 -7 -14 0t0 14l109 109l-109 108q-7 7 0 14t14 0l113 -113h421l-99 99q-7 7 0 14t14 0l116 -116q7 -7 0 -13z" />
    <glyph glyph-name="uni21A4" unicode="&#x21a4;" 
d="M733 149q-10 0 -10 10v106h-532l100 -99q7 -7 0 -14t-14 0l-116 116q-7 7 0 13l116 116q7 7 14 0t0 -14l-100 -99h532v106q0 10 10 10t10 -10v-231q0 -10 -10 -10z" />
    <glyph glyph-name="uni21A5" unicode="&#x21a5;" 
d="M335 29q-10 0 -10 10t10 10h106v532l-99 -100q-7 -7 -14 0t0 14l116 116q7 7 13 0l116 -116q7 -7 0 -14t-14 0l-99 100v-532h106q10 0 10 -10t-10 -10h-231z" />
    <glyph glyph-name="uni21A6" unicode="&#x21a6;" 
d="M168 150q-10 0 -10 10v231q0 10 10 10t10 -10v-106h531l-100 99q-7 7 0 14t14 0l116 -116q7 -7 0 -13l-116 -116q-7 -7 -14 0t0 14l100 99h-531v-106q0 -10 -10 -10z" />
    <glyph glyph-name="uni21A7" unicode="&#x21a7;" 
d="M457 33q-7 -7 -13 0l-116 116q-7 7 0 14t14 0l99 -100v532h-106q-10 0 -10 10t10 10h231q10 0 10 -10t-10 -10h-106v-532l99 100q7 7 14 0t0 -14z" />
    <glyph glyph-name="uni21A8" unicode="&#x21a8;" 
d="M335 30q-10 0 -10 10t10 10h115l-7 2l-116 116q-7 7 0 13q7 7 14 0l99 -98v497l-99 -99q-7 -7 -14 0t0 14l116 116q7 7 14 0l115 -116q7 -7 0 -14q-6 -7 -13 0l-99 99v-497l99 98q7 7 13 0q7 -6 0 -13l-115 -116l-3 -2h113q9 0 9 -10t-9 -10h-232z" />
    <glyph glyph-name="uni21A9" unicode="&#x21a9;" 
d="M292 151q-7 -7 -14 0l-117 117q-7 7 0 14l117 117q7 7 14 0t0 -14l-100 -100h453q32 0 54.5 23.5t22.5 55.5t-23 54.5t-54 22.5q-10 0 -10 10t10 10q41 0 69 -28.5t28 -68.5q0 -41 -28.5 -70t-68.5 -29h-453l100 -100q7 -7 0 -14z" />
    <glyph glyph-name="uni21AA" unicode="&#x21aa;" 
d="M622 151q-7 -7 -14 0t0 14l100 100h-453q-40 0 -68.5 29t-28.5 70q0 40 28 68.5t69 28.5q10 0 10 -10t-10 -10q-31 0 -54 -22.5t-23 -54.5t22.5 -55.5t54.5 -23.5h453l-100 100q-7 7 0 14t14 0l117 -117q7 -7 0 -14z" />
    <glyph glyph-name="uni21AB" unicode="&#x21ab;" 
d="M568 362v-77h77q32 0 54.5 23.5t22.5 55.5t-23 54.5t-54 22.5q-32 0 -54.5 -23.5t-22.5 -55.5zM558 148q-10 0 -10 10v107h-356l100 -100q7 -7 0 -14t-14 0l-117 117q-7 7 0 14l117 117q7 7 14 0t0 -14l-100 -100h356v77q0 41 28.5 70t68.5 29q41 0 69 -28.5t28 -68.5
q0 -41 -28.5 -70t-68.5 -29h-77v-107q0 -10 -10 -10z" />
    <glyph glyph-name="uni21AC" unicode="&#x21ac;" 
d="M255 285h77v77q0 32 -22.5 55.5t-54.5 23.5q-31 0 -54 -22.5t-23 -54.5t22.5 -55.5t54.5 -23.5zM342 148q-10 0 -10 10v107h-77q-40 0 -68.5 29t-28.5 70q0 40 28 68.5t69 28.5q40 0 68.5 -29t28.5 -70v-77h356l-100 100q-7 7 0 14t14 0l117 -117q7 -7 0 -14l-117 -117
q-7 -7 -14 0t0 14l100 100h-356v-107q0 -10 -10 -10z" />
    <glyph glyph-name="uni21AE" unicode="&#x21ae;" 
d="M340 151q-7 -7 -14 0t0 14l100 100h-235l100 -99q7 -7 0 -14t-14 0l-116 116q-7 7 0 13l116 116q7 7 14 0t0 -14l-100 -99h254l114 114q7 7 14 0q5 -7 0 -14l-100 -100h236l-99 99q-7 7 0 14t14 0l116 -116q7 -6 0 -13l-116 -116q-7 -7 -14 0t0 14l99 99h-255z" />
    <glyph glyph-name="uni21AF" unicode="&#x21af;" 
d="M513 32q-7 -7 -14 0l-117 117q-7 7 0 14t14 0l100 -100v281l-216 -75q-5 -2 -9 1t-4 8v319q0 10 10 10t10 -10v-305l216 75q5 2 9 -1t4 -8v-295l100 100q7 7 14 0t0 -14z" />
    <glyph glyph-name="uni21B0" unicode="&#x21b0;" 
d="M572 30q-10 0 -10 10v438h-209l100 -100q7 -7 0 -14t-14 0l-117 117q-7 7 0 14l117 117q7 7 14 0t0 -14l-100 -100h219q10 0 10 -10v-448q0 -10 -10 -10z" />
    <glyph glyph-name="uni21B1" unicode="&#x21b1;" 
d="M329 30q-10 0 -10 10v448q0 10 10 10h219l-100 100q-7 7 0 14t14 0l117 -117q7 -7 0 -14l-117 -117q-7 -7 -14 0t0 14l100 100h-209v-438q0 -10 -10 -10z" />
    <glyph glyph-name="uni21B2" unicode="&#x21b2;" 
d="M453 33q-7 -7 -14 0l-117 117q-7 7 0 14l117 117q7 7 14 0t0 -14l-100 -100h209v438q0 10 10 10t10 -10v-448q0 -10 -10 -10h-219l100 -100q7 -7 0 -14z" />
    <glyph glyph-name="uni21B3" unicode="&#x21b3;" 
d="M462 33q-7 -7 -14 0t0 14l100 100h-219q-10 0 -10 10v448q0 10 10 10t10 -10v-438h209l-100 100q-7 7 0 14t14 0l117 -117q7 -7 0 -14z" />
    <glyph glyph-name="uni21B4" unicode="&#x21b4;" 
d="M623 25q-7 -7 -14 0l-117 117q-7 7 0 14t14 0l100 -100v209h-438q-10 0 -10 10q0 9 10 9h448q10 0 10 -9v-219l100 100q7 7 14 0t0 -14z" />
    <glyph glyph-name="uni21B5" unicode="&#x21b5;" 
d="M453 33q-7 -7 -14 0l-117 117q-7 7 0 14l117 117q7 7 14 0t0 -14l-100 -100h209v438q0 10 10 10t10 -10v-448q0 -10 -10 -10h-219l100 -100q7 -7 0 -14z" />
    <glyph glyph-name="uni21B6" unicode="&#x21b6;" 
d="M234 268q-7 -7 -14 0l-117 117q-7 7 0 14t14 0l98 -98q-5 112 70 199.5t190 103.5q119 14 214.5 -61.5t110.5 -196.5q2 -9 -9 -11q-9 -2 -11 9q-13 112 -102.5 182t-200.5 58q-107 -14 -177.5 -97.5t-64.5 -189.5l102 102q7 7 14 0t0 -14z" />
    <glyph glyph-name="uni21B7" unicode="&#x21b7;" 
d="M680 268q-7 -7 -14 0l-117 117q-7 7 0 14t14 0l102 -102q6 106 -64.5 189.5t-177.5 97.5q-111 12 -200.5 -58t-102.5 -182q-2 -11 -11 -9q-11 2 -9 11q15 121 110.5 196.5t214.5 61.5q115 -16 190 -103.5t70 -199.5l98 98q7 7 14 0t0 -14z" />
    <glyph glyph-name="uni21BC" unicode="&#x21bc;" 
d="M168 219q-10 0 -10 10l3 7l116 116q7 7 14 0t0 -14l-99 -99h541q10 0 10 -10t-10 -10h-565z" />
    <glyph glyph-name="uni21BD" unicode="&#x21bd;" 
d="M291 152q-7 -7 -14 0l-116 116l-3 7q0 9 10 9h565q10 0 10 -9q0 -10 -10 -10h-542l100 -99q7 -7 0 -14z" />
    <glyph glyph-name="uni21BE" unicode="&#x21be;" 
d="M402 39q0 -10 -10 -10t-10 10v565q0 10 10 10l7 -3l116 -116q7 -7 0 -14t-14 0l-99 99v-541z" />
    <glyph glyph-name="uni21BF" unicode="&#x21bf;" 
d="M509 29q-10 0 -10 10v541l-99 -99q-7 -7 -14 0t0 14l116 116l7 3q9 0 9 -10v-565q0 -10 -9 -10z" />
    <glyph glyph-name="uni21C0" unicode="&#x21c0;" 
d="M168 220q-10 0 -10 9q0 10 10 10h541l-99 99q-7 7 0 14t14 0l116 -116l3 -7q0 -9 -10 -9h-565z" />
    <glyph glyph-name="uni21C1" unicode="&#x21c1;" 
d="M623 152q-7 -7 -14 0t0 14l100 99h-542q-10 0 -10 10q0 9 10 9h565q10 0 10 -9l-3 -7z" />
    <glyph glyph-name="uni21C2" unicode="&#x21c2;" 
d="M399 141l-7 -3q-9 0 -9 10v565q0 10 9 10q10 0 10 -10v-542l99 100q7 7 14 0t0 -14z" />
    <glyph glyph-name="uni21C3" unicode="&#x21c3;" 
d="M508 138l-7 3l-116 116q-7 7 0 14t14 0l99 -99v541q0 10 10 10t10 -10v-565q0 -10 -10 -10z" />
    <glyph glyph-name="uni25A1" unicode="&#x25a1;" 
d="M67 755q0 10 10 10h746q10 0 10 -10v-745q0 -10 -10 -10h-746q-10 0 -10 10v745zM813 745h-726v-725h726v725z" />
    <glyph glyph-name="uni25A4" unicode="&#x25a4;" 
d="M78 733q0 10 10 10h724q9 0 9 -10v-723q0 -10 -9 -10h-724q-10 0 -10 10v723zM802 723h-704v-160h704v160zM802 544h-704v-163h704v163zM802 361h-704v-160h704v160zM802 181h-704v-161h704v161z" />
    <glyph glyph-name="uni25A5" unicode="&#x25a5;" 
d="M811 744q10 0 10 -10v-724q0 -11 -10 -11h-722q-10 0 -10 11v724q0 10 10 10h722zM801 724h-159v-704h159v704zM622 724h-162v-704h162v704zM440 724h-160v-704h160v704zM260 724h-162v-704h162v704z" />
    <glyph glyph-name="uni25A6" unicode="&#x25a6;" 
d="M78 733q0 10 10 10h724q9 0 9 -10v-723q0 -10 -9 -10h-724q-10 0 -10 10v723zM802 723h-161v-160h161v160zM622 723h-163v-160h163v160zM439 723h-160v-160h160v160zM259 723h-161v-160h161v160zM802 544h-161v-163h161v163zM622 544h-163v-163h163v163zM439 544h-160
v-163h160v163zM259 544h-161v-163h161v163zM802 361h-161v-160h161v160zM622 361h-163v-160h163v160zM439 361h-160v-160h160v160zM259 361h-161v-160h161v160zM802 181h-161v-161h161v161zM622 181h-163v-161h163v161zM439 181h-160v-161h160v161zM259 181h-161v-161h161
v161z" />
    <glyph glyph-name="uni25A7" unicode="&#x25a7;" 
d="M813 743q9 0 9 -10v-723q0 -10 -9 -10h-724q-10 0 -10 10v723q0 10 10 10h724zM803 723h-175l175 -175v175zM803 520l-203 203h-230l433 -433v230zM803 262l-461 461h-229l690 -689v228zM788 20l-689 689v-228l461 -461h228zM532 20l-433 433v-230l203 -203h230zM274 20
l-175 175v-175h175z" />
    <glyph glyph-name="uni25A8" unicode="&#x25a8;" 
d="M78 10v723q0 10 9 10h724q10 0 10 -10v-723q0 -10 -10 -10h-724q-9 0 -9 10zM787 723h-229l-461 -461v-228zM530 723h-230l-203 -203v-230zM272 723h-175v-175zM340 20l461 461v228l-690 -689h229zM598 20l203 203v230l-433 -433h230zM801 20v175l-175 -175h175z" />
    <glyph glyph-name="uni25A9" unicode="&#x25a9;" 
d="M78 10v723q0 10 9 10h724q10 0 10 -10v-723q0 -10 -10 -10h-724q-9 0 -9 10zM787 723h-160l80 -80zM693 629l-94 94h-41l-94 -94l114 -115zM530 723h-161l81 -80zM436 629l-95 94h-41l-94 -94l115 -115zM272 723h-160l80 -80zM802 548v162l-81 -81zM98 549l80 80l-80 80
v-160zM193 386l114 114l-115 115l-94 -94v-40zM706 386l96 96v38l-95 95l-115 -115zM450 386l114 114l-114 115l-115 -115zM321 258l115 114l-115 114l-114 -114zM578 258l114 114l-114 114l-114 -114zM802 290v164l-82 -82zM98 291l81 81l-81 81v-162zM450 130l114 114
l-114 114l-115 -114zM192 129l115 115l-114 114l-95 -95v-40zM707 129l95 95v38l-96 96l-114 -114zM340 20l96 96l-115 114l-115 -115l95 -95h39zM598 20l95 95l-115 115l-114 -114l95 -96h39zM802 34v162l-81 -81zM98 35l80 80l-80 80v-160zM531 20l-81 82l-82 -82h163z
M273 20l-81 81l-81 -81h162zM788 20l-81 81l-81 -81h162z" />
    <glyph glyph-name="uni25AB" unicode="&#x25ab;" 
d="M534 184q0 -10 -10 -10h-148q-10 0 -10 10v148q0 10 10 10h148q10 0 10 -10v-148zM515 323h-129v-129h129v129z" />
    <glyph glyph-name="uni25AD" unicode="&#x25ad;" 
d="M78 481q0 10 10 10h724q9 0 9 -10v-362q0 -10 -9 -10h-724q-10 0 -10 10v362zM802 472h-704v-343h704v343z" />
    <glyph glyph-name="uni25AF" unicode="&#x25af;" 
d="M269 -1q-10 0 -10 10v724q0 11 10 11h362q10 0 10 -11v-724q0 -10 -10 -10h-362zM621 723h-342v-704h342v704z" />
    <glyph glyph-name="uni25B1" unicode="&#x25b1;" 
d="M177 484q2 7 10 7h625q12 0 10 -13l-99 -362q-2 -7 -10 -7h-625q-12 0 -10 13zM799 472h-604l-93 -343h603z" />
    <glyph glyph-name="uni25B3" unicode="&#x25b3;" 
d="M440 737q3 5 9 5.5t9 -5.5q363 -722 363 -723q3 -5 0 -9.5t-9 -4.5h-724q-6 0 -9 4.5t0 9.5zM796 20q-22 44 -171.5 341t-175.5 350l-345 -691h692z" />
    <glyph glyph-name="uni25B5" unicode="&#x25b5;" 
d="M533 188q3 -5 0 -9.5t-8 -4.5h-149q-6 0 -9 4.5t0 9.5l74 148q3 7 9 7t9 -7q74 -147 74 -148zM509 194q-28 54 -59 116l-58 -116h117z" />
    <glyph glyph-name="uni25B7" unicode="&#x25b7;" 
d="M816 382q5 -3 5.5 -9t-5.5 -9q-722 -362 -723 -362q-5 -3 -9.5 0t-4.5 9v723q0 6 4.5 9t9.5 0zM99 27l691 346l-691 345v-691z" />
    <glyph glyph-name="uni25B9" unicode="&#x25b9;" 
d="M380 176q-5 -3 -9.5 0t-4.5 9v149q0 6 4.5 9t9.5 0l148 -75q7 -3 7 -8.5t-7 -8.5q-147 -75 -148 -75zM386 201q14 7 58 29.5t58 29.5l-116 58v-117z" />
    <glyph glyph-name="uni25BB" unicode="&#x25bb;" 
d="M78 481q0 5 4 8t9 2l724 -191q7 -1 6.5 -9.5t-7.5 -9.5l-724 -172q-12 -2 -12 10v362zM98 132l674 159q-112 29 -674 178v-337z" />
    <glyph glyph-name="uni25BD" unicode="&#x25bd;" 
d="M459 6q-3 -6 -9 -6.5t-9 6.5q-362 722 -362 723q-3 5 0 9.5t9 4.5h724q6 0 9 -4.5t0 -9.5zM796 723h-692l346 -691z" />
    <glyph glyph-name="uni25BF" unicode="&#x25bf;" 
d="M367 330q-3 5 0 9.5t9 4.5h149q6 0 9 -4.5t0 -9.5l-75 -149q-2 -6 -8 -6t-9 6q-75 148 -75 149zM509 324h-118q6 -12 17 -33.5t24.5 -48.5t17.5 -36z" />
    <glyph glyph-name="uni25C1" unicode="&#x25c1;" 
d="M85 361q-6 3 -6.5 9t6.5 9q722 362 723 362q5 3 9.5 0t4.5 -8v-724q0 -6 -4.5 -9t-9.5 0zM802 25v692q-184 -91 -691 -347z" />
    <glyph glyph-name="uni25C3" unicode="&#x25c3;" 
d="M520 342q5 3 9.5 0t4.5 -9v-148q0 -6 -4.5 -9t-9.5 0l-148 74q-7 3 -7 9t7 9q147 74 148 74zM514 201v116q-27 -14 -115 -58z" />
    <glyph glyph-name="uni25C5" unicode="&#x25c5;" 
d="M85 300l724 191q5 1 9 -2t4 -8v-362q0 -12 -12 -10l-724 172q-8 1 -8.5 9t7.5 10zM802 132v337q-573 -152 -673 -178z" />
    <glyph glyph-name="uni25C7" unicode="&#x25c7;" 
d="M443 740q7 5 14 0l362 -361q5 -7 0 -14l-363 -362q-7 -7 -14 0l-361 362q-7 7 0 14zM449 24l349 348l-348 347l-348 -347z" />
    <glyph glyph-name="uni25CA" unicode="&#x25ca;" 
d="M442 738q3 5 9 5t9 -6l181 -361q2 -4 0 -8l-182 -362q-3 -7 -9 -6.5t-9 6.5l-181 362q-2 4 0 9zM450 32l170 340l-169 339l-171 -340z" />
    <glyph glyph-name="uni25CB" unicode="&#x25cb;" 
d="M69 376q0 157 112 268.5t269 111.5t269 -111.5t112 -268.5t-112 -269.5t-269 -112.5t-269 112.5t-112 269.5zM812 376q0 149 -106.5 255t-255.5 106t-255 -106t-106 -255t106 -255.5t255 -106.5t255.5 106.5t106.5 255.5z" />
    <glyph glyph-name="uni25CD" unicode="&#x25cd;" 
d="M69 376q0 157 112 268.5t269 111.5t269 -111.5t112 -268.5t-112 -269.5t-269 -112.5t-269 112.5t-112 269.5zM440 14v723q-84 -3 -159 -42v-639q75 -39 159 -42zM460 14q86 3 163 44v635q-82 44 -163 44v-723zM89 376q0 -96 46.5 -177.5t125.5 -130.5v615
q-79 -49 -125.5 -130t-46.5 -177zM812 376q0 94 -46 175t-123 130v-611q77 50 123 131t46 175z" />
    <glyph glyph-name="uni25CE" unicode="&#x25ce;" 
d="M69 376q0 157 112 268.5t269 111.5t269 -111.5t112 -268.5t-112 -269.5t-269 -112.5t-269 112.5t-112 269.5zM812 376q0 149 -106.5 255t-255.5 106t-255 -106t-106 -255t106 -255.5t255 -106.5t255.5 106.5t106.5 255.5zM259 375q0 79 56.5 135t134.5 56q80 0 135.5 -56
t55.5 -135q0 -78 -56 -134t-135 -56q-78 0 -134.5 56t-56.5 134zM621 375q0 71 -50.5 121t-120.5 50t-120.5 -50t-50.5 -121q0 -70 50 -120t121 -50t121 50t50 120z" />
    <glyph glyph-name="uni25DC" unicode="&#x25dc;" 
d="M264 220q-10 0 -10 9q0 157 112 269t269 112q10 0 10 -10t-10 -10q-149 0 -255 -106t-106 -255q0 -9 -10 -9z" />
    <glyph glyph-name="uni25DD" unicode="&#x25dd;" 
d="M254 600q0 10 10 10q157 0 269 -112t112 -269q0 -9 -10 -9t-10 9q0 149 -106 255t-255 106q-10 0 -10 10z" />
    <glyph glyph-name="uni25DE" unicode="&#x25de;" 
d="M635 386q10 0 10 -10q0 -157 -112 -269.5t-269 -112.5q-10 0 -10 10t10 10q149 0 255 106.5t106 255.5q0 10 10 10z" />
    <glyph glyph-name="uni25DF" unicode="&#x25df;" 
d="M645 4q0 -10 -10 -10q-157 0 -269 112.5t-112 269.5q0 10 10 10t10 -10q0 -149 106 -255.5t255 -106.5q10 0 10 -10z" />
    <glyph glyph-name="uni25E0" unicode="&#x25e0;" 
d="M79 220q-10 0 -10 9q0 157 112 269t269 112t269 -112t112 -269q0 -9 -10 -9q-9 0 -9 9q0 149 -106.5 255t-255.5 106t-255 -106t-106 -255q0 -9 -10 -9z" />
    <glyph glyph-name="uni25E1" unicode="&#x25e1;" 
d="M821 386q10 0 10 -10q0 -157 -112 -269.5t-269 -112.5t-269 112.5t-112 269.5q0 10 10 10t10 -10q0 -149 106 -255.5t255 -106.5t255.5 106.5t106.5 255.5q0 10 9 10z" />
    <glyph glyph-name="uni25EB" unicode="&#x25eb;" 
d="M811 744q10 0 10 -10v-724q0 -11 -10 -11h-722q-10 0 -10 11v724q0 10 10 10h722zM801 724h-341v-704h341v704zM440 724h-342v-704h342v704z" />
    <glyph glyph-name="uni25EC" unicode="&#x25ec;" 
d="M440 737q3 5 9 5.5t9 -5.5q363 -722 363 -723q3 -5 0 -9.5t-9 -4.5h-724q-6 0 -9 4.5t0 9.5zM796 20q-22 44 -171.5 341t-175.5 350l-345 -691h692zM416 259q0 15 9.5 24.5t23.5 9.5t23.5 -9.5t9.5 -24.5q0 -12 -9.5 -22t-23.5 -10q-13 0 -23 10t-10 22zM462 259
q0 14 -13 14t-13 -14q0 -12 13 -12t13 12z" />
    <glyph glyph-name="uni25EF" unicode="&#x25ef;" 
d="M-14 415q0 125 62.5 231.5t169 168.5t231.5 62q192 0 328 -135.5t136 -326.5q0 -125 -62.5 -232t-169.5 -170t-232 -63q-124 0 -231 63t-169.5 170t-62.5 232zM893 415q0 182 -130.5 312t-313.5 130q-182 0 -312.5 -130t-130.5 -312q0 -183 130.5 -314t312.5 -131
q183 0 313.5 131t130.5 314z" />
    <glyph glyph-name="uni25F0" unicode="&#x25f0;" 
d="M78 10v723q0 10 10 10h724q9 0 9 -10v-723q0 -10 -9 -10h-724q-10 0 -10 10zM450 361h-352v-341h704v703h-342v-352q0 -10 -10 -10zM440 723h-342v-342h342v342z" />
    <glyph glyph-name="uni25F1" unicode="&#x25f1;" 
d="M811 -1h-723q-10 0 -10 10v724q0 11 10 11h723q10 0 10 -11v-724q0 -10 -10 -10zM459 372v-353h342v704h-703v-341h351q10 0 10 -10zM439 362h-341v-343h341v343z" />
    <glyph glyph-name="uni25F2" unicode="&#x25f2;" 
d="M822 733v-723q0 -10 -9 -10h-724q-11 0 -11 10v723q0 10 11 10h724q9 0 9 -10zM440 371q0 10 10 10h353v342h-704v-703h341v351zM803 361h-343v-341h343v341z" />
    <glyph glyph-name="uni25F3" unicode="&#x25f3;" 
d="M88 744h723q10 0 10 -10v-724q0 -11 -10 -11h-723q-10 0 -10 11v724q0 10 10 10zM801 724h-342v-342h342v342zM439 372v352h-341v-704h703v342h-352q-10 0 -10 10z" />
    <glyph glyph-name="uni25F4" unicode="&#x25f4;" 
d="M69 376q0 157 112 268.5t269 111.5t269 -111.5t112 -268.5t-112 -269.5t-269 -112.5t-269 112.5t-112 269.5zM440 386v351q-144 -4 -247.5 -107.5t-103.5 -243.5h351zM450 14q149 0 255.5 106.5t106.5 255.5q0 148 -105 254.5t-247 106.5v-361q0 -10 -10 -10h-361
q5 -147 109.5 -249.5t251.5 -102.5z" />
    <glyph glyph-name="uni25F5" unicode="&#x25f5;" 
d="M449 -6q-157 0 -268.5 112t-111.5 269t111.5 269t268.5 112t269.5 -112t112.5 -269t-112.5 -269t-269.5 -112zM459 375v-361q146 4 249.5 109t103.5 252q0 149 -107 255.5t-256 106.5q-148 0 -254 -105t-106 -247h360q10 0 10 -10zM439 365h-350q5 -143 106 -245
t244 -106v351z" />
    <glyph glyph-name="uni25F6" unicode="&#x25f6;" 
d="M831 374q0 -157 -112 -268.5t-269 -111.5t-269 111.5t-112 268.5t112 269.5t269 112.5t269 -112.5t112 -269.5zM440 374q0 10 10 10h362q-5 147 -110 250t-252 103q-149 0 -255 -107t-106 -256q0 -146 103 -251t248 -109v360zM460 14q145 4 248.5 107t103.5 243h-352
v-350z" />
    <glyph glyph-name="uni25F7" unicode="&#x25f7;" 
d="M451 756q157 0 268.5 -112t111.5 -269t-111.5 -269t-268.5 -112t-269.5 112t-112.5 269t112.5 269t269.5 112zM451 14q148 0 254.5 104.5t106.5 246.5h-361q-10 0 -10 10v362q-146 -4 -249 -109.5t-103 -252.5q0 -149 106.5 -255t255.5 -106zM812 385
q-4 145 -107.5 248.5t-243.5 103.5v-352h351z" />
    <glyph glyph-name="uni25F8" unicode="&#x25f8;" 
d="M269 491h362q7 0 9.5 -6t-2.5 -11l-362 -361q-5 -5 -11 -2.5t-6 9.5v361q0 10 10 10zM606 471h-327v-326z" />
    <glyph glyph-name="uni25F9" unicode="&#x25f9;" 
d="M641 481v-362q0 -7 -6 -9.5t-11 2.5l-361 362q-5 5 -2.5 11t9.5 6h361q10 0 10 -10zM621 471h-327l327 -327v327z" />
    <glyph glyph-name="uni25FA" unicode="&#x25fa;" 
d="M259 119v362q0 7 6 9.5t11 -2.5l361 -362q5 -5 2.5 -11t-9.5 -6h-361q-10 0 -10 10zM606 129l-327 328v-328h327z" />
    <glyph glyph-name="uni25FB" unicode="&#x25fb;" 
d="M269 491h362q10 0 10 -10v-361q0 -10 -10 -10h-362q-10 0 -10 10v361q0 10 10 10zM621 471h-342v-341h342v341z" />
    <glyph glyph-name="uni25FD" unicode="&#x25fd;" 
d="M298 450h303q10 0 10 -10v-302q0 -10 -10 -10h-303q-10 0 -10 10v302q0 10 10 10zM591 430h-283v-282h283v282z" />
    <glyph glyph-name="uni25FF" unicode="&#x25ff;" 
d="M631 109h-362q-7 0 -9.5 6t2.5 11l362 361q5 5 11 2.5t6 -9.5v-361q0 -10 -10 -10zM621 129v327l-327 -327h327z" />
    <glyph glyph-name="uni2600" unicode="&#x2600;" 
d="M450 459q-10 0 -10 10v81q0 10 10 10t10 -10v-81q0 -10 -10 -10zM320 405q-7 -7 -14 0l-57 57q-7 7 0 14t14 0l57 -57q7 -7 0 -14zM651 476q7 -7 0 -14l-57 -57q-7 -7 -14 0t0 14l57 57q7 7 14 0zM592 275q0 -59 -42 -100.5t-100 -41.5q-60 0 -102 41.5t-42 100.5t42 101
t102 42q58 0 100 -42t42 -101zM326 275q0 -51 36.5 -86.5t87.5 -35.5q50 0 86 36t36 86t-36 86.5t-86 36.5q-51 0 -87.5 -36t-36.5 -87zM266 275q0 -10 -10 -10h-81q-10 0 -10 10t10 10h81q10 0 10 -10zM735 275q0 -10 -10 -10h-81q-10 0 -10 10t10 10h81q10 0 10 -10z
M320 145q7 -7 0 -14l-57 -57q-7 -7 -14 0t0 14l57 57q7 7 14 0zM651 74q-7 -7 -14 0l-57 57q-7 7 0 14t14 0l57 -57q7 -7 0 -14zM450 -10q-10 0 -10 10v81q0 10 10 10t10 -10v-81q0 -10 -10 -10z" />
    <glyph glyph-name="uni2606" unicode="&#x2606;" 
d="M449 183q4 2 9 0l156 -81l-27 172q0 6 3 9l124 129l-172 22q-6 0 -8 6l-81 162l-81 -162q-2 -6 -8 -6l-177 -22l129 -129q3 -3 3 -9l-32 -172zM277 75q-6 -3 -10.5 0.5t-3.5 10.5l35 187l-140 140q-5 4 -3 10t9 7l193 23l87 175q3 7 9 7t9 -7l87 -175l187 -23
q7 -1 9 -6.5t-3 -10.5l-134 -140l29 -187q1 -7 -4 -10.5t-11 -0.5l-170 88z" />
    <glyph glyph-name="uni2620" unicode="&#x2620;" 
d="M685 439q8 -8 18.5 -7t18.5 9q7 6 8 15.5t-6 16.5q-8 8 -19 8.5t-19 -6.5l-14 14q18 18 2 36q-8 7 -19 6.5t-18 -7.5q-8 -8 -8 -18.5t7 -18.5l24 -24zM177 440q8 -8 18.5 -8t18.5 7l24 24l24 25q8 8 7 18.5t-9 18.5q-6 7 -15.5 8t-16.5 -6q-8 -8 -8.5 -19t6.5 -19
l-14 -14q-18 18 -36 2q-7 -8 -6.5 -19t7.5 -18zM603 298q0 45 -46.5 82t-106.5 37q-62 0 -108 -36.5t-46 -82.5q0 -37 22.5 -76t51 -65.5t52 -43.5t29.5 -17t29 17t51 43.5t50 65.5t22 76zM457 278q0 26 18 44.5t44 18.5q25 0 43 -18.5t18 -44.5q0 -24 -18 -42t-43 -18
t-43.5 18t-18.5 42zM382 218q-25 0 -43.5 18t-18.5 42q0 26 18 44.5t44 18.5q25 0 43 -18.5t18 -44.5q0 -24 -18 -42t-43 -18zM560 278q0 17 -12 30t-29 13t-29.5 -13t-12.5 -30q0 -16 12.5 -28t29.5 -12t29 11.5t12 28.5zM382 321q-17 0 -29.5 -13t-12.5 -30
q0 -16 12.5 -28t29.5 -12t29 11.5t12 28.5t-12 30t-29 13zM480 162q0 -10 -10 -10h-39q-10 0 -10 10t10 10h39q10 0 10 -10zM255 10q8 -7 19 -6.5t18 7.5q8 8 8 18.5t-7 18.5l-24 24l-25 24q-8 8 -18.5 7t-18.5 -9q-7 -6 -8 -15.5t6 -16.5q8 -8 19 -8.5t19 6.5l14 -14
q-18 -18 -2 -36zM607 10q6 -7 15.5 -8t16.5 6q8 8 8.5 19t-6.5 19l14 14q18 -18 36 -2q7 8 6.5 19t-7.5 18q-8 8 -18.5 8t-18.5 -7l-24 -24l-24 -25q-8 -8 -7 -18.5t9 -18.5zM653 -6q-13 -13 -30.5 -12t-29.5 14q-14 14 -15 32.5t13 32.5l17 18l-64 65q-19 -19 -40.5 -35.5
t-35 -24.5t-17.5 -8q-3 0 -17 8t-36 25t-42 36l-66 -66l17 -17q13 -14 13 -32.5t-14 -32.5q-13 -13 -33 -13.5t-32 12.5q-16 15 -11 37q-22 -2 -39 15q-13 13 -12 30.5t14 29.5q14 14 32.5 15t32.5 -13l18 -17l66 66q-66 72 -66 139q0 42 34 79l-65 65l-17 -17
q-14 -13 -32.5 -13t-32.5 14q-13 13 -13.5 33t12.5 32q16 16 38 11q-3 22 14 39q13 13 30.5 12t29.5 -14q14 -14 15 -32.5t-13 -32.5l-17 -18l65 -65q55 46 126 46t124 -46l65 65l-17 17q-13 14 -13 32.5t14 32.5q13 13 33 13.5t32 -12.5q16 -14 12 -37q21 2 38 -15
q13 -13 12 -30.5t-14 -29.5q-14 -14 -32.5 -15t-32.5 13l-18 17l-64 -65q34 -37 34 -79q0 -70 -66 -140l65 -65l17 17q14 13 32.5 13t32.5 -14q13 -13 13.5 -33t-12.5 -32q-14 -16 -37 -11q2 -22 -15 -39z" />
    <glyph glyph-name="uni2690" unicode="&#x2690;" 
d="M547 241q83 0 199 24v309q-111 -23 -199 -23q-33 0 -99 15q-57 17 -92 17q-75 0 -142 -28v-309q69 27 142 27q38 0 97 -17q64 -15 94 -15zM144 -10q-10 0 -10 10t10 10h50v640q0 10 10 10t10 -10v-74q69 27 142 27q38 0 98 -17q62 -15 93 -15q90 0 207 26q12 2 12 -10
v-330q0 -8 -8 -10q-117 -26 -211 -26q-34 0 -98 15q-59 17 -93 17q-75 0 -142 -28v-215h150q10 0 10 -10t-10 -10h-220z" />
    <glyph glyph-name="uni2693" unicode="&#x2693;" 
d="M361 543q0 36 26.5 62.5t62.5 26.5t62.5 -26.5t26.5 -62.5t-26.5 -62.5t-62.5 -26.5t-62.5 26.5t-26.5 62.5zM519 543q0 29 -20.5 49t-48.5 20t-48.5 -20t-20.5 -49t20.5 -49t48.5 -20t48.5 20t20.5 49zM709 218l-16 31q-15 -73 -83.5 -122t-159.5 -49q-90 0 -158.5 49
t-83.5 122l-17 -31q-5 -8 -14 -4q-8 5 -4 14l33 60q5 8 14 4l60 -32q7 -6 4 -14q-6 -7 -14 -4l-44 23q8 -68 69.5 -116t144.5 -51v57q-59 3 -102 38q-8 6 -2 14t14 2q42 -34 90 -34v229h-113q-10 0 -10 10t10 10h246q10 0 10 -10t-10 -10h-113v-229q49 3 90 34q8 6 14 -2
t-2 -14q-45 -35 -102 -38v-57q84 3 145.5 51t69.5 117l-45 -24q-8 -3 -14 4q-3 8 4 14l61 32q9 4 14 -4l32 -60q3 -8 -4 -14q-8 -3 -14 4z" />
    <glyph glyph-name="uni26D0" unicode="&#x26d0;" 
d="M792 71q-8 -4 -13 3l-166 206q-23 -18 -53 -15.5t-51 23.5t-23 50.5t15 52.5l-206 166q-7 5 -3 13l20 33q5 8 14 4l269 -141l42 14q6 4 10 -2l19 -19l75 74q7 7 14 0t0 -14l-75 -74l19 -19q6 -4 2 -10l-15 -41l143 -271q4 -9 -4 -14zM622 400q21 -22 22.5 -52.5
t-16.5 -53.5l161 -201l17 10l-139 265q-2 4 0 8l13 40l-14 15l-22 -22q-7 -7 -14 0t0 14l22 22l-15 15l-40 -14q-4 -2 -8 0l-265 138l-10 -17l201 -162q24 19 54.5 18t52.5 -23zM608 301q17 17 17 42.5t-17 42.5t-42.5 16.5t-42.5 -17.5t-17 -41.5t17 -41.5t42.5 -17.5
t42.5 16.5zM362 386q0 -10 -10 -10h-114q-17 0 -23.5 -6.5t-6.5 -23.5v-100q0 -17 6.5 -23.5t23.5 -6.5q10 0 10 -10t-10 -10q-28 0 -39 10.5t-11 39.5v100q0 29 10.5 39.5t39.5 10.5h114q10 0 10 -10zM588 320q-8 -9 -22 -9.5t-24 9.5t-10 24t9 24q11 10 24.5 10t23.5 -10
t9.5 -24t-10.5 -24zM575 354q-10 10 -20 0q-8 -10 1 -20q8 -8 18 0q10 10 1 20zM432 306q0 -10 -10 -10h-104q-17 0 -23.5 -6.5t-6.5 -23.5v-100q0 -29 -10.5 -39.5t-39.5 -10.5h-157q-10 0 -10 10t10 10h157q17 0 23.5 6.5t6.5 23.5v100q0 29 10.5 39.5t39.5 10.5h104
q10 0 10 -10zM498 92q-10 0 -10 10v64q0 17 -6.5 23.5t-23.5 6.5h-140q-10 0 -10 10t10 10h140q29 0 39.5 -10.5t10.5 -39.5v-64q0 -10 -10 -10z" />
    <glyph glyph-name="uni26ED" unicode="&#x26ed;" 
d="M450 459q-10 0 -10 10v81q0 10 10 10t10 -10v-81q0 -10 -10 -10zM320 405q-7 -7 -14 0l-57 57q-7 7 0 14t14 0l57 -57q7 -7 0 -14zM651 476q7 -7 0 -14l-57 -57q-7 -7 -14 0t0 14l57 57q7 7 14 0zM592 275q0 -59 -42 -100.5t-100 -41.5q-60 0 -102 41.5t-42 100.5t42 101
t102 42q58 0 100 -42t42 -101zM326 275q0 -51 36.5 -86.5t87.5 -35.5q50 0 86 36t36 86t-36 86.5t-86 36.5q-51 0 -87.5 -36t-36.5 -87zM266 275q0 -10 -10 -10h-81q-10 0 -10 10t10 10h81q10 0 10 -10zM735 275q0 -10 -10 -10h-81q-10 0 -10 10t10 10h81q10 0 10 -10z
M320 145q7 -7 0 -14l-57 -57q-7 -7 -14 0t0 14l57 57q7 7 14 0zM651 74q-7 -7 -14 0l-57 57q-7 7 0 14t14 0l57 -57q7 -7 0 -14zM450 -10q-10 0 -10 10v81q0 10 10 10t10 -10v-81q0 -10 -10 -10z" />
    <glyph glyph-name="uni26EE" unicode="&#x26ee;" 
d="M450 459q-10 0 -10 10v81q0 10 10 10t10 -10v-81q0 -10 -10 -10zM320 405q-7 -7 -14 0l-57 57q-7 7 0 14t14 0l57 -57q7 -7 0 -14zM651 476q7 -7 0 -14l-57 -57q-7 -7 -14 0t0 14l57 57q7 7 14 0zM592 275q0 -59 -42 -100.5t-100 -41.5q-60 0 -102 41.5t-42 100.5t42 101
t102 42q58 0 100 -42t42 -101zM326 275q0 -51 36.5 -86.5t87.5 -35.5q50 0 86 36t36 86t-36 86.5t-86 36.5q-51 0 -87.5 -36t-36.5 -87zM175 184q-10 0 -10 10v81q0 10 10 10h81q10 0 10 -10t-10 -10h-71v-71q0 -10 -10 -10zM644 265q-10 0 -10 10t10 10h71v71q0 10 10 10
t10 -10v-81q0 -10 -10 -10h-81zM320 145q7 -7 0 -14l-57 -57q-7 -7 -14 0t0 14l57 57q7 7 14 0zM651 74q-7 -7 -14 0l-57 57q-7 7 0 14t14 0l57 -57q7 -7 0 -14zM450 -10q-10 0 -10 10v81q0 10 10 10t10 -10v-81q0 -10 -10 -10z" />
    <glyph glyph-name="uni26EF" unicode="&#x26ef;" 
d="M450 459q-10 0 -10 10v81q0 10 10 10t10 -10v-81q0 -10 -10 -10zM320 405q-7 -7 -14 0l-57 57q-7 7 0 14t14 0l57 -57q7 -7 0 -14zM651 476q7 -7 0 -14l-57 -57q-7 -7 -14 0t0 14l57 57q7 7 14 0zM592 275q0 -59 -42 -100.5t-100 -41.5q-60 0 -102 41.5t-42 100.5t42 101
t102 42q58 0 100 -42t42 -101zM326 275q0 -51 36.5 -86.5t87.5 -35.5q50 0 86 36t36 86t-36 86.5t-86 36.5q-51 0 -87.5 -36t-36.5 -87zM416 275q0 15 10 24.5t24 9.5t23.5 -9.5t9.5 -24.5q0 -13 -9.5 -23t-23.5 -10t-24 10t-10 23zM463 275q0 14 -13 14q-14 0 -14 -14
q0 -5 4.5 -9t9.5 -4q13 0 13 13zM266 275q0 -10 -10 -10h-81q-10 0 -10 10t10 10h81q10 0 10 -10zM735 275q0 -10 -10 -10h-81q-10 0 -10 10t10 10h81q10 0 10 -10zM320 145q7 -7 0 -14l-57 -57q-7 -7 -14 0t0 14l57 57q7 7 14 0zM651 74q-7 -7 -14 0l-57 57q-7 7 0 14t14 0
l57 -57q7 -7 0 -14zM450 -10q-10 0 -10 10v81q0 10 10 10t10 -10v-81q0 -10 -10 -10z" />
    <glyph glyph-name="uni26FF" unicode="&#x26ff;" 
d="M547 461q83 0 199 24v89q-111 -23 -199 -23q-33 0 -99 15q-57 17 -92 17q-75 0 -142 -28v-89q69 27 142 27q38 0 98 -17q62 -15 93 -15zM547 351q83 0 199 24v89q-111 -23 -199 -23q-33 0 -99 15q-57 17 -92 17q-75 0 -142 -28v-89q69 27 142 27q38 0 98 -17
q62 -15 93 -15zM547 241q83 0 199 24v89q-111 -23 -199 -23q-33 0 -99 15q-57 17 -92 17q-75 0 -142 -28v-89q69 27 142 27q38 0 97 -17q64 -15 94 -15zM144 -10q-10 0 -10 10t10 10h50v640q0 10 10 10t10 -10v-74q69 27 142 27q38 0 98 -17q62 -15 93 -15q90 0 207 26
q12 2 12 -10v-330q0 -8 -8 -10q-117 -26 -211 -26q-34 0 -98 15q-59 17 -93 17q-75 0 -142 -28v-215h150q10 0 10 -10t-10 -10h-220z" />
    <glyph glyph-name="uni2701" unicode="&#x2701;" 
d="M400 408q0 21 -14.5 36t-35.5 15t-36 -15t-15 -36t15 -35.5t36 -14.5t35.5 15t14.5 35zM526 168q-8 -6 -14 2l-50 64h-127q-4 -26 -23.5 -43t-45.5 -17q-30 0 -50.5 20.5t-20.5 49.5q0 30 20.5 50.5t50.5 20.5q26 0 45.5 -17.5t23.5 -43.5h112l-70 90q-12 -6 -27 -6
q-30 0 -50.5 20.5t-20.5 49.5q0 30 20.5 50.5t50.5 20.5q29 0 49.5 -20.5t20.5 -50.5q0 -33 -26 -54l78 -100h223q10 0 10 -10t-10 -10h-207l40 -52q6 -8 -2 -14zM266 295q-21 0 -36 -15t-15 -36t15 -35.5t36 -14.5t35.5 15t14.5 35q0 21 -14.5 36t-35.5 15z" />
    <glyph glyph-name="uni2702" unicode="&#x2702;" 
d="M291 367q26 0 41 22l1 1q8 13 8 27q0 21 -14.5 36t-35.5 15t-36 -15t-15 -36t15 -35.5t36 -14.5zM361 227q0 -29 -20.5 -49.5t-49.5 -20.5q-30 0 -50.5 20.5t-20.5 49.5q0 30 20.5 50.5t50.5 20.5q32 0 54 -25l99 49l-99 50q-22 -25 -54 -25q-30 0 -50.5 20.5t-20.5 49.5
q0 30 20.5 50.5t50.5 20.5q29 0 49.5 -20.5t20.5 -50.5q0 -15 -6 -28l111 -56l200 100q9 5 13 -5q5 -9 -5 -13l-186 -93l186 -93q10 -4 5 -13q-4 -10 -13 -5l-200 100l-111 -55q6 -14 6 -29zM291 177q21 0 35.5 15t14.5 35q0 17 -9 29q-15 22 -41 22q-21 0 -36 -15t-15 -36
t15 -35.5t36 -14.5z" />
    <glyph glyph-name="uni2703" unicode="&#x2703;" 
d="M266 450q-21 0 -36 -14.5t-15 -35.5t15 -36t36 -15t35.5 15t14.5 36q0 20 -14.5 35t-35.5 15zM350 165q-30 0 -50.5 20.5t-20.5 50.5q0 29 20.5 49.5t50.5 20.5q14 0 27 -5l70 89h-112q-4 -26 -23.5 -43.5t-45.5 -17.5q-30 0 -50.5 20.5t-20.5 50.5q0 29 20.5 49.5
t50.5 20.5q26 0 45.5 -17t23.5 -43h127l50 64q6 8 14 2t2 -14l-40 -52h207q10 0 10 -10t-10 -10h-223l-78 -100q26 -21 26 -54q0 -30 -20.5 -50.5t-49.5 -20.5zM299 236q0 -21 15 -36t36 -15t35.5 15t14.5 36q0 20 -14.5 35t-35.5 15t-36 -14.5t-15 -35.5z" />
    <glyph glyph-name="uni1F304" 
d="M471 459q-10 0 -10 10v81q0 10 10 10t10 -10v-81q0 -10 -10 -10zM329 523q9 4 14 -4l40 -71q4 -9 -4 -14q-9 -4 -14 4l-40 71q-4 9 4 14zM614 522q8 -5 4 -14l-41 -70q-5 -8 -14 -4q-8 5 -4 14l41 70q5 8 14 4zM718 418q4 -9 -4 -14l-70 -41q-9 -4 -14 4q-4 9 4 14l70 41
q9 4 14 -4zM471 398q-46 0 -80 -26.5t-40 -67.5l78 -99l152 123q-13 33 -42.5 51.5t-67.5 18.5zM811 105q-7 -7 -14 0l-205 206l-159 -128q-8 -6 -14 2l-123 156l-192 -233q-6 -8 -14 -2t-2 14l200 243q8 10 16 0l31 -39q14 42 51 68t85 26q46 0 81 -24t49 -64l210 -211
q7 -7 0 -14z" />
    <glyph glyph-name="uni1F305" 
d="M450 459q-10 0 -10 10v81q0 10 10 10t10 -10v-81q0 -10 -10 -10zM308 523q9 4 14 -4l40 -71q4 -9 -4 -14q-9 -4 -14 4l-40 71q-4 9 4 14zM593 522q8 -5 4 -14l-41 -70q-5 -8 -14 -4q-8 5 -4 14l41 70q5 8 14 4zM697 418q4 -9 -4 -14l-70 -41q-9 -4 -14 4q-4 9 4 14l70 41
q9 4 14 -4zM291 367q-5 -8 -14 -4l-70 41q-8 5 -4 14q5 8 14 4l70 -41q8 -5 4 -14zM326 275q0 -46 27 -75h193q26 34 26 75q0 50 -36 86.5t-86 36.5q-51 0 -87.5 -36t-36.5 -87zM266 275q0 -10 -10 -10h-81q-10 0 -10 10t10 10h81q10 0 10 -10zM735 275q0 -10 -10 -10h-81
q-10 0 -10 10t10 10h81q10 0 10 -10zM764 180h-412q-9 -4 -9 0h-207q-10 0 -10 10t10 10h191q-21 36 -21 75q0 59 42 101t102 42q58 0 100 -42t42 -101q0 -40 -22 -75h194q10 0 10 -10t-10 -10z" />
    <glyph glyph-name="uni1F308" 
d="M61 173q-9 2 -9 11q16 151 130 255t268 104t268 -104t130 -255q0 -9 -9 -11q-9 0 -11 9q-14 144 -123 242.5t-255 98.5t-255 -98.5t-123 -242.5q-2 -9 -11 -9zM181 173q-11 2 -9 11q15 102 94.5 171t183.5 69t183.5 -69t94.5 -171q2 -9 -9 -11q-9 -2 -11 9
q-14 94 -87.5 158t-170.5 64t-170.5 -64t-87.5 -158q-2 -11 -11 -9zM226 173q-10 2 -8 12q15 83 81 138.5t151 55.5t151 -55.5t81 -138.5q2 -10 -8 -12t-12 8q-14 76 -74 127t-138 51t-138 -51t-74 -127q-2 -10 -12 -8zM295 173q-9 3 -7 13q14 54 59.5 89t102.5 35
t102.5 -35t59.5 -89q2 -10 -7 -13q-10 -2 -13 7q-13 48 -52.5 79t-89.5 31t-89.5 -31t-52.5 -79q-3 -9 -13 -7zM364 174q-10 4 -5 13q29 57 91 57t91 -57q5 -9 -5 -13q-9 -5 -13 5q-23 45 -73 45t-73 -45q-4 -10 -13 -5z" />
    <glyph glyph-name="uni1F30D" 
d="M449 -10q-117 0 -201 84t-84 201t84 201t201 84q118 0 202 -82.5t84 -194.5v-8q0 -117 -84 -201t-202 -84zM325 496l42 18l-4 11q-54 -17 -98 -60l20 -22l36 50q3 3 4 3zM449 10q110 0 188 78t78 187v1l-90 15l6 -24q2 -6 -4 -10l-43 -30l-42 -61l1 -57q0 -2 -2 -6
l-39 -53q-3 -4 -9 -4l-26 3q-7 2 -9 8l-39 155l-55 11q-6 2 -8 8l-12 61q0 7 4 10l44 37l3 29q0 3 5 8l61 36l-14 61q-2 7 5 11l51 28q2 1 7 1l26 -6l2 18q-42 15 -89 15q-35 0 -68 -9l7 -18q4 -9 -5 -13l-47 -21l-43 -59q-8 -9 -16 -1l-26 31q-67 -75 -67 -175
q0 -109 78 -187t187 -78zM488 335l-20 6l-23 -6l101 -21l7 11l-9 1q-9 0 -9 10l2 36l-16 6l6 -23q2 -10 -7 -13l-26 -7h-6zM437 223l40 -155l13 -1l33 45l-2 57q0 2 2 6l43 61l-21 57l-141 30l-38 -33l9 -48l54 -11q7 -2 8 -8zM579 329l-17 -29l19 -51l29 20l-9 33
q-1 5 2.5 9t9.5 3l101 -17q-6 73 -48.5 131.5t-108.5 88.5l-2 -23q-2 -11 -12 -9l-33 7l-41 -22l13 -61q2 -8 -5 -11l-62 -37l-2 -13l52 14h6l21 -6l12 3l-9 31q-1 7 3 10.5t10 1.5l42 -14q7 -2 7 -9l-1 -34l15 -1q15 -2 8 -15z" />
    <glyph glyph-name="uni1F30E" 
d="M165 275q0 117 84 201t201 84q118 0 202 -84t84 -201t-84 -201t-202 -84q-117 0 -201 84t-84 201zM450 10q110 0 188 78t78 187t-77.5 187t-183.5 78l-31 -46l17 -14l48 34q7 5 13 -1l32 -31q7 -7 0 -14l-25 -26l12 -8l28 26q11 9 16 -3l12 -27q2 -4 0 -8l-20 -46
q-1 -4 -8 -6l-17 -2l7 -19q5 -9 -7 -13l-28 -6q-7 -2 -11 6l-11 24l-43 -18l9 -8q3 -3 3 -5l5 -37l114 -9q3 0 6 -3l27 -29q3 -3 3 -9l-15 -62q-3 -5 -4 -6l-56 -41l-25 -86q-2 -7 -8.5 -7.5t-10.5 5.5l-45 87q0 1 -0.5 2.5t-0.5 2.5l-2 57l-44 29q-1 1 -4 6l-3 17q0 7 4 10
l39 30l-19 17l-73 11q-3 0 -8 5l-23 39q-1 2 -1 6l6 44l-35 49l-35 -16q-58 -72 -58 -166q0 -109 77.5 -187t187.5 -78zM424 320l9 -9l-2 11l-17 16q-4 4 -3 9t6 7l67 28q9 4 13 -5l10 -25l10 2l-7 19q-2 4 0.5 8t7.5 5l23 3l16 37l-5 10l-22 -21q-5 -5 -12 -2l-30 17
q-11 7 -2 16l27 29l-19 18l-48 -34q-5 -4 -13 0l-29 25q-6 8 -1 14l27 41q-86 -6 -150 -61q6 3 10 -3l42 -59q2 -4 2 -7l-7 -44l19 -32l72 -10q3 0 6 -3zM459 199l1 -59l33 -62l19 64q1 2 4 5l55 41l13 53l-20 22l-117 10l-38 -29l1 -7l45 -30q4 -2 4 -8z" />
    <glyph glyph-name="uni1F30F" 
d="M450 -10q-117 0 -201 84t-84 201v1q1 117 84.5 200.5t200.5 83.5q118 0 202 -84t84 -201t-84 -201t-202 -84zM538 372q9 -4 5 -13l-23 -53q-4 -9 -13 -5t-5 13l23 53q4 9 13 5zM274 280q4 8 11 6l102 -21q1 -1 3 -2l2 -1l36 -32l4 23q2 6 9 8l17 2l-6 68v2l4 32
q2 13 13 9l12 -4l3 32q0 9 10 9l32 2l7 44q2 6 9 8l42 5q4 0 6 -2l24 -16l14 19q-77 69 -178 69q-109 0 -187 -76t-78 -178l12 -1q8 0 10 -8l6 -32l26 -45zM450 10q110 0 188 78t78 187q0 106 -74 182l-16 -24q-6 -8 -13 -2l-30 19l-32 -4l-6 -45q-2 -8 -10 -8l-32 -2
l-2 -36q0 -5 -4.5 -7.5t-8.5 -1.5l-14 4l-2 -18l8 -77q2 -9 -9 -11l-21 -2l-5 -34q-2 -6 -7 -7.5t-10 2.5l-48 42l-92 19l-39 -90q-2 -6 -8 -6.5t-10 5.5l-36 63l-1 1v2l-6 26l-3 1q4 -107 81 -181.5t184 -74.5zM542 56q-5 -2 -8 0l-43 21l-45 -11q-9 -2 -12 7l-15 53
q0 6 3 10l48 54q3 3 7 3l29 1q4 0 6 -2l26 -21l9 19q2 6 7.5 6.5t9.5 -4.5l34 -49q2 -2 2 -9l-16 -58q-2 -4 -6 -6zM496 97l42 -21l27 10l13 50l-21 30l-6 -14q-6 -11 -15 -4l-34 26l-21 -1l-41 -46l11 -39l39 10q5 0 6 -1zM601 76q-9 4 -5 13l14 33q2 3 5 5l27 12l8 23
q2 10 12 6q10 -2 6 -12l-10 -28q0 -4 -5 -6l-26 -11l-13 -30q-4 -9 -13 -5z" />
    <glyph glyph-name="uni1F310" 
d="M322 429q33 70 86 107q-87 -14 -149 -77q29 -18 63 -30zM580 429q34 12 62 30q-62 64 -147 77q54 -38 85 -107zM461 409q52 1 99 14q-33 76 -99 111v-125zM441 409v125q-65 -36 -99 -111q51 -14 99 -14zM292 285q1 70 23 125q-39 14 -69 34q-57 -68 -62 -159h108z
M716 285q-4 90 -61 159q-33 -20 -68 -33q22 -57 23 -126h106zM590 285q-1 65 -22 120q-54 -15 -107 -16v-104h129zM441 285v104q-58 2 -107 15q-21 -55 -22 -119h129zM656 107q60 75 60 158h-106q-1 -68 -23 -125q37 -14 69 -33zM568 146q21 55 22 119h-129v-103
q59 -2 107 -16zM334 146q48 14 107 16v103h-129q1 -64 22 -119zM245 107q31 19 69 33q-21 59 -22 125h-108q5 -91 61 -158zM441 16v126q-51 -1 -100 -14q33 -76 100 -112zM461 16q64 34 100 112q-53 14 -100 14v-126zM494 14q88 14 148 78q-26 18 -62 30q-30 -69 -86 -108z
M407 14q-54 38 -85 108q-39 -14 -63 -30q63 -65 148 -78zM736 275q0 -117 -84 -201t-201 -84q-118 0 -202.5 84t-84.5 201t84.5 201t202.5 84q117 0 201 -84t84 -201z" />
    <glyph glyph-name="uni1F311" 
d="M736 275q0 -117 -84 -201t-201 -84q-118 0 -202.5 84t-84.5 201t84.5 201t202.5 84q117 0 201 -84t84 -201zM184 275q0 -109 78.5 -187t188.5 -78q109 0 187 78t78 187t-78 187t-187 78q-110 0 -188.5 -78t-78.5 -187z" />
    <glyph glyph-name="uni1F312" 
d="M736 275q0 -117 -84 -201t-201 -84q-118 0 -202.5 84t-84.5 201t84.5 201t202.5 84q117 0 201 -84t84 -201zM184 275q0 -109 78.5 -187t186.5 -78q65 31 103 100.5t38 164.5q0 96 -38 166.5t-103 98.5q-109 -1 -187 -78.5t-78 -186.5zM610 275q0 -87 -31 -155t-85 -106
q95 15 158.5 89t63.5 172q0 97 -63 171t-158 90q54 -38 84.5 -106t30.5 -155z" />
    <glyph glyph-name="uni1F313" 
d="M184 275q0 -107 75.5 -184t181.5 -81v530q-106 -4 -181.5 -81t-75.5 -184zM716 275q0 109 -76 187t-179 78v-530q106 4 180.5 81t74.5 184zM736 275q0 -117 -84 -201t-201 -84q-118 0 -202.5 84t-84.5 201t84.5 201t202.5 84q117 0 201 -84t84 -201z" />
    <glyph glyph-name="uni1F314" 
d="M164 275q0 117 84 201t201 84q118 0 202.5 -84t84.5 -201t-84.5 -201t-202.5 -84q-117 0 -201 84t-84 201zM310 275q0 -96 38 -166.5t103 -98.5q109 1 187 78.5t78 186.5t-78.5 187t-186.5 78q-65 -31 -103 -100.5t-38 -164.5zM184 275q0 -97 63 -171t158 -90
q-54 38 -84.5 106t-30.5 155t31 155t85 106q-95 -15 -158.5 -89t-63.5 -172z" />
    <glyph glyph-name="uni1F315" 
d="M736 275q0 -117 -84 -201t-201 -84q-118 0 -202.5 84t-84.5 201t84.5 201t202.5 84q117 0 201 -84t84 -201zM184 275q0 -109 78.5 -187t188.5 -78q109 0 187 78t78 187t-78 187t-187 78q-110 0 -188.5 -78t-78.5 -187z" />
    <glyph glyph-name="uni1F316" 
d="M736 275q0 -117 -84 -201t-201 -84q-118 0 -202.5 84t-84.5 201t84.5 201t202.5 84q117 0 201 -84t84 -201zM184 275q0 -109 78.5 -187t186.5 -78q65 31 103 100.5t38 164.5q0 96 -38 166.5t-103 98.5q-109 -1 -187 -78.5t-78 -186.5zM610 275q0 -87 -31 -155t-85 -106
q95 15 158.5 89t63.5 172q0 97 -63 171t-158 90q54 -38 84.5 -106t30.5 -155z" />
    <glyph glyph-name="uni1F317" 
d="M184 275q0 -107 75.5 -184t181.5 -81v530q-106 -4 -181.5 -81t-75.5 -184zM716 275q0 109 -76 187t-179 78v-530q106 4 180.5 81t74.5 184zM736 275q0 -117 -84 -201t-201 -84q-118 0 -202.5 84t-84.5 201t84.5 201t202.5 84q117 0 201 -84t84 -201z" />
    <glyph glyph-name="uni1F318" 
d="M164 275q0 117 84 201t201 84q118 0 202.5 -84t84.5 -201t-84.5 -201t-202.5 -84q-117 0 -201 84t-84 201zM310 275q0 -96 38 -166.5t103 -98.5q109 1 187 78.5t78 186.5t-78.5 187t-186.5 78q-65 -31 -103 -100.5t-38 -164.5zM184 275q0 -97 63 -171t158 -90
q-54 38 -84.5 106t-30.5 155t31 155t85 106q-95 -15 -158.5 -89t-63.5 -172z" />
    <glyph glyph-name="uni1F319" 
d="M485 199q63 63 92 135t18 133q-1 8 5.5 11.5t11.5 -2.5q83 -83 83 -201.5t-83 -201.5t-201.5 -83t-201.5 83q-6 5 -2.5 11.5t11.5 5.5q61 -11 133.5 18.5t133.5 90.5zM499 185q-57 -57 -125 -88t-129 -30q78 -63 179.5 -57.5t173.5 77.5t77 173.5t-58 179.5
q2 -62 -28.5 -129t-89.5 -126z" />
    <glyph glyph-name="uni1F31A" 
d="M736 275q0 -117 -84 -201t-201 -84q-118 0 -202.5 84t-84.5 201t84.5 201t202.5 84q117 0 201 -84t84 -201zM184 275q0 -109 78.5 -187t188.5 -78q109 0 187 78t78 187t-78 187t-187 78q-110 0 -188.5 -78t-78.5 -187z" />
    <glyph glyph-name="uni1F31B" 
d="M307 542q-6 4 -4 11t10 7q117 0 201 -83.5t84 -201.5t-84 -201.5t-201 -83.5q-8 0 -10 7t4 11q50 37 81 109t31 158q0 89 -30.5 160t-81.5 107zM439 275q0 -81 -26.5 -151t-70.5 -112q100 11 168 86.5t68 176.5t-68 176.5t-167 86.5q44 -42 70 -111t26 -152z" />
    <glyph glyph-name="uni1F31C" 
d="M307 542q-6 4 -4 11t10 7q117 0 201 -83.5t84 -201.5t-84 -201.5t-201 -83.5q-8 0 -10 7t4 11q50 37 81 109t31 158q0 89 -30.5 160t-81.5 107zM439 275q0 -81 -26.5 -151t-70.5 -112q99 11 167.5 86.5t68.5 176.5t-68 176.5t-167 86.5q44 -42 70 -111t26 -152z" />
    <glyph glyph-name="uni1F31D" 
d="M736 275q0 -117 -84 -201t-201 -84q-118 0 -202.5 84t-84.5 201t84.5 201t202.5 84q117 0 201 -84t84 -201zM184 275q0 -109 78.5 -187t188.5 -78q109 0 187 78t78 187t-78 187t-187 78q-110 0 -188.5 -78t-78.5 -187z" />
    <glyph glyph-name="uni1F31E" 
d="M450 459q-10 0 -10 10v81q0 10 10 10t10 -10v-81q0 -10 -10 -10zM308 523q9 4 14 -4l40 -71q4 -9 -4 -14q-9 -4 -14 4l-40 71q-4 9 4 14zM593 522q8 -5 4 -14l-41 -70q-5 -8 -14 -4q-8 5 -4 14l41 70q5 8 14 4zM697 418q4 -9 -4 -14l-70 -41q-9 -4 -14 4q-4 9 4 14l70 41
q9 4 14 -4zM291 367q-5 -8 -14 -4l-70 41q-8 5 -4 14q5 8 14 4l70 -41q8 -5 4 -14zM592 275q0 -59 -42 -100.5t-100 -41.5q-60 0 -102 41.5t-42 100.5t42 101t102 42q58 0 100 -42t42 -101zM326 275q0 -51 36.5 -86.5t87.5 -35.5q50 0 86 36t36 86t-36 86.5t-86 36.5
q-51 0 -87.5 -36t-36.5 -87zM266 275q0 -10 -10 -10h-81q-10 0 -10 10t10 10h81q10 0 10 -10zM735 275q0 -10 -10 -10h-81q-10 0 -10 10t10 10h81q10 0 10 -10zM291 183q4 -9 -4 -14l-71 -40q-9 -4 -14 4q-4 9 4 14l71 40q9 4 14 -4zM697 133q-5 -8 -14 -4l-70 40
q-8 5 -4 14q5 8 14 4l70 -40q8 -5 4 -14zM542 116q9 4 14 -4l40 -71q4 -9 -4 -14q-9 -4 -14 4l-40 71q-4 9 4 14zM358 116q8 -5 4 -14l-41 -70q-5 -8 -14 -4q-8 5 -4 14l41 70q5 8 14 4zM450 -10q-10 0 -10 10v81q0 10 10 10t10 -10v-81q0 -10 -10 -10z" />
    <glyph glyph-name="uni1F31F" 
d="M328 499q-9 -5 -14 2l-44 63q-5 9 2 14q9 5 14 -2l44 -63q5 -9 -2 -14zM581 496q-8 6 -2 14l46 61q6 8 14 2t2 -14l-46 -61q-6 -8 -14 -2zM247 259q2 -9 -7 -13l-74 -22q-9 -2 -13 7q-2 9 7 13l74 22q9 2 13 -7zM656 254q2 10 12 6l73 -24q10 -2 6 -12q-2 -10 -12 -6
l-73 24q-10 2 -6 12zM448 183q4 2 9 0l156 -81l-27 172q0 6 3 9l124 129l-172 22q-6 0 -8 6l-81 162l-81 -162q-2 -6 -8 -6l-178 -22l130 -129q3 -3 3 -9l-32 -172zM276 75q-6 -3 -10.5 0.5t-3.5 10.5l35 187l-140 140q-5 4 -3 10t9 7l192 23l88 175q3 7 9 7t9 -7l87 -175
l187 -23q7 -1 9 -6.5t-3 -10.5l-134 -140l29 -187q1 -7 -4 -10.5t-11 -0.5l-170 88zM449 108q10 0 10 -10v-77q0 -10 -10 -10t-10 10v77q0 10 10 10z" />
    <glyph glyph-name="uni1F320" 
d="M355 425q-7 7 0 14l182 182q7 7 14 0t0 -14l-182 -182q-7 -7 -14 0zM439 342q-7 7 0 14l226 216q7 7 14 0t0 -14l-226 -216q-7 -7 -14 0zM526 253q-7 7 0 14l184 182q7 7 14 0t0 -14l-184 -182q-7 -7 -14 0zM323 139q4 2 9 0l69 -36l-12 76q0 6 3 9l55 57l-76 10
q-6 0 -8 6l-36 72l-36 -72q-2 -6 -8 -6l-78 -10l57 -57q3 -3 3 -9l-14 -76zM241 76q-6 -3 -10.5 0.5t-3.5 10.5l17 91l-68 68q-5 4 -3 10t9 7l94 11l42 85q3 7 9 7t9 -7l42 -85l91 -11q7 -1 9 -6.5t-3 -10.5l-65 -68l14 -91q1 -7 -4 -10.5t-11 -0.5l-83 43z" />
    <glyph glyph-name="uni1F52C" 
d="M419 365l181 214l-43 37l-182 -215zM588 169h-287v-104h287v104zM225 10q-10 0 -10 10v35q0 10 10 10h56v114q0 10 10 10h217q52 0 89.5 37.5t37.5 90.5q0 52 -36.5 90t-86.5 38l-78 -92l22 -18q7 -7 2 -14q-7 -7 -14 -2l-29 24h-1l-59 48l-1 1l-28 23q-7 7 -2 14
q7 7 14 2l22 -18l188 224q6 7 15 2l22 -19l53 63q6 8 14 2t2 -14l-54 -64l21 -18q7 -7 1 -14l-94 -111q54 -8 90.5 -49.5t36.5 -97.5q0 -40 -20 -74t-54 -54h17q10 0 10 -10v-114h67q10 0 10 -10v-35q0 -10 -10 -10h-450zM665 45h-430v-15h430v15z" />
    <glyph glyph-name="uni1F52D" 
d="M520 445l160 93l-48 83l-160 -93zM343 420l2 -5l20 -35l125 72l-27 49l-125 -73l4 -8h1zM228 324l109 63l-3 7l-4 7l-110 -64zM458 -6q-10 0 -10 10v92h-9v20h9v254l-107 -264h6v-20h-14l-34 -86q-4 -9 -13 -5t-5 13l31 78h-5v20h13l118 292l-71 -41q-9 -4 -14 4l-5 8
l-118 -68q-9 -4 -14 4l-18 31q-3 9 4 13l117 70l-4 8q-4 10 4 13l134 79l-4 8q-4 10 4 13l179 103q9 3 13 -4l58 -100q4 -8 -4 -13l-178 -103q-9 -4 -14 4l-5 8l-32 -18l133 -311h15v-20h-7l34 -78q4 -9 -4 -13q-9 -4 -13 5l-37 86h-14v20h5l-114 267v-257h10v-20h-10v-92
q0 -10 -10 -10z" />
    <glyph glyph-name="uni1F550" 
d="M165 275q0 117 84 201t201 84q118 0 202 -84t84 -201t-84 -201t-202 -84q-117 0 -201 84t-84 201zM716 275q0 109 -78 187t-188 78t-187.5 -78t-77.5 -187t77.5 -187t187.5 -78t188 78t78 187zM328 488q9 4 14 -4l15 -26q4 -9 -4 -14q-9 -4 -14 4l-15 26q-4 9 4 14z
M573 487q8 -5 4 -14l-15 -26q-5 -8 -14 -4q-8 5 -4 14l15 26q5 8 14 4zM238 398q5 8 14 4l26 -15q8 -5 4 -14q-5 -8 -14 -4l-26 15q-8 5 -4 14zM663 397q4 -9 -4 -14l-26 -15q-9 -4 -14 4q-4 9 4 14l26 15q9 4 14 -4zM205 275q0 10 10 10h30q10 0 10 -10t-10 -10h-30
q-10 0 -10 10zM646 275q0 10 10 10h30q10 0 10 -10t-10 -10h-30q-10 0 -10 10zM458 270q-3 -5 -8 -5q-10 0 -10 10v210q0 10 10 10t10 -10v-170l50 86q5 8 14 4q8 -5 4 -14zM282 178q4 -9 -4 -14l-26 -15q-9 -4 -14 4q-4 9 4 14l26 15q9 4 14 -4zM619 177q5 8 14 4l26 -15
q8 -5 4 -14q-5 -8 -14 -4l-26 15q-8 5 -4 14zM353 107q8 -5 4 -14l-15 -26q-5 -8 -14 -4q-8 5 -4 14l15 26q5 8 14 4zM548 106q9 4 14 -4l15 -26q4 -9 -4 -14q-9 -4 -14 4l-15 26q-4 9 4 14zM450 80q10 0 10 -10v-30q0 -10 -10 -10t-10 10v30q0 10 10 10z" />
    <glyph glyph-name="uni1F551" 
d="M165 275q0 117 84 201t201 84q118 0 202 -84t84 -201t-84 -201t-202 -84q-117 0 -201 84t-84 201zM716 275q0 109 -78 187t-188 78t-187.5 -78t-77.5 -187t77.5 -187t187.5 -78t188 78t78 187zM455 266q-5 -3 -10 0t-5 9v210q0 10 10 10t10 -10v-192l106 60q9 4 14 -4
q4 -9 -4 -14zM328 488q9 4 14 -4l15 -26q4 -9 -4 -14q-9 -4 -14 4l-15 26q-4 9 4 14zM573 487q8 -5 4 -14l-15 -26q-5 -8 -14 -4q-8 5 -4 14l15 26q5 8 14 4zM238 398q5 8 14 4l26 -15q8 -5 4 -14q-5 -8 -14 -4l-26 15q-8 5 -4 14zM663 397q4 -9 -4 -14l-26 -15q-9 -4 -14 4
q-4 9 4 14l26 15q9 4 14 -4zM205 275q0 10 10 10h30q10 0 10 -10t-10 -10h-30q-10 0 -10 10zM646 275q0 10 10 10h30q10 0 10 -10t-10 -10h-30q-10 0 -10 10zM282 178q4 -9 -4 -14l-26 -15q-9 -4 -14 4q-4 9 4 14l26 15q9 4 14 -4zM619 177q5 8 14 4l26 -15q8 -5 4 -14
q-5 -8 -14 -4l-26 15q-8 5 -4 14zM353 107q8 -5 4 -14l-15 -26q-5 -8 -14 -4q-8 5 -4 14l15 26q5 8 14 4zM548 106q9 4 14 -4l15 -26q4 -9 -4 -14q-9 -4 -14 4l-15 26q-4 9 4 14zM450 80q10 0 10 -10v-30q0 -10 -10 -10t-10 10v30q0 10 10 10z" />
    <glyph glyph-name="uni1F552" 
d="M165 275q0 117 84 201t201 84q118 0 202 -84t84 -201t-84 -201t-202 -84q-117 0 -201 84t-84 201zM716 275q0 109 -78 187t-188 78t-187.5 -78t-77.5 -187t77.5 -187t187.5 -78t188 78t78 187zM450 265q-10 0 -10 10v210q0 10 10 10t10 -10v-200h129q10 0 10 -10t-10 -10
h-139zM328 488q9 4 14 -4l15 -26q4 -9 -4 -14q-9 -4 -14 4l-15 26q-4 9 4 14zM573 487q8 -5 4 -14l-15 -26q-5 -8 -14 -4q-8 5 -4 14l15 26q5 8 14 4zM238 398q5 8 14 4l26 -15q8 -5 4 -14q-5 -8 -14 -4l-26 15q-8 5 -4 14zM663 397q4 -9 -4 -14l-26 -15q-9 -4 -14 4
q-4 9 4 14l26 15q9 4 14 -4zM205 275q0 10 10 10h30q10 0 10 -10t-10 -10h-30q-10 0 -10 10zM646 275q0 10 10 10h30q10 0 10 -10t-10 -10h-30q-10 0 -10 10zM282 178q4 -9 -4 -14l-26 -15q-9 -4 -14 4q-4 9 4 14l26 15q9 4 14 -4zM619 177q5 8 14 4l26 -15q8 -5 4 -14
q-5 -8 -14 -4l-26 15q-8 5 -4 14zM353 107q8 -5 4 -14l-15 -26q-5 -8 -14 -4q-8 5 -4 14l15 26q5 8 14 4zM548 106q9 4 14 -4l15 -26q4 -9 -4 -14q-9 -4 -14 4l-15 26q-4 9 4 14zM450 80q10 0 10 -10v-30q0 -10 -10 -10t-10 10v30q0 10 10 10z" />
    <glyph glyph-name="uni1F553" 
d="M165 275q0 117 84 201t201 84q118 0 202 -84t84 -201t-84 -201t-202 -84q-117 0 -201 84t-84 201zM716 275q0 109 -78 187t-188 78t-187.5 -78t-77.5 -187t77.5 -187t187.5 -78t188 78t78 187zM566 196l-121 70q-5 3 -5 9v210q0 10 10 10t10 -10v-204l116 -67q8 -5 4 -14
q-5 -8 -14 -4zM328 488q9 4 14 -4l15 -26q4 -9 -4 -14q-9 -4 -14 4l-15 26q-4 9 4 14zM573 487q8 -5 4 -14l-15 -26q-5 -8 -14 -4q-8 5 -4 14l15 26q5 8 14 4zM238 398q5 8 14 4l26 -15q8 -5 4 -14q-5 -8 -14 -4l-26 15q-8 5 -4 14zM663 397q4 -9 -4 -14l-26 -15
q-9 -4 -14 4q-4 9 4 14l26 15q9 4 14 -4zM205 275q0 10 10 10h30q10 0 10 -10t-10 -10h-30q-10 0 -10 10zM646 275q0 10 10 10h30q10 0 10 -10t-10 -10h-30q-10 0 -10 10zM282 178q4 -9 -4 -14l-26 -15q-9 -4 -14 4q-4 9 4 14l26 15q9 4 14 -4zM619 177q5 8 14 4l26 -15
q8 -5 4 -14q-5 -8 -14 -4l-26 15q-8 5 -4 14zM353 107q8 -5 4 -14l-15 -26q-5 -8 -14 -4q-8 5 -4 14l15 26q5 8 14 4zM548 106q9 4 14 -4l15 -26q4 -9 -4 -14q-9 -4 -14 4l-15 26q-4 9 4 14zM450 80q10 0 10 -10v-30q0 -10 -10 -10t-10 10v30q0 10 10 10z" />
    <glyph glyph-name="uni1F554" 
d="M165 275q0 117 84 201t201 84q118 0 202 -84t84 -201t-84 -201t-202 -84q-117 0 -201 84t-84 201zM716 275q0 109 -78 187t-188 78t-187.5 -78t-77.5 -187t77.5 -187t187.5 -78t188 78t78 187zM525 145q-9 -4 -14 4l-70 121l-1 2v3v210q0 10 10 10t10 -10v-207l69 -119
q4 -9 -4 -14zM328 488q9 4 14 -4l15 -26q4 -9 -4 -14q-9 -4 -14 4l-15 26q-4 9 4 14zM573 487q8 -5 4 -14l-15 -26q-5 -8 -14 -4q-8 5 -4 14l15 26q5 8 14 4zM238 398q5 8 14 4l26 -15q8 -5 4 -14q-5 -8 -14 -4l-26 15q-8 5 -4 14zM663 397q4 -9 -4 -14l-26 -15q-9 -4 -14 4
q-4 9 4 14l26 15q9 4 14 -4zM205 275q0 10 10 10h30q10 0 10 -10t-10 -10h-30q-10 0 -10 10zM646 275q0 10 10 10h30q10 0 10 -10t-10 -10h-30q-10 0 -10 10zM282 178q4 -9 -4 -14l-26 -15q-9 -4 -14 4q-4 9 4 14l26 15q9 4 14 -4zM619 177q5 8 14 4l26 -15q8 -5 4 -14
q-5 -8 -14 -4l-26 15q-8 5 -4 14zM353 107q8 -5 4 -14l-15 -26q-5 -8 -14 -4q-8 5 -4 14l15 26q5 8 14 4zM548 106q9 4 14 -4l15 -26q4 -9 -4 -14q-9 -4 -14 4l-15 26q-4 9 4 14zM450 80q10 0 10 -10v-30q0 -10 -10 -10t-10 10v30q0 10 10 10z" />
    <glyph glyph-name="uni1F555" 
d="M165 275q0 117 84 201t201 84q118 0 202 -84t84 -201t-84 -201t-202 -84q-117 0 -201 84t-84 201zM716 275q0 109 -78 187t-188 78t-187.5 -78t-77.5 -187t77.5 -187t187.5 -78t188 78t78 187zM450 126q-10 0 -10 10v349q0 10 10 10t10 -10v-349q0 -10 -10 -10zM328 488
q9 4 14 -4l15 -26q4 -9 -4 -14q-9 -4 -14 4l-15 26q-4 9 4 14zM573 487q8 -5 4 -14l-15 -26q-5 -8 -14 -4q-8 5 -4 14l15 26q5 8 14 4zM238 398q5 8 14 4l26 -15q8 -5 4 -14q-5 -8 -14 -4l-26 15q-8 5 -4 14zM663 397q4 -9 -4 -14l-26 -15q-9 -4 -14 4q-4 9 4 14l26 15
q9 4 14 -4zM205 275q0 10 10 10h30q10 0 10 -10t-10 -10h-30q-10 0 -10 10zM646 275q0 10 10 10h30q10 0 10 -10t-10 -10h-30q-10 0 -10 10zM282 178q4 -9 -4 -14l-26 -15q-9 -4 -14 4q-4 9 4 14l26 15q9 4 14 -4zM619 177q5 8 14 4l26 -15q8 -5 4 -14q-5 -8 -14 -4l-26 15
q-8 5 -4 14zM353 107q8 -5 4 -14l-15 -26q-5 -8 -14 -4q-8 5 -4 14l15 26q5 8 14 4zM548 106q9 4 14 -4l15 -26q4 -9 -4 -14q-9 -4 -14 4l-15 26q-4 9 4 14zM450 80q10 0 10 -10v-30q0 -10 -10 -10t-10 10v30q0 10 10 10z" />
    <glyph glyph-name="uni1F556" 
d="M165 275q0 117 84 201t201 84q118 0 202 -84t84 -201t-84 -201t-202 -84q-117 0 -201 84t-84 201zM716 275q0 109 -78 187t-188 78t-187.5 -78t-77.5 -187t77.5 -187t187.5 -78t188 78t78 187zM375 145q-8 5 -4 14l69 119v207q0 10 10 10t10 -10v-210q0 -1 -0.5 -3
l-0.5 -2l-70 -121q-5 -8 -14 -4zM328 488q9 4 14 -4l15 -26q4 -9 -4 -14q-9 -4 -14 4l-15 26q-4 9 4 14zM573 487q8 -5 4 -14l-15 -26q-5 -8 -14 -4q-8 5 -4 14l15 26q5 8 14 4zM238 398q5 8 14 4l26 -15q8 -5 4 -14q-5 -8 -14 -4l-26 15q-8 5 -4 14zM663 397q4 -9 -4 -14
l-26 -15q-9 -4 -14 4q-4 9 4 14l26 15q9 4 14 -4zM205 275q0 10 10 10h30q10 0 10 -10t-10 -10h-30q-10 0 -10 10zM646 275q0 10 10 10h30q10 0 10 -10t-10 -10h-30q-10 0 -10 10zM282 178q4 -9 -4 -14l-26 -15q-9 -4 -14 4q-4 9 4 14l26 15q9 4 14 -4zM619 177q5 8 14 4
l26 -15q8 -5 4 -14q-5 -8 -14 -4l-26 15q-8 5 -4 14zM353 107q8 -5 4 -14l-15 -26q-5 -8 -14 -4q-8 5 -4 14l15 26q5 8 14 4zM548 106q9 4 14 -4l15 -26q4 -9 -4 -14q-9 -4 -14 4l-15 26q-4 9 4 14zM450 80q10 0 10 -10v-30q0 -10 -10 -10t-10 10v30q0 10 10 10z" />
    <glyph glyph-name="uni1F557" 
d="M165 275q0 117 84 201t201 84q118 0 202 -84t84 -201t-84 -201t-202 -84q-117 0 -201 84t-84 201zM716 275q0 109 -78 187t-188 78t-187.5 -78t-77.5 -187t77.5 -187t187.5 -78t188 78t78 187zM333 197q-9 -4 -14 4q-4 9 4 14l117 66v204q0 10 10 10t10 -10v-210
q0 -6 -5 -9zM328 488q9 4 14 -4l15 -26q4 -9 -4 -14q-9 -4 -14 4l-15 26q-4 9 4 14zM573 487q8 -5 4 -14l-15 -26q-5 -8 -14 -4q-8 5 -4 14l15 26q5 8 14 4zM238 398q5 8 14 4l26 -15q8 -5 4 -14q-5 -8 -14 -4l-26 15q-8 5 -4 14zM663 397q4 -9 -4 -14l-26 -15q-9 -4 -14 4
q-4 9 4 14l26 15q9 4 14 -4zM205 275q0 10 10 10h30q10 0 10 -10t-10 -10h-30q-10 0 -10 10zM646 275q0 10 10 10h30q10 0 10 -10t-10 -10h-30q-10 0 -10 10zM282 178q4 -9 -4 -14l-26 -15q-9 -4 -14 4q-4 9 4 14l26 15q9 4 14 -4zM619 177q5 8 14 4l26 -15q8 -5 4 -14
q-5 -8 -14 -4l-26 15q-8 5 -4 14zM353 107q8 -5 4 -14l-15 -26q-5 -8 -14 -4q-8 5 -4 14l15 26q5 8 14 4zM548 106q9 4 14 -4l15 -26q4 -9 -4 -14q-9 -4 -14 4l-15 26q-4 9 4 14zM450 80q10 0 10 -10v-30q0 -10 -10 -10t-10 10v30q0 10 10 10z" />
    <glyph glyph-name="uni1F558" 
d="M165 275q0 117 84 201t201 84q118 0 202 -84t84 -201t-84 -201t-202 -84q-117 0 -201 84t-84 201zM716 275q0 109 -78 187t-188 78t-187.5 -78t-77.5 -187t77.5 -187t187.5 -78t188 78t78 187zM328 488q9 4 14 -4l15 -26q4 -9 -4 -14q-9 -4 -14 4l-15 26q-4 9 4 14z
M573 487q8 -5 4 -14l-15 -26q-5 -8 -14 -4q-8 5 -4 14l15 26q5 8 14 4zM238 398q5 8 14 4l26 -15q8 -5 4 -14q-5 -8 -14 -4l-26 15q-8 5 -4 14zM663 397q4 -9 -4 -14l-26 -15q-9 -4 -14 4q-4 9 4 14l26 15q9 4 14 -4zM205 275q0 10 10 10h30q10 0 10 -10t-10 -10h-30
q-10 0 -10 10zM310 265q-10 0 -10 10t10 10h130v200q0 10 10 10t10 -10v-210q0 -10 -10 -10h-140zM646 275q0 10 10 10h30q10 0 10 -10t-10 -10h-30q-10 0 -10 10zM282 178q4 -9 -4 -14l-26 -15q-9 -4 -14 4q-4 9 4 14l26 15q9 4 14 -4zM619 177q5 8 14 4l26 -15q8 -5 4 -14
q-5 -8 -14 -4l-26 15q-8 5 -4 14zM353 107q8 -5 4 -14l-15 -26q-5 -8 -14 -4q-8 5 -4 14l15 26q5 8 14 4zM548 106q9 4 14 -4l15 -26q4 -9 -4 -14q-9 -4 -14 4l-15 26q-4 9 4 14zM450 80q10 0 10 -10v-30q0 -10 -10 -10t-10 10v30q0 10 10 10z" />
    <glyph glyph-name="uni1F559" 
d="M165 275q0 117 84 201t201 84q118 0 202 -84t84 -201t-84 -201t-202 -84q-117 0 -201 84t-84 201zM716 275q0 109 -78 187t-188 78t-187.5 -78t-77.5 -187t77.5 -187t187.5 -78t188 78t78 187zM328 488q9 4 14 -4l15 -26q4 -9 -4 -14q-9 -4 -14 4l-15 26q-4 9 4 14z
M573 487q8 -5 4 -14l-15 -26q-5 -8 -14 -4q-8 5 -4 14l15 26q5 8 14 4zM238 398q5 8 14 4l26 -15q8 -5 4 -14q-5 -8 -14 -4l-26 15q-8 5 -4 14zM663 397q4 -9 -4 -14l-26 -15q-9 -4 -14 4q-4 9 4 14l26 15q9 4 14 -4zM460 275q0 -6 -5 -9t-10 0l-120 71q-8 5 -4 14q5 8 14 4
l105 -62v192q0 10 10 10t10 -10v-210zM205 275q0 10 10 10h30q10 0 10 -10t-10 -10h-30q-10 0 -10 10zM646 275q0 10 10 10h30q10 0 10 -10t-10 -10h-30q-10 0 -10 10zM282 178q4 -9 -4 -14l-26 -15q-9 -4 -14 4q-4 9 4 14l26 15q9 4 14 -4zM619 177q5 8 14 4l26 -15
q8 -5 4 -14q-5 -8 -14 -4l-26 15q-8 5 -4 14zM353 107q8 -5 4 -14l-15 -26q-5 -8 -14 -4q-8 5 -4 14l15 26q5 8 14 4zM548 106q9 4 14 -4l15 -26q4 -9 -4 -14q-9 -4 -14 4l-15 26q-4 9 4 14zM450 80q10 0 10 -10v-30q0 -10 -10 -10t-10 10v30q0 10 10 10z" />
    <glyph glyph-name="uni1F55A" 
d="M165 275q0 117 84 201t201 84q118 0 202 -84t84 -201t-84 -201t-202 -84q-117 0 -201 84t-84 201zM716 275q0 109 -78 187t-188 78t-187.5 -78t-77.5 -187t77.5 -187t187.5 -78t188 78t78 187zM328 488q9 4 14 -4l15 -26q4 -9 -4 -14q-9 -4 -14 4l-15 26q-4 9 4 14z
M573 487q8 -5 4 -14l-15 -26q-5 -8 -14 -4q-8 5 -4 14l15 26q5 8 14 4zM460 275q0 -8 -7 -10t-12 5l-68 121q-4 9 4 14q9 4 14 -4l49 -87v171q0 10 10 10t10 -10v-210zM238 398q5 8 14 4l26 -15q8 -5 4 -14q-5 -8 -14 -4l-26 15q-8 5 -4 14zM663 397q4 -9 -4 -14l-26 -15
q-9 -4 -14 4q-4 9 4 14l26 15q9 4 14 -4zM205 275q0 10 10 10h30q10 0 10 -10t-10 -10h-30q-10 0 -10 10zM646 275q0 10 10 10h30q10 0 10 -10t-10 -10h-30q-10 0 -10 10zM282 178q4 -9 -4 -14l-26 -15q-9 -4 -14 4q-4 9 4 14l26 15q9 4 14 -4zM619 177q5 8 14 4l26 -15
q8 -5 4 -14q-5 -8 -14 -4l-26 15q-8 5 -4 14zM353 107q8 -5 4 -14l-15 -26q-5 -8 -14 -4q-8 5 -4 14l15 26q5 8 14 4zM548 106q9 4 14 -4l15 -26q4 -9 -4 -14q-9 -4 -14 4l-15 26q-4 9 4 14zM450 80q10 0 10 -10v-30q0 -10 -10 -10t-10 10v30q0 10 10 10z" />
    <glyph glyph-name="uni1F55B" 
d="M165 275q0 117 84 201t201 84q118 0 202 -84t84 -201t-84 -201t-202 -84q-117 0 -201 84t-84 201zM716 275q0 109 -78 187t-188 78t-187.5 -78t-77.5 -187t77.5 -187t187.5 -78t188 78t78 187zM450 265q-10 0 -10 10v210q0 10 10 10t10 -10v-210q0 -10 -10 -10zM328 488
q9 4 14 -4l15 -26q4 -9 -4 -14q-9 -4 -14 4l-15 26q-4 9 4 14zM573 487q8 -5 4 -14l-15 -26q-5 -8 -14 -4q-8 5 -4 14l15 26q5 8 14 4zM238 398q5 8 14 4l26 -15q8 -5 4 -14q-5 -8 -14 -4l-26 15q-8 5 -4 14zM663 397q4 -9 -4 -14l-26 -15q-9 -4 -14 4q-4 9 4 14l26 15
q9 4 14 -4zM205 275q0 10 10 10h30q10 0 10 -10t-10 -10h-30q-10 0 -10 10zM646 275q0 10 10 10h30q10 0 10 -10t-10 -10h-30q-10 0 -10 10zM282 178q4 -9 -4 -14l-26 -15q-9 -4 -14 4q-4 9 4 14l26 15q9 4 14 -4zM619 177q5 8 14 4l26 -15q8 -5 4 -14q-5 -8 -14 -4l-26 15
q-8 5 -4 14zM353 107q8 -5 4 -14l-15 -26q-5 -8 -14 -4q-8 5 -4 14l15 26q5 8 14 4zM548 106q9 4 14 -4l15 -26q4 -9 -4 -14q-9 -4 -14 4l-15 26q-4 9 4 14zM450 80q10 0 10 -10v-30q0 -10 -10 -10t-10 10v30q0 10 10 10z" />
    <glyph glyph-name="uni1F55C" 
d="M165 275q0 117 84 201t201 84q118 0 202 -84t84 -201t-84 -201t-202 -84q-117 0 -201 84t-84 201zM716 275q0 109 -78 187t-188 78t-187.5 -78t-77.5 -187t77.5 -187t187.5 -78t188 78t78 187zM450 530q10 0 10 -10v-30q0 -10 -10 -10t-10 10v30q0 10 10 10zM328 488
q9 4 14 -4l15 -26q4 -9 -4 -14q-9 -4 -14 4l-15 26q-4 9 4 14zM573 487q8 -5 4 -14l-15 -26q-5 -8 -14 -4q-8 5 -4 14l15 26q5 8 14 4zM238 398q5 8 14 4l26 -15q8 -5 4 -14q-5 -8 -14 -4l-26 15q-8 5 -4 14zM663 397q4 -9 -4 -14l-26 -15q-9 -4 -14 4q-4 9 4 14l26 15
q9 4 14 -4zM450 55q-10 0 -10 10v210q0 4 3 7l99 99q7 7 14 0t0 -14l-96 -96v-206q0 -10 -10 -10zM205 275q0 10 10 10h30q10 0 10 -10t-10 -10h-30q-10 0 -10 10zM646 275q0 10 10 10h30q10 0 10 -10t-10 -10h-30q-10 0 -10 10zM282 178q4 -9 -4 -14l-26 -15q-9 -4 -14 4
q-4 9 4 14l26 15q9 4 14 -4zM619 177q5 8 14 4l26 -15q8 -5 4 -14q-5 -8 -14 -4l-26 15q-8 5 -4 14zM353 107q8 -5 4 -14l-15 -26q-5 -8 -14 -4q-8 5 -4 14l15 26q5 8 14 4zM548 106q9 4 14 -4l15 -26q4 -9 -4 -14q-9 -4 -14 4l-15 26q-4 9 4 14z" />
    <glyph glyph-name="uni1F55D" 
d="M165 275q0 117 84 201t201 84q118 0 202 -84t84 -201t-84 -201t-202 -84q-117 0 -201 84t-84 201zM716 275q0 109 -78 187t-188 78t-187.5 -78t-77.5 -187t77.5 -187t187.5 -78t188 78t78 187zM450 530q10 0 10 -10v-30q0 -10 -10 -10t-10 10v30q0 10 10 10zM328 488
q9 4 14 -4l15 -26q4 -9 -4 -14q-9 -4 -14 4l-15 26q-4 9 4 14zM573 487q8 -5 4 -14l-15 -26q-5 -8 -14 -4q-8 5 -4 14l15 26q5 8 14 4zM238 398q5 8 14 4l26 -15q8 -5 4 -14q-5 -8 -14 -4l-26 15q-8 5 -4 14zM663 397q4 -9 -4 -14l-26 -15q-9 -4 -14 4q-4 9 4 14l26 15
q9 4 14 -4zM205 275q0 10 10 10h30q10 0 10 -10t-10 -10h-30q-10 0 -10 10zM646 275q0 10 10 10h30q10 0 10 -10t-10 -10h-30q-10 0 -10 10zM450 55q-10 0 -10 10v210q0 10 10 10l132 35q10 2 13 -7q2 -10 -7 -13l-128 -34v-201q0 -10 -10 -10zM282 178q4 -9 -4 -14l-26 -15
q-9 -4 -14 4q-4 9 4 14l26 15q9 4 14 -4zM619 177q5 8 14 4l26 -15q8 -5 4 -14q-5 -8 -14 -4l-26 15q-8 5 -4 14zM353 107q8 -5 4 -14l-15 -26q-5 -8 -14 -4q-8 5 -4 14l15 26q5 8 14 4zM548 106q9 4 14 -4l15 -26q4 -9 -4 -14q-9 -4 -14 4l-15 26q-4 9 4 14z" />
    <glyph glyph-name="uni1F55E" 
d="M165 275q0 117 84 201t201 84q118 0 202 -84t84 -201t-84 -201t-202 -84q-117 0 -201 84t-84 201zM716 275q0 109 -78 187t-188 78t-187.5 -78t-77.5 -187t77.5 -187t187.5 -78t188 78t78 187zM450 530q10 0 10 -10v-30q0 -10 -10 -10t-10 10v30q0 10 10 10zM328 488
q9 4 14 -4l15 -26q4 -9 -4 -14q-9 -4 -14 4l-15 26q-4 9 4 14zM573 487q8 -5 4 -14l-15 -26q-5 -8 -14 -4q-8 5 -4 14l15 26q5 8 14 4zM238 398q5 8 14 4l26 -15q8 -5 4 -14q-5 -8 -14 -4l-26 15q-8 5 -4 14zM663 397q4 -9 -4 -14l-26 -15q-9 -4 -14 4q-4 9 4 14l26 15
q9 4 14 -4zM205 275q0 10 10 10h30q10 0 10 -10t-10 -10h-30q-10 0 -10 10zM646 275q0 10 10 10h30q10 0 10 -10t-10 -10h-30q-10 0 -10 10zM460 65q0 -10 -10 -10t-10 10v210q0 10 10 10l137 -36q9 -3 7 -13q-3 -9 -13 -7l-121 32v-196zM282 178q4 -9 -4 -14l-26 -15
q-9 -4 -14 4q-4 9 4 14l26 15q9 4 14 -4zM619 177q5 8 14 4l26 -15q8 -5 4 -14q-5 -8 -14 -4l-26 15q-8 5 -4 14zM353 107q8 -5 4 -14l-15 -26q-5 -8 -14 -4q-8 5 -4 14l15 26q5 8 14 4zM548 106q9 4 14 -4l15 -26q4 -9 -4 -14q-9 -4 -14 4l-15 26q-4 9 4 14z" />
    <glyph glyph-name="uni1F55F" 
d="M165 275q0 117 84 201t201 84q118 0 202 -84t84 -201t-84 -201t-202 -84q-117 0 -201 84t-84 201zM716 275q0 109 -78 187t-188 78t-187.5 -78t-77.5 -187t77.5 -187t187.5 -78t188 78t78 187zM450 530q10 0 10 -10v-30q0 -10 -10 -10t-10 10v30q0 10 10 10zM328 488
q9 4 14 -4l15 -26q4 -9 -4 -14q-9 -4 -14 4l-15 26q-4 9 4 14zM573 487q8 -5 4 -14l-15 -26q-5 -8 -14 -4q-8 5 -4 14l15 26q5 8 14 4zM238 398q5 8 14 4l26 -15q8 -5 4 -14q-5 -8 -14 -4l-26 15q-8 5 -4 14zM663 397q4 -9 -4 -14l-26 -15q-9 -4 -14 4q-4 9 4 14l26 15
q9 4 14 -4zM205 275q0 10 10 10h30q10 0 10 -10t-10 -10h-30q-10 0 -10 10zM646 275q0 10 10 10h30q10 0 10 -10t-10 -10h-30q-10 0 -10 10zM460 65q0 -10 -10 -10t-10 10v210q0 10 10 10l7 -3l99 -99q6 -8 0 -14q-7 -7 -14 0l-82 82v-186zM282 178q4 -9 -4 -14l-26 -15
q-9 -4 -14 4q-4 9 4 14l26 15q9 4 14 -4zM619 177q5 8 14 4l26 -15q8 -5 4 -14q-5 -8 -14 -4l-26 15q-8 5 -4 14zM353 107q8 -5 4 -14l-15 -26q-5 -8 -14 -4q-8 5 -4 14l15 26q5 8 14 4zM548 106q9 4 14 -4l15 -26q4 -9 -4 -14q-9 -4 -14 4l-15 26q-4 9 4 14z" />
    <glyph glyph-name="uni1F560" 
d="M165 275q0 117 84 201t201 84q118 0 202 -84t84 -201t-84 -201t-202 -84q-117 0 -201 84t-84 201zM716 275q0 109 -78 187t-188 78t-187.5 -78t-77.5 -187t77.5 -187t187.5 -78t188 78t78 187zM450 530q10 0 10 -10v-30q0 -10 -10 -10t-10 10v30q0 10 10 10zM328 488
q9 4 14 -4l15 -26q4 -9 -4 -14q-9 -4 -14 4l-15 26q-4 9 4 14zM573 487q8 -5 4 -14l-15 -26q-5 -8 -14 -4q-8 5 -4 14l15 26q5 8 14 4zM238 398q5 8 14 4l26 -15q8 -5 4 -14q-5 -8 -14 -4l-26 15q-8 5 -4 14zM663 397q4 -9 -4 -14l-26 -15q-9 -4 -14 4q-4 9 4 14l26 15
q9 4 14 -4zM205 275q0 10 10 10h30q10 0 10 -10t-10 -10h-30q-10 0 -10 10zM646 275q0 10 10 10h30q10 0 10 -10t-10 -10h-30q-10 0 -10 10zM460 65q0 -10 -10 -10t-10 10v210q0 10 10 10t10 -10l36 -132q2 -10 -7 -13q-10 -2 -13 7l-16 58v-130zM282 178q4 -9 -4 -14
l-26 -15q-9 -4 -14 4q-4 9 4 14l26 15q9 4 14 -4zM619 177q5 8 14 4l26 -15q8 -5 4 -14q-5 -8 -14 -4l-26 15q-8 5 -4 14zM353 107q8 -5 4 -14l-15 -26q-5 -8 -14 -4q-8 5 -4 14l15 26q5 8 14 4zM548 106q9 4 14 -4l15 -26q4 -9 -4 -14q-9 -4 -14 4l-15 26q-4 9 4 14z" />
    <glyph glyph-name="uni1F561" 
d="M165 275q0 117 84 201t201 84q118 0 202 -84t84 -201t-84 -201t-202 -84q-117 0 -201 84t-84 201zM716 275q0 109 -78 187t-188 78t-187.5 -78t-77.5 -187t77.5 -187t187.5 -78t188 78t78 187zM450 530q10 0 10 -10v-30q0 -10 -10 -10t-10 10v30q0 10 10 10zM328 488
q9 4 14 -4l15 -26q4 -9 -4 -14q-9 -4 -14 4l-15 26q-4 9 4 14zM573 487q8 -5 4 -14l-15 -26q-5 -8 -14 -4q-8 5 -4 14l15 26q5 8 14 4zM238 398q5 8 14 4l26 -15q8 -5 4 -14q-5 -8 -14 -4l-26 15q-8 5 -4 14zM663 397q4 -9 -4 -14l-26 -15q-9 -4 -14 4q-4 9 4 14l26 15
q9 4 14 -4zM205 275q0 10 10 10h30q10 0 10 -10t-10 -10h-30q-10 0 -10 10zM646 275q0 10 10 10h30q10 0 10 -10t-10 -10h-30q-10 0 -10 10zM450 55q-10 0 -10 10v132l-16 -59q-3 -9 -13 -7q-9 3 -7 13l36 131q0 10 10 10t10 -10v-210q0 -10 -10 -10zM282 178q4 -9 -4 -14
l-26 -15q-9 -4 -14 4q-4 9 4 14l26 15q9 4 14 -4zM619 177q5 8 14 4l26 -15q8 -5 4 -14q-5 -8 -14 -4l-26 15q-8 5 -4 14zM353 107q8 -5 4 -14l-15 -26q-5 -8 -14 -4q-8 5 -4 14l15 26q5 8 14 4zM548 106q9 4 14 -4l15 -26q4 -9 -4 -14q-9 -4 -14 4l-15 26q-4 9 4 14z" />
    <glyph glyph-name="uni1F562" 
d="M165 275q0 117 84 201t201 84q118 0 202 -84t84 -201t-84 -201t-202 -84q-117 0 -201 84t-84 201zM716 275q0 109 -78 187t-188 78t-187.5 -78t-77.5 -187t77.5 -187t187.5 -78t188 78t78 187zM450 530q10 0 10 -10v-30q0 -10 -10 -10t-10 10v30q0 10 10 10zM328 488
q9 4 14 -4l15 -26q4 -9 -4 -14q-9 -4 -14 4l-15 26q-4 9 4 14zM573 487q8 -5 4 -14l-15 -26q-5 -8 -14 -4q-8 5 -4 14l15 26q5 8 14 4zM238 398q5 8 14 4l26 -15q8 -5 4 -14q-5 -8 -14 -4l-26 15q-8 5 -4 14zM663 397q4 -9 -4 -14l-26 -15q-9 -4 -14 4q-4 9 4 14l26 15
q9 4 14 -4zM205 275q0 10 10 10h30q10 0 10 -10t-10 -10h-30q-10 0 -10 10zM646 275q0 10 10 10h30q10 0 10 -10t-10 -10h-30q-10 0 -10 10zM450 55q-10 0 -10 10v187l-82 -83q-7 -7 -14 0t0 14l98 99l8 3q10 0 10 -10v-210q0 -10 -10 -10zM282 178q4 -9 -4 -14l-26 -15
q-9 -4 -14 4q-4 9 4 14l26 15q9 4 14 -4zM619 177q5 8 14 4l26 -15q8 -5 4 -14q-5 -8 -14 -4l-26 15q-8 5 -4 14zM353 107q8 -5 4 -14l-15 -26q-5 -8 -14 -4q-8 5 -4 14l15 26q5 8 14 4zM548 106q9 4 14 -4l15 -26q4 -9 -4 -14q-9 -4 -14 4l-15 26q-4 9 4 14z" />
    <glyph glyph-name="uni1F563" 
d="M165 275q0 117 84 201t201 84q118 0 202 -84t84 -201t-84 -201t-202 -84q-117 0 -201 84t-84 201zM716 275q0 109 -78 187t-188 78t-187.5 -78t-77.5 -187t77.5 -187t187.5 -78t188 78t78 187zM450 530q10 0 10 -10v-30q0 -10 -10 -10t-10 10v30q0 10 10 10zM328 488
q9 4 14 -4l15 -26q4 -9 -4 -14q-9 -4 -14 4l-15 26q-4 9 4 14zM573 487q8 -5 4 -14l-15 -26q-5 -8 -14 -4q-8 5 -4 14l15 26q5 8 14 4zM238 398q5 8 14 4l26 -15q8 -5 4 -14q-5 -8 -14 -4l-26 15q-8 5 -4 14zM663 397q4 -9 -4 -14l-26 -15q-9 -4 -14 4q-4 9 4 14l26 15
q9 4 14 -4zM205 275q0 10 10 10h30q10 0 10 -10t-10 -10h-30q-10 0 -10 10zM450 55q-10 0 -10 10v196l-124 -31q-9 -2 -12 8q-2 9 8 12l138 35q10 0 10 -10v-210q0 -10 -10 -10zM646 275q0 10 10 10h30q10 0 10 -10t-10 -10h-30q-10 0 -10 10zM282 178q4 -9 -4 -14l-26 -15
q-9 -4 -14 4q-4 9 4 14l26 15q9 4 14 -4zM619 177q5 8 14 4l26 -15q8 -5 4 -14q-5 -8 -14 -4l-26 15q-8 5 -4 14zM353 107q8 -5 4 -14l-15 -26q-5 -8 -14 -4q-8 5 -4 14l15 26q5 8 14 4zM548 106q9 4 14 -4l15 -26q4 -9 -4 -14q-9 -4 -14 4l-15 26q-4 9 4 14z" />
    <glyph glyph-name="uni1F564" 
d="M165 275q0 117 84 201t201 84q118 0 202 -84t84 -201t-84 -201t-202 -84q-117 0 -201 84t-84 201zM716 275q0 109 -78 187t-188 78t-187.5 -78t-77.5 -187t77.5 -187t187.5 -78t188 78t78 187zM450 530q10 0 10 -10v-30q0 -10 -10 -10t-10 10v30q0 10 10 10zM328 488
q9 4 14 -4l15 -26q4 -9 -4 -14q-9 -4 -14 4l-15 26q-4 9 4 14zM573 487q8 -5 4 -14l-15 -26q-5 -8 -14 -4q-8 5 -4 14l15 26q5 8 14 4zM238 398q5 8 14 4l26 -15q8 -5 4 -14q-5 -8 -14 -4l-26 15q-8 5 -4 14zM663 397q4 -9 -4 -14l-26 -15q-9 -4 -14 4q-4 9 4 14l26 15
q9 4 14 -4zM450 55q-10 0 -10 10v201l-128 35q-9 3 -7 13q3 9 13 7l132 -36q10 0 10 -10v-210q0 -10 -10 -10zM205 275q0 10 10 10h30q10 0 10 -10t-10 -10h-30q-10 0 -10 10zM646 275q0 10 10 10h30q10 0 10 -10t-10 -10h-30q-10 0 -10 10zM282 178q4 -9 -4 -14l-26 -15
q-9 -4 -14 4q-4 9 4 14l26 15q9 4 14 -4zM619 177q5 8 14 4l26 -15q8 -5 4 -14q-5 -8 -14 -4l-26 15q-8 5 -4 14zM353 107q8 -5 4 -14l-15 -26q-5 -8 -14 -4q-8 5 -4 14l15 26q5 8 14 4zM548 106q9 4 14 -4l15 -26q4 -9 -4 -14q-9 -4 -14 4l-15 26q-4 9 4 14z" />
    <glyph glyph-name="uni1F565" 
d="M165 275q0 117 84 201t201 84q118 0 202 -84t84 -201t-84 -201t-202 -84q-117 0 -201 84t-84 201zM716 275q0 109 -78 187t-188 78t-187.5 -78t-77.5 -187t77.5 -187t187.5 -78t188 78t78 187zM450 530q10 0 10 -10v-30q0 -10 -10 -10t-10 10v30q0 10 10 10zM328 488
q9 4 14 -4l15 -26q4 -9 -4 -14q-9 -4 -14 4l-15 26q-4 9 4 14zM573 487q8 -5 4 -14l-15 -26q-5 -8 -14 -4q-8 5 -4 14l15 26q5 8 14 4zM238 398q5 8 14 4l26 -15q8 -5 4 -14q-5 -8 -14 -4l-26 15q-8 5 -4 14zM663 397q4 -9 -4 -14l-26 -15q-9 -4 -14 4q-4 9 4 14l26 15
q9 4 14 -4zM450 55q-10 0 -10 10v206l-95 97q-7 7 0 14t14 0l98 -100l3 -7v-210q0 -10 -10 -10zM205 275q0 10 10 10h30q10 0 10 -10t-10 -10h-30q-10 0 -10 10zM646 275q0 10 10 10h30q10 0 10 -10t-10 -10h-30q-10 0 -10 10zM282 178q4 -9 -4 -14l-26 -15q-9 -4 -14 4
q-4 9 4 14l26 15q9 4 14 -4zM619 177q5 8 14 4l26 -15q8 -5 4 -14q-5 -8 -14 -4l-26 15q-8 5 -4 14zM353 107q8 -5 4 -14l-15 -26q-5 -8 -14 -4q-8 5 -4 14l15 26q5 8 14 4zM548 106q9 4 14 -4l15 -26q4 -9 -4 -14q-9 -4 -14 4l-15 26q-4 9 4 14z" />
    <glyph glyph-name="uni1F566" 
d="M165 275q0 117 84 201t201 84q118 0 202 -84t84 -201t-84 -201t-202 -84q-117 0 -201 84t-84 201zM716 275q0 109 -78 187t-188 78t-187.5 -78t-77.5 -187t77.5 -187t187.5 -78t188 78t78 187zM450 530q10 0 10 -10v-30q0 -10 -10 -10t-10 10v30q0 10 10 10zM328 488
q9 4 14 -4l15 -26q4 -9 -4 -14q-9 -4 -14 4l-15 26q-4 9 4 14zM573 487q8 -5 4 -14l-15 -26q-5 -8 -14 -4q-8 5 -4 14l15 26q5 8 14 4zM450 55q-10 0 -10 10v206l-34 136q-2 9 8 12q9 2 12 -8l34 -136v-210q0 -10 -10 -10zM238 398q5 8 14 4l26 -15q8 -5 4 -14q-5 -8 -14 -4
l-26 15q-8 5 -4 14zM663 397q4 -9 -4 -14l-26 -15q-9 -4 -14 4q-4 9 4 14l26 15q9 4 14 -4zM205 275q0 10 10 10h30q10 0 10 -10t-10 -10h-30q-10 0 -10 10zM646 275q0 10 10 10h30q10 0 10 -10t-10 -10h-30q-10 0 -10 10zM282 178q4 -9 -4 -14l-26 -15q-9 -4 -14 4
q-4 9 4 14l26 15q9 4 14 -4zM619 177q5 8 14 4l26 -15q8 -5 4 -14q-5 -8 -14 -4l-26 15q-8 5 -4 14zM353 107q8 -5 4 -14l-15 -26q-5 -8 -14 -4q-8 5 -4 14l15 26q5 8 14 4zM548 106q9 4 14 -4l15 -26q4 -9 -4 -14q-9 -4 -14 4l-15 26q-4 9 4 14z" />
    <glyph glyph-name="uni1F567" 
d="M165 275q0 117 84 201t201 84q118 0 202 -84t84 -201t-84 -201t-202 -84q-117 0 -201 84t-84 201zM716 275q0 109 -78 187t-188 78t-187.5 -78t-77.5 -187t77.5 -187t187.5 -78t188 78t78 187zM450 530q10 0 10 -10v-30q0 -10 -10 -10t-10 10v30q0 10 10 10zM328 488
q9 4 14 -4l15 -26q4 -9 -4 -14q-9 -4 -14 4l-15 26q-4 9 4 14zM573 487q8 -5 4 -14l-15 -26q-5 -8 -14 -4q-8 5 -4 14l15 26q5 8 14 4zM238 398q5 8 14 4l26 -15q8 -5 4 -14q-5 -8 -14 -4l-26 15q-8 5 -4 14zM663 397q4 -9 -4 -14l-26 -15q-9 -4 -14 4q-4 9 4 14l26 15
q9 4 14 -4zM205 275q0 10 10 10h30q10 0 10 -10t-10 -10h-30q-10 0 -10 10zM646 275q0 10 10 10h30q10 0 10 -10t-10 -10h-30q-10 0 -10 10zM460 65q0 -10 -10 -10t-10 10v210l38 136q4 9 13 7q9 -4 7 -13l-38 -136v-204zM282 178q4 -9 -4 -14l-26 -15q-9 -4 -14 4
q-4 9 4 14l26 15q9 4 14 -4zM619 177q5 8 14 4l26 -15q8 -5 4 -14q-5 -8 -14 -4l-26 15q-8 5 -4 14zM353 107q8 -5 4 -14l-15 -26q-5 -8 -14 -4q-8 5 -4 14l15 26q5 8 14 4zM548 106q9 4 14 -4l15 -26q4 -9 -4 -14q-9 -4 -14 4l-15 26q-4 9 4 14z" />
  </font>
</defs>
</svg>
