<?xml version="1.0" encoding="utf-8"?>
<!-- Generated by IcoMoon.io -->
<!DOCTYPE svg PUBLIC "-//W3C//DTD SVG 1.1//EN" "http://www.w3.org/Graphics/SVG/1.1/DTD/svg11.dtd">
<svg version="1.1" xmlns="http://www.w3.org/2000/svg" xmlns:xlink="http://www.w3.org/1999/xlink" width="32" height="32" viewBox="0 0 32 32">
<path d="M27.039 6.898c-0.075 0.038-0.404 0.264-0.732 0.505s-0.778 0.572-1.002 0.735c-0.36 0.264-0.726 0.531-1.234 0.903-0.334 0.247-0.467 0.343-1.045 0.767-0.993 0.726-1.725 1.26-1.8 1.315-0.041 0.032-0.136 0.102-0.215 0.157l-0.139 0.099-0.195-0.255c-0.807-1.069-1.937-1.951-3.168-2.48-0.104-0.044-0.215-0.090-0.247-0.104-0.084-0.038-0.647-0.229-0.72-0.247-0.035-0.006-0.163-0.038-0.282-0.070-0.119-0.035-0.276-0.070-0.348-0.078s-0.139-0.023-0.148-0.029c-0.009-0.003-0.081-0.017-0.16-0.029-0.078-0.009-0.165-0.023-0.192-0.026-0.044-0.009-0.235-0.029-0.531-0.058-0.171-0.017-1.019-0.015-1.205 0-0.087 0.009-0.218 0.020-0.29 0.026-0.229 0.023-0.45 0.049-0.491 0.064-0.023 0.009-0.087 0.020-0.145 0.029-0.412 0.061-1.086 0.253-1.542 0.438-1.048 0.424-1.939 1.008-2.703 1.777-0.261 0.261-0.38 0.398-0.65 0.735-0.023 0.026-0.113 0.157-0.206 0.29l-0.165 0.241-2.369 0.003c-2.311 0.003-2.488 0.009-2.819 0.067-0.276 0.052-0.322 0.061-0.505 0.125-0.726 0.247-1.269 0.801-1.452 1.478-0.032 0.11-0.041 0.276-0.035 0.563 0.020 0.92 0.224 1.295 0.981 1.806 1.066 0.72 2.015 1.129 4.283 1.852l0.238 0.075-0.389 0.392-0.392 0.392-0.177-0.061c-0.601-0.197-1.333 0.099-1.614 0.65-0.122 0.241-0.154 0.386-0.145 0.7 0.009 0.261 0.017 0.311 0.107 0.494 0.183 0.38 0.581 0.691 0.976 0.764 0.337 0.058 0.761-0.023 1.016-0.2 0.139-0.096 0.357-0.343 0.433-0.488 0.081-0.163 0.136-0.38 0.142-0.581 0.009-0.197-0.046-0.508-0.102-0.572-0.023-0.029 0.061-0.131 0.331-0.409 0.197-0.203 0.459-0.473 0.575-0.595l0.215-0.224 0.16 0.044c0.282 0.075 0.595 0.16 0.639 0.171 0.023 0.003 0.293 0.075 0.595 0.16 0.752 0.203 0.877 0.235 1.742 0.467 0.415 0.11 0.822 0.218 0.9 0.241 0.081 0.023 0.465 0.128 0.857 0.235 0.392 0.104 0.857 0.226 1.031 0.276 0.177 0.046 0.613 0.165 0.973 0.261l0.653 0.174 0.749 0.764c0.412 0.418 1.039 1.051 1.391 1.408l0.642 0.647-0.128 0.136c-0.070 0.073-0.136 0.142-0.148 0.151-0.035 0.026-0.195 0.386-0.212 0.479-0.032 0.165-0.038 0.494-0.012 0.639 0.055 0.308 0.29 0.65 0.584 0.851 0.386 0.261 0.984 0.293 1.394 0.073 0.316-0.171 0.589-0.54 0.662-0.9 0.035-0.157 0.026-0.537-0.012-0.714-0.078-0.346-0.299-0.647-0.581-0.784-0.087-0.044-0.177-0.078-0.2-0.078s-0.049-0.017-0.055-0.035c-0.006-0.020-0.009-0.63-0.009-1.356l0.003-1.321 0.084-0.023c0.046-0.012 0.131-0.029 0.189-0.038 0.055-0.009 0.122-0.020 0.145-0.029 0.023-0.006 0.075-0.017 0.116-0.026 0.041-0.006 0.229-0.046 0.421-0.090s0.377-0.084 0.415-0.090c0.038-0.009 0.221-0.046 0.406-0.087s0.398-0.084 0.47-0.099c0.073-0.015 0.163-0.035 0.203-0.041 0.041-0.009 0.157-0.035 0.261-0.058 0.299-0.070 0.993-0.218 1.095-0.235 0.052-0.009 0.183-0.035 0.29-0.061 0.11-0.026 0.229-0.052 0.27-0.058 0.041-0.009 0.218-0.046 0.392-0.087 0.177-0.038 0.36-0.078 0.406-0.087 0.049-0.009 0.209-0.041 0.36-0.073 0.148-0.032 0.293-0.064 0.322-0.070 0.049-0.009 0.578-0.125 0.668-0.145 0.023-0.006 0.267-0.058 0.537-0.116 0.273-0.058 0.514-0.11 0.537-0.116 0.026-0.006 0.299-0.064 0.61-0.128 1.199-0.256 1.208-0.258 1.304-0.369 0.107-0.122 0.116-0.151 0.279-1.042 0.073-0.401 0.136-0.755 0.145-0.793l0.015-0.064h1.527c1.687 0 1.658 0.003 1.768-0.183 0.055-0.090 0.058-0.192 0.055-4.288 0-4.587 0.012-4.294-0.165-4.425-0.081-0.061-0.099-0.061-2.215-0.064l-2.131-0.003-0.139 0.064zM30.744 7.722l0.064 0.003-0.006 3.592-0.009 3.594-1.469 0.003c-1.405 0-1.475 0.003-1.568 0.058-0.052 0.032-0.119 0.096-0.148 0.142-0.041 0.073-0.125 0.404-0.18 0.711-0.006 0.041-0.046 0.235-0.090 0.436s-0.093 0.444-0.11 0.543c-0.020 0.119-0.046 0.186-0.078 0.195-0.044 0.015-0.79 0.174-0.929 0.203-0.041 0.006-0.261 0.055-0.494 0.104s-0.447 0.096-0.479 0.104c-0.032 0.006-0.122 0.023-0.203 0.041-0.078 0.017-0.171 0.035-0.203 0.041s-0.209 0.044-0.392 0.087c-0.183 0.041-0.366 0.078-0.406 0.087-0.041 0.006-0.319 0.067-0.624 0.134-0.302 0.067-0.581 0.128-0.618 0.134-0.038 0.009-0.587 0.125-1.219 0.261s-1.185 0.256-1.225 0.261c-0.041 0.006-0.163 0.032-0.276 0.058-0.25 0.055-0.299 0.067-0.398 0.084-0.046 0.009-0.163 0.035-0.261 0.058-0.102 0.023-0.226 0.049-0.282 0.058s-0.107 0.020-0.116 0.026c-0.009 0.006-0.067 0.020-0.125 0.029-0.061 0.009-0.171 0.032-0.247 0.049-0.078 0.017-0.16 0.035-0.183 0.041s-0.102 0.023-0.174 0.041c-0.073 0.015-0.163 0.035-0.203 0.044-0.177 0.032-0.546 0.11-0.639 0.134-0.055 0.015-0.134 0.032-0.174 0.041-0.064 0.012-0.581 0.122-0.697 0.148-0.023 0.006-0.154 0.032-0.287 0.058-0.261 0.055-0.264 0.055-0.772-0.090-0.171-0.049-1.426-0.386-1.887-0.505-0.174-0.046-0.514-0.139-0.755-0.203-0.238-0.067-0.456-0.125-0.479-0.131-0.023-0.003-0.343-0.090-0.708-0.189-0.363-0.099-0.685-0.183-0.711-0.189s-0.438-0.119-0.918-0.247c-0.479-0.131-0.891-0.241-0.915-0.247-0.038-0.009-0.56-0.148-1.524-0.406-0.16-0.044-0.322-0.084-0.36-0.093-0.038-0.006-0.090-0.023-0.116-0.035-0.026-0.015-0.093-0.032-0.148-0.044-0.055-0.009-0.165-0.038-0.247-0.061-0.078-0.023-0.348-0.102-0.595-0.171-2.015-0.575-3.33-1.071-4.004-1.519-0.136-0.090-0.348-0.264-0.468-0.386-0.346-0.348-0.502-0.7-0.502-1.121 0-0.2 0.012-0.264 0.075-0.392 0.093-0.186 0.136-0.238 0.311-0.377 0.148-0.122 0.354-0.229 0.566-0.296 0.415-0.136 0.044-0.131 9.66-0.134 6.173-0.003 9.076-0.012 9.128-0.032 0.093-0.035 0.073-0.023 1.333-0.955 0.528-0.389 1.083-0.801 1.234-0.915 0.302-0.221 1.138-0.842 1.8-1.333 0.232-0.174 0.453-0.337 0.491-0.363 0.035-0.026 0.096-0.073 0.131-0.099 0.909-0.688 1.449-1.066 1.533-1.074 0.073-0.006 2.988-0.003 3.298 0.003zM15.042 8.901c0.186 0.023 0.494 0.067 0.639 0.090 0.090 0.015 0.717 0.174 0.944 0.238l0.087 0.023v2.349h-4.056c-2.776 0.003-4.047-0.009-4.033-0.029 0.128-0.171 0.415-0.508 0.586-0.682 1.176-1.199 2.628-1.861 4.367-1.992 0.145-0.009 0.264-0.023 0.27-0.026 0.017-0.015 1.048 0.009 1.196 0.029zM17.803 9.778c0.023 0.020 0.055 0.038 0.067 0.038 0.049 0 0.642 0.418 0.964 0.682 0.282 0.229 1.098 1.077 1.054 1.092-0.006 0.003-0.523 0.006-1.15 0.009l-1.135 0.006-0.003-0.967v-0.964l0.078 0.032c0.044 0.020 0.099 0.052 0.125 0.073zM4.65 19.156c0.134 0.052 0.218 0.203 0.226 0.404 0.015 0.308-0.139 0.476-0.43 0.476-0.38 0-0.569-0.247-0.468-0.616 0.041-0.145 0.11-0.221 0.247-0.27 0.139-0.049 0.282-0.046 0.424 0.006zM17.513 20.332c0.003 0.653-0.003 1.426-0.012 1.437-0.009 0.006-1.365-1.336-1.443-1.429-0.017-0.020-0.003-0.032 0.052-0.038 0.044-0.003 0.36-0.070 0.703-0.148s0.642-0.145 0.662-0.145c0.026-0.003 0.035 0.081 0.038 0.322zM18.227 23.389c0.151 0.102 0.218 0.465 0.125 0.674-0.073 0.163-0.212 0.224-0.456 0.203-0.296-0.023-0.418-0.151-0.418-0.438 0-0.29 0.125-0.462 0.366-0.505 0.157-0.026 0.27-0.006 0.383 0.067zM25.741 10.408c-0.116 0.052-0.177 0.125-0.212 0.255-0.058 0.212 0.012 0.427 0.165 0.523l0.104 0.067h1.64c1.307 0 1.661-0.009 1.733-0.041 0.136-0.055 0.215-0.2 0.215-0.386 0-0.189-0.032-0.276-0.134-0.372l-0.078-0.073-1.672-0.006c-1.35-0.006-1.693 0-1.762 0.032z"></path>
</svg>
