<?xml version="1.0" encoding="utf-8"?>
<!-- Generated by IcoMoon.io -->
<!DOCTYPE svg PUBLIC "-//W3C//DTD SVG 1.1//EN" "http://www.w3.org/Graphics/SVG/1.1/DTD/svg11.dtd">
<svg version="1.1" xmlns="http://www.w3.org/2000/svg" xmlns:xlink="http://www.w3.org/1999/xlink" width="49" height="32" viewBox="0 0 49 32">
<path d="M35.041 9.278l-0.649 0.072-0.024 0.289c-0.289 0.265-0.697 0.313-0.938-0.048l-0.313 0.072c0.168 0.481-0.385 0.625-0.649 0.265l-0.313 0.072-0.048 0.337c-0.265 0.168-0.216 0.072-0.457 0.144-0.192 0.048-0.144 0.12-0.313 0.216-0.241 0.144-0.553 0.072-0.794 0.241-0.433 0.265-0.361 0.12-0.794 0.241-0.409 0.12-0.241 0.216-0.77 0.265-0.433 0.024-0.433 0.048-0.794 0.241-0.144 0.072-1.972 0.649-2.573 0.265h-0.192c-0.192 0.457-0.577 0.216-1.13 0.361-0.746 0.192-1.828-0.553-3.68-0.048-1.154 0.313-1.227 0.048-1.635 0.241-0.241 0.12-0.337 0.313-0.601 0.409s-0.577 0.12-0.842 0.241c-0.216 0.096-1.010 0.722-1.203 0.914-0.89 0.866-0.986 0.337-1.227 0.746-0.289 0.481 0.601 0.385 0.866 0.77 0.385 0.601 0.409 0.697 0.938 1.203 0.241 0.241 0.866 0.89 1.13 1.010 0.89 0.409 1.587-1.876 2.020-1.78 0.265 0.048-0.072 0.986 0 1.395 0.481 2.621 1.034 0.794 1.78 1.203 0.625 0.337 0.289-0.649 0.794-0.697 0.313-0.048 0.144 1.082 0.505 0.577 0.409-0.625-0.12-0.529 1.082-1.034 0.866-0.361 1.275-0.361 1.611-0.529 0.697-0.361 0.697-0.337 1.371 0.096 1.251 0.842 1.78 0.433 3.054-0.144 0.625-0.289 0.986-0.241 1.611-0.385 0.577-0.144 1.106-0.361 1.659-0.457 0.577-0.096 1.178-0.192 1.756-0.385 0.24-0.096 1.371-0.409 1.443-0.529 0.216-0.337-0.529-0.77-0.746-1.13-0.168-0.265-0.529-1.203 0.12-1.034 0.697 0.168 0.433-0.409 0.433-0.986 0-0.241 0.313-1.443-0.096-1.347-0.192 0.048-0.337 0.265-0.529 0.289-0.24 0-0.096-0.385-0.024-0.481 0.337-0.601 0.77-0.457 0.553-1.371h-0.505l-0.048 0.361-0.481 0.096-0.24-0.216zM14.454 18.128c0.313 2.982-2.068-0.577-1.178 1.635 0.144 0.361 0.289 2.044 0.289 2.501 0.024 0.866-0.096 1.251 0.529 1.972 0.385 0.457 1.010 0.986 1.491 1.347 0.794 0.601 0.144 0.794-0.385 1.203-0.265 0.216-1.275 1.058-1.178 1.395 0.168 0.553 0.842-0.481 1.347-0.481 0.818 0 0.12-0.337 1.034-0.529 1.106-0.241-2.285-2.429 4.137 0.697l3.872 1.804c0.601 0.361 1.106 0.794 1.683 1.154 0.289 0.192 0.625 0.313 0.914 0.505 0.265 0.192 0.505 0.433 0.818 0.553 0.818 0.289 2.814-0.12 3.607-0.385 0.481-0.168 0.289-0.481 0.168-0.385-0.144 0.168-2.092 0.457-2.092 0.409-0.144-0.505-0.457-1.299-0.529-1.443-0.216-0.457-1.178-1.154-0.697-1.371 0.409-0.168 1.635-0.072 0.361-0.625-1.227-0.553 0-0.649 0.457-0.77 0.842-0.241-0.938-0.625-1.082-0.673-1.852-0.721-2.285-1.178-2.213-3.175 0.048-1.058-0.409-1.78-0.505-1.371-0.048 0.265 0.385 1.78-0.313 1.539-0.289-0.096-0.505-0.601-1.539-1.203-0.601-0.361-1.227-0.673-1.828-1.010-2.165-1.203-2.862-0.818-4.257-1.178-0.505-0.12-1.876-0.361-2.213-0.625-0.673-0.529 0.337-1.13-0.673-1.539zM20.972-0.005l-0.577 0.385c-0.289 0.12-0.625 0.505-0.818 0.746-0.072 0.096-0.096 0.24-0.168 0.361-0.12 0.216-0.385 0.409-0.649 0.457l-0.12-0.192-0.361 0.361c-0.096 0.553 0 0.313-0.361 0.673-0.096 0.12-0.409 0.433-0.529 0.505-0.024 0.481-0.144 0.818-0.601 1.010-0.457 0.168-0.337 0.553-1.371 1.010-0.192 0.072-1.154 1.058-1.227 1.058-0.168-0.144-0.12-0.096-0.144-0.313l-0.505 0.12c0 0.842-0.481 0.673-0.433 1.082 0.024 0.265 0.241 0.24 0.361 0.409 0.12 0.192 0.048 0.409 0.192 0.649 0.241 0.409 1.443 1.275 1.924 1.082 0.12-0.337-0.289-0.433-0.313-0.746 0.337-0.241 0.481 0.241 0.866 0 0.168-0.096 0.168-0.216 0.313-0.337 0.168-0.144 0.265-0.096 0.409-0.289 0.481-0.625 0.12-0.24 0.746-0.601 0.313-0.168 0.505-0.361 0.818-0.529 1.106-0.505 0.529-0.842 1.251-1.467 0.216-0.192 0.553-0.433 0.746-0.625 0.337-0.361-0.048-0.577 0-0.962 0.289-0.265 0.505-0.048 0.77-0.385 0.481-0.601 0.962-0.505 1.299-1.082 0.361-0.649 0.216-0.216 0.649-0.577 0.072-0.361-0.265-0.938-0.529-1.202-0.529-0.577-1.082-0.601-1.659-0.601zM0.265 8.388c-0.361 1.467-0.385 2.982 0.192 4.329 0.722 0.168 0.697 1.563 1.299 1.419 0.265-0.313 0.024-0.722 0.024-1.106s0.265-0.577 0.337-0.986c0.096-0.433 0.072-0.673 0.265-1.082 0.505-1.034 0.457-1.419 1.275-0.77 0.794 0.625 1.491 0.457 1.034 1.275-0.577 1.082-0.962-0.553-1.178-0.746-0.289-0.265-0.673 0-0.649 0.361 0.024 0.649 1.106 0.409 1.371 1.323 0.096 0.361 0.265 0.722 0.721 0.481 0.337-0.192 0.024-0.553 0.289-0.938 0.337-0.481 1.034-1.227 0.697-1.828-0.505-0.313-0.77 0.601-1.202-0.409-0.457-1.13-0.697-0.433-1.202-0.553-0.289-0.361 0.216-0.746 0.433-1.058 0.265-0.385 0.457-0.673 0.794-1.010 0.481-0.481 2.116-1.924 1.684-1.924-2.549 0-5.099 0.192-6.205 3.223zM6.854 10.649c-0.529 0.361-0.409 0.505-0.697 0.986-0.216 0.361-1.395 1.9-0.505 2.165 0.24 0.072 0.337 0.024 0.553 0.216 0.24 0.192 0.12 0.216 0.457 0.313 0.385 0.12 0.625 0.481 0.553 0.866-0.12 0.553-0.697 0.361-1.010 0.409-0.553 0.096 0.313 0.433 0.337 0.457 0.265 0.168 0.553 0.746 0.938 0.265 0.818-1.058 0.289 1.203 0.505 1.515 0.096 0.144 0.265 0.289 0.385 0.457s0.168 0.385 0.265 0.577c0.313 0.577 0.649 0.337 1.13 0.505 0.241 0.072 0.265 0.216 0.457 0.289 0.168 0.072 0.361 0.072 0.529 0.12 0.12 0.048 0.337 0.241 0.433 0.168 0.144-0.072 0-0.361-0.096-0.457-0.409-0.337-1.996-0.625-2.333-1.106-0.577-0.866 0.361-1.659 0.649-2.309 0.337-0.77 0.722-1.515 1.203-2.237 0.241-0.361 0.361-0.746 0.577-1.082 0.938-1.395-0.216-0.986-1.082-0.625-0.673 0.289-0.337-0.505-0.361-0.746-0.048-0.481-0.77-0.337-0.986-0.144-0.361 0.337 0.289 0.746 0 1.010-0.096 0.096-0.938 0.433-1.010 0.216-0.048-0.168 0.409-0.794 0.24-1.178-0.144-0.313-0.649 0.433-0.697 0.553-0.144 0.337 0.12 0.986-0.289 0.986-0.818 0.024 0.553-1.732-0.192-2.237zM8.393 13.174c-1.13 0.409-0.842 2.622 0.385 1.996 1.611-0.818 0.505-2.333-0.385-1.996zM6.59 20.461c1.227 0.457 0.481 1.275 0.89 3.054 0.553 2.381 0.794 4.137 1.9 6.229 0.553 1.058 1.251 1.611 2.453 1.13 0.842-0.337 0.673-0.096 1.106-0.89 0.794-1.467-0.625 0.313-0.746-0.385-0.072-0.385 0.842-1.058 0.289-1.106-0.216 0-0.385 0.265-0.625 0.192-0.481-0.12 0.361-0.914-0.529-0.866-0.289 0.024-0.505 0.024-0.77 0.144-0.866 0.409-0.553-0.361-0.722-0.818-0.096-0.241-0.649-2.092-0.553-2.165 0.337 0.168 0.433 0.89 0.77 0.842 0.505-0.601-0.577-1.78-0.914-2.261-0.265-0.361-0.265-0.866-0.722-0.89s-0.457-0.746-0.433-1.106c0.072-0.818 0.625-0.096 0.77-0.072 0.241 0 0.577-0.697 0.505-0.962-0.12-0.385-2.261-0.77-2.694-0.842 0.072 0.192 0 0.529 0 0.77zM11.809 7.089c0 0.553-0.313 0.601-0.722 0.313h-0.12l0.048 0.168c-0.168 0.337-0.265 0.192-0.529 0.433-0.241 0.216-0.385 0.289-0.601-0.024l-0.12 0.072c-0.337 0.529-0.553-0.024-0.89-0.144-0.505-0.192-0.697 0.144-1.034 0.409-0.481 0.361-0.457-0.144-0.986 0.168-0.289 0.168-0.553 0.673-0.337 0.962 0.481 0.024 0.529-0.962 1.010-0.722 0.24 0.12 0.337 0.361 0.673 0.216 0.265-0.12 0.265-0.313 0.625-0.313 0.265 0.192 0.289 0.649 0.89 1.010 0.433 0.265 0.746 0.529 1.178 0.746l2.285 1.587c0.289 0.216 1.010 0.649 1.299 0.265 0.433-0.577-0.625-0.577-0.914-0.77-0.313-0.216-0.361-0.192-0.625-0.337-0.168-0.096-0.313-0.313-0.529-0.433-0.168-0.096-0.505-0.216-0.625-0.361-0.192-0.265 0.12-0.385 0-0.673-0.457-0.192-0.433 0.529-1.227-0.12-0.289-0.241-1.13-0.216-0.986-0.794 0.265-0.216 0.601-0.072 0.986-0.337 0.265-0.168 0.553-0.433 0.914-0.289 0.289 0.12 0.553 0.385 0.914 0.048 0.144-0.144 0.072-0.914 0.072-1.154l-0.649 0.072zM24.291 20.341c0 0.313 0.457 0.794 0.746 0.842l0.409-0.361c0.289 0.072 0.337 0.241 0.577 0.265 0.192 0 0.457-0.12 0.77-0.12 0.577 0 1.178 0.072 1.732-0.072 0.529-0.12 2.645-0.385 2.934-0.577-0.289-0.168-1.539-0.216-1.876-0.168-0.361 0.072-0.649 0-0.986 0.048s-0.577 0.168-0.866 0.216c-0.649 0.12-1.563 0-2.020 0.12s-0.289 0.168-0.721-0.096c-0.265-0.168-0.457-0.313-0.697-0.096zM40.115 11.635c0.24 0.024 0.144-0.072 0.409-0.144 0.601 0.216 0.505 0.986 1.106 0.914 0.096-0.337-0.457-0.842-0.144-1.828 0.144-0.481 0.818-0.794 1.13-1.203-0.168-0.024-0.794 0.096-0.986 0.144-0.505 0.12-0.457 0.192-0.697 0.601s-0.361 0.337-0.649 0.577c-0.24 0.216-0.337 0.673-0.144 0.938zM37.614 13.655c0.385-0.241 0.168-0.649 0.024-0.962-0.385-0.866 0.096-1.275 0.144-1.563 0.048-0.241-0.072-0.289-0.024-0.601 0.096-0.409 0.433-0.577 0.313-0.938-0.77-0.265-1.058 1.563-1.058 1.828 0 0.385-0.168 2.020 0.577 2.237zM38.576 11.443l-0.385-0.024-0.024 0.505c0.096 0.024 1.275-0.12 1.227-1.058-0.048-0.986 1.275-0.577 1.082-1.275-0.313-0.096-0.505-0.096-0.697 0.168-0.337 0.433-0.361 0.168-0.649 0.385s-0.024 0.433-0.144 0.697c-0.024 0.072-0.385 0.529-0.433 0.601zM14.55 16.517c-0.096 0.505 0.289 0.962 0.649 1.251 0.457 0.361 0.337 0.938 1.154 0.697 0.096-0.409-0.481-0.746-0.746-0.986-0.289-0.265-0.361-0.866-0.794-1.082l-0.265 0.12zM10.702 27.46c0.361-0.216 0.866-1.539 0.746-1.948-0.505-0.168-0.481 0.457-0.77 0.89-0.216 0.313-0.649 1.010 0.024 1.058zM38.793 12.116l-0.096 0.457c-0.24 0.024-0.144-0.096-0.433-0.048-0.144 0.192-0.265 0.625 0.048 0.722 0.385 0.12 0.361-0.361 0.505-0.553 0.337 0.072 0.529 0.337 0.866 0.168 0.24-0.457-0.457-1.058-0.89-0.77zM5.315 15.411c0.265-0.746-0.481-0.697-0.746-0.962-0.072-0.385 0.072-0.77-0.265-0.962-0.216 0.072-0.313 0.265-0.313 0.505 0 0.313 0.192 0.361 0.409 0.505 0.361 0.241 0.24 1.154 0.914 0.914zM12.169 9.518c0.072 0.144 0.457 0.385 0.601 0.529 0.313 0.313 0.168 0.625 0.433 0.697 0.072-0.361-0.216-0.722-0.385-1.010-0.313-0.481 0.216-0.481 0.216-1.058-0.072-0.168-0.216-0.337-0.409-0.361-0.072 0.241 0 0.409-0.144 0.697-0.12 0.241-0.241 0.216-0.313 0.505zM19.865 18.585c-0.048-0.265-0.192-0.289-0.241-0.625-0.024-0.289 0.048-0.529-0.313-0.625-0.986 0.89 0.096 1.659 0.553 1.251zM6.133 17.383c-0.144 0.433 0.072 0.577 0.024 0.986-0.024 0.289-0.048 0.866 0.385 0.77 0.144-0.433-0.096-0.625-0.048-0.962 0.048-0.313 0.385-0.505 0-0.89-0.24-0.024-0.168-0.048-0.385 0.096zM5.411 8.725c0.721-0.361-0.096-1.13-0.457-0.986-0.216 0.096-0.457 0.433-0.265 0.649 0.072 0.096 0.601 0.313 0.746 0.337zM9.692 22.818c-0.144 0.337 0.361 1.13 0.746 1.058 0.144-0.505-0.072-1.371-0.746-1.058zM6.83 7.378c-0.048-0.337-0.385-0.697-0.697-0.794-0.938 0.337 0.265 1.202 0.697 0.794zM6.83 6.031c-0.072 0.289 0.168 0.409 0.385 0.577 0.168 0.12 0.481 0.505 0.697 0.168 0.168-0.24-0.216-0.433-0.361-0.577-0.265-0.265-0.361-0.361-0.721-0.168zM3.054 15.411h0.457c0-0.505-0.192-0.866-0.721-1.010-0.649 0.289 0.024 0.577 0.216 0.722l0.048 0.289zM14.839 11.875c0.048 0.192 0.168 0.265 0.265 0.457 0.12 0.265 0.072 0.385 0.409 0.409 0.673-0.337-0.12-1.275-0.673-0.866zM2.573 12.188c-0.12 0.577 0.457 0.962 0.842 0.601 0.024-0.313-0.24-0.601-0.505-0.746l-0.337 0.144zM16.522 10.601c0.433 0.072 0.914-0.457 0.818-0.77-0.337-0.096-1.275 0.265-0.818 0.77zM10.823 20.774c-0.048 0.361 0.168 1.010 0.601 0.914 0.096-0.361 0-0.77-0.241-1.034l-0.337 0.096zM12.698 22.337c0.096-0.289-0.048-0.746-0.289-0.938-0.433 0.241-0.457 1.203 0.289 0.938zM8.514 14.569c0.409 0.096 0.673-0.625 0.289-0.794-0.649-0.289-0.697 0.697-0.289 0.794zM7.359 10.24l0.168 0.144c0.096-0.024 0.649-0.529 0.697-0.601l-0.192-0.289c-0.361 0.024-0.625 0.409-0.673 0.746zM2.381 13.631c0.048 0.337 0.433 0.577 0.746 0.433 0.192-0.385-0.216-0.625-0.553-0.625l-0.192 0.192zM10.582 20.798c0.048-0.192-0.168-0.721-0.289-0.866-0.457 0.265-0.409 1.106 0.289 0.866zM5.724 16.325l-0.072 0.577 0.601-0.024c0.072-0.265 0.096-0.433-0.048-0.649l-0.481 0.096zM8.538 10.745c0.265 0 0.649-0.096 0.746-0.337-0.12-0.313-0.385-0.289-0.673-0.216-0.144 0.192-0.12 0.337-0.072 0.577zM15.969 11.611l-0.048 0.481c0.24 0.144 0.361 0.144 0.577 0.048 0.12-0.313-0.024-0.553-0.337-0.649l-0.216 0.12zM13.636 17.695c0.072 0.337 0.337 0.409 0.625 0.337 0-0.313-0.289-0.673-0.625-0.337zM16.426 19.379c0.216 0.072 0.192 0.096 0.409-0.024 0.072-0.241 0.024-0.433-0.192-0.553-0.216 0.168-0.289 0.313-0.216 0.577zM16.811 17.744c0.144 0.265 0.313 0.241 0.505 0.048l-0.024-0.289c-0.241-0.072-0.457 0-0.505 0.241zM15.007 28.903c0.144-0.216 0.096-0.409-0.216-0.337-0.048 0.216-0.048 0.289 0.216 0.337zM16.811 12.38c0.216 0.144 0.337 0.072 0.433-0.12-0.144-0.168-0.361-0.048-0.433 0.12zM46.056 9.013c0.168 0.12 0.337 0.12 0.505 0-0.144-0.168-0.337-0.168-0.505 0zM28.74 23.347c0.144 0.096 0.361 0.024 0.457-0.12-0.168-0.096-0.361-0.024-0.457 0.12zM7.407 18.609c0.192-0.12 0.168-0.168 0.048-0.337-0.216 0.072-0.24 0.216-0.048 0.337zM29.461 26.378c0.168 0.12 0.289 0.096 0.385-0.096-0.12-0.072-0.289-0.024-0.385 0.096zM7.287 7.907c0.168-0.096 0.144-0.12 0.048-0.265-0.192 0.072-0.216 0.168-0.048 0.265zM14.646 13.391c0.144-0.072 0.12-0.048 0.048-0.192-0.12 0.096-0.12 0.072-0.048 0.192zM36.773 17.431c-0.096-0.168-0.313-0.241-0.385 0-0.024 0.12 0.12 0.553 0.096 0.649-0.072 0.216-0.24 0.168-0.265 0.072-0.096-0.433-0.337-0.866-0.721-1.082-0.144-0.096-0.216-0.048-0.385 0-0.024 0.337 0.649 0.721 0.577 1.756-0.048 0.481-0.625 0.962-0.818 1.419 0.168 0 0.746-0.289 0.938-0.385 0.553-0.289 1.611-1.852 0.962-2.405zM31.746 31.284c0 0 0.192-1.178 0.216-1.347 0.024-0.577 0.144-1.154 0.024-1.732-0.096-0.553-0.216-2.67-0.409-2.982-0.168 0.265-0.313 1.515-0.265 1.852 0.048 0.361-0.024 0.649 0 0.986s0.12 0.577 0.168 0.89c0.096 0.649 0 1.563-0.024 2.020 0 0.096 0 0.216-0.12 0.289-0.313 0.192 0.337 0.216 0.385 0.024zM48.461 10.168c-0.553-0.77 0.072 1.082-0.337 1.178-0.048 0.409-2.213 0.914-2.405 1.275 0.144 0 1.66-0.433 1.828-0.505 0.481-0.216 1.467-0.77 0.938-1.972z"></path>
</svg>
