<?xml version="1.0" encoding="utf-8"?>
<!-- Generated by IcoMoon.io -->
<!DOCTYPE svg PUBLIC "-//W3C//DTD SVG 1.1//EN" "http://www.w3.org/Graphics/SVG/1.1/DTD/svg11.dtd">
<svg version="1.1" xmlns="http://www.w3.org/2000/svg" xmlns:xlink="http://www.w3.org/1999/xlink" width="45" height="32" viewBox="0 0 45 32">
<path d="M31.452 2.036v4.837c-2.061 0-3.070-0.294-3.449 0.799-0.252 0.757-0.505 4.29 0.841 4.29h2.566v11.609c0 2.524 0.757 4.921 2.482 6.183 2.524 1.809 8.328 1.472 9.169-0.042 0.421-0.757 0.631-4.5-0.379-4.5-0.757 0-0.379 0.505-2.86 0.505-1.977 0-2.229-2.061-2.229-4.038v-9.716h4.837c1.136 0 0.967-2.355 0.967-3.281 0-0.841-0.21-1.809-1.051-1.809h-4.753v-4.921c0-1.22-3.028-0.967-4.122-0.967-0.883 0-2.061 0.168-2.061 1.052zM15.090 1.952v5.173h-3.197c-0.715 0-0.673 1.556-0.673 2.061 0 1.809 1.304 1.388 3.87 1.388v12.492c0 3.154 0.463 5.804 2.986 7.192 1.935 1.052 6.94 0.883 7.487-0.589 0.21-0.589 0.421-2.902-0.379-2.902-0.715 0-5.931 2.986-5.931-3.701v-12.492h5.342c1.598 0 1.22-2.355 1.052-2.86-0.126-0.337-0.337-0.589-0.715-0.589h-5.678v-5.342c0-0.841-2.145-0.673-2.776-0.673s-1.388 0.21-1.388 0.841zM1.379 27.272c0 2.566 0 3.449 2.944 3.449 1.935 0 2.397-1.052 2.397-2.86 0-0.841-0.168-1.767-0.505-2.229-0.547-0.715-4.837-1.682-4.837 1.64z"></path>
</svg>
