<?xml version="1.0" encoding="utf-8"?>
<!-- Generated by IcoMoon.io -->
<!DOCTYPE svg PUBLIC "-//W3C//DTD SVG 1.1//EN" "http://www.w3.org/Graphics/SVG/1.1/DTD/svg11.dtd">
<svg version="1.1" xmlns="http://www.w3.org/2000/svg" xmlns:xlink="http://www.w3.org/1999/xlink" width="32" height="32" viewBox="0 0 32 32">
<path d="M15.841 2.984c-0.003 0-0.075 0.012-0.162 0.021-0.243 0.024-0.602 0.159-0.821 0.306-0.204 0.135-0.488 0.42-0.587 0.581-0.042 0.075-0.072 0.090-0.174 0.093-0.584 0.009-1.19 0.174-1.798 0.491-0.731 0.378-0.983 0.593-1.771 1.486-0.132 0.147-0.159 0.165-0.267 0.165-0.135 0-0.641 0.039-0.779 0.057-0.048 0.006-0.198 0.027-0.33 0.045-0.366 0.051-0.393 0.057-0.794 0.138-1.154 0.237-2.763 0.722-4.271 1.286-0.92 0.342-1.394 0.545-2.068 0.887-0.887 0.447-1.424 0.842-1.424 1.046 0 0.153 0.075 0.282 0.303 0.521 0.402 0.426 0.935 0.767 1.744 1.124 0.378 0.168 1.603 0.531 2.077 0.611 0.048 0.009 0.162 0.030 0.252 0.048s0.207 0.039 0.255 0.048c0.051 0.009 0.123 0.021 0.165 0.030 0.153 0.030 0.89 0.132 1.079 0.153 0.147 0.012 0.207 0.033 0.246 0.084 0.030 0.033 0.054 0.072 0.054 0.087 0 0.036 0.27 0.414 0.468 0.65 0.632 0.761 2.182 2.011 2.907 2.341 0.171 0.078 0.423 0.153 0.626 0.189 0.051 0.009 0.117 0.021 0.153 0.030 0.036 0.006 0.135 0.021 0.225 0.033 0.608 0.078 0.749 0.090 1.765 0.15 1.526 0.090 5.245 0.072 6.728-0.030 0.809-0.057 0.89-0.066 1.349-0.132 0.117-0.018 0.243-0.039 0.285-0.048s0.108-0.021 0.147-0.030c0.357-0.069 0.662-0.216 1.16-0.552 0.752-0.504 1.493-1.133 2.059-1.741 0.243-0.261 0.405-0.468 0.629-0.806 0.141-0.21 0.183-0.255 0.252-0.258 0.078-0.006 0.288-0.033 0.459-0.060 0.042-0.006 0.135-0.018 0.21-0.027s0.162-0.021 0.195-0.030c0.033-0.006 0.12-0.021 0.195-0.033 2.050-0.312 3.617-0.947 4.493-1.816 0.291-0.288 0.369-0.515 0.24-0.698-0.066-0.096-0.303-0.288-0.354-0.288-0.015 0-0.033-0.012-0.039-0.024-0.018-0.042-0.605-0.378-1.043-0.593-1.163-0.572-2.895-1.223-4.616-1.732-0.249-0.072-0.908-0.252-1.013-0.273-0.027-0.006-0.111-0.024-0.186-0.042-0.075-0.015-0.168-0.036-0.21-0.045-0.042-0.006-0.135-0.027-0.21-0.045-0.174-0.039-0.779-0.144-0.974-0.165-0.081-0.012-0.198-0.027-0.255-0.033-0.057-0.009-0.261-0.024-0.45-0.033l-0.345-0.018-0.225-0.231c-0.123-0.126-0.36-0.375-0.524-0.554-0.327-0.354-0.614-0.563-1.115-0.821-0.534-0.273-1.082-0.453-1.541-0.501-0.090-0.009-0.189-0.024-0.222-0.030s-0.096-0.012-0.138-0.012c-0.060-0.003-0.108-0.048-0.219-0.213-0.363-0.531-0.866-0.773-1.63-0.791-0.090 0-0.162 0-0.165 0.003zM16.488 4.009c0.219 0.105 0.42 0.303 0.56 0.554 0.108 0.189 0.243 0.315 0.339 0.321 0.036 0.003 0.147 0.006 0.246 0.012 0.974 0.042 1.295 0.144 1.972 0.623 0.357 0.249 0.521 0.396 1.010 0.893 0.444 0.45 0.608 0.599 0.674 0.608 0.051 0.009 0.252 0.024 0.45 0.033s0.402 0.021 0.45 0.030c0.051 0.006 0.204 0.027 0.345 0.045 0.141 0.015 0.288 0.036 0.33 0.045s0.117 0.024 0.165 0.030c0.096 0.018 0.369 0.069 0.495 0.093 1.019 0.201 3.009 0.803 4.226 1.28 0.587 0.228 1.349 0.563 1.349 0.59 0 0.009-5.907 0.015-13.127 0.015s-13.127-0.003-13.127-0.006c0-0.033 1.259-0.56 1.858-0.779 0.965-0.351 2.724-0.884 3.351-1.013 1.007-0.207 0.923-0.192 1.355-0.252 0.402-0.054 0.48-0.063 0.851-0.078 0.198-0.012 0.396-0.024 0.438-0.033 0.048-0.009 0.288-0.231 0.644-0.593 0.569-0.578 1.043-0.965 1.487-1.211 0.339-0.192 0.809-0.294 1.442-0.315 0.444-0.018 0.51-0.051 0.659-0.342 0.090-0.18 0.309-0.417 0.465-0.51 0.321-0.186 0.758-0.204 1.097-0.042zM29.607 10.129c-0.105 0.069-0.515 0.267-0.767 0.366-0.255 0.102-1.034 0.339-1.208 0.372-0.042 0.006-0.192 0.039-0.333 0.069-0.327 0.072-1.088 0.198-1.529 0.255-0.213 0.027-0.414 0.054-0.459 0.063-0.030 0.006-0.138 0.018-0.24 0.027s-0.219 0.024-0.261 0.030c-0.042 0.006-0.162 0.018-0.27 0.030-0.108 0.009-0.228 0.024-0.27 0.030-0.072 0.012-0.351 0.033-0.734 0.060-0.099 0.006-0.3 0.021-0.45 0.030-0.932 0.063-2.868 0.087-7.148 0.087-4.268 0-6.090-0.024-7.073-0.087-0.665-0.042-0.905-0.063-1.139-0.090-0.057-0.009-0.183-0.021-0.279-0.030s-0.216-0.021-0.27-0.030c-0.054-0.006-0.171-0.021-0.261-0.030s-0.204-0.021-0.255-0.030c-0.048-0.006-0.156-0.021-0.24-0.030-0.081-0.009-0.291-0.039-0.465-0.063-0.174-0.027-0.348-0.051-0.39-0.057s-0.123-0.018-0.18-0.030c-0.057-0.009-0.144-0.024-0.195-0.033-0.048-0.009-0.183-0.033-0.3-0.057-0.114-0.024-0.243-0.048-0.285-0.057-0.042-0.006-0.24-0.054-0.441-0.105-0.674-0.171-1.301-0.402-1.672-0.617l-0.18-0.102 13.667-0.003c9.363 0 13.652 0.012 13.622 0.033zM8.133 12.269c0.704 0.063 1.448 0.099 2.071 0.102l0.306 0.003v0.171c0 0.384 0.249 1.025 0.707 1.822 0.075 0.132 0.138 0.252 0.138 0.267 0 0.012-0.051 0.015-0.111 0.003-0.063-0.012-0.153-0.027-0.204-0.036-0.315-0.048-0.501-0.114-0.764-0.27-0.62-0.369-1.196-0.797-1.681-1.259-0.39-0.372-0.869-0.926-0.722-0.839 0.012 0.009 0.129 0.024 0.261 0.036zM24.2 12.287c-0.186 0.267-0.836 0.914-1.232 1.229-0.36 0.285-0.833 0.626-0.869 0.626-0.006 0-0.063 0.036-0.126 0.078-0.354 0.24-0.617 0.333-1.193 0.417-0.066 0.009-0.195 0.030-0.285 0.045-0.303 0.051-0.39 0.060-0.39 0.045 0-0.006 0.042-0.084 0.093-0.171 0.186-0.312 0.45-0.878 0.578-1.244 0.090-0.255 0.162-0.527 0.213-0.785 0.015-0.093 0.033-0.105 0.129-0.111 0.045-0.003 0.297-0.012 0.56-0.024s0.575-0.027 0.689-0.033c0.497-0.027 0.851-0.048 1.019-0.060 0.099-0.006 0.321-0.021 0.495-0.033 0.174-0.009 0.321-0.024 0.327-0.030 0.036-0.033 0.030-0.003-0.009 0.051zM13.539 12.454c1.082 0.009 1.972 0.027 1.981 0.039 0.009 0.015 0.015 0.542 0.015 1.175l-0.003 1.148-0.911-0.003c-0.797 0-1.612-0.024-1.948-0.057-0.084-0.006-0.135-0.042-0.249-0.168-0.348-0.387-0.836-1.379-0.95-1.924-0.039-0.198-0.024-0.276 0.051-0.249 0.027 0.012 0.935 0.027 2.014 0.039zM20.070 12.472c0.027 0.141-0.186 0.851-0.366 1.217-0.162 0.324-0.435 0.749-0.575 0.893-0.021 0.021-0.066 0.075-0.099 0.117-0.036 0.045-0.099 0.087-0.147 0.093-0.045 0.006-0.611 0.018-1.256 0.030l-1.178 0.018v-2.377h0.818c0.998-0.003 2.667-0.030 2.682-0.042 0.027-0.030 0.111 0.009 0.12 0.051zM12.224 18.134c-0.18 0.030-0.33 0.186-0.333 0.345 0 0.063-0.003 1.591-0.003 3.396-0.003 3.645-0.015 3.417 0.195 3.528 0.132 0.069 0.402 0.066 0.525-0.006 0.198-0.117 0.186 0.096 0.186-3.611 0-3.582 0.006-3.441-0.141-3.573-0.078-0.072-0.27-0.108-0.429-0.078zM18.901 18.182c-0.18 0.111-0.174-0.036-0.174 3.62 0 3.033 0.006 3.354 0.048 3.447 0.135 0.282 0.671 0.279 0.806-0.006 0.051-0.108 0.054-0.294 0.054-3.441 0-2.491-0.009-3.357-0.036-3.435-0.054-0.162-0.162-0.222-0.408-0.231-0.156-0.006-0.231 0.006-0.291 0.045zM15.763 19.989c-0.072 0.033-0.141 0.090-0.174 0.153-0.051 0.093-0.054 0.321-0.054 4.319-0.003 3.974 0 4.229 0.051 4.34 0.126 0.282 0.662 0.288 0.803 0.009 0.039-0.075 0.045-0.62 0.045-4.343 0-4.013-0.003-4.262-0.054-4.34-0.111-0.168-0.402-0.234-0.617-0.138z"></path>
</svg>
