<?xml version="1.0" encoding="UTF-8"?>
<!DOCTYPE svg PUBLIC "-//W3C//DTD SVG 1.1//EN" "http://www.w3.org/Graphics/SVG/1.1/DTD/svg11.dtd">
<!-- Creator: CorelDRAW X6 -->
<svg xmlns="http://www.w3.org/2000/svg" xml:space="preserve" width="1000px" height="850px" version="1.1" style="shape-rendering:geometricPrecision; text-rendering:geometricPrecision; image-rendering:optimizeQuality; fill-rule:evenodd; clip-rule:evenodd"
viewBox="0 0 1000 850"
 xmlns:xlink="http://www.w3.org/1999/xlink">
 <defs>
  <style type="text/css">
   <![CDATA[
    .fil0 {fill:#373435;fill-rule:nonzero}
   ]]>
  </style>
 </defs>
 <g id="Layer_x0020_1">
  <metadata id="CorelCorpID_0Corel-Layer"/>
  <path class="fil0" d="M312 850c-11,0 -17,-6 -17,-17l0 -388c-66,-7 -120,-17 -161,-31 -41,-14 -71,-31 -89,-53 -18,-22 -30,-42 -36,-61 -6,-19 -9,-44 -9,-73 0,-28 2,-52 7,-70 5,-18 16,-38 34,-60 18,-22 45,-39 79,-52 35,-13 84,-24 148,-32 64,-9 142,-13 233,-13 91,0 168,4 233,13 64,9 113,19 147,32 34,13 60,30 79,52 19,22 30,41 34,60 4,18 6,41 6,70 0,30 -3,54 -8,73 -5,19 -17,40 -35,61 -18,22 -49,39 -91,53 -43,14 -97,24 -163,31l0 388c0,11 -6,17 -17,17l-375 0zm637 -545c11,-22 17,-48 17,-78 0,-31 -6,-57 -17,-78 -11,-21 -33,-41 -65,-60 -32,-19 -79,-33 -143,-42 -64,-9 -144,-14 -240,-14 -97,0 -177,5 -241,14 -64,9 -112,23 -144,42 -32,19 -53,39 -65,60 -11,21 -17,47 -17,78 0,42 11,76 32,101 21,26 67,47 138,65 71,18 170,26 297,26 97,0 177,-5 240,-14 64,-9 111,-23 143,-41 32,-18 53,-38 65,-60zm-315 -82c0,-34 12,-63 35,-86 23,-23 52,-35 86,-35 33,0 61,12 84,35 23,23 35,52 35,86 0,33 -12,61 -35,84 -23,23 -51,35 -84,35 -34,0 -63,-12 -86,-35 -23,-23 -35,-51 -35,-84zm-392 119c-34,0 -63,-12 -86,-35 -23,-23 -35,-51 -35,-84 0,-34 12,-63 35,-86 23,-23 52,-35 86,-35 33,0 61,12 84,35 23,23 35,52 35,86 0,33 -12,61 -35,84 -23,23 -51,35 -84,35zm598 -119c0,-24 -8,-44 -25,-61 -16,-17 -37,-26 -60,-26 -24,0 -44,9 -61,26 -17,17 -26,37 -26,61 0,24 9,44 26,60 17,16 37,25 61,25 24,0 44,-9 60,-26 16,-17 25,-37 25,-60zm-537 -61c-16,-17 -37,-26 -60,-26 -24,0 -44,9 -61,26 -17,17 -26,37 -26,61 0,24 9,44 26,60 17,16 37,25 61,25 24,0 44,-9 60,-26 16,-17 25,-37 25,-60 0,-24 -8,-44 -25,-61zm243 152c11,0 17,6 17,17 0,11 -6,17 -17,17l-92 0c-11,0 -17,-6 -17,-17 0,-11 6,-17 17,-17l92 0zm-44 140c-70,0 -128,-2 -172,-7l0 63 341 0 0 -61c-50,3 -106,5 -169,5zm169 90l-341 0 0 68 341 0 0 -68zm0 102l-341 0 0 68 341 0 0 -68zm0 102l-341 0 0 68 341 0 0 -68z"/>
 </g>
</svg>
