<?xml version="1.0" encoding="UTF-8"?>
<!DOCTYPE svg PUBLIC "-//W3C//DTD SVG 1.1//EN" "http://www.w3.org/Graphics/SVG/1.1/DTD/svg11.dtd">
<!-- Creator: CorelDRAW X6 -->
<svg xmlns="http://www.w3.org/2000/svg" xml:space="preserve" width="2034px" height="465px" version="1.1" style="shape-rendering:geometricPrecision; text-rendering:geometricPrecision; image-rendering:optimizeQuality; fill-rule:evenodd; clip-rule:evenodd"
viewBox="0 0 2034 465"
 xmlns:xlink="http://www.w3.org/1999/xlink">
 <defs>
  <style type="text/css">
   <![CDATA[
    .fil0 {fill:#373435;fill-rule:nonzero}
   ]]>
  </style>
 </defs>
 <g id="Layer_x0020_1">
  <metadata id="CorelCorpID_0Corel-Layer"/>
  <g id="_162733664">
   <path class="fil0" d="M171 465c-6,0 -9,-3 -9,-9l0 -212c-36,-4 -65,-9 -88,-17 -23,-7 -39,-17 -49,-29 -10,-12 -16,-23 -20,-34 -3,-11 -5,-24 -5,-40 0,-16 1,-28 4,-38 2,-10 9,-21 19,-33 10,-12 24,-21 43,-28 19,-7 46,-13 81,-18 35,-5 78,-7 127,-7 50,0 92,2 127,7 35,5 62,11 81,18 19,7 33,17 43,28 10,12 16,23 19,33 2,10 3,23 3,38 0,16 -1,30 -4,40 -3,11 -9,22 -19,34 -10,12 -27,21 -50,29 -23,7 -53,13 -89,17l0 212c0,6 -3,9 -9,9l-205 0zm349 -298c6,-12 9,-26 9,-43 0,-17 -3,-31 -9,-42 -6,-11 -18,-22 -35,-33 -17,-10 -43,-18 -78,-23 -35,-5 -79,-7 -131,-7 -53,0 -97,2 -132,7 -35,5 -61,13 -79,23 -17,10 -29,21 -35,33 -6,11 -9,26 -9,42 0,23 6,41 17,55 11,14 37,26 75,35 39,10 93,14 163,14 53,0 97,-2 131,-7 35,-5 61,-12 78,-22 17,-10 29,-21 35,-33zm-172 -45c0,-19 6,-34 19,-47 13,-13 28,-19 47,-19 18,0 33,6 46,19 13,13 19,28 19,47 0,18 -6,33 -19,46 -13,13 -28,19 -46,19 -19,0 -34,-6 -47,-19 -13,-13 -19,-28 -19,-46zm-214 65c-19,0 -34,-6 -47,-19 -13,-13 -19,-28 -19,-46 0,-19 6,-34 19,-47 13,-13 28,-19 47,-19 18,0 33,6 46,19 13,13 19,28 19,47 0,18 -6,33 -19,46 -13,13 -28,19 -46,19zm327 -65c0,-13 -5,-24 -14,-34 -9,-9 -20,-14 -33,-14 -13,0 -24,5 -34,14 -9,9 -14,21 -14,34 0,13 5,24 14,33 9,9 21,14 34,14 13,0 24,-5 33,-14 9,-9 14,-20 14,-33zm-294 -34c-9,-9 -20,-14 -33,-14 -13,0 -24,5 -34,14 -9,9 -14,21 -14,34 0,13 5,24 14,33 9,9 21,14 34,14 13,0 24,-5 33,-14 9,-9 14,-20 14,-33 0,-13 -5,-24 -14,-34zm133 83c6,0 9,3 9,9 0,6 -3,9 -9,9l-50 0c-6,0 -9,-3 -9,-9 0,-6 3,-9 9,-9l50 0zm-24 76c-39,0 -70,-1 -94,-4l0 34 186 0 0 -34c-27,2 -58,3 -92,3zm92 49l-186 0 0 37 186 0 0 -37zm0 56l-186 0 0 37 186 0 0 -37zm0 56l-186 0 0 37 186 0 0 -37z"/>
   <g>
    <path class="fil0" d="M1698 127c30,0 57,8 80,24l-5 21 -4 0c-21,-17 -45,-25 -72,-25 -32,0 -57,11 -74,33 -17,22 -26,53 -26,95 0,41 8,73 25,94 17,22 41,32 72,32 29,0 55,-10 80,-29l4 1 -2 22c-26,17 -54,26 -83,26 -38,0 -68,-13 -88,-38 -21,-25 -31,-61 -31,-108 0,-48 11,-84 32,-110 22,-26 52,-39 92,-39z"/>
    <path class="fil0" d="M1532 420l-153 0 1 -88 -1 -202 153 0 2 3 -3 19 -68 -1 -60 0c-2,187 0,46 -1,180l1 69 59 0 71 -1 2 3 -2 19z"/>
    <path class="fil0" d="M1144 292l73 1c21,-3 37,-11 49,-25 11,-14 17,-32 17,-54 0,-42 -21,-65 -65,-65l-75 1 0 -20 77 0c28,0 49,7 64,22 15,14 22,35 22,62 0,32 -9,56 -27,74 -18,18 -43,27 -76,27l-37 0 0 18 1 90 -24 0 1 -88 0 -40z"/>
    <polygon class="fil0" points="1073,420 1044,420 1032,400 955,288 877,401 866,420 840,420 941,271 845,130 874,130 885,149 957,253 1027,150 1039,130 1065,130 971,269 "/>
    <path class="fil0" d="M806 420l-153 0 1 -88 -1 -202 153 0 2 3 -3 19 -68 -1 -60 0c-2,187 0,71 -1,180l1 69 59 0 71 -1 2 3 -2 19z"/>
    <polygon class="fil0" points="1839,399 1888,400 1923,400 1925,219 1924,130 1947,130 1946,218 1947,400 1983,400 2032,399 2034,402 2032,420 1839,420 1837,417 "/>
   </g>
  </g>
 </g>
</svg>
