<svg width="18" height="32" viewBox="0 0 18 32" fill="none" xmlns="http://www.w3.org/2000/svg">
<rect width="18" height="32" fill="#1E1E1E"/>
<g id="o 1">
<path id="Vector" d="M14.304 11.632C15.52 12.9867 16.128 14.9013 16.128 17.376C16.128 20.064 15.4827 22.1333 14.192 23.584C12.9013 25.0347 11.072 25.76 8.704 25.76C6.44267 25.76 4.69867 25.0667 3.472 23.68C2.24534 22.2933 1.632 20.3307 1.632 17.792C1.632 15.168 2.27734 13.1467 3.568 11.728C4.85867 10.3093 6.69867 9.60001 9.088 9.60001C11.3493 9.60001 13.088 10.2773 14.304 11.632ZM3.264 17.6C3.264 22.144 5.09867 24.416 8.768 24.416C10.6453 24.416 12.0747 23.8507 13.056 22.72C14.0373 21.5893 14.528 19.8933 14.528 17.632C14.528 13.1947 12.672 10.976 8.96 10.976C5.16267 10.976 3.264 13.184 3.264 17.6Z" fill="black"/>
<path id="Vector 9" d="M2.5 18C3.5 4.5 17.0465 10.8861 15.5 18C13 29.5 2 25 2.54363 17.5" stroke="#FF0000" stroke-width="2.5"/>
</g>
</svg>
