<?xml version="1.0" encoding="UTF-8"?>
<svg id="Layer_1" data-name="Layer 1" xmlns="http://www.w3.org/2000/svg" width="990" height="380" viewBox="0 0 990 380">
  <defs>
    <style>
      .cls-1 {
        fill: #171321;
      }
    </style>
  </defs>
  <g>
    <path class="cls-1" d="M427.52097,171.50804h22.77544c-3.79587-24.22145-24.76384-41.09221-52.05821-41.09221-32.2953,0-56.51684,23.73956-56.51684,63.50619,0,39.04368,23.13701,63.26551,57.17964,63.26551,30.5481,0,52.41968-19.64262,52.41968-51.45605v-14.82212h-50.06982v17.47331h28.43917c-.36147,17.59372-12.11078,28.74038-30.6685,28.74038-20.66664,0-34.82596-15.48492-34.82596-43.44209,0-27.77638,14.40038-43.20103,34.34396-43.20103,14.88238,0,25.00478,7.95333,28.98144,21.02811Z"/>
    <path class="cls-1" d="M466.37402,255.50033h21.81144v-92.54815h-21.81144v92.54815ZM477.34013,148.2967c6.9293,0,12.59229-5.30226,12.59229-11.80948,0-6.56753-5.66299-11.86975-12.59229-11.86975-6.98907,0-12.6533,5.30223-12.6533,11.86975,0,6.50722,5.66423,11.80948,12.6533,11.80948Z"/>
    <path class="cls-1" d="M553.499,162.95218h-18.25652v-22.17291h-21.81144v22.17291h-13.13517v16.87078h13.13517v51.45568c-.11953,17.41292,12.53252,25.96865,28.9213,25.48677,6.20586-.18054,10.48423-1.38586,12.83386-2.16906l-3.67447-17.05145c-1.20532.3012-3.67572.84347-6.38767.84347-5.48243,0-9.88158-1.928-9.88158-10.72492v-47.84049h18.25652v-16.87078Z"/>
    <path class="cls-1" d="M570.37973,255.50033h76.70177v-18.73877h-54.34744v-104.65867h-22.35433v123.39744Z"/>
    <path class="cls-1" d="M688.85459,257.36806c14.52102,0,23.19731-6.80852,27.17309-14.58118h.72343v12.71344h20.96846v-61.93979c0-24.46263-19.9437-31.81342-37.59753-31.81342-19.46183,0-34.40499,8.67639-39.225,25.54717l20.3658,2.89213c2.16907-6.32653,8.31393-11.74932,18.97871-11.74932,10.12314,0,15.66659,5.18173,15.66659,14.27985v.36147c0,6.26639-6.5682,6.56759-22.89598,8.31492-17.95642,1.92813-35.12715,7.29053-35.12715,28.13797,0,18.19624,13.31571,27.83676,30.96958,27.83676ZM696.02516,241.34076c-9.09838,0-15.6056-4.15746-15.6056-12.17106,0-8.37506,7.29167-11.86972,17.05246-13.25558,5.72401-.7832,17.172-2.22933,20.00347-4.51892v10.90572c0,10.30319-8.31518,19.03984-21.45033,19.03984Z"/>
    <path class="cls-1" d="M753.80859,255.50033h21.44912v-14.5813h1.26507c3.4354,6.74826,10.60501,16.20748,26.51191,16.20748,21.81148,0,38.13921-17.29201,38.13921-47.77984,0-30.8493-16.80964-47.59955-38.2002-47.59955-16.32777,0-23.13628,9.82119-26.45092,16.50918h-.90275v-46.1534h-21.81144v123.39744ZM775.19793,209.22613c0-17.95518,7.71251-29.58397,21.75045-29.58397,14.52102,0,21.99323,12.35172,21.99323,29.58397,0,17.35278-7.59175,30.00583-21.99323,30.00583-13.91839,0-21.75045-12.05051-21.75045-30.00583Z"/>
  </g>
  <path class="cls-1" d="M301.9592,174.37243l-.21338-.55823-21.19897-55.30908c-.42358-1.08362-1.18542-1.99646-2.177-2.62689-.9884-.63373-2.14746-.93256-3.323-.87018-1.16895.06244-2.29199.48926-3.20813,1.21826-.90955.73553-1.56628,1.73047-1.87488,2.85345l-14.31335,43.80658h-57.90967l-14.31323-43.80658c-.30872-1.12299-.96545-2.11792-1.87488-2.85345-.91626-.729-2.03918-1.15582-3.20813-1.21826-1.17542-.06238-2.33472.23645-3.323.87018-.99158.63043-1.75354,1.54327-2.17712,2.62689l-21.19885,55.31238-.2135.55493c-6.28149,16.38513-.9292,34.90808,13.05896,45.48779.02625.01648.04919.03613.07556.05579l.18713.14124,32.29089,24.17395,15.97156,12.09021,9.71948,7.34875c2.34119,1.77319,5.57874,1.77319,7.92004,0l9.71948-7.34875,15.96814-12.09021,32.48145-24.31519c.02966-.02295.05579-.04272.08533-.06567,13.97839-10.57971,19.32739-29.09595,13.04907-45.47791Z"/>
</svg>