<svg width="232" height="75" viewBox="0 0 232 75" fill="none" xmlns="http://www.w3.org/2000/svg">
<path d="M133.535 53.5C133.535 59.02 135.743 61.78 139.837 61.78C143.379 61.78 146.553 59.526 146.553 54.42V52.58C146.553 47.474 143.655 45.22 140.297 45.22C135.835 45.22 133.535 48.164 133.535 53.5ZM146.553 65V60.86C145.081 63.896 142.321 65.46 138.779 65.46C132.661 65.46 129.579 60.262 129.579 53.5C129.579 47.014 132.799 41.54 139.239 41.54C142.597 41.54 145.173 43.058 146.553 46.048V42H150.509V65H146.553Z" fill="#101214"/>
<path d="M119.864 51.43V65H116V42H119.864V46.048C121.198 43.334 123.498 41.402 128.006 41.678V45.542C122.946 45.036 119.864 46.554 119.864 51.43Z" fill="#101214"/>
<path d="M105.336 35.928C105.336 34.18 106.486 33.168 108.096 33.168C109.706 33.168 110.856 34.18 110.856 35.928C110.856 37.676 109.706 38.688 108.096 38.688C106.486 38.688 105.336 37.676 105.336 35.928ZM106.072 65V42H110.028V65H106.072Z" fill="#101214"/>
<path d="M96.43 56.076V34.778H100.57V55.8C100.57 61.366 98.132 65.184 92.428 65.184C90.266 65.184 88.61 64.816 87.46 64.402V60.4C88.702 60.906 90.22 61.182 91.738 61.182C95.234 61.182 96.43 59.066 96.43 56.076Z" fill="#101214"/>
<path d="M155.186 11.9857C155.186 14.5147 156.33 16.5017 160.967 17.4049C163.676 18.007 164.278 18.4285 164.278 19.3316C164.278 20.2348 163.676 20.7767 161.749 20.7767C159.522 20.7767 156.872 19.994 155.126 18.9704V23.0648C156.511 23.7271 158.317 24.5099 161.749 24.5099C166.566 24.5099 168.433 22.3423 168.433 19.2112M168.433 19.2714C168.433 16.2608 166.867 14.8759 162.352 13.9125C159.883 13.3706 159.281 12.8287 159.281 12.046C159.281 11.0826 160.184 10.6611 161.81 10.6611C163.797 10.6611 165.723 11.2632 167.59 12.1062V8.19237C166.265 7.53004 164.278 7.04834 161.93 7.04834C157.474 7.04834 155.186 8.97513 155.186 12.1062" fill="#101214"/>
<path d="M216.844 7.1687V24.3292H220.517V11.2631L222.022 14.6952L227.2 24.3292H231.777V7.1687H228.164V18.2478L226.779 14.9963L222.624 7.1687H216.844Z" fill="#101214"/>
<path d="M193.602 7.1687H189.628V24.3292H193.602V7.1687Z" fill="#101214"/>
<path d="M185.052 19.2112C185.052 16.2006 183.486 14.8158 178.97 13.8524C176.501 13.3104 175.899 12.7685 175.899 11.9858C175.899 11.0224 176.802 10.6009 178.428 10.6009C180.415 10.6009 182.342 11.203 184.209 12.046V8.13219C182.884 7.46986 180.897 6.98816 178.549 6.98816C174.093 6.98816 171.805 8.91495 171.805 12.046C171.805 14.5749 172.949 16.5619 177.585 17.4651C180.295 18.0672 180.897 18.4887 180.897 19.3919C180.897 20.2951 180.295 20.837 178.368 20.837C176.14 20.837 173.491 20.0542 171.745 19.0306V23.125C173.13 23.7874 174.936 24.5701 178.368 24.5701C183.125 24.5701 185.052 22.4025 185.052 19.2112Z" fill="#101214"/>
<path d="M124.237 7.1687V24.3292H132.426L133.691 20.596H128.211V7.1687H124.237Z" fill="#101214"/>
<path d="M108.04 7.1687V10.8416H112.436V24.3292H116.47V10.8416H121.227V7.1687H108.04Z" fill="#101214"/>
<path d="M102.2 7.16858H96.9611L91.0001 24.3291H95.5763L96.4192 21.4389C97.4428 21.7399 98.5267 21.9206 99.6105 21.9206C100.694 21.9206 101.778 21.7399 102.802 21.4389L103.645 24.3291H108.221C108.161 24.3291 102.2 7.16858 102.2 7.16858ZM99.5503 18.3078C98.7675 18.3078 98.045 18.1874 97.3826 18.0068L99.5503 10.5405L101.718 18.0068C101.056 18.1874 100.333 18.3078 99.5503 18.3078Z" fill="#101214"/>
<path d="M146.576 7.16858H141.337L135.316 24.3291H139.892L140.735 21.4389C141.759 21.7399 142.843 21.9206 143.927 21.9206C145.01 21.9206 146.094 21.7399 147.118 21.4389L147.961 24.3291H152.537L146.576 7.16858ZM143.927 18.3078C143.144 18.3078 142.421 18.1874 141.759 18.0068L143.927 10.5405L146.094 18.0068C145.432 18.1874 144.709 18.3078 143.927 18.3078Z" fill="#101214"/>
<path d="M207.992 7.16858H202.754L196.793 24.3291H201.369L202.212 21.4389C203.236 21.7399 204.319 21.9206 205.403 21.9206C206.487 21.9206 207.571 21.7399 208.595 21.4389L209.438 24.3291H214.014L207.992 7.16858ZM205.403 18.3078C204.621 18.3078 203.898 18.1874 203.236 18.0068L205.403 10.5405L207.571 18.0068C206.909 18.1874 206.126 18.3078 205.403 18.3078Z" fill="#101214"/>
<path d="M0 18.75C0 8.39466 8.39466 0 18.75 0H56.25C66.6053 0 75 8.39466 75 18.75V56.25C75 66.6053 66.6053 75 56.25 75H18.75C8.39466 75 0 66.6053 0 56.25V18.75Z" fill="#1868DB"/>
<g clip-path="url(#clip0_1_5463)">
<path d="M28.0431 48.5107H23.8171C17.4436 48.5107 12.8712 44.6068 12.8712 38.8904H35.5944C36.7721 38.8904 37.5341 39.7269 37.5341 40.9121V63.7778C31.8533 63.7778 28.0431 59.1767 28.0431 52.7632V48.5107ZM39.2661 37.1476H35.0401C28.6666 37.1476 24.0942 33.3134 24.0942 27.597H46.8174C47.9951 27.597 48.8264 28.3638 48.8264 29.5489V52.4146C43.1456 52.4146 39.2661 47.8136 39.2661 41.4001V37.1476ZM50.5584 25.8542H46.3324C39.9589 25.8542 35.3865 21.9503 35.3865 16.2338H58.1097C59.2874 16.2338 60.0494 17.0704 60.0494 18.1858V41.0515C54.3687 41.0515 50.5584 36.4505 50.5584 30.0369V25.8542Z" fill="white"/>
</g>
<defs>
<clipPath id="clip0_1_5463">
<rect width="47.1782" height="47.5439" fill="white" transform="translate(12.8712 16.2346)"/>
</clipPath>
</defs>
</svg>
