<svg width="141" height="164" viewBox="0 0 141 164" fill="none" xmlns="http://www.w3.org/2000/svg">
<path d="M83.7924 142.5C83.7924 148.02 86.0004 150.78 90.0944 150.78C93.6364 150.78 96.8104 148.526 96.8104 143.42V141.58C96.8104 136.474 93.9124 134.22 90.5544 134.22C86.0924 134.22 83.7924 137.164 83.7924 142.5ZM96.8104 154V149.86C95.3384 152.896 92.5784 154.46 89.0364 154.46C82.9184 154.46 79.8364 149.262 79.8364 142.5C79.8364 136.014 83.0564 130.54 89.4964 130.54C92.8544 130.54 95.4304 132.058 96.8104 135.048V131H100.766V154H96.8104Z" fill="white"/>
<path d="M70.1213 140.43V154H66.2573V131H70.1213V135.048C71.4553 132.334 73.7553 130.402 78.2633 130.678V134.542C73.2033 134.036 70.1213 135.554 70.1213 140.43Z" fill="white"/>
<path d="M55.5938 124.928C55.5938 123.18 56.7438 122.168 58.3538 122.168C59.9638 122.168 61.1138 123.18 61.1138 124.928C61.1138 126.676 59.9638 127.688 58.3538 127.688C56.7438 127.688 55.5938 126.676 55.5938 124.928ZM56.3298 154V131H60.2858V154H56.3298Z" fill="white"/>
<path d="M46.6878 145.076V123.778H50.8278V144.8C50.8278 150.366 48.3898 154.184 42.6858 154.184C40.5238 154.184 38.8678 153.816 37.7178 153.402V149.4C38.9598 149.906 40.4778 150.182 41.9958 150.182C45.4918 150.182 46.6878 148.066 46.6878 145.076Z" fill="white"/>
<path d="M64.1862 95.9857C64.1862 98.5147 65.3302 100.502 69.9666 101.405C72.6761 102.007 73.2782 102.428 73.2782 103.332C73.2782 104.235 72.6761 104.777 70.7493 104.777C68.5215 104.777 65.8721 103.994 64.126 102.97V107.065C65.5109 107.727 67.3172 108.51 70.7493 108.51C75.5663 108.51 77.4329 106.342 77.4329 103.211M77.4329 103.271C77.4329 100.261 75.8674 98.8759 71.3514 97.9125C68.8827 97.3706 68.2806 96.8287 68.2806 96.046C68.2806 95.0826 69.1838 94.6611 70.8095 94.6611C72.7965 94.6611 74.7233 95.2632 76.5899 96.1062V92.1924C75.2653 91.53 73.2782 91.0483 70.93 91.0483C66.4743 91.0483 64.1862 92.9751 64.1862 96.1062" fill="white"/>
<path d="M125.844 91.1685V108.329H129.517V95.2629L131.022 98.695L136.2 108.329H140.776V91.1685H137.164V102.248L135.779 98.9961L131.624 91.1685H125.844Z" fill="white"/>
<path d="M102.602 91.1685H98.6279V108.329H102.602V91.1685Z" fill="white"/>
<path d="M94.0515 103.211C94.0515 100.2 92.486 98.8154 87.9701 97.852C85.5014 97.3101 84.8993 96.7682 84.8993 95.9854C84.8993 95.022 85.8025 94.6005 87.4282 94.6005C89.4152 94.6005 91.342 95.2027 93.2086 96.0456V92.1318C91.8839 91.4695 89.8969 90.9878 87.5486 90.9878C83.0929 90.9878 80.8048 92.9146 80.8048 96.0456C80.8048 98.5745 81.9489 100.562 86.5852 101.465C89.2948 102.067 89.8969 102.488 89.8969 103.392C89.8969 104.295 89.2948 104.837 87.368 104.837C85.1401 104.837 82.4908 104.054 80.7446 103.03V107.125C82.1295 107.787 83.9359 108.57 87.368 108.57C92.1247 108.57 94.0515 106.402 94.0515 103.211Z" fill="white"/>
<path d="M33.2373 91.1685V108.329H41.4262L42.6906 104.596H37.2113V91.1685H33.2373Z" fill="white"/>
<path d="M17.0405 91.1685V94.8414H21.436V108.329H25.4702V94.8414H30.227V91.1685H17.0405Z" fill="white"/>
<path d="M11.1995 91.1685H5.96101L0 108.329H4.57613L5.4191 105.439C6.44271 105.74 7.52653 105.92 8.61035 105.92C9.69418 105.92 10.778 105.74 11.8016 105.439L12.6446 108.329H17.2207C17.1605 108.329 11.1995 91.1685 11.1995 91.1685ZM8.55014 102.308C7.76738 102.308 7.04483 102.187 6.3825 102.007L8.55014 94.5403L10.7178 102.007C10.0554 102.187 9.3329 102.308 8.55014 102.308Z" fill="white"/>
<path d="M55.5756 91.1685H50.3371L44.3159 108.329H48.8921L49.735 105.439C50.7586 105.74 51.8425 105.92 52.9263 105.92C54.0101 105.92 55.0939 105.74 56.1175 105.439L56.9605 108.329H61.5366L55.5756 91.1685ZM52.9263 102.308C52.1435 102.308 51.421 102.187 50.7586 102.007L52.9263 94.5403L55.0939 102.007C54.4316 102.187 53.709 102.308 52.9263 102.308Z" fill="white"/>
<path d="M116.992 91.1685H111.754L105.793 108.329H110.369L111.212 105.439C112.236 105.74 113.319 105.92 114.403 105.92C115.487 105.92 116.571 105.74 117.595 105.439L118.438 108.329H123.014L116.992 91.1685ZM114.403 102.308C113.621 102.308 112.898 102.187 112.236 102.007L114.403 94.5403L116.571 102.007C115.909 102.187 115.126 102.308 114.403 102.308Z" fill="white"/>
<path d="M33 18.75C33 8.39466 41.3947 0 51.75 0H89.25C99.6053 0 108 8.39466 108 18.75V56.25C108 66.6053 99.6053 75 89.25 75H51.75C41.3947 75 33 66.6053 33 56.25V18.75Z" fill="#1868DB"/>
<g clip-path="url(#clip0_55714_36330)">
<path d="M61.0429 48.5103H56.817C50.4434 48.5103 45.8711 44.6064 45.8711 38.89H68.5942C69.772 38.89 70.534 39.7265 70.534 40.9116V63.7773C64.8532 63.7773 61.0429 59.1763 61.0429 52.7628V48.5103ZM72.266 37.1472H68.04C61.6664 37.1472 57.0941 33.313 57.0941 27.5965H79.8172C80.995 27.5965 81.8263 28.3634 81.8263 29.5485V52.4142C76.1455 52.4142 72.266 47.8132 72.266 41.3996V37.1472ZM83.5582 25.8537H79.3323C72.9587 25.8537 68.3864 21.9498 68.3864 16.2334H91.1095C92.2873 16.2334 93.0493 17.0699 93.0493 18.1853V41.0511C87.3685 41.0511 83.5582 36.45 83.5582 30.0365V25.8537Z" fill="white"/>
</g>
<defs>
<clipPath id="clip0_55714_36330">
<rect width="47.1782" height="47.5439" fill="white" transform="translate(45.8711 16.2344)"/>
</clipPath>
</defs>
</svg>
