<svg width="141" height="164" viewBox="0 0 141 164" fill="none" xmlns="http://www.w3.org/2000/svg">
<path d="M83.7924 142.5C83.7924 148.02 86.0004 150.78 90.0944 150.78C93.6364 150.78 96.8104 148.526 96.8104 143.42V141.58C96.8104 136.474 93.9124 134.22 90.5544 134.22C86.0924 134.22 83.7924 137.164 83.7924 142.5ZM96.8104 154V149.86C95.3384 152.896 92.5784 154.46 89.0364 154.46C82.9184 154.46 79.8364 149.262 79.8364 142.5C79.8364 136.014 83.0564 130.54 89.4964 130.54C92.8544 130.54 95.4304 132.058 96.8104 135.048V131H100.766V154H96.8104Z" fill="#101214"/>
<path d="M70.1216 140.43V154H66.2576V131H70.1216V135.048C71.4556 132.334 73.7556 130.402 78.2636 130.678V134.542C73.2036 134.036 70.1216 135.554 70.1216 140.43Z" fill="#101214"/>
<path d="M55.5938 124.928C55.5938 123.18 56.7438 122.168 58.3538 122.168C59.9638 122.168 61.1138 123.18 61.1138 124.928C61.1138 126.676 59.9638 127.688 58.3538 127.688C56.7438 127.688 55.5938 126.676 55.5938 124.928ZM56.3298 154V131H60.2858V154H56.3298Z" fill="#101214"/>
<path d="M46.6878 145.076V123.778H50.8278V144.8C50.8278 150.366 48.3898 154.184 42.6858 154.184C40.5238 154.184 38.8678 153.816 37.7178 153.402V149.4C38.9598 149.906 40.4778 150.182 41.9958 150.182C45.4918 150.182 46.6878 148.066 46.6878 145.076Z" fill="#101214"/>
<path d="M64.1862 95.9857C64.1862 98.5147 65.3302 100.502 69.9666 101.405C72.6761 102.007 73.2782 102.428 73.2782 103.332C73.2782 104.235 72.6761 104.777 70.7493 104.777C68.5215 104.777 65.8721 103.994 64.126 102.97V107.065C65.5109 107.727 67.3172 108.51 70.7493 108.51C75.5663 108.51 77.4329 106.342 77.4329 103.211M77.4329 103.271C77.4329 100.261 75.8674 98.8759 71.3514 97.9125C68.8827 97.3706 68.2806 96.8287 68.2806 96.046C68.2806 95.0826 69.1838 94.6611 70.8095 94.6611C72.7965 94.6611 74.7233 95.2632 76.5899 96.1062V92.1924C75.2653 91.53 73.2782 91.0483 70.93 91.0483C66.4743 91.0483 64.1862 92.9751 64.1862 96.1062" fill="#101214"/>
<path d="M125.844 91.1687V108.329H129.517V95.2631L131.022 98.6952L136.2 108.329H140.776V91.1687H137.164V102.248L135.779 98.9963L131.624 91.1687H125.844Z" fill="#101214"/>
<path d="M102.602 91.1687H98.6279V108.329H102.602V91.1687Z" fill="#101214"/>
<path d="M94.0515 103.211C94.0515 100.201 92.486 98.8158 87.9701 97.8524C85.5014 97.3104 84.8993 96.7685 84.8993 95.9858C84.8993 95.0224 85.8025 94.6009 87.4282 94.6009C89.4152 94.6009 91.342 95.203 93.2086 96.046V92.1322C91.8839 91.4699 89.8969 90.9882 87.5486 90.9882C83.0929 90.9882 80.8048 92.915 80.8048 96.046C80.8048 98.5749 81.9489 100.562 86.5852 101.465C89.2948 102.067 89.8969 102.489 89.8969 103.392C89.8969 104.295 89.2948 104.837 87.368 104.837C85.1401 104.837 82.4908 104.054 80.7446 103.031V107.125C82.1295 107.787 83.9359 108.57 87.368 108.57C92.1247 108.57 94.0515 106.402 94.0515 103.211Z" fill="#101214"/>
<path d="M33.2371 91.1687V108.329H41.4259L42.6904 104.596H37.2111V91.1687H33.2371Z" fill="#101214"/>
<path d="M17.0403 91.1687V94.8416H21.4358V108.329H25.47V94.8416H30.2268V91.1687H17.0403Z" fill="#101214"/>
<path d="M11.1995 91.1686H5.96101L0 108.329H4.57613L5.4191 105.439C6.44271 105.74 7.52653 105.921 8.61035 105.921C9.69418 105.921 10.778 105.74 11.8016 105.439L12.6446 108.329H17.2207C17.1605 108.329 11.1995 91.1686 11.1995 91.1686ZM8.55014 102.308C7.76738 102.308 7.04483 102.187 6.3825 102.007L8.55014 94.5405L10.7178 102.007C10.0554 102.187 9.3329 102.308 8.55014 102.308Z" fill="#101214"/>
<path d="M55.5759 91.1686H50.3374L44.3162 108.329H48.8923L49.7353 105.439C50.7589 105.74 51.8427 105.921 52.9265 105.921C54.0103 105.921 55.0942 105.74 56.1178 105.439L56.9607 108.329H61.5369L55.5759 91.1686ZM52.9265 102.308C52.1438 102.308 51.4212 102.187 50.7589 102.007L52.9265 94.5405L55.0942 102.007C54.4318 102.187 53.7093 102.308 52.9265 102.308Z" fill="#101214"/>
<path d="M116.992 91.1686H111.754L105.793 108.329H110.369L111.212 105.439C112.236 105.74 113.319 105.921 114.403 105.921C115.487 105.921 116.571 105.74 117.595 105.439L118.438 108.329H123.014L116.992 91.1686ZM114.403 102.308C113.621 102.308 112.898 102.187 112.236 102.007L114.403 94.5405L116.571 102.007C115.909 102.187 115.126 102.308 114.403 102.308Z" fill="#101214"/>
<path d="M33 18.75C33 8.39466 41.3947 0 51.75 0H89.25C99.6053 0 108 8.39466 108 18.75V56.25C108 66.6053 99.6053 75 89.25 75H51.75C41.3947 75 33 66.6053 33 56.25V18.75Z" fill="#1868DB"/>
<g clip-path="url(#clip0_1_5553)">
<path d="M61.0429 48.5107H56.817C50.4434 48.5107 45.8711 44.6068 45.8711 38.8904H68.5942C69.772 38.8904 70.534 39.7269 70.534 40.9121V63.7778C64.8532 63.7778 61.0429 59.1767 61.0429 52.7632V48.5107ZM72.266 37.1476H68.04C61.6664 37.1476 57.0941 33.3134 57.0941 27.597H79.8172C80.995 27.597 81.8263 28.3638 81.8263 29.5489V52.4146C76.1455 52.4146 72.266 47.8136 72.266 41.4001V37.1476ZM83.5582 25.8542H79.3323C72.9587 25.8542 68.3864 21.9503 68.3864 16.2338H91.1095C92.2873 16.2338 93.0493 17.0704 93.0493 18.1858V41.0515C87.3685 41.0515 83.5582 36.4505 83.5582 30.0369V25.8542Z" fill="white"/>
</g>
<defs>
<clipPath id="clip0_1_5553">
<rect width="47.1782" height="47.5439" fill="white" transform="translate(45.8711 16.2346)"/>
</clipPath>
</defs>
</svg>
