<?xml version="1.0" encoding="UTF-8" standalone="no"?>
<svg id="Layer_1" data-name="Layer 1" viewBox="0 0 368.00042 130" version="1.1" width="368" height="130" sodipodi:docname="wcag2.2AAA-path.svg" xmlns:inkscape="http://www.inkscape.org/namespaces/inkscape" xmlns:sodipodi="http://sodipodi.sourceforge.net/DTD/sodipodi-0.dtd" xmlns="http://www.w3.org/2000/svg" xmlns:svg="http://www.w3.org/2000/svg">
<sodipodi:namedview id="namedview33" pagecolor="#ffffff" bordercolor="#666666" borderopacity="1.0" inkscape:showpageshadow="2" inkscape:pageopacity="0.0" inkscape:pagecheckerboard="0" inkscape:deskcolor="#d1d1d1"/>
<defs id="defs17088"/>
<rect fill="#ffffff" width="122" height="122" x="4" y="4" id="white-bg"/>
<rect fill="#ffe19e" width="238" height="122" x="126" y="4" id="orange-bg"/>
<rect fill="#dadada" width="4" height="130" x="0" y="0" id="left-shadow"/>
<rect fill="#dadada" width="368" height="4" x="0" y="0" id="top-shadow"/>
<rect fill="#727271" width="4" height="126" x="364" y="4" id="dark-right-shadow"/>
<rect fill="#727271" width="364" height="4" x="4" y="126" id="dark-bottom-shadow"/>
<rect width="4" height="118" x="360" y="4" id="light-right-shadow" style="fill:#727271;fill-opacity:0.497013"/>
<rect width="356" height="4" x="8" y="122" id="light-bottom-shadow" style="fill:#727271;fill-opacity:0.49787673"/>
<g transform="matrix(1.671469,0,0,1.671469,11.103131,24.884224)" style="display:inline" id="W3C">
<path fill="#005a9c" d="m 2.032453,8.005453 9.53125,32.169922 h 0.396485 l 5.957031,-19.935547 5.958984,19.935547 h 0.396485 l 7.142578,-24.105469 c 1.364136,-4.603602 0.687308,-4.09375 4.757812,-4.09375 H 39.5305 l -6.636719,11.519532 h 2.664063 c 1.721607,0 3.534281,0.621234 4.488281,1.865234 0.133648,0.172602 0.253747,0.360478 0.365234,0.55664 0.02583,0.04519 0.04955,0.09224 0.07422,0.138672 0.104919,0.198597 0.202906,0.404193 0.28711,0.625 0.334699,0.878194 0.503906,1.933265 0.503906,3.167969 0,1.748 -0.384344,3.243281 -1.152344,4.488281 -0.208483,0.337699 -0.430231,0.625068 -0.664062,0.871094 -0.149564,0.157361 -0.305105,0.293883 -0.464844,0.414063 -0.01343,0.01005 -0.02751,0.01951 -0.04102,0.0293 -0.16287,0.11871 -0.328479,0.220536 -0.501953,0.300781 -0.158112,0.07314 -0.323214,0.125 -0.490234,0.166015 -0.04266,0.01039 -0.08568,0.01904 -0.128907,0.02734 -0.171803,0.03328 -0.346243,0.05664 -0.527343,0.05664 -0.0081,0 -0.01537,-0.0019 -0.02344,-0.002 -0.0081,-4.1e-5 -0.01539,-0.0019 -0.02344,-0.002 -0.0041,-3.9e-5 -0.0078,-0.0015 -0.01172,-0.002 -0.0094,-1.18e-4 -0.01799,-0.0018 -0.02734,-0.002 -0.238184,-0.0043 -0.471291,-0.0224 -0.695312,-0.0625 -0.0013,-2.26e-4 -0.0027,2.27e-4 -0.0039,0 -0.06129,-0.01103 -0.117505,-0.03511 -0.177734,-0.04883 -0.01254,-0.0028 -0.02493,-0.0059 -0.03711,-0.0098 -0.01528,-0.0037 -0.02971,-0.0098 -0.04492,-0.01367 -0.152838,-0.03546 -0.306311,-0.06965 -0.451172,-0.125 -0.228292,-0.08723 -0.447099,-0.195603 -0.658203,-0.326172 C 34.94049,35.478399 34.737935,35.326101 34.544172,35.151938 34.12993,34.701856 33.817992,34.190231 33.487531,33.691 h -4.054687 c 0.274888,0.816985 0.616402,1.555996 1.009765,2.234375 l -0.01172,0.02148 c 0.04254,0.07684 0.09949,0.148778 0.146484,0.22461 0.280031,0.454876 0.581602,0.886262 0.917969,1.27539 0.299571,0.346562 0.620593,0.666438 0.964844,0.960938 0.171266,0.146622 0.346692,0.28372 0.52539,0.412109 0,0 0.002,0.002 0.002,0.002 0.177989,0.127783 0.35957,0.245774 0.544922,0.355469 0.115046,0.06809 0.233683,0.126384 0.351563,0.1875 0.01577,0.0082 0.03106,0.01734 0.04687,0.02539 0.05701,0.03134 0.113495,0.06405 0.171875,0.0918 0.0018,8.68e-4 0.004,0.0011 0.0059,0.002 0.191896,0.09099 0.386651,0.17313 0.585937,0.246093 0.0027,10e-4 0.0051,0.0029 0.0078,0.0039 0,0 0.002,0 0.002,0 0.19779,0.07217 0.398564,0.134947 0.603516,0.189453 0.004,0.0011 0.0077,0.0029 0.01172,0.0039 0,0 0.002,0 0.002,0 0.20397,0.05382 0.412003,0.09842 0.623046,0.134766 0.0051,8.82e-4 0.01049,0.0011 0.01563,0.002 0.188465,0.03187 0.380106,0.05416 0.574218,0.07227 0.0046,4.32e-4 0.009,0.0015 0.01367,0.002 0.0071,0.0014 0.01417,0.0032 0.02148,0.0039 0.01093,0.0019 0.02197,0.0029 0.0332,0.0039 0,0 0.002,0 0.002,0 0.0053,4.46e-4 0.01031,0.0015 0.01563,0.002 0,0 0.002,0 0.002,0 0.116936,0.0096 0.238074,0.0091 0.357422,0.01367 0.02479,9.55e-4 0.04934,0.0032 0.07422,0.0039 0.0156,8.44e-4 0.03113,0.0016 0.04687,0.002 0.06026,0.0036 0.120272,0.0077 0.181641,0.0078 0.0079,2.2e-5 0.0155,0 0.02344,0 0.178244,0 0.34802,-0.01694 0.521484,-0.02734 v -0.0098 c 0.186606,-0.01341 0.378263,-0.0155 0.560547,-0.03906 0.02559,-0.0035 0.05069,-0.0079 0.07617,-0.01172 0.342257,-0.04769 0.6738,-0.119812 0.996094,-0.210937 1.50249,-0.424817 2.793149,-1.310157 3.861328,-2.679688 1.549,-1.986 2.324218,-4.434656 2.324218,-7.347656 0,-2.356 -0.530843,-4.407297 -1.589843,-6.154297 -0.804245,-1.326738 -1.898881,-2.339405 -3.283203,-3.041015 -0.04289,-0.02175 -0.08941,-0.03939 -0.132813,-0.06055 -0.178828,-0.087 -0.358606,-0.17317 -0.546875,-0.25 -0.233487,-0.09575 -0.473854,-0.183791 -0.722656,-0.263672 2.324763,-4.025522 4.690291,-8.027757 6.978515,-12.074219 H 33.805891 c -3.624299,0 -4.352809,0.6176449 -5.611329,4.896485 L 23.876203,27.585531 18.116438,8.005453 h -4.167969 l 0.953125,3.199219 c 0.794004,2.664306 0.723496,3.97222 -0.02148,6.49414 L 11.960188,27.585531 6.2023749,8.005453 Z" id="path17072"/>
<path d="m 61.807,7.8249999 0.338,2.0535 C 62.460497,11.795283 62.1396,12.589153 61.2875,14.2195 L 60.092,16.507 c 0,0 -0.918,-1.941 -2.443,-3.015 -1.285,-0.905 -2.122,-1.102 -3.431,-0.832 -1.681,0.347 -3.587,2.357 -4.419,4.835 -0.995,2.965 -1.005,4.4 -1.04,5.718 -0.056,2.113 0.277,3.362 0.277,3.362 0,0 -1.451,-2.686 -1.438,-6.62 0.009,-2.808 0.451,-5.354 1.75,-7.867 1.143,-2.2090001 2.842,-3.5350001 4.35,-3.6910001 1.559,-0.161 2.791,0.59 3.743,1.404 C 58.44,10.655 59.451,12.521 59.451,12.521 Z" id="path17074"/>
<path d="m 62.102,31.063 c 0,0 -1.057,1.889 -1.715,2.617 -0.659,0.728 -1.837,2.01 -3.292,2.651 -1.456,0.641 -2.218,0.762 -3.656,0.624 -1.437,-0.138 -2.773,-0.97 -3.241,-1.317 -0.468,-0.347 -1.664,-1.369 -2.339,-2.322 -0.676,-0.954 -1.733,-2.859 -1.733,-2.859 0,0 0.589,1.911 0.958,2.721 0.212,0.466 0.864,1.894 1.79,3.136 0.862,1.159 2.539,3.154 5.086,3.604 2.547,0.451 4.297,-0.693 4.73,-0.971 0.433,-0.277 1.432309,-0.93042 2.010243,-1.548482 0.603066,-0.644938 0.923083,-1.107393 1.325111,-1.920775 0.292057,-0.590889 0.544763,-1.977304 0.381146,-2.829243 z" id="path17076"/>
</g>
<g aria-label="WAI-AAA" id="WAI-AAA" style="font-weight:bold;font-size:42.6667px;font-family:'Noto Sans';-inkscape-font-specification:'Noto Sans Bold';text-align:end;letter-spacing:0px;text-anchor:end;fill:#1d1d1b">
<path d="m 200.70144,31.416856 -7.76534,30.464022 h -7.33867 l -4.13867,-16.000011 q -0.128,-0.469334 -0.34134,-1.408002 -0.17066,-0.938667 -0.42666,-2.048001 -0.21334,-1.109334 -0.384,-2.090668 -0.17067,-1.024001 -0.25601,-1.578668 -0.0427,0.554667 -0.256,1.578668 -0.17066,0.981334 -0.384,2.090668 -0.21333,1.066667 -0.42666,2.048001 -0.21334,0.938668 -0.34134,1.450668 l -4.096,15.957345 h -7.33867 l -7.76534,-30.464022 h 6.35734 l 3.88267,16.640012 q 0.256,0.981334 0.55466,2.474669 0.29867,1.493334 0.55467,2.986669 0.256,1.493334 0.384,2.517335 0.128,-1.066668 0.384,-2.517335 0.256,-1.493335 0.512,-2.858669 0.29867,-1.408001 0.512,-2.176002 l 4.43734,-17.066679 h 6.10134 l 4.43733,17.066679 q 0.21334,0.725334 0.46934,2.133335 0.29866,1.408001 0.55466,2.901336 0.256,1.493334 0.384,2.517335 0.128,-1.066668 0.38401,-2.517335 0.256,-1.493335 0.55466,-2.986669 0.34134,-1.493335 0.55467,-2.474669 l 3.88267,-16.640012 z" id="path23"/>
<path d="m 221.48012,61.880878 -2.21867,-7.253338 h -11.09334 l -2.21867,7.253338 h -6.95467 l 10.75201,-30.592022 h 7.89334 l 10.79467,30.592022 z m -5.97334,-19.754681 q -0.21333,-0.725334 -0.55466,-1.834668 -0.34134,-1.109334 -0.68267,-2.261335 -0.34133,-1.152001 -0.55467,-2.005335 -0.21333,0.853334 -0.59733,2.133335 -0.34133,1.237334 -0.68267,2.389335 -0.29866,1.109334 -0.46933,1.578668 l -2.176,7.082672 h 7.936 z" id="path25"/>
<path d="m 243.66683,61.880878 h -13.86668 v -3.669336 l 3.71201,-1.706668 V 36.79286 l -3.71201,-1.706668 v -3.669336 h 13.86668 v 3.669336 l -3.712,1.706668 v 19.712014 l 3.712,1.706668 z" id="path27"/>
<path d="m 246.31216,53.048872 v -5.205337 h 11.17867 v 5.205337 z" id="path29"/>
<path d="M 281.25621,61.880878 279.03754,54.62754 H 267.9442 l -2.21867,7.253338 h -6.95467 l 10.752,-30.592022 h 7.89334 l 10.79468,30.592022 z m -5.97334,-19.754681 q -0.21333,-0.725334 -0.55467,-1.834668 -0.34133,-1.109334 -0.68267,-2.261335 -0.34133,-1.152001 -0.55466,-2.005335 -0.21334,0.853334 -0.59734,2.133335 -0.34133,1.237334 -0.68266,2.389335 -0.29867,1.109334 -0.46934,1.578668 l -2.176,7.082672 h 7.93601 z" style="letter-spacing:1.4px;fill:#901a16" id="path31"/>
<path d="m 312.09626,61.880878 -2.21867,-7.253338 h -11.09334 l -2.21867,7.253338 h -6.95467 l 10.752,-30.592022 h 7.89334 l 10.79468,30.592022 z m -5.97334,-19.754681 q -0.21333,-0.725334 -0.55467,-1.834668 -0.34133,-1.109334 -0.68267,-2.261335 -0.34133,-1.152001 -0.55466,-2.005335 -0.21334,0.853334 -0.59734,2.133335 -0.34133,1.237334 -0.68266,2.389335 -0.29867,1.109334 -0.46934,1.578668 l -2.176,7.082672 h 7.93601 z" style="letter-spacing:1.4px;fill:#901a16" id="path33"/>
<path d="m 342.9363,61.880878 -2.21867,-7.253338 h -11.09334 l -2.21867,7.253338 h -6.95467 l 10.75201,-30.592022 h 7.89334 l 10.79467,30.592022 z m -5.97334,-19.754681 q -0.21333,-0.725334 -0.55467,-1.834668 -0.34133,-1.109334 -0.68266,-2.261335 -0.34134,-1.152001 -0.55467,-2.005335 -0.21333,0.853334 -0.59733,2.133335 -0.34134,1.237334 -0.68267,2.389335 -0.29867,1.109334 -0.46933,1.578668 l -2.17601,7.082672 h 7.93601 z" style="letter-spacing:1.4px;fill:#901a16" id="path35"/>
</g>
<g aria-label="WCAG 2.2" id="WCAG-2.2" style="font-weight:bold;font-size:42.6667px;font-family:'Noto Sans';-inkscape-font-specification:'Noto Sans Bold';text-align:end;letter-spacing:0px;text-anchor:end;fill:#1d1d1b">
<path d="m 193.00545,79.692464 -7.76534,30.464026 h -7.33868 l -4.13866,-16.000015 q -0.128,-0.469334 -0.34134,-1.408001 -0.17067,-0.938668 -0.42667,-2.048002 -0.21333,-1.109334 -0.384,-2.090668 -0.17066,-1.024001 -0.256,-1.578668 -0.0427,0.554667 -0.256,1.578668 -0.17066,0.981334 -0.384,2.090668 -0.21333,1.066667 -0.42666,2.048002 -0.21334,0.938667 -0.34134,1.450667 l -4.096,15.957349 h -7.33867 l -7.76534,-30.464026 h 6.35734 l 3.88267,16.640012 q 0.256,0.981334 0.55466,2.474669 0.29867,1.493335 0.55467,2.986665 0.256,1.49334 0.384,2.51734 0.128,-1.06667 0.384,-2.51734 0.256,-1.49333 0.512,-2.858665 0.29867,-1.408001 0.512,-2.176002 l 4.43734,-17.066679 h 6.10134 l 4.43733,17.066679 q 0.21334,0.725334 0.46934,2.133335 0.29866,1.408002 0.55466,2.901332 0.256,1.49334 0.384,2.51734 0.128,-1.06667 0.384,-2.51734 0.256,-1.49333 0.55467,-2.986665 0.34133,-1.493335 0.55467,-2.474669 l 3.88267,-16.640012 z" id="path38"/>
<path d="m 209.34682,84.641801 q -3.712,0 -5.67467,2.773335 -1.96267,2.773336 -1.96267,7.594673 0,4.864003 1.79201,7.552001 1.83466,2.64534 5.84533,2.64534 1.87734,0 3.71201,-0.42667 1.87733,-0.42666 4.05333,-1.19467 v 5.41868 q -2.00533,0.81066 -3.968,1.19466 -1.96267,0.384 -4.39467,0.384 -4.69334,0 -7.76534,-1.92 -3.02934,-1.96267 -4.48,-5.46134 -1.45067,-3.541331 -1.45067,-8.234668 0,-4.608004 1.664,-8.14934 1.664,-3.541336 4.82134,-5.54667 3.2,-2.005335 7.808,-2.005335 2.26134,0 4.52267,0.597334 2.304,0.554667 4.39467,1.536001 l -2.09067,5.248004 q -1.70666,-0.810668 -3.456,-1.408001 -1.70667,-0.597334 -3.37067,-0.597334 z" id="path40"/>
<path d="m 242.24281,110.15649 -2.21867,-7.25334 H 228.9308 l -2.21867,7.25334 h -6.95467 l 10.75201,-30.592026 h 7.89334 l 10.79467,30.592026 z m -5.97334,-19.754685 q -0.21333,-0.725334 -0.55466,-1.834668 -0.34134,-1.109334 -0.68267,-2.261335 -0.34134,-1.152001 -0.55467,-2.005335 -0.21333,0.853334 -0.59733,2.133335 -0.34134,1.237334 -0.68267,2.389335 -0.29867,1.109334 -0.46933,1.578668 l -2.176,7.082672 h 7.936 z" id="path42"/>
<path d="m 263.74683,93.04714 h 12.07468 v 15.78668 q -2.38934,0.81067 -4.99201,1.28 -2.56,0.46933 -5.84533,0.46933 -6.82668,0 -10.49601,-4.01067 -3.66934,-4.01067 -3.66934,-11.690672 0,-4.77867 1.83467,-8.277339 1.87733,-3.498669 5.41867,-5.418671 3.54134,-1.920001 8.66134,-1.920001 2.432,0 4.77867,0.512 2.34667,0.512001 4.26667,1.365335 l -2.13333,5.16267 q -1.40801,-0.725334 -3.20001,-1.194667 -1.792,-0.469334 -3.75467,-0.469334 -2.816,0 -4.90667,1.280001 -2.048,1.280001 -3.2,3.626669 -1.10933,2.304002 -1.10933,5.461338 0,2.986668 0.81066,5.290671 0.81067,2.304 2.56001,3.62667 1.74933,1.28 4.56533,1.28 1.36534,0 2.304,-0.128 0.98134,-0.128 1.79201,-0.29867 v -6.357336 h -5.76001 z" id="path44"/>
<path d="M 313.32558,110.15649 H 292.0349 v -4.48001 l 7.63734,-7.722669 q 2.304,-2.389335 3.712,-3.968003 1.408,-1.621335 2.048,-2.901336 0.64,-1.322667 0.64,-2.816002 0,-1.834668 -1.024,-2.730668 -0.98133,-0.896001 -2.688,-0.896001 -1.74934,0 -3.41334,0.810667 -1.664,0.810667 -3.49867,2.304002 l -3.49866,-4.13867 q 1.32266,-1.152001 2.77333,-2.133335 1.49334,-0.981334 3.41334,-1.578668 1.96266,-0.64 4.69333,-0.64 2.98667,0 5.12001,1.109334 2.176,1.066667 3.328,2.944002 1.19467,1.834668 1.19467,4.181337 0,2.517335 -1.024,4.608003 -0.98134,2.090668 -2.90134,4.13867 -1.87733,2.048001 -4.56534,4.522667 l -3.92533,3.66934 v 0.29867 h 13.26934 z" id="path46"/>
<path d="m 317.16561,107.16982 q 0,-1.96267 1.06667,-2.73067 1.06667,-0.81067 2.60267,-0.81067 1.49333,0 2.56,0.81067 1.06667,0.768 1.06667,2.73067 0,1.87733 -1.06667,2.73067 -1.06667,0.81066 -2.56,0.81066 -1.536,0 -2.60267,-0.81066 -1.06667,-0.85334 -1.06667,-2.73067 z" id="path48"/>
<path d="m 349.89097,110.15649 h -21.29069 v -4.48001 l 7.63734,-7.722669 q 2.304,-2.389335 3.712,-3.968003 1.40801,-1.621335 2.04801,-2.901336 0.64,-1.322667 0.64,-2.816002 0,-1.834668 -1.024,-2.730668 -0.98134,-0.896001 -2.68801,-0.896001 -1.74933,0 -3.41333,0.810667 -1.664,0.810667 -3.49867,2.304002 l -3.49867,-4.13867 q 1.32267,-1.152001 2.77333,-2.133335 1.49334,-0.981334 3.41334,-1.578668 1.96267,-0.64 4.69334,-0.64 2.98667,0 5.12,1.109334 2.176,1.066667 3.328,2.944002 1.19467,1.834668 1.19467,4.181337 0,2.517335 -1.024,4.608003 -0.98133,2.090668 -2.90134,4.13867 -1.87733,2.048001 -4.56533,4.522667 l -3.92534,3.66934 v 0.29867 h 13.26935 z" id="path50"/>
</g>
</svg>