<!-- Generated by IcoMoon.io -->
<svg version="1.1" xmlns="http://www.w3.org/2000/svg" width="64" height="64" viewBox="0 0 64 64" fill="#ffffff">
<path d="M17.091 60.609c-0.279 0-0.65-0.186-0.743-0.464l-5.016-7.895-6.502-5.202c-0.186-0.186-0.372-0.464-0.372-0.743v-5.294l-4.18-4.366c-0.186-0.186-0.279-0.464-0.279-0.65v-7.617c0-0.186 0.093-0.464 0.279-0.65l4.18-4.366v-5.109c0-0.279 0.186-0.557 0.372-0.743l6.502-5.387c5.294-5.387 12.539-8.731 20.62-8.731 8.174 0 15.419 3.344 20.713 8.731l6.502 5.387c0.186 0.186 0.372 0.464 0.372 0.743v5.109l4.18 4.366c0.186 0.186 0.279 0.464 0.279 0.65v7.617c0 0.186-0.093 0.464-0.279 0.65l-4.18 4.366v5.294c0 0.279-0.186 0.557-0.372 0.743l-6.502 5.202-5.016 7.895c-0.093 0.279-0.464 0.464-0.743 0.464h-29.816zM31.767 50.298c4.18 0 12.075-0.557 12.075-8.267v-12.725c0-0.186 0.093-0.464 0.186-0.557l6.873-8.36 0.279-0.186v-6.966c-4.923-4.923-11.796-7.988-19.227-7.988-7.338 0-14.211 3.065-19.134 7.988v7.338l6.688 8.174c0.093 0.093 0.186 0.372 0.186 0.557v12.725c0 7.709 7.895 8.267 12.075 8.267zM43.192 21.504c0 7.616-5.202 13.561-11.239 13.561s-11.239-5.945-11.239-13.561 5.201-13.561 11.239-13.561 11.239 5.945 11.239 13.561zM22.572 21.504c0 6.316 4.087 11.703 9.381 11.703s9.381-5.387 9.381-11.703-4.087-11.703-9.381-11.703-9.381 5.387-9.381 11.703zM31.953 29.121c-3.901 0-7.152-3.715-7.152-8.545s3.251-8.545 7.152-8.545 7.152 3.715 7.152 8.545-3.251 8.545-7.152 8.545zM31.953 27.263c2.972 0 5.294-3.158 5.294-6.688s-2.322-6.688-5.294-6.688-5.294 3.158-5.294 6.688 2.322 6.688 5.294 6.688zM10.961 49.555v-34.739l-4.644 3.901v27.122zM53.038 49.555l4.644-3.715v-27.122l-4.644-3.901v34.739zM17.834 42.032v-12.354l-5.016-6.13v27.772l4.737 7.431h28.887l4.737-7.431v-28.33l-5.48 6.688v12.354c0 8.824-8.824 10.124-13.933 10.124s-13.933-1.3-13.933-10.124zM4.459 38.316v-12.261l-2.601 2.694v6.873zM59.54 38.316l2.601-2.694v-6.873l-2.601-2.694v12.261zM41.613 37.759c0 0.464-0.464 0.929-0.929 0.929h-17.741c-0.464 0-0.929-0.464-0.929-0.929s0.464-0.929 0.929-0.929h17.741c0.464 0 0.929 0.464 0.929 0.929zM33.625 42.125c0.929 0 1.579 0.65 1.579 1.672 0 0.929-0.65 1.579-1.579 1.579-0.836 0-1.672-0.65-1.672-1.579 0-1.022 0.836-1.672 1.672-1.672zM46.071 49.927c0.929 0 1.579 0.65 1.579 1.672 0 0.929-0.65 1.579-1.579 1.579-0.836 0-1.672-0.65-1.672-1.579 0-1.022 0.836-1.672 1.672-1.672zM19.321 51.599c0 0.929-0.65 1.579-1.579 1.579-0.836 0-1.672-0.65-1.672-1.579 0-1.022 0.836-1.672 1.672-1.672 0.929 0 1.579 0.65 1.579 1.672z"></path>
</svg>
