<!-- Generated by IcoMoon.io -->
<svg version="1.1" xmlns="http://www.w3.org/2000/svg" width="64" height="64" viewBox="0 0 64 64">
<path d="M23.79 46.14c0 0.2-0.23 0.36-0.52 0.36-0.33 0.030-0.56-0.13-0.56-0.36 0-0.2 0.23-0.36 0.52-0.36 0.3-0.030 0.56 0.13 0.56 0.36zM20.68 45.69c-0.070 0.2 0.13 0.43 0.43 0.49 0.26 0.1 0.56 0 0.62-0.2s-0.13-0.43-0.43-0.52c-0.26-0.070-0.55 0.030-0.62 0.23zM25.1 45.52c-0.29 0.070-0.49 0.26-0.46 0.49 0.030 0.2 0.29 0.33 0.59 0.26 0.29-0.070 0.49-0.26 0.46-0.46-0.030-0.19-0.3-0.32-0.59-0.29zM31.68 7.2c-13.87 0-24.48 10.53-24.48 24.4 0 11.090 6.98 20.58 16.95 23.92 1.28 0.23 1.73-0.56 1.73-1.21 0-0.62-0.030-4.040-0.030-6.14 0 0-7 1.5-8.47-2.98 0 0-1.14-2.91-2.78-3.66 0 0-2.29-1.57 0.16-1.54 0 0 2.49 0.2 3.86 2.58 2.19 3.86 5.86 2.75 7.29 2.090 0.23-1.6 0.88-2.71 1.6-3.37-5.59-0.62-11.23-1.43-11.23-11.050 0-2.75 0.76-4.13 2.36-5.89-0.26-0.65-1.11-3.33 0.26-6.79 2.090-0.65 6.9 2.7 6.9 2.7 2-0.56 4.15-0.85 6.28-0.85s4.28 0.29 6.28 0.85c0 0 4.81-3.36 6.9-2.7 1.37 3.47 0.52 6.14 0.26 6.79 1.6 1.77 2.58 3.15 2.58 5.89 0 9.65-5.89 10.42-11.48 11.050 0.92 0.79 1.7 2.29 1.7 4.64 0 3.37-0.030 7.54-0.030 8.36 0 0.65 0.46 1.44 1.73 1.21 10-3.32 16.78-12.81 16.78-23.9 0-13.87-11.25-24.4-25.12-24.4zM16.92 41.69c-0.13 0.1-0.1 0.33 0.070 0.52 0.16 0.16 0.39 0.23 0.52 0.1 0.13-0.1 0.1-0.33-0.070-0.52-0.16-0.16-0.39-0.23-0.52-0.1zM15.84 40.88c-0.070 0.13 0.030 0.29 0.23 0.39 0.16 0.1 0.36 0.070 0.43-0.070 0.070-0.13-0.030-0.29-0.23-0.39-0.2-0.060-0.36-0.030-0.43 0.070zM19.080 44.44c-0.16 0.13-0.1 0.43 0.13 0.62 0.23 0.23 0.52 0.26 0.65 0.1 0.13-0.13 0.070-0.43-0.13-0.62-0.22-0.23-0.52-0.26-0.65-0.1zM17.94 42.97c-0.16 0.1-0.16 0.36 0 0.59s0.43 0.33 0.56 0.23c0.16-0.13 0.16-0.39 0-0.62-0.14-0.23-0.4-0.33-0.56-0.2z"></path>
</svg>
