<!-- Generated by IcoMoon.io -->
<svg version="1.1" xmlns="http://www.w3.org/2000/svg" width="64" height="64" viewBox="0 0 64 64">
<path d="M26.61 39.27c0 2.090-1.090 5.51-3.67 5.51s-3.67-3.42-3.67-5.51c0-2.090 1.090-5.51 3.67-5.51s3.67 3.42 3.67 5.51zM56 34.22c0 3.19-0.32 6.57-1.75 9.5-3.79 7.66-14.21 7.48-21.67 7.48-7.58 0-18.62 0.27-22.56-7.48-1.46-2.9-2.020-6.31-2.020-9.5 0-4.19 1.39-8.15 4.15-11.36-0.52-1.58-0.77-3.24-0.77-4.88 0-2.15 0.49-3.23 1.46-5.18 4.53 0 7.43 0.9 10.88 3.6 2.9-0.69 5.88-1 8.87-1 2.7 0 5.42 0.29 8.040 0.92 3.4-2.67 6.3-3.52 10.78-3.52 0.98 1.95 1.46 3.030 1.46 5.18 0 1.64-0.26 3.27-0.77 4.82 2.75 3.24 3.9 7.23 3.9 11.42zM49.57 39.27c0-4.39-2.67-8.26-7.35-8.26-1.89 0-3.7 0.34-5.6 0.6-1.49 0.23-2.98 0.32-4.51 0.32-1.52 0-3.010-0.090-4.51-0.32-1.87-0.26-3.7-0.6-5.6-0.6-4.68 0-7.35 3.87-7.35 8.26 0 8.78 8.040 10.13 15.040 10.13h4.82c7.030 0 15.060-1.34 15.060-10.13zM41.31 33.76c-2.58 0-3.67 3.42-3.67 5.51s1.090 5.51 3.67 5.51c2.58 0 3.67-3.42 3.67-5.51s-1.090-5.51-3.67-5.51z"></path>
</svg>
