<!-- Generated by IcoMoon.io -->
<svg version="1.1" xmlns="http://www.w3.org/2000/svg" width="64" height="64" viewBox="0 0 64 64">
<path d="M54.078 13.796c-0.15 0.076-0.808 0.528-1.464 1.010s-1.556 1.144-2.004 1.47c-0.72 0.528-1.452 1.062-2.468 1.806-0.668 0.494-0.934 0.686-2.090 1.534-1.986 1.452-3.45 2.52-3.6 2.63-0.082 0.064-0.272 0.204-0.43 0.314l-0.278 0.198-0.39-0.51c-1.614-2.138-3.874-3.902-6.336-4.96-0.208-0.088-0.43-0.18-0.494-0.208-0.168-0.076-1.294-0.458-1.44-0.494-0.070-0.012-0.326-0.076-0.564-0.14-0.238-0.070-0.552-0.14-0.696-0.156s-0.278-0.046-0.296-0.058c-0.018-0.006-0.162-0.034-0.32-0.058-0.156-0.018-0.33-0.046-0.384-0.052-0.088-0.018-0.47-0.058-1.062-0.116-0.342-0.034-2.038-0.030-2.41 0-0.174 0.018-0.436 0.040-0.58 0.052-0.458 0.046-0.9 0.098-0.982 0.128-0.046 0.018-0.174 0.040-0.29 0.058-0.824 0.122-2.172 0.506-3.084 0.876-2.096 0.848-3.878 2.016-5.406 3.554-0.522 0.522-0.76 0.796-1.3 1.47-0.046 0.052-0.226 0.314-0.412 0.58l-0.33 0.482-4.738 0.006c-4.622 0.006-4.976 0.018-5.638 0.134-0.552 0.104-0.644 0.122-1.010 0.25-1.452 0.494-2.538 1.602-2.904 2.956-0.064 0.22-0.082 0.552-0.070 1.126 0.040 1.84 0.448 2.59 1.962 3.612 2.132 1.44 4.030 2.258 8.566 3.704l0.476 0.15-0.778 0.784-0.784 0.784-0.354-0.122c-1.202-0.394-2.666 0.198-3.228 1.3-0.244 0.482-0.308 0.772-0.29 1.4 0.018 0.522 0.034 0.622 0.214 0.988 0.366 0.76 1.162 1.382 1.952 1.528 0.674 0.116 1.522-0.046 2.032-0.4 0.278-0.192 0.714-0.686 0.866-0.976 0.162-0.326 0.272-0.76 0.284-1.162 0.018-0.394-0.092-1.016-0.204-1.144-0.046-0.058 0.122-0.262 0.662-0.818 0.394-0.406 0.918-0.946 1.15-1.19l0.43-0.448 0.32 0.088c0.564 0.15 1.19 0.32 1.278 0.342 0.046 0.006 0.586 0.15 1.19 0.32 1.504 0.406 1.754 0.47 3.484 0.934 0.83 0.22 1.644 0.436 1.8 0.482 0.162 0.046 0.93 0.256 1.714 0.47 0.784 0.208 1.714 0.452 2.062 0.552 0.354 0.092 1.226 0.33 1.946 0.522l1.306 0.348 1.498 1.528c0.824 0.836 2.078 2.102 2.782 2.816l1.284 1.294-0.256 0.272c-0.14 0.146-0.272 0.284-0.296 0.302-0.070 0.052-0.39 0.772-0.424 0.958-0.064 0.33-0.076 0.988-0.024 1.278 0.11 0.616 0.58 1.3 1.168 1.702 0.772 0.522 1.968 0.586 2.788 0.146 0.632-0.342 1.178-1.080 1.324-1.8 0.070-0.314 0.052-1.074-0.024-1.428-0.156-0.692-0.598-1.294-1.162-1.568-0.174-0.088-0.354-0.156-0.4-0.156s-0.098-0.034-0.11-0.070c-0.012-0.040-0.018-1.26-0.018-2.712l0.006-2.642 0.168-0.046c0.092-0.024 0.262-0.058 0.378-0.076 0.11-0.018 0.244-0.040 0.29-0.058 0.046-0.012 0.15-0.034 0.232-0.052 0.082-0.012 0.458-0.092 0.842-0.18s0.754-0.168 0.83-0.18c0.076-0.018 0.442-0.092 0.812-0.174s0.796-0.168 0.94-0.198c0.146-0.030 0.326-0.070 0.406-0.082 0.082-0.018 0.314-0.070 0.522-0.116 0.598-0.14 1.986-0.436 2.19-0.47 0.104-0.018 0.366-0.070 0.58-0.122 0.22-0.052 0.458-0.104 0.54-0.116 0.082-0.018 0.436-0.092 0.784-0.174 0.354-0.076 0.72-0.156 0.812-0.174 0.098-0.018 0.418-0.082 0.72-0.146 0.296-0.064 0.586-0.128 0.644-0.14 0.098-0.018 1.156-0.25 1.336-0.29 0.046-0.012 0.534-0.116 1.074-0.232 0.546-0.116 1.028-0.22 1.074-0.232 0.052-0.012 0.598-0.128 1.22-0.256 2.398-0.512 2.416-0.516 2.608-0.738 0.214-0.244 0.232-0.302 0.558-2.084 0.146-0.802 0.272-1.51 0.29-1.586l0.030-0.128h3.054c3.374 0 3.316 0.006 3.536-0.366 0.11-0.18 0.116-0.384 0.11-8.576 0-9.174 0.024-8.588-0.33-8.85-0.162-0.122-0.198-0.122-4.43-0.128l-4.262-0.006-0.278 0.128zM61.488 15.444l0.128 0.006-0.012 7.184-0.018 7.188-2.938 0.006c-2.81 0-2.95 0.006-3.136 0.116-0.104 0.064-0.238 0.192-0.296 0.284-0.082 0.146-0.25 0.808-0.36 1.422-0.012 0.082-0.092 0.47-0.18 0.872s-0.186 0.888-0.22 1.086c-0.040 0.238-0.092 0.372-0.156 0.39-0.088 0.030-1.58 0.348-1.858 0.406-0.082 0.012-0.522 0.11-0.988 0.208s-0.894 0.192-0.958 0.208c-0.064 0.012-0.244 0.046-0.406 0.082-0.156 0.034-0.342 0.070-0.406 0.082s-0.418 0.088-0.784 0.174c-0.366 0.082-0.732 0.156-0.812 0.174-0.082 0.012-0.638 0.134-1.248 0.268-0.604 0.134-1.162 0.256-1.236 0.268-0.076 0.018-1.174 0.25-2.438 0.522s-2.37 0.512-2.45 0.522c-0.082 0.012-0.326 0.064-0.552 0.116-0.5 0.11-0.598 0.134-0.796 0.168-0.092 0.018-0.326 0.070-0.522 0.116-0.204 0.046-0.452 0.098-0.564 0.116s-0.214 0.040-0.232 0.052c-0.018 0.012-0.134 0.040-0.25 0.058-0.122 0.018-0.342 0.064-0.494 0.098-0.156 0.034-0.32 0.070-0.366 0.082s-0.204 0.046-0.348 0.082c-0.146 0.030-0.326 0.070-0.406 0.088-0.354 0.064-1.092 0.22-1.278 0.268-0.11 0.030-0.268 0.064-0.348 0.082-0.128 0.024-1.162 0.244-1.394 0.296-0.046 0.012-0.308 0.064-0.574 0.116-0.522 0.11-0.528 0.11-1.544-0.18-0.342-0.098-2.852-0.772-3.774-1.010-0.348-0.092-1.028-0.278-1.51-0.406-0.476-0.134-0.912-0.25-0.958-0.262-0.046-0.006-0.686-0.18-1.416-0.378-0.726-0.198-1.37-0.366-1.422-0.378s-0.876-0.238-1.836-0.494c-0.958-0.262-1.782-0.482-1.83-0.494-0.076-0.018-1.12-0.296-3.048-0.812-0.32-0.088-0.644-0.168-0.72-0.186-0.076-0.012-0.18-0.046-0.232-0.070-0.052-0.030-0.186-0.064-0.296-0.088-0.11-0.018-0.33-0.076-0.494-0.122-0.156-0.046-0.696-0.204-1.19-0.342-4.030-1.15-6.66-2.142-8.008-3.038-0.272-0.18-0.696-0.528-0.936-0.772-0.692-0.696-1.004-1.4-1.004-2.242 0-0.4 0.024-0.528 0.15-0.784 0.186-0.372 0.272-0.476 0.622-0.754 0.296-0.244 0.708-0.458 1.132-0.592 0.83-0.272 0.088-0.262 19.32-0.268 12.346-0.006 18.152-0.024 18.256-0.064 0.186-0.070 0.146-0.046 2.666-1.91 1.056-0.778 2.166-1.602 2.468-1.83 0.604-0.442 2.276-1.684 3.6-2.666 0.464-0.348 0.906-0.674 0.982-0.726 0.070-0.052 0.192-0.146 0.262-0.198 1.818-1.376 2.898-2.132 3.066-2.148 0.146-0.012 5.976-0.006 6.596 0.006zM30.084 17.802c0.372 0.046 0.988 0.134 1.278 0.18 0.18 0.030 1.434 0.348 1.888 0.476l0.174 0.046v4.698h-8.112c-5.552 0.006-8.094-0.018-8.066-0.058 0.256-0.342 0.83-1.016 1.172-1.364 2.352-2.398 5.256-3.722 8.734-3.984 0.29-0.018 0.528-0.046 0.54-0.052 0.034-0.030 2.096 0.018 2.392 0.058zM35.606 19.556c0.046 0.040 0.11 0.076 0.134 0.076 0.098 0 1.284 0.836 1.928 1.364 0.564 0.458 2.196 2.154 2.108 2.184-0.012 0.006-1.046 0.012-2.3 0.018l-2.27 0.012-0.006-1.934v-1.928l0.156 0.064c0.088 0.040 0.198 0.104 0.25 0.146zM9.3 38.312c0.268 0.104 0.436 0.406 0.452 0.808 0.030 0.616-0.278 0.952-0.86 0.952-0.76 0-1.138-0.494-0.936-1.232 0.082-0.29 0.22-0.442 0.494-0.54 0.278-0.098 0.564-0.092 0.848 0.012zM35.026 40.664c0.006 1.306-0.006 2.852-0.024 2.874-0.018 0.012-2.73-2.672-2.886-2.858-0.034-0.040-0.006-0.064 0.104-0.076 0.088-0.006 0.72-0.14 1.406-0.296s1.284-0.29 1.324-0.29c0.052-0.006 0.070 0.162 0.076 0.644zM36.454 46.778c0.302 0.204 0.436 0.93 0.25 1.348-0.146 0.326-0.424 0.448-0.912 0.406-0.592-0.046-0.836-0.302-0.836-0.876 0-0.58 0.25-0.924 0.732-1.010 0.314-0.052 0.54-0.012 0.766 0.134zM51.482 20.816c-0.232 0.104-0.354 0.25-0.424 0.51-0.116 0.424 0.024 0.854 0.33 1.046l0.208 0.134h3.28c2.614 0 3.322-0.018 3.466-0.082 0.272-0.11 0.43-0.4 0.43-0.772 0-0.378-0.064-0.552-0.268-0.744l-0.156-0.146-3.344-0.012c-2.7-0.012-3.386 0-3.524 0.064z"></path>
</svg>
