<!-- Generated by IcoMoon.io -->
<svg version="1.1" xmlns="http://www.w3.org/2000/svg" width="64" height="64" viewBox="0 0 64 64">
<path d="M45.843 11.209h-10.048v17.561h3.711zM29.188 33.748l4.798 14.302 22.72-5.884-9.595-29.238-6.246 17.018q-0.181 0.634-0.815 0.634h-5.16q-0.905 0-0.905-0.905v-18.466h-8.78l-1.991 8.961q-0.181 0.724-0.905 0.724h-9.867l-6.608 6.608q1.81 5.612 9.052 5.612h13.487q0.634 0 0.815 0.634zM25.658 17.636q0-1.358 0.905-2.218t2.172-0.86 2.127 0.86 0.86 2.218q0 1.177-0.86 2.082t-2.127 0.905-2.172-0.905-0.905-2.082zM29.912 17.636q0-1.267-1.177-1.267-1.267 0-1.267 1.267 0 0.453 0.407 0.815t0.86 0.362q1.177 0 1.177-1.177zM35.162 54.568q-0.905 0.181-1.086-0.634l-6.246-19.009h-12.944q-6.155 0-8.645-3.032t-2.489-6.291v-5.612q0-0.905 0.905-0.905h16.927l1.991-8.961q0.181-0.724 0.905-0.724h22.63q0.634 0 0.815 0.634l12.22 37.023q0.362 0.815-0.543 1.177zM9.907 20.895h-4.345v4.345zM35.434 52.576l22.811-5.974-0.905-2.716-22.811 5.974z"></path>
</svg>
