<!-- Generated by IcoMoon.io -->
<svg version="1.1" xmlns="http://www.w3.org/2000/svg" width="64" height="64" viewBox="0 0 64 64">
<path fill="#000" d="M29.188 33.748l4.798 14.302 22.72-5.884-9.595-29.238-0.632-1.719c-0.395 0-2.424 0-2.847 0h-3.877c-0.603 0-1.914 0-3.534 0h-11.016l-1.991 8.961c-0.121 0.483-0.422 0.724-0.905 0.724h-9.867l-6.608 6.608c1.207 3.741 4.224 5.612 9.052 5.612h13.487c0.423 0 0.694 0.211 0.815 0.634zM25.658 17.636c0-0.905 0.302-1.645 0.905-2.218s1.327-0.86 2.172-0.86 1.554 0.287 2.127 0.86c0.573 0.573 0.86 1.313 0.86 2.218 0 0.785-0.287 1.479-0.86 2.082s-1.282 0.905-2.127 0.905-1.569-0.302-2.172-0.905c-0.603-0.603-0.905-1.297-0.905-2.082zM29.912 17.636c0-0.845-0.392-1.267-1.177-1.267-0.845 0-1.267 0.422-1.267 1.267 0 0.302 0.136 0.574 0.407 0.815s0.558 0.362 0.86 0.362c0.785 0 1.177-0.392 1.177-1.177zM35.162 54.568c-0.603 0.121-0.965-0.091-1.086-0.634l-6.246-19.009h-12.944c-4.103 0-6.985-1.011-8.645-3.032s-2.49-4.118-2.489-6.291v-5.612c0-0.603 0.302-0.905 0.905-0.905h16.927l1.991-8.961c0.121-0.483 0.422-0.724 0.905-0.724h22.63c0.423 0 0.694 0.211 0.815 0.634l12.22 37.023c0.241 0.543 0.060 0.936-0.543 1.177l-24.44 6.334zM9.907 20.895h-4.345v4.345l4.345-4.345zM35.434 52.576l22.811-5.974-0.905-2.716-22.811 5.974 0.905 2.716z"></path>
<path fill="#eee" opacity="0.25" d="M35.434 52.576l22.811-5.974-0.905-2.716-22.811 5.974 0.905 2.716z"></path>
<path fill="none" stroke="#000" stroke-width="1.7669" stroke-miterlimit="4" stroke-linecap="butt" stroke-linejoin="miter" d="M46.956 10.307c0.001 0.007 0.002 0.019 0.001 0.036-0.001 0.032-0.007 0.071-0.017 0.114s-0.022 0.077-0.030 0.1c-0.004 0.010-0.007 0.017-0.008 0.020l-0.014 0.031-0.015 0.042-0.712 1.999-6.264 17.073h-5.127c-0.007 0-0.015-0-0.021-0-0-0.007-0-0.014-0-0.021v-19.392h12.208zM46.907 10.567l-0.001 0.001c0-0 0-0.001 0-0.001l0-0z"></path>
</svg>
