<!-- Generated by IcoMoon.io -->
<svg version="1.1" xmlns="http://www.w3.org/2000/svg" width="64" height="64" viewBox="0 0 64 64">
<path d="M44.732 12.14v6.879c-2.931 0-4.366-0.418-4.905 1.136-0.358 1.077-0.718 6.101 1.196 6.101h3.649v16.511c0 3.59 1.077 6.999 3.53 8.794 3.59 2.573 11.844 2.093 13.040-0.060 0.599-1.077 0.897-6.4-0.539-6.4-1.077 0-0.539 0.718-4.068 0.718-2.812 0-3.17-2.931-3.17-5.743v-13.818h6.879c1.616 0 1.375-3.349 1.375-4.666 0-1.196-0.299-2.573-1.495-2.573h-6.76v-6.999c0-1.735-4.306-1.375-5.862-1.375-1.256 0-2.931 0.239-2.931 1.496zM21.461 12.021v7.357h-4.547c-1.017 0-0.957 2.213-0.957 2.931 0 2.573 1.855 1.974 5.504 1.974v17.766c0 4.486 0.659 8.255 4.247 10.229 2.752 1.496 9.87 1.256 10.648-0.838 0.299-0.838 0.599-4.127-0.539-4.127-1.017 0-8.435 4.247-8.435-5.264v-17.766h7.598c2.273 0 1.735-3.349 1.496-4.068-0.179-0.479-0.479-0.838-1.017-0.838h-8.075v-7.598c0-1.196-3.051-0.957-3.948-0.957s-1.974 0.299-1.974 1.196zM1.961 48.031c0 3.649 0 4.905 4.187 4.905 2.752 0 3.409-1.496 3.409-4.068 0-1.196-0.239-2.513-0.718-3.17-0.778-1.017-6.879-2.392-6.879 2.332z"></path>
</svg>
