<!-- Generated by IcoMoon.io -->
<svg version="1.1" xmlns="http://www.w3.org/2000/svg" width="64" height="64" viewBox="0 0 64 64">
<path d="M37.802 36.364c-0.36 0.222-0.348-0.072-0.348 7.24 0 6.066 0.012 6.708 0.096 6.894 0.27 0.564 1.342 0.558 1.612-0.012 0.102-0.216 0.108-0.588 0.108-6.882 0-4.982-0.018-6.714-0.072-6.87-0.108-0.324-0.324-0.444-0.816-0.462-0.312-0.012-0.462 0.012-0.582 0.090l0.002 0.002z"></path>
<path d="M31.526 39.978c-0.144 0.066-0.282 0.18-0.348 0.306-0.102 0.186-0.108 0.642-0.108 8.638-0.006 7.948 0 8.458 0.102 8.68 0.252 0.564 1.324 0.576 1.606 0.018 0.078-0.15 0.090-1.24 0.090-8.686 0-8.026-0.006-8.524-0.108-8.68-0.222-0.336-0.804-0.468-1.234-0.276z"></path>
<path d="M24.448 36.268c-0.36 0.060-0.66 0.372-0.666 0.69 0 0.126-0.006 3.182-0.006 6.792-0.006 7.29-0.030 6.834 0.39 7.056 0.264 0.138 0.804 0.132 1.050-0.012 0.396-0.234 0.372 0.192 0.372-7.222 0-7.164 0.012-6.882-0.282-7.146-0.156-0.144-0.54-0.216-0.858-0.156v-0.002z"></path>
<path d="M31.682 5.968c-0.006 0-0.15 0.024-0.324 0.042-0.486 0.048-1.204 0.318-1.642 0.612-0.408 0.27-0.976 0.84-1.174 1.162-0.084 0.15-0.144 0.18-0.348 0.186-1.168 0.018-2.38 0.348-3.596 0.982-1.462 0.756-1.966 1.186-3.542 2.972-0.264 0.294-0.318 0.33-0.534 0.33-0.27 0-1.282 0.078-1.558 0.114-0.096 0.012-0.396 0.054-0.66 0.090-0.732 0.102-0.786 0.114-1.588 0.276-2.308 0.474-5.526 1.444-8.542 2.572-1.84 0.684-2.788 1.090-4.136 1.774-1.774 0.894-2.848 1.684-2.848 2.092 0 0.306 0.15 0.564 0.606 1.042 0.804 0.852 1.87 1.534 3.488 2.248 0.756 0.336 3.206 1.062 4.154 1.222 0.096 0.018 0.324 0.060 0.504 0.096s0.414 0.078 0.51 0.096c0.102 0.018 0.246 0.042 0.33 0.060 0.306 0.060 1.78 0.264 2.158 0.306 0.294 0.024 0.414 0.066 0.492 0.168 0.060 0.066 0.108 0.144 0.108 0.174 0 0.072 0.54 0.828 0.936 1.3 1.264 1.522 4.364 4.022 5.814 4.682 0.342 0.156 0.846 0.306 1.252 0.378 0.102 0.018 0.234 0.042 0.306 0.060 0.072 0.012 0.27 0.042 0.45 0.066 1.216 0.156 1.498 0.18 3.53 0.3 3.052 0.18 10.49 0.144 13.456-0.060 1.618-0.114 1.78-0.132 2.698-0.264 0.234-0.036 0.486-0.078 0.57-0.096s0.216-0.042 0.294-0.060c0.714-0.138 1.324-0.432 2.32-1.104 1.504-1.008 2.986-2.266 4.118-3.482 0.486-0.522 0.81-0.936 1.258-1.612 0.282-0.42 0.366-0.51 0.504-0.516 0.156-0.012 0.576-0.066 0.918-0.12 0.084-0.012 0.27-0.036 0.42-0.054s0.324-0.042 0.39-0.060c0.066-0.012 0.24-0.042 0.39-0.066 4.1-0.624 7.234-1.894 8.986-3.632 0.582-0.576 0.738-1.030 0.48-1.396-0.132-0.192-0.606-0.576-0.708-0.576-0.030 0-0.066-0.024-0.078-0.048-0.036-0.084-1.21-0.756-2.086-1.186-2.326-1.144-5.79-2.446-9.232-3.464-0.498-0.144-1.816-0.504-2.026-0.546-0.054-0.012-0.222-0.048-0.372-0.084-0.15-0.030-0.336-0.072-0.42-0.090-0.084-0.012-0.27-0.054-0.42-0.090-0.348-0.078-1.558-0.288-1.948-0.33-0.162-0.024-0.396-0.054-0.51-0.066-0.114-0.018-0.522-0.048-0.9-0.066l-0.69-0.036-0.45-0.462c-0.246-0.252-0.72-0.75-1.048-1.108-0.654-0.708-1.228-1.126-2.23-1.642-1.068-0.546-2.164-0.906-3.082-1.002-0.18-0.018-0.378-0.048-0.444-0.060s-0.192-0.024-0.276-0.024c-0.12-0.006-0.216-0.096-0.438-0.426-0.726-1.062-1.732-1.546-3.26-1.582-0.18 0-0.324 0-0.33 0.006v0.002zM32.976 8.018c0.438 0.21 0.84 0.606 1.12 1.108 0.216 0.378 0.486 0.63 0.678 0.642 0.072 0.006 0.294 0.012 0.492 0.024 1.948 0.084 2.59 0.288 3.944 1.246 0.714 0.498 1.042 0.792 2.020 1.786 0.888 0.9 1.216 1.198 1.348 1.216 0.102 0.018 0.504 0.048 0.9 0.066s0.804 0.042 0.9 0.060c0.102 0.012 0.408 0.054 0.69 0.090 0.282 0.030 0.576 0.072 0.66 0.090s0.234 0.048 0.33 0.060c0.192 0.036 0.738 0.138 0.99 0.186 2.038 0.402 6.018 1.606 8.452 2.56 1.174 0.456 2.698 1.126 2.698 1.18 0 0.018-11.814 0.030-26.254 0.030s-26.254-0.006-26.254-0.012c0-0.066 2.518-1.12 3.716-1.558 1.93-0.702 5.448-1.768 6.702-2.026 2.014-0.414 1.846-0.384 2.71-0.504 0.804-0.108 0.96-0.126 1.702-0.156 0.396-0.024 0.792-0.048 0.876-0.066 0.096-0.018 0.576-0.462 1.288-1.186 1.138-1.156 2.086-1.93 2.974-2.422 0.678-0.384 1.618-0.588 2.884-0.63 0.888-0.036 1.020-0.102 1.318-0.684 0.18-0.36 0.618-0.834 0.93-1.020 0.642-0.372 1.516-0.408 2.194-0.084l-0.008 0.004zM59.214 20.258c-0.21 0.138-1.030 0.534-1.534 0.732-0.51 0.204-2.068 0.678-2.416 0.744-0.084 0.012-0.384 0.078-0.666 0.138-0.654 0.144-2.176 0.396-3.058 0.51-0.426 0.054-0.828 0.108-0.918 0.126-0.060 0.012-0.276 0.036-0.48 0.054s-0.438 0.048-0.522 0.060c-0.084 0.012-0.324 0.036-0.54 0.060-0.216 0.018-0.456 0.048-0.54 0.060-0.144 0.024-0.702 0.066-1.468 0.12-0.198 0.012-0.6 0.042-0.9 0.060-1.864 0.126-5.736 0.174-14.296 0.174-8.536 0-12.18-0.048-14.146-0.174-1.33-0.084-1.81-0.126-2.278-0.18-0.114-0.018-0.366-0.042-0.558-0.060s-0.432-0.042-0.54-0.060c-0.108-0.012-0.342-0.042-0.522-0.060s-0.408-0.042-0.51-0.060c-0.096-0.012-0.312-0.042-0.48-0.060-0.162-0.018-0.582-0.078-0.93-0.126-0.348-0.054-0.696-0.102-0.78-0.114s-0.246-0.036-0.36-0.060c-0.114-0.018-0.288-0.048-0.39-0.066-0.096-0.018-0.366-0.066-0.6-0.114-0.228-0.048-0.486-0.096-0.57-0.114-0.084-0.012-0.48-0.108-0.882-0.21-1.348-0.342-2.602-0.804-3.344-1.234l-0.36-0.204 27.334-0.006c18.726 0 27.304 0.024 27.244 0.066l0.010-0.002zM16.266 24.538c1.408 0.126 2.896 0.198 4.142 0.204l0.612 0.006v0.342c0 0.768 0.498 2.050 1.414 3.644 0.15 0.264 0.276 0.504 0.276 0.534 0 0.024-0.102 0.030-0.222 0.006-0.126-0.024-0.306-0.054-0.408-0.072-0.63-0.096-1.002-0.228-1.528-0.54-1.24-0.738-2.392-1.594-3.362-2.518-0.78-0.744-1.738-1.852-1.444-1.678 0.024 0.018 0.258 0.048 0.522 0.072h-0.002zM48.4 24.574c-0.372 0.534-1.672 1.828-2.464 2.458-0.72 0.57-1.666 1.252-1.738 1.252-0.012 0-0.126 0.072-0.252 0.156-0.708 0.48-1.234 0.666-2.386 0.834-0.132 0.018-0.39 0.060-0.57 0.090-0.606 0.102-0.78 0.12-0.78 0.090 0-0.012 0.084-0.168 0.186-0.342 0.372-0.624 0.9-1.756 1.156-2.488 0.18-0.51 0.324-1.054 0.426-1.57 0.030-0.186 0.066-0.21 0.258-0.222 0.090-0.006 0.594-0.024 1.12-0.048s1.15-0.054 1.378-0.066c0.994-0.054 1.702-0.096 2.038-0.12 0.198-0.012 0.642-0.042 0.99-0.066 0.348-0.018 0.642-0.048 0.654-0.060 0.072-0.066 0.060-0.006-0.018 0.102h0.002zM27.078 24.908c2.164 0.018 3.944 0.054 3.962 0.078 0.018 0.030 0.030 1.084 0.030 2.35l-0.006 2.296-1.822-0.006c-1.594 0-3.224-0.048-3.896-0.114-0.168-0.012-0.27-0.084-0.498-0.336-0.696-0.774-1.672-2.758-1.9-3.848-0.078-0.396-0.048-0.552 0.102-0.498 0.054 0.024 1.87 0.054 4.028 0.078zM40.14 24.944c0.054 0.282-0.372 1.702-0.732 2.434-0.324 0.648-0.87 1.498-1.15 1.786-0.042 0.042-0.132 0.15-0.198 0.234-0.072 0.090-0.198 0.174-0.294 0.186-0.090 0.012-1.222 0.036-2.512 0.060l-2.356 0.036v-4.754h1.636c1.996-0.006 5.334-0.060 5.364-0.084 0.054-0.060 0.222 0.018 0.24 0.102h0.002z"></path>
</svg>
